<svg id="Layer_1" data-name="Layer 1" xmlns="http://www.w3.org/2000/svg" xmlns:xlink="http://www.w3.org/1999/xlink" viewBox="0 0 1000 1000"><defs><style>.cls-1,.cls-14{fill:#757575;}.cls-1,.cls-13,.cls-19,.cls-21{stroke:#1a2e35;}.cls-1,.cls-11,.cls-13,.cls-19,.cls-22{stroke-linecap:round;stroke-linejoin:round;}.cls-2{fill:#5ae4a7;}.cls-3{fill:#ccecff;}.cls-11,.cls-19,.cls-22,.cls-4{fill:none;}.cls-4,.cls-5,.cls-6{stroke:#2f346d;}.cls-21,.cls-4,.cls-5,.cls-6{stroke-miterlimit:10;}.cls-5,.cls-7{fill:#fff;}.cls-6,.cls-9{fill:#0f89c1;}.cls-7{opacity:0.5;}.cls-18,.cls-8{fill-opacity:0.7;}.cls-8{opacity:0.1;}.cls-10{fill:#005a88;}.cls-11,.cls-22{stroke:#fff;}.cls-12,.cls-21{fill:#ffc5ac;}.cls-13{fill:#999;}.cls-15{clip-path:url(#clip-path);}.cls-16,.cls-22{opacity:0.3;}.cls-17{fill:#d7f0fc;}.cls-18{opacity:0.2;}.cls-20{fill:#1a2e35;}.cls-23{clip-path:url(#clip-path-2);}.cls-24{clip-path:url(#clip-path-3);}.cls-25{clip-path:url(#clip-path-4);}</style><clipPath id="clip-path"><path id="_Clipping_Path_" data-name="&lt;Clipping Path&gt;" class="cls-1" d="M290.16,731s-45.82-53.42-54.18-71.9c0,0-31.57-1-35.79,26.66s0,55.78,0,55.78,31.1,84.9,44,117.05Z"/></clipPath><clipPath id="clip-path-2"><path id="_Clipping_Path_2" data-name="&lt;Clipping Path&gt;" class="cls-1" d="M290.16,725.29s41.23-29,116.27,1.49l56.3-13.13s36.41,98.87,14.57,200.22c0,0-48.86,35.06-130.63,34.86C258,948.52,236,913.87,236,913.87l12.7-32.35c-7.65-36.93-17.55-96.17-10-126.82C250.15,708.12,290.16,725.29,290.16,725.29Z"/></clipPath><clipPath id="clip-path-3"><path id="_Clipping_Path_3" data-name="&lt;Clipping Path&gt;" class="cls-1" d="M462.73,713.65s-7,42.49,1.35,96.31,21.52,53.29,21.52,53.29,75-92.69,95-130.15c0,0-4.75-53.82-25.86-65.23Z"/></clipPath><clipPath id="clip-path-4"><path id="_Clipping_Path_4" data-name="&lt;Clipping Path&gt;" class="cls-1" d="M406.43,726.79S375.38,704,334.22,699.21s-40.1,19.47-40.1,19.47-5.8,2.17-4,9S347.73,741.12,406.43,726.79Z"/></clipPath></defs><title>aset-sigesit</title><path class="cls-2" d="M236,913.87c52.91,55.85,182.8,35.4,239.05,0C657.65,799,977.75,607.71,992.24,330.63,998.4,212.86,894.55,151,851.16,132.87,747,89.3,632.64,76.23,519.8,71.18,402,65.91,275.53,70,169.39,127.51c-40.2,21.78-78.13,49.71-104.1,87.84-26.38,38.73-41.55,84.86-45.57,131.42C13.23,421.88,33.43,497.18,64,566.1s71.3,132.72,108.7,198.17C197.08,807,191.41,866.81,236,913.87Z"/><path class="cls-3" d="M236,913.87c52.91,55.85,182.8,35.4,239.05,0C657.65,799,977.75,607.71,992.24,330.63,998.4,212.86,894.55,151,851.16,132.87,747,89.3,632.64,76.23,519.8,71.18,402,65.91,275.53,70,169.39,127.51c-40.2,21.78-78.13,49.71-104.1,87.84-26.38,38.73-41.55,84.86-45.57,131.42C13.23,421.88,33.43,497.18,64,566.1s71.3,132.72,108.7,198.17C197.08,807,191.41,866.81,236,913.87Z"/><path class="cls-4" d="M697.11,780c.64-193.6.64-457.88,0-650.18"/><path class="cls-4" d="M733.12,119c.51,214.05.51,402.36,0,616.35"/><path id="_Path_" data-name="&lt;Path&gt;" class="cls-4" d="M697.11,132.95V54.47s6.43-3.21,18-3.21c12.67,0,18,3.21,18,3.21v70.47"/><line class="cls-4" x1="418.12" y1="161.54" x2="418.12" y2="925.88"/><path class="cls-4" d="M208.21,103.43c70.33,16.66,139.82,41.32,209.91,58.11"/><path class="cls-4" d="M126.57,146.46c95.93,23,194.57,47.61,291.55,72.18"/><path class="cls-4" d="M63.81,198.39c116.09,27.06,234.9,51.72,354.31,77.34"/><path class="cls-4" d="M28,259.08q194.3,37,390.17,73.74"/><line class="cls-4" x1="0.57" y1="323.22" x2="418.12" y2="389.91"/><line class="cls-4" x1="0.57" y1="392.54" x2="418.12" y2="447.01"/><path class="cls-4" d="M10.29,462.85c136,11.44,270.49,29.37,407.83,41.25"/><path class="cls-4" d="M29.57,533.27c105.5,8.27,210.86,12.76,318.47,24,22.42,0,47.08,0,70.09,4"/><path class="cls-4" d="M55.69,602.85c122,5.94,240.78,12.67,362.43,15.43"/><path class="cls-4" d="M88.33,671c109.5.57,219.35,2.82,329.79,4.38"/><path class="cls-4" d="M126.38,737.13c96.11-.56,194.75-2.8,291.74-4.67"/><path class="cls-4" d="M159.67,801.26c85.25-4.16,172.68-8.64,258.46-11.7"/><line class="cls-4" x1="391.73" y1="190.06" x2="391.73" y2="855.02"/><line class="cls-4" x1="266.23" y1="132.49" x2="266.23" y2="545.61"/><line class="cls-4" x1="123.43" y1="188.23" x2="123.43" y2="644.8"/><polyline class="cls-4" points="983.85 204.74 764.54 230.06 764.54 744.18"/><polyline class="cls-4" points="999.43 270.75 793.68 287.82 793.68 698.58"/><line class="cls-4" x1="999.43" y1="370.94" x2="799.63" y2="385.19"/><line class="cls-4" x1="969.87" y1="458.04" x2="805.51" y2="468.74"/><line class="cls-4" x1="874.19" y1="296.54" x2="874.19" y2="611.87"/><path class="cls-4" d="M210.7,876.6A141.52,141.52,0,0,0,236,913.87c52.91,55.85,185.05,35.4,241.31,0,18.49-11.63,36.14-24.06,57-37.27"/><path class="cls-5" d="M737.89,497.06,717.3,577.35l35.89,208.88-.28.06-.86.18c-15.27,3.34-179.72,39.11-187.77,38.45-8.44-.7-140.58-21-140.58-21L306.77,817.55,213,776.2l-86.67,15.29L101.66,485.55S120,335.92,111.54,295.64c0,0,144.32,20.71,157.64,22.15s168.46-47.6,168.46-47.6l130.95,43.38,109.68-13.86,162.32,76S735.25,480.69,737.89,497.06Z"/><path class="cls-6" d="M128.43,308.75l140.75,19.82,166.35-40.93,133,37.24L673,313.57l144.58,62.12s-82.32,102-85.48,108.52-29.55,93.14-29.55,93.14l34.83,198.84L568.58,813.34l-142-22.72-112.52,9.92-95.66-41.05L139,776.19,113.2,490.12S136.88,373.72,128.43,308.75Z"/><path class="cls-5" d="M618.91,415.59l22.71-5.52,110.74,47.32c5.44-6.92,11.56-14.67,17.83-22.55L650.24,384.1l-25.29,7.08,15.85-74.13-21,2.28L600.6,398l-62.14,17.39L418.87,425.79,371.1,449.52l2.32-70L431.84,352l68.06,13.12,11.58-56.26-20.67-5.78L484.28,344l-52.44-11.2-57.72,26L376,302.29l-27.89,6.86V460.94l-70.87,35.19V326.59l-8.06,2-17.69-2.5,3,58h-48L129.79,324c.5,8.66.56,17.87.34,27.37l68.18,57.06H255.8l2.28,43.28L256,469.49,114.6,505.64l.74,8.16,139.53-35.17-3.3,28L117.67,539.65l2.48,27.49L191,548.38l6.6,84.57-65.3,69.17,2.56,28.31,23-24.39,5.1,65.1,6.58-1.38-4.48-71.35,47.74-50.5L236,642l91.39-29.47-2,13.26L274.56,783.58,294.09,792l26.69-86.09,39.35-7.3,79.11,34.21,36.69,2.36-6.24,62.38,9.78,1.56,4.26-63.46,92.05,5.88,66.52-9.56,8.48,63.3,17.11-3.76-8.16-62,67.72-9.74-3.4-19.37L579.93,719.46l-58.22-5.12L530,636l50.64-27.67h15.79L710,619.8l-4-23L599.62,586.75H574.83l12.46-74.93ZM242.33,615.32l-38.55,11.42-5.1-80.41,59.4-15.73,88.59-45.74L332,581.81Zm125,61.26-40,7.94,16.55-53.4L369,473.33l50.52-26.07,19.61,79.53-7.32,66.3-22,100.52Zm183.15-72.85L515.73,620.2l-12.8,92.49-58.18-5.1-20.07-8,22.47-99.84,8.44-69.11h40.15l67-11.28Zm15.57-100.46L498.84,517.1H444.72l-16.29-71.17L534,436.21l59.58-14.47Z"/><polygon class="cls-7" points="593.56 567.33 599.64 519.33 677.2 536.37 670.87 577.35 593.56 567.33"/><polygon class="cls-7" points="641.62 517.1 657.41 473.05 715.84 495.07 702.44 540.64 641.62 517.1"/><polygon class="cls-7" points="628.92 421.75 635.38 421.75 659.79 432.78 635.38 506.84 612.49 499.99 605.18 498.37 628.92 421.75"/><polygon class="cls-7" points="677.2 441.39 734.19 464.3 724.69 480.7 670.87 464.3 677.2 441.39"/><polygon class="cls-7" points="641.62 375.69 652.67 324.88 670.87 321.98 697.78 332.78 678.73 385.19 653.03 375.69 641.62 375.69"/><polygon class="cls-7" points="690.66 390.68 702.53 361.44 782.47 397.85 766.64 421.75 690.66 390.68"/><polygon class="cls-7" points="520.31 321.98 562.75 334.28 549.85 401.81 543.7 401.81 506.24 401.81 520.31 321.98"/><polygon class="cls-7" points="573.52 336.12 605.18 330.76 593.56 390.68 562.75 398.64 573.52 336.12"/><polygon class="cls-7" points="497.53 375.69 493.71 404.98 424.68 408.14 383.18 429.51 383.18 390.68 433.42 364.7 497.53 375.69"/><polygon class="cls-7" points="386.19 308.75 436.06 295.65 432.2 324.88 383.28 343.99 386.19 308.75"/><polygon class="cls-7" points="442.39 324.88 478.54 332.78 484.28 306.04 446.88 299.7 442.39 324.88"/><polygon class="cls-7" points="286.2 332.78 286.2 375.69 338.44 361.44 338.44 321.98 286.2 332.78"/><polygon class="cls-7" points="289.8 391.6 289.8 476.39 318.65 464.3 314.09 412.1 338.44 404.98 338.44 375.69 289.8 391.6"/><polygon class="cls-7" points="202.31 418.43 206.26 473.05 244.24 464.3 250.34 447.26 250.34 418.43 202.31 418.43"/><path class="cls-7" d="M140.57,375.69l50.11,38.78v26.91l-56.44,4.35S141.36,398.65,140.57,375.69Z"/><polygon class="cls-7" points="134.24 456.43 185.87 451.68 185.87 477.71 125.15 494.29 134.24 456.43"/><polygon class="cls-7" points="202.31 330.76 202.31 367.78 244.24 370.94 242.51 332.78 202.31 330.76"/><polygon class="cls-7" points="377.83 480.7 413.85 463.9 424.68 525.31 370.63 534.81 377.83 480.7"/><polygon class="cls-7" points="386.19 544.15 383.28 586.23 420.76 582.27 420.76 534.81 386.19 544.15"/><polygon class="cls-7" points="493.71 451.68 488.83 506.84 509.2 506.84 554.52 499.36 580.64 432.78 530.88 447.26 493.71 451.68"/><polygon class="cls-7" points="442.39 454.84 442.39 469.81 480.12 468.74 480.12 451.68 442.39 454.84"/><polygon class="cls-7" points="497.53 550.66 493.71 594.94 543.44 586.23 549.85 534.81 497.53 550.66"/><polygon class="cls-7" points="454 608.29 488.83 610.77 480.12 699.62 446.71 698.58 434.21 694.08 454 608.29"/><polygon class="cls-7" points="465.38 544.15 488.83 547.56 484.28 577.35 461.26 577.35 465.38 544.15"/><polygon class="cls-7" points="652.67 626.74 697.78 631.13 708.07 685.48 652.67 686.6 652.67 626.74"/><polygon class="cls-7" points="549.85 644.8 593.56 641.28 599.64 704.95 542.65 704.95 549.85 644.8"/><polygon class="cls-7" points="670.87 741.5 677.2 770.59 708.07 765.55 702.53 735.3 670.87 741.5"/><polygon class="cls-7" points="571.14 752.95 632.48 745.48 635.38 779.36 568.59 795.92 530.78 791.48 543.97 749.81 571.14 752.95"/><polygon class="cls-7" points="253.75 653.96 303.62 644.8 300.27 679.23 286.2 712.81 250.34 722.37 253.75 653.96"/><polygon class="cls-7" points="210.22 555.81 210.22 583.06 248.64 577.35 269.18 569.44 268.14 534.81 254.14 544.15 210.22 555.81"/><polygon class="cls-7" points="130.28 577.35 180.94 564.88 185.87 617.24 137.4 626.74 130.28 577.35"/><polygon class="cls-7" points="133.81 670.39 162.73 644.8 170.25 651.75 140.34 680.47 133.81 670.39"/><polygon class="cls-7" points="141.36 741.5 155.51 738.14 158.07 766.69 144.05 768.72 141.36 741.5"/><polygon class="cls-7" points="178.56 758.8 175.85 708.91 210.22 704.95 210.22 754.23 178.56 758.8"/><circle class="cls-7" cx="395.21" cy="625.45" r="19.35"/><path class="cls-8" d="M737.89,497.06,717.3,577.35l35.89,208.88-.28.06-.86.18L564.29,824.92,613.08,496l65.18-196.29,162.32,76S735.25,480.69,737.89,497.06Z"/><polygon class="cls-8" points="568.59 313.57 518.91 489.67 475.63 566.16 423.72 803.87 306.77 817.55 392.88 617.24 413.37 467.49 439.34 270.75 568.59 313.57"/><path class="cls-8" d="M268.14,317.67l-3.56,163.56L215.48,777.3,213,776.2l-86.67,15.29L103.6,509.54l135.65-52.48,22.47-140.21Z"/><path class="cls-2" d="M607.33,406.31a3,3,0,0,0-2.9-.81l-68.06,17.57L420.53,431.8a3,3,0,0,0-1.14.32l-152.12,78,2.2-49.39V394.19a3,3,0,0,0-3-3H236a3,3,0,0,0,0,6h27.49v63.42L261,515a3,3,0,0,0,4.37,2.81l156.18-80.1,115.5-8.7a3,3,0,0,0,.53-.09l63.26-16.33L573.62,509a2.71,2.71,0,0,0-.07.33l-4.4,26.61-2.55-.09a.92.92,0,0,0-.9,1.12l3.78,10.52a1.06,1.06,0,0,0,1.87.4l7.09-10.24c.44-.63-.1-1.4-1-1.43l-2.27-.08,4.24-25.67,28.63-101.24A3,3,0,0,0,607.33,406.31Z"/><path class="cls-9" d="M607.33,406.31a3,3,0,0,0-2.9-.81l-68.06,17.57L420.53,431.8a3,3,0,0,0-1.14.32l-152.12,78,2.2-49.39V394.19a3,3,0,0,0-3-3H236a3,3,0,0,0,0,6h27.49v63.42L261,515a3,3,0,0,0,4.37,2.81l156.18-80.1,115.5-8.7a3,3,0,0,0,.53-.09l63.26-16.33L573.62,509a2.71,2.71,0,0,0-.07.33l-4.4,26.61-2.55-.09a.92.92,0,0,0-.9,1.12l3.78,10.52a1.06,1.06,0,0,0,1.87.4l7.09-10.24c.44-.63-.1-1.4-1-1.43l-2.27-.08,4.24-25.67,28.63-101.24A3,3,0,0,0,607.33,406.31Z"/><path class="cls-10" d="M249.49,286.29h0a32.76,32.76,0,0,0-46.33,0h0a32.76,32.76,0,0,0,0,46.33l23.17,23.17,23.17-23.17A32.76,32.76,0,0,0,249.49,286.29ZM235.86,319h0a13.49,13.49,0,1,1,0-19.08h0A13.49,13.49,0,0,1,235.86,319Z"/><path class="cls-11" d="M203.08,323.82a41,41,0,0,0,10.79,13.61"/><path class="cls-11" d="M211,285.94c-11.16,6.74-14.12,19.7-10.45,31.65"/><path class="cls-11" d="M226.32,281.64a29.27,29.27,0,0,0-8.35,1.25"/><path class="cls-10" d="M544.95,494.47h0a32.76,32.76,0,0,0-46.33,0h0a32.76,32.76,0,0,0,0,46.33L521.78,564l23.17-23.17A32.76,32.76,0,0,0,544.95,494.47Zm-13.63,32.7h0a13.49,13.49,0,1,1,0-19.08h0A13.49,13.49,0,0,1,531.32,527.17Z"/><path class="cls-11" d="M498.54,532a41,41,0,0,0,10.79,13.61"/><path class="cls-11" d="M506.51,494.12c-11.16,6.74-14.12,19.7-10.45,31.65"/><path class="cls-11" d="M521.78,489.81a29.27,29.27,0,0,0-8.35,1.25"/><path class="cls-12" d="M737.88,497.05c-2.64,1.06-24.8,3.69-24.8,3.69.53-5.28,11.61-14.77,11.61-20.05s-4.75-4.22-4.75-4.22c-1.06,6.86-18.47,19.52-22.16,21.11s-13.72,35.35-19.15,40.65c-42.58,42.46-82.95,67-98,96.41s-41.16,44.64-41.16,44.64-8.71,112,24.54,62.22,45.12-46.83,61.74-69,49.07-72.79,74.4-115.2c12.93-11,23-5.9,30.87-13.81,1.67-1.67.53-8.44,3.17-12.88s6.86-12.45,6.33-17.2,3.69-7.39,4.22-10S740.52,496,737.88,497.05Z"/><path class="cls-12" d="M227,652.68c-8.63-31.89-43-64.24-75.92-114.59-4.22-6.3-7-41.42-10.33-43.73s-17.7-18.3-17.32-25.23c0,0-4.43-2-5.52,3.15s7.79,16.75,7.21,22c0,0-21.14-7.17-23.5-8.74s-8,2.09-8,4.78,3.55,6.14,2.06,10.68,1,13.25,2.64,18.14-.85,11.28.43,13.25c6.11,9.38,17,6.47,27.34,19.9,16,46.73,37.28,103,49,128.1s23.89,24.74,46.13,80.27,36.88-55.8,36.88-55.8S235.66,684.57,227,652.68Z"/><path class="cls-13" d="M241,667.86s5.74-13.62-5-17.94-24.18,3.46-24.18,3.46-19.79,5-20.58,25.9c0,0-4.45,70.26,12,70.53S241,667.86,241,667.86Z"/><path class="cls-13" d="M549.87,670.31s-.89-11,12.57-9.56S587,681.37,586.18,708.2c0,0,6.16,34.22-10.38,33.3S549.87,670.31,549.87,670.31Z"/><path id="_Clipping_Path_5" data-name="&lt;Clipping Path&gt;" class="cls-14" d="M290.16,731s-45.82-53.42-54.18-71.9c0,0-31.57-1-35.79,26.66s0,55.78,0,55.78,31.1,84.9,44,117.05Z"/><g class="cls-15"><g class="cls-16"><path class="cls-17" d="M274,711.59a58.53,58.53,0,0,0-21.15,7.14c-1.74.94-3.48,2-5.24,3.18a28.71,28.71,0,0,0-4.52,3.78c-6.62,6.66-11.08,16.89-14,28.83a159.58,159.58,0,0,0-3.24,18.75,263.71,263.71,0,0,0-1.52,33.25c-3.8-10.12-7.56-20.25-11-29.39v0a179.46,179.46,0,0,1,3-20.51v0a114.85,114.85,0,0,1,4.42-16c3.6-10,8.6-18.73,15.47-25a37.9,37.9,0,0,1,4.68-3.68c1.74-1.16,3.48-2.24,5.2-3.22A72.41,72.41,0,0,1,265.46,701C268.42,704.71,271.3,708.27,274,711.59Z"/></g><g class="cls-16"><path class="cls-17" d="M256.44,689.45a140.7,140.7,0,0,0-18.13,6.6q-3.06,1.35-6.3,2.94a31.67,31.67,0,0,0-4.4,2.64c-7.46,5.38-12.64,14-16.25,23.93a111.92,111.92,0,0,0-4.28,15.81c-.88,4.44-1.54,8.92-2,13.32L200.2,741.5s-.76-5.1-1.32-13.08c-.06-.8-.12-1.64-.16-2.5a96.45,96.45,0,0,1,4.84-12.42c4.34-9.08,10.22-17,18.13-22.35a40.1,40.1,0,0,1,5-2.92c1.94-1,3.84-1.84,5.68-2.66a155.44,155.44,0,0,1,16.39-6.36C251.17,682.52,253.75,686,256.44,689.45Z"/></g><g class="cls-16"><path class="cls-17" d="M240.17,666.6a66,66,0,0,0-14.73,5.8,76.36,76.36,0,0,0-10.22,6.52,105.75,105.75,0,0,0-16,14.91c.26-2.68.58-5.4,1-8.1,1.24-8.06,4.78-13.71,9.18-17.63a.16.16,0,0,0,.08-.08l.28-.18q3.57-2.55,7.44-4.78c.94-.56,1.9-1.08,2.88-1.6a2.84,2.84,0,0,1,.16.36,42.25,42.25,0,0,1,5.38-1.58A45.89,45.89,0,0,1,236,659.05,68.93,68.93,0,0,0,240.17,666.6Z"/></g><g class="cls-16"><path class="cls-17" d="M267.68,737.48l-8.94,8a218.06,218.06,0,0,1-15.67-19.81c-2.36-3.28-4.62-6.66-6.84-10.06-3-4.62-5.86-9.3-8.62-14q-3.06-5.25-5.92-10.48c-2.26-4.12-4.42-8.22-6.46-12.22q-2.91-5.67-5.48-11.08a0,0,0,0,1,0,0,32.39,32.39,0,0,1,7.46-4.76c.94-.56,1.9-1.08,2.88-1.6a2.84,2.84,0,0,1,.16.36c1.66,3.42,3.4,7,5.22,10.58,2.18,4.3,4.5,8.72,6.94,13.16q2.85,5.22,5.92,10.48c2.5,4.26,5.1,8.5,7.8,12.68q3.27,5.1,6.72,10A209.63,209.63,0,0,0,267.68,737.48Z"/></g><g class="cls-16"><path class="cls-17" d="M256.09,811.65,244.57,815c-3.42-11.66-10.3-26.31-18.75-41.75-3-5.48-6.18-11.06-9.48-16.67v0q-4.53-7.65-9.26-15.23c-2.72-4.38-5.46-8.72-8.2-12.94-.06-.8-.12-1.64-.16-2.5-.34-5.74-.52-12.68-.28-20.17l5.12,7.74c2.56,3.9,5.18,7.94,7.8,12.06,3.14,4.92,6.3,10,9.4,15,2.82,4.62,5.6,9.28,8.3,13.93C241.09,775.26,251.45,795.82,256.09,811.65Z"/></g><path class="cls-18" d="M255.17,828.18l-10.92,30.37c-12.94-32.15-44.06-117-44.06-117s-4.22-28.11,0-55.78c2.62-17.21,15.81-23.33,25.41-25.49.56.1,1.14.24,1.72.38,0,0-25,16-22.25,77.53l24.33,67.32s2.54-23.43,12.28-20C245.87,786.86,251.83,806.29,255.17,828.18Z"/></g><path id="_Clipping_Path_6" data-name="&lt;Clipping Path&gt;" class="cls-19" d="M290.16,731s-45.82-53.42-54.18-71.9c0,0-31.57-1-35.79,26.66s0,55.78,0,55.78,31.1,84.9,44,117.05Z"/><path class="cls-12" d="M388.87,683.24c-.21.94-1.14,1.69-2.68,2.25-2.74,1-7.4,1.33-13.35,1-28.57-1.57-86.56-18.54-100.4-52.3-14.77-36,23.13-83.07,63.7-84.07,23.33-.57,43,27,47.71,59.28C386.14,625,399.39,637.88,388.87,683.24Z"/><path class="cls-19" d="M369.06,631.13s-2.18,3.34-1.58,9.64"/><path class="cls-19" d="M369.3,649.9s4.13,5.6,7.13,3"/><path class="cls-20" d="M386.19,685.48c-2.74,1-7.4,1.33-13.35,1,.59-4.24,1.7-9.15,2.07-11.6,1.16-7.77-2.74-10.21-1.08-10.76s1.5,6.36,4.8,9.89C382.77,678.43,384.83,683.1,386.19,685.48Z"/><path class="cls-12" d="M375,679.58s-5.07,19.49-4.54,29.37,4.1,22.45,4.1,22.45L313,735s9.21-44.34,4.29-59.84,39.35-9.86,39.35-9.86"/><path class="cls-20" d="M367.9,588.08c2.59-8.38,7.17-7.54,7.17-7.54s-3-40.24-20.13-44.52c-11.62-2.9-14.79,14.59-26.84,2-6.76-7.07-19-9.06-27.24-3-4.87,3.58-4.7,8.57-7.95,12.92s-10,4.17-14.9,5.18c-7.63,1.56-15.36,7.23-16.94,15.26-1.29,6.54,6.71,11.71,5.15,17.09-1.87,6.44-7.83,10.33-11.54,15.59-4.51,6.41-4.88,14.74-3.15,22.19,2.57,11.06,8.3,15.38,17.18,21,4.45,2.83,7.12,8,9.87,12.3,9.24,14.53,20.46,25.15,38.08,28.16,35.44,6,51.31-26.66,51.31-26.66s-4-32.42-1.09-36.12,9,8.94,9,8.94C383.14,611.31,367.9,588.08,367.9,588.08Z"/><path class="cls-21" d="M376.12,636c-1.06-3.95-.31-20.22-5.22-18.7-4.3,1.32-2.23,18.06,2.17,29.25s10,11.17,10.12,8-3.57-5.29-4.58-10"/><path class="cls-22" d="M365.37,567.94s2-18.5-10.54-17.85S343,567.94,343,567.94s-10.5-3.54-14.08,2.49.13,18.3.13,18.3-11.23,3.56-8.46,11.08-4.43,8.62-4.43,8.62"/><path class="cls-22" d="M362.52,583.06s-2,16.36-13.65,16.75c0,0-12,36.94-52.84,36.14"/><path class="cls-22" d="M331.25,547.56s-9.43-8.81-20.74-3.41-3.79,20.72-3.79,20.72-11-.67-14.6,7.64,7.08,13.72,7.08,13.72-12.18,6.46-7.08,11.61,0,15.43,0,15.43"/><path class="cls-22" d="M284.16,564.87s-17.09,5.39-13.49,18.19,6.5,12.75,6.5,12.75-12.79,4.41-13.59,13.71,10.29,8.83,10.29,8.83-3.56,9.28,5.54,12.79"/><path id="_Clipping_Path_7" data-name="&lt;Clipping Path&gt;" class="cls-14" d="M290.16,725.29s41.23-29,116.27,1.49l56.3-13.13s36.41,98.87,14.57,200.22c0,0-48.86,35.06-130.63,34.86C258,948.52,236,913.87,236,913.87l12.7-32.35c-7.65-36.93-17.55-96.17-10-126.82C250.15,708.12,290.16,725.29,290.16,725.29Z"/><g class="cls-23"><g class="cls-16"><path class="cls-17" d="M458.65,924.41c-3.42,1.66-7.3,3.42-11.62,5.2q-.54-6.42-1-12.7c-.34-4.3-.66-8.52-.94-12.7q-1.41-19.06-2.4-36.39-.36-6.6-.7-12.92-1.35-26-1.94-47.76-.21-7.05-.36-13.67c-.32-15.41-.4-29-.34-40.87,0-4.66.08-9.06.14-13.18q.18-11.7.52-20.45l12.1-2.82c-.2,5.06-.4,11-.52,17.83h0c-.08,4.18-.16,8.66-.2,13.5-.1,11.28-.06,24.37.2,39.27q.09,6.78.28,14.06.57,22.09,1.88,48.84c.22,4.26.44,8.64.68,13.08q1,17.35,2.34,36.49.45,6.27,1,12.76Q458.14,918.11,458.65,924.41Z"/></g><g class="cls-16"><path class="cls-17" d="M423,722.92c-.88,6.62-1.84,14.55-2.78,23.63q-.66,6.21-1.3,13.14c-1.18,13.18-2.28,28.25-3.08,44.86-.2,4.34-.4,8.8-.54,13.36-.54,14.81-.8,30.69-.64,47.44q.06,6.3.2,12.76.36,18,1.42,37.21c.24,4.14.5,8.3.8,12.52.26,3.84.54,7.72.88,11.62q-5.67,1.56-11.82,2.92c-.3-3.56-.58-7.1-.82-10.62q-.45-6.27-.82-12.42c-.78-12.9-1.28-25.49-1.56-37.67q-.18-6.36-.24-12.56c-.2-16.57,0-32.31.46-47.08q.18-6.66.48-13c.72-16.89,1.78-32.29,2.94-45.9.4-4.48.78-8.76,1.18-12.84.94-9.24,1.88-17.45,2.76-24.45Z"/></g><g class="cls-16"><path class="cls-17" d="M382.84,718.74c-1.2,9.54-2.64,22.35-4.08,37.71q-.54,5.94-1.08,12.36c-1.18,14.25-2.3,30.25-3.14,47.56-.2,4.06-.4,8.2-.56,12.4-.6,14.93-1,30.71-1,47.1q-.06,6.06,0,12.24c.08,13,.36,26.37.92,39.93.16,4.06.34,8.12.56,12.22.12,2.36.26,4.72.4,7.1-3.9.38-7.88.7-12,.92-.12-1.86-.22-3.72-.32-5.56q-.33-6.09-.58-12.12c-.6-14-.92-27.71-1-41.11,0-4.06-.06-8.08,0-12.08,0-16.39.4-32.17,1-47.16.16-4.14.32-8.2.52-12.2.82-17.35,1.9-33.43,3.08-47.8.34-4.22.7-8.3,1.06-12.2,1.58-17.45,3.22-31.79,4.52-42.12C374.9,716.7,378.8,717.62,382.84,718.74Z"/></g><g class="cls-16"><path class="cls-17" d="M340.35,948.66q-6.3-.12-12.14-.52c-.08-.68-.16-1.38-.22-2.08q-.63-5.85-1-12.06c-.94-14-1.24-29.21-1.52-45.46,0-.66,0-1.3,0-2-.06-3.34-.12-6.76-.18-10.22-.28-14.59-.68-30.15-1.6-46.58-.22-4-.46-8.08-.76-12.18q-.6-8.7-1.44-17.67c-1-10.62-1.52-20.27-1.62-29q-.06-6.36.12-12.06c.64-20.45,3.54-35.09,6.66-45.2a122.19,122.19,0,0,1,12.94-.82c-3.22,8.78-6.9,23.65-7.6,46.68-.12,3.78-.16,7.78-.08,12,.1,8.2.58,17.27,1.54,27.25q1,10.17,1.62,19.95.42,6.12.72,12.06c.88,16.61,1.26,32.31,1.52,47,.06,2.9.1,5.76.16,8.58,0,1.16,0,2.32.06,3.46.28,15.77.58,30.53,1.52,44q.39,6.18,1,12C340.11,946.76,340.23,947.72,340.35,948.66Z"/></g><g class="cls-16"><path class="cls-17" d="M300.23,768.25a223.4,223.4,0,0,0-.14,23.41c.38,7.46.54,14.55.54,21.39,0,4.22-.06,8.34-.16,12.4-.36,13.91-1.26,27.09-2.2,40.67-.08,1.22-.16,2.44-.26,3.68q-.42,6.12-.8,12.38c-.72,11.22-1.28,22.91-1.4,35.47q-.06,5,.06,9.78.12,6.87.52,13.06.09,1.86.24,3.66-6.54-1.29-12.24-2.88c-.1-1.8-.2-3.64-.28-5.54q-.3-6.51-.32-13.68c0-1.48,0-3,0-4.52.14-14,.82-26.91,1.6-39.25q.42-6.36.84-12.56c0-.14,0-.3,0-.44,1-14.51,2-28.51,2.24-43.42q.15-6.24.06-12.74c0-5.44-.2-11-.5-16.87a244.21,244.21,0,0,1,.24-26.75c.24-4.1.56-8.18.92-12.22,1-10.48,2.4-20.65,3.9-29.79a78.31,78.31,0,0,1,11.16-4.84l.12,0,.08,0h0q.87-.33,1.8-.6c-2,11.14-4,24.45-5.24,38.15C300.73,760.17,300.43,764.21,300.23,768.25Z"/></g><g class="cls-16"><path class="cls-17" d="M285.19,723.68c1.7.44,3.06.9,3.9,1.2a39,39,0,0,0-16.61,22.51,50.22,50.22,0,0,0-1.9,12.22,66.33,66.33,0,0,0,.2,8.6q1.5,17.56,1.94,33.89c.14,4.58.22,9.06.22,13.5a423.53,423.53,0,0,1-2.08,43.62c-.42,4.26-.9,8.46-1.48,12.62-.32,2.4-.66,4.78-1,7.16-1.42,9.06-2.8,19.83-3.94,30.87-.48,4.68-.92,9.4-1.3,14.07-.26,3.18-.48,6.32-.68,9.4A92.54,92.54,0,0,1,250.83,927c.3-3.88.64-7.74,1-11.48.5-5.2,1-10.18,1.58-14.75,1.56-13.56,3-23.35,3.08-23.63q.81-5.28,1.48-10.68c.54-4.26,1-8.56,1.36-12.94a414.43,414.43,0,0,0,1.54-44.14c-.06-4.7-.2-9.46-.4-14.33q-.51-12.54-1.66-25.83a78.16,78.16,0,0,1,.08-14.89,58.69,58.69,0,0,1,2.54-12.2,49.27,49.27,0,0,1,12.12-19.95A46.76,46.76,0,0,1,285.19,723.68Z"/><path class="cls-17" d="M304.53,718.6v0h0s0,0-.08,0l.08,0Z"/></g><g class="cls-16"><path class="cls-17" d="M470.05,737.94c-5.14,2.92-11.38,6.2-18.71,9.52-3.72,1.7-7.74,3.42-12,5.12-6.24,2.46-13,4.86-20.39,7.1-4,1.2-8.08,2.36-12.34,3.42a274,274,0,0,1-28.91,5.7q-5.94.84-12.16,1.44c-8.78.86-18,1.34-27.53,1.34-1.74,0-3.46,0-5.2,0l-.94,0q-6.18-.15-12-.62a189.36,189.36,0,0,1-19.57-2.66q-6.18-1.2-11.9-2.74a157.7,157.7,0,0,1-17.75-5.9q-6.15-2.46-11.68-5.26a144.35,144.35,0,0,1-16.81-9.9,43.44,43.44,0,0,1,6.08-10.36,135.38,135.38,0,0,0,13.26,8.06c3.46,1.84,7.14,3.6,11,5.24a144.17,144.17,0,0,0,16.77,5.9q5.67,1.62,11.84,2.86a160.15,160.15,0,0,0,18.83,2.7c3.88.36,7.86.58,12,.66.34,0,.7,0,1.06,0,1.64,0,3.26,0,4.88,0a268.55,268.55,0,0,0,28.71-1.54q6.24-.66,12.18-1.6a257.74,257.74,0,0,0,29-6.18c4.34-1.16,8.48-2.42,12.46-3.72,7-2.28,13.38-4.7,19.23-7.14,4.38-1.82,8.38-3.66,12.08-5.44h0c5.94-2.88,11-5.62,15.13-8C467.71,729.32,468.85,733.34,470.05,737.94Z"/></g><g class="cls-16"><path class="cls-17" d="M479.34,782.8a265.16,265.16,0,0,1-27.51,18c-3.74,2.12-7.66,4.26-11.8,6.32a239.47,239.47,0,0,1-24.71,10.78q-5.91,2.22-12.14,4.12A207.39,207.39,0,0,1,374,828.78c-3.94.62-8,1.12-12.06,1.48Q353.6,831,345,831q-4.59,0-9.24-.24c-4-.2-8-.54-12.1-1-.78-.08-1.56-.18-2.34-.28a169.52,169.52,0,0,1-20.81-4q-6.18-1.59-11.94-3.58a164.24,164.24,0,0,1-15.59-6.26q-6.33-2.94-12.06-6.22a167.25,167.25,0,0,1-24.69-17.17c-.22-5.72-.26-11.22-.08-16.41a156.72,156.72,0,0,0,24.37,19.25c3.86,2.48,7.94,4.84,12.24,7a149,149,0,0,0,15.87,7c3.86,1.44,7.88,2.76,12,3.92a154.26,154.26,0,0,0,22.19,4.54h0q6.12.81,12.14,1.14a173,173,0,0,0,27.43-.68q6.15-.66,12.1-1.68A199.78,199.78,0,0,0,403.65,809c4.18-1.38,8.26-2.88,12.2-4.46a235.3,235.3,0,0,0,23.81-11.08c4.18-2.22,8.16-4.48,11.88-6.72a257.08,257.08,0,0,0,25.51-17.49Q478.26,775.74,479.34,782.8Z"/></g><g class="cls-16"><path class="cls-17" d="M484.28,845.14c0,.9,0,1.8,0,2.72-8.6,4.68-18.71,9.82-29.87,14.87-3.78,1.72-7.7,3.42-11.72,5.08-8.82,3.68-18.17,7.2-27.79,10.3-3.92,1.26-7.9,2.46-11.92,3.56a244.29,244.29,0,0,1-30,6.44q-6,.87-12,1.38c-4.76.4-9.54.62-14.27.62-3.08,0-6.16-.1-9.22-.28q-5.49-.33-10.92-1.12c-.36-.06-.74-.1-1.1-.18a199.78,199.78,0,0,1-28.23-6.34q-6-1.8-11.8-3.9c-5.5-2-10.84-4.14-16-6.44q-5.85-2.58-11.4-5.38-7.08-3.54-13.62-7.3c-.92-5.1-1.82-10.38-2.68-15.77,5.54,3.44,11.44,6.84,17.67,10.12q5.58,2.94,11.52,5.7c5,2.3,10.1,4.48,15.39,6.5,3.84,1.46,7.76,2.84,11.76,4.08a187.46,187.46,0,0,0,27.21,6.54c1,.18,2,.34,3,.48,3,.42,6,.74,9,1a151.51,151.51,0,0,0,23.69-.38c4-.38,8-.88,12-1.54a236.13,236.13,0,0,0,29.77-6.76q6.06-1.74,12-3.76c9.48-3.18,18.65-6.74,27.29-10.46,4-1.72,8-3.48,11.74-5.24,11.62-5.4,22-10.84,30.41-15.55C484.22,837.74,484.28,841.42,484.28,845.14Z"/></g><g class="cls-16"><path class="cls-17" d="M481.72,887.66c-.28,2.26-.58,4.52-.92,6.78-.36,2.54-.78,5.08-1.22,7.62-6,2.88-13.46,6.28-21.89,9.92-3.7,1.62-7.62,3.26-11.68,4.92-9,3.66-18.71,7.4-28.91,10.94-3.86,1.34-7.78,2.66-11.76,3.92-10.12,3.22-20.53,6.14-30.91,8.5-4,.92-7.94,1.74-11.88,2.46-7.46,1.38-14.87,2.4-22.07,3l-.44,0c-3,.24-5.9.34-8.78.34-1.1,0-2.18,0-3.26-.06a111.64,111.64,0,0,1-31.59-5.54,116.73,116.73,0,0,1-12.28-4.76,135.9,135.9,0,0,1-21-11.8c-4.06-2.74-7.82-5.6-11.26-8.42-4.62-3.8-8.7-7.58-12.16-11.06l4.88-12.4c2.5,2.66,5.46,5.62,8.86,8.72s6.94,6,11,9.1a132.6,132.6,0,0,0,19.39,12.18,110.49,110.49,0,0,0,12.08,5.38A101,101,0,0,0,327,934a97,97,0,0,0,12-.18l.5,0A214.11,214.11,0,0,0,362,930.61c3.94-.76,7.92-1.62,11.9-2.56,10.26-2.42,20.61-5.42,30.65-8.7,4-1.3,7.92-2.64,11.78-4,10.18-3.62,19.91-7.44,28.77-11.12,4.1-1.68,8-3.36,11.66-5C467.13,894.68,475.73,890.58,481.72,887.66Z"/></g><path class="cls-18" d="M406.87,726.68c-16.53,9.4-56.26,29.81-85.81,27.55-23.71-1.82-33.71-17.57-35.87-30.55a37.84,37.84,0,0,1,5,1.62s41.23-29.05,116.26,1.48Z"/><path class="cls-18" d="M353.55,948.66c-2.26.06-4.56.08-6.88.08C258,948.52,236,913.87,236,913.87l12.7-32.35c-4.42-21.29-9.58-50-11.7-76.37,6.94,14.33,50.06,97.4,113.88,97C396.11,901.9,374.44,929.31,353.55,948.66Z"/><path class="cls-18" d="M484.28,845.14a338.4,338.4,0,0,1-3.48,49.3c-23.43-28.21-16-79.41-16-79.41C467.83,835,478.2,842.44,484.28,845.14Z"/></g><path id="_Clipping_Path_8" data-name="&lt;Clipping Path&gt;" class="cls-19" d="M290.16,725.29s41.23-29,116.27,1.49l56.3-13.13s36.41,98.87,14.57,200.22c0,0-48.86,35.06-130.63,34.86C258,948.52,236,913.87,236,913.87l12.7-32.35c-7.65-36.93-17.55-96.17-10-126.82C250.15,708.12,290.16,725.29,290.16,725.29Z"/><path class="cls-19" d="M318.13,741.27c25.91,1,57.37.83,80-13.6"/><path class="cls-19" d="M303.62,740.31c2.32.24,4.66.42,7,.57"/><path class="cls-19" d="M323.61,901.51a57.5,57.5,0,0,0,1.77,12.36"/><path class="cls-19" d="M316.81,747.17c-4.13,10.22-6.13,20.23-4.13,32.23,10,38,16,74,10.87,112.62"/><path class="cls-19" d="M330.94,875.55a86.22,86.22,0,0,0,39.69.37"/><path class="cls-19" d="M249.58,795c14.09,33.23,39.5,61.55,72,77.53"/><path class="cls-19" d="M242.94,776.19q1.15,4.05,2.51,8"/><path id="_Clipping_Path_9" data-name="&lt;Clipping Path&gt;" class="cls-14" d="M462.73,713.65s-7,42.49,1.35,96.31,21.52,53.29,21.52,53.29,75-92.69,95-130.15c0,0-4.75-53.82-25.86-65.23Z"/><g class="cls-24"><g class="cls-16"><path class="cls-17" d="M567.19,754.91c-3,4.5-6.28,9.26-9.72,14.14-1.78-10.64-3.84-20.49-6.08-29.59q-1.62-6.66-3.4-12.78c-2.54-8.92-5.24-17-8-24.29q-2.34-6.15-4.66-11.56c-1.68-3.9-3.34-7.52-5-10.82l10.9-5.42q2.07,4.17,4.18,8.94c1.6,3.6,3.2,7.44,4.78,11.56q4.05,10.35,7.88,22.93c1.22,4.06,2.42,8.3,3.56,12.72Q564.66,742,567.19,754.91Z"/></g><g class="cls-16"><path class="cls-17" d="M539.7,793.52c-3.52,4.72-7.06,9.42-10.56,14a435.87,435.87,0,0,0-6.68-44.82v0q-1.32-6.69-2.82-13c-2.44-10.52-5.12-20.23-7.84-29q-1.92-6.21-3.88-11.82c-1.86-5.44-3.72-10.44-5.5-15l10.9-5.42c1.66,4.2,3.4,8.78,5.14,13.75q2,5.58,4,11.82c2.62,8.3,5.24,17.43,7.66,27.33q1.56,6.27,3,13C535.7,766.45,538,779.52,539.7,793.52Z"/></g><g class="cls-16"><path class="cls-17" d="M511.31,830.76c-3.68,4.74-7.14,9.12-10.24,13.06-2.74-20-6.18-39.69-9.86-58.2q-1.29-6.51-2.6-12.82c-2.58-12.34-5.22-24-7.76-34.65q-1.47-6.27-2.92-12c-1.58-6.44-3.1-12.38-4.52-17.75l11-5.46c1.38,5.2,2.86,11,4.42,17.25q1.47,5.79,3,12.12v0c2.4,10.08,4.94,21.13,7.44,32.87.9,4.2,1.8,8.5,2.68,12.86v0C505.33,794.76,508.57,812.57,511.31,830.76Z"/></g><g class="cls-16"><path class="cls-17" d="M567.29,682.06c-5.16,4.1-10.84,8.48-17,13q-4.89,3.6-10.24,7.3-8.25,5.76-17.55,11.68-5.16,3.3-10.66,6.66c-6.34,3.84-13,7.7-20,11.52v0c-3.58,2-7.22,3.92-11,5.86q-10,5.22-20.79,10.28c.1-5,.3-9.5.56-13.54v0q8.94-4.32,17.31-8.76c3.7-2,7.34-4,10.88-6,6.66-3.72,13-7.48,19.11-11.22q5.43-3.33,10.54-6.66,8.94-5.79,16.89-11.42,5.28-3.72,10.12-7.3,8-6,14.83-11.42a35.61,35.61,0,0,1,4,4.94A45.63,45.63,0,0,1,567.29,682.06Z"/></g><g class="cls-16"><path class="cls-17" d="M578.19,716.36c-5.2,4.62-10.7,9.44-16.51,14.39q-5,4.32-10.3,8.72-8.82,7.38-18.27,14.91c-3.5,2.78-7.06,5.58-10.66,8.34v0c-6.7,5.16-13.56,10.3-20.53,15.29v0c-3.56,2.56-7.12,5.1-10.72,7.58-9.26,6.4-18.65,12.52-28,18.15-.62-4.46-1.12-8.84-1.54-13.1,9-5.58,18-11.6,26.95-17.87,3.56-2.5,7.12-5,10.64-7.64,6.92-5,13.75-10.22,20.39-15.41q5.31-4.17,10.48-8.34c6.16-4.94,12.12-9.88,17.87-14.73,3.46-2.94,6.86-5.82,10.14-8.66,6-5.22,11.7-10.26,17-15C576.41,707.63,577.41,712.23,578.19,716.36Z"/></g><path class="cls-18" d="M580.63,733.1c-20,37.45-95,130.15-95,130.15s-11.16.46-19.49-41.75c6.12,22.77,22.71,25.09,22.71,25.09l76.41-101.1c-8.14-17.31-1.14-67.12-.94-68.44C577.39,696.21,580.63,733.1,580.63,733.1Z"/></g><path id="_Clipping_Path_10" data-name="&lt;Clipping Path&gt;" class="cls-19" d="M462.73,713.65s-7,42.49,1.35,96.31,21.52,53.29,21.52,53.29,75-92.69,95-130.15c0,0-4.75-53.82-25.86-65.23Z"/><path id="_Clipping_Path_11" data-name="&lt;Clipping Path&gt;" class="cls-14" d="M406.43,726.79S375.38,704,334.22,699.21s-40.1,19.47-40.1,19.47-5.8,2.17-4,9S347.73,741.12,406.43,726.79Z"/><g class="cls-25"><g class="cls-16"><path class="cls-17" d="M331.76,698.95a79.53,79.53,0,0,0-2.9,8.28c-1,3.36-2,7.34-2.92,12s-1.7,9.8-2.32,15.77c-4.36-.2-8.38-.52-12-.92.58-5.56,1.3-10.56,2.1-15s1.72-8.58,2.68-12.12c.82-3.06,1.66-5.76,2.5-8.14A74,74,0,0,1,331.76,698.95Z"/></g><g class="cls-16"><path class="cls-17" d="M364.69,706.15c0,1.52,0,3.16-.1,4.94-.14,3.54-.4,7.58-.86,12.1-.34,3.36-.78,7-1.36,10.86q-6.33.57-12.3.86c.8-4.92,1.36-9.42,1.76-13.5.44-4.58.68-8.62.8-12.08.06-2.56.08-4.82,0-6.72C356.85,703.65,360.87,704.85,364.69,706.15Z"/></g><g class="cls-16"><path class="cls-17" d="M406.43,726.78q-6.54,1.59-13,2.86c-10.42-2.8-20.37-4.9-29.67-6.44-4.1-.7-8.06-1.28-11.9-1.78-9.48-1.22-18.17-1.86-25.89-2.16q-6.63-.27-12.24-.2a210.1,210.1,0,0,0-21.87,1.16,7.33,7.33,0,0,1,2.3-1.54,17.56,17.56,0,0,1,4.28-11.14c4.86-.36,10.9-.62,18-.6,3.86,0,8,.1,12.48.3,7.2.36,15.17,1,23.77,2.1q5.79.72,12,1.76c7.34,1.2,15.09,2.74,23.15,4.68l0,0A143.78,143.78,0,0,1,406.43,726.78Z"/></g></g><path id="_Clipping_Path_12" data-name="&lt;Clipping Path&gt;" class="cls-19" d="M406.43,726.79S375.38,704,334.22,699.21s-40.1,19.47-40.1,19.47-5.8,2.17-4,9S347.73,741.12,406.43,726.79Z"/><path class="cls-19" d="M339.11,716a77.09,77.09,0,0,1,11.77,2.63"/><path class="cls-19" d="M294.12,718.67a121.63,121.63,0,0,1,36.79-3.45"/><path class="cls-19" d="M222.94,715.86c.06,3.95.33,7.89.77,11.81"/><path class="cls-19" d="M241,667.86c-12.48,8.16-16.9,25.85-17.83,39.66"/><path class="cls-19" d="M536.75,772.12a35.58,35.58,0,0,1-11.13,8.09"/><path class="cls-19" d="M572.27,693.61c-7.51,23.77-15.51,49.78-29.82,71.74"/><path class="cls-19" d="M485.6,863.25s-11.55,5.62-26.88-26.11"/><path class="cls-19" d="M466.4,893.64c-11.09,19.48-27.08,37.59-48.42,45.84"/><path class="cls-19" d="M475,875.55c-1.17,3.16-2.55,6.24-4,9.27"/></svg>