<svg id="Layer_1" data-name="Layer 1" xmlns="http://www.w3.org/2000/svg" xmlns:xlink="http://www.w3.org/1999/xlink" viewBox="0 0 1000 1000"><defs><style>.cls-1{fill:none;}.cls-2{fill:#497fb2;}.cls-3{fill:#2c5a86;}.cls-4{fill:#dfebfa;}.cls-5{fill:#ece4d8;}.cls-6{clip-path:url(#clip-path);}</style><clipPath id="clip-path"><path class="cls-1" d="M-1036.33,264.75l688.54.22L-348,793l-688.54-.22Z"/></clipPath></defs><title>aset-sigesit</title><path class="cls-2" d="M935.74,1000H64.26A64.26,64.26,0,0,1,0,935.74V873.49H1000v62.25A64.26,64.26,0,0,1,935.74,1000Z"/><path class="cls-3" d="M115.49,175H884.56c22.18,0,40.16,23.43,40.16,52.32V873.49H75.33V227.32C75.33,198.43,93.31,175,115.49,175Z"/><path class="cls-4" d="M155.65,263H844.4V793.17H155.65Z"/><path class="cls-5" d="M321.31,873.49H678.74v23.09a40.16,40.16,0,0,1-40.16,40.16H361.47a40.16,40.16,0,0,1-40.16-40.16V873.49Z"/><path class="cls-4" d="M590,342c0-7.77,6.88-14.08,15.37-14.09H740.61c8.5,0,15.39,6.31,15.39,14.09S749.11,356,740.61,356H605.39c-8.5,0-15.39-6.29-15.39-14.07Z"/><path class="cls-3" d="M636,387c0-7.77,6.88-14.08,15.37-14.09H786.61c8.5,0,15.39,6.31,15.39,14.09S795.11,401,786.61,401H651.39c-8.5,0-15.39-6.29-15.39-14.07Z"/><path class="cls-2" d="M711,483c0-7.77,6.88-14.08,15.37-14.09h60.24c8.5,0,15.39,6.31,15.39,14.09S795.11,497,786.61,497H726.39c-8.5,0-15.39-6.29-15.39-14.07Z"/><path class="cls-2" d="M591,483c0-7.77,6.88-14.08,15.37-14.09h60.24c8.5,0,15.39,6.31,15.39,14.09S675.11,497,666.61,497H606.39c-8.5,0-15.39-6.29-15.39-14.07Z"/><path class="cls-2" d="M711,528c0-7.77,6.88-14.08,15.37-14.09h60.24c8.5,0,15.39,6.31,15.39,14.09S795.11,542,786.61,542H726.39c-8.5,0-15.39-6.29-15.39-14.07Z"/><path class="cls-2" d="M591,528c0-7.77,6.88-14.08,15.37-14.09h60.24c8.5,0,15.39,6.31,15.39,14.09S675.11,542,666.61,542H606.39c-8.5,0-15.39-6.29-15.39-14.07Z"/><path class="cls-2" d="M711,579c0-7.77,6.88-14.08,15.37-14.09h60.24c8.5,0,15.39,6.31,15.39,14.09S795.11,593,786.61,593H726.39c-8.5,0-15.39-6.29-15.39-14.07Z"/><path class="cls-2" d="M591,579c0-7.77,6.88-14.08,15.37-14.09h60.24c8.5,0,15.39,6.31,15.39,14.09S675.11,593,666.61,593H606.39c-8.5,0-15.39-6.29-15.39-14.07Z"/><path class="cls-2" d="M590,432c0-7.77,6.88-14.08,15.37-14.09h12.24c8.5,0,15.39,6.31,15.39,14.09S626.11,446,617.61,446H605.39c-8.5,0-15.39-6.29-15.39-14.07Z"/><path class="cls-2" d="M646,432c0-7.77,6.88-14.08,15.37-14.09h12.24c8.5,0,15.39,6.31,15.39,14.09S682.11,446,673.61,446H661.39c-8.5,0-15.39-6.29-15.39-14.07Z"/><path class="cls-2" d="M702,432c0-7.77,6.88-14.08,15.37-14.09h12.24c8.5,0,15.39,6.31,15.39,14.09S738.11,446,729.61,446H717.39c-8.5,0-15.39-6.29-15.39-14.07Z"/><path class="cls-2" d="M758,432c0-7.77,6.88-14.08,15.37-14.09h12.24c8.5,0,15.39,6.31,15.39,14.09S794.11,446,785.61,446H773.39c-8.5,0-15.39-6.29-15.39-14.07Z"/><path class="cls-2" d="M503.79,593H241.21A32.21,32.21,0,0,1,209,560.79V360.21A32.21,32.21,0,0,1,241.21,328H503.79A32.21,32.21,0,0,1,536,360.21V560.79A32.21,32.21,0,0,1,503.79,593Zm-241.6-34.75H482.81a14.38,14.38,0,0,0,14.38-14.38V377.13a14.38,14.38,0,0,0-14.38-14.38H262.19a14.38,14.38,0,0,0-14.38,14.38V543.87A14.38,14.38,0,0,0,262.19,558.25Z"/><rect class="cls-2" x="281" y="410" width="182" height="33" rx="16.5" ry="16.5"/><rect class="cls-2" x="281" y="479" width="182" height="33" rx="16.5" ry="16.5"/><polygon class="cls-2" points="517.91 740.42 387.82 667.37 252.62 737.87 243.38 720.13 388.18 644.63 518.09 717.58 652.53 644.88 783 701.84 775 720.16 653.47 667.12 517.91 740.42"/><circle class="cls-5" cx="248" cy="729" r="29"/><path class="cls-3" d="M248,768a39,39,0,1,1,39-39A39,39,0,0,1,248,768Zm0-58a19,19,0,1,0,19,19A19,19,0,0,0,248,710Z"/><circle class="cls-5" cx="518" cy="729" r="29"/><path class="cls-3" d="M518,768a39,39,0,1,1,39-39A39,39,0,0,1,518,768Zm0-58a19,19,0,1,0,19,19A19,19,0,0,0,518,710Z"/><circle class="cls-5" cx="779" cy="711" r="29"/><path class="cls-3" d="M779,750a39,39,0,1,1,39-39A39,39,0,0,1,779,750Zm0-58a19,19,0,1,0,19,19A19,19,0,0,0,779,692Z"/><circle class="cls-5" cx="388" cy="656" r="29"/><path class="cls-3" d="M388,695a39,39,0,1,1,39-39A39,39,0,0,1,388,695Zm0-58a19,19,0,1,0,19,19A19,19,0,0,0,388,637Z"/><circle class="cls-5" cx="653" cy="656" r="29"/><path class="cls-3" d="M653,695a39,39,0,1,1,39-39A39,39,0,0,1,653,695Zm0-58a19,19,0,1,0,19,19A19,19,0,0,0,653,637Z"/><g class="cls-6"><path class="cls-2" d="M-.59,474.8,3.72,448a1,1,0,0,0-.53,0,.88.88,0,0,0-.38.16,6.37,6.37,0,0,0-2.19,0c-1.18.11-2.4.22-3.16-.68l-1.18-1.71c-.62-2.25-2.36-2.28-4-2-.62.1-1.25.26-2.1.47a3.93,3.93,0,0,0-1.24,0c-.32.05-.64.13-1,.2s-.65.15-1,.2a2.44,2.44,0,0,1-2.28-.5,2.65,2.65,0,0,0-3-1.64,12,12,0,0,0-4,1.86l-3.66.57-3.21-.59c-2.65-2.09-6.13-2.73-9.5-3.36a34.82,34.82,0,0,1-6.12-1.54,24.11,24.11,0,0,1-5.71-2.9c-2.93-1.84-6-3.76-10.26-3.54-4.49.22-7.41-.45-8.68-2a4.9,4.9,0,0,0-4.75-1.93,17.58,17.58,0,0,0-4,1.24l-.9.35a23.82,23.82,0,0,0-4.49,2.57c-.66.44-1.31.88-2,1.28s-1.4.78-2.1,1.19c-1.63.93-3.32,1.9-5,2.65l-.77.32A3.79,3.79,0,0,0-96,441v0a3.53,3.53,0,0,0-.2.8l-.34,2.64c-.35.58,0,1.12.36,1.64s.62.92.43,1.38-.69.76-1.65,1.18a2.18,2.18,0,0,0-.18.55l-1.09.76-.5.24a3.38,3.38,0,0,0-1-.08,5.77,5.77,0,0,0-2,1,2.13,2.13,0,0,1-1.32.63c-.22,0-.43,0-.65.05s-.44,0-.66.05a2.22,2.22,0,0,0-1.8,1.22c-.19.08-.38.2-.57.31a3.18,3.18,0,0,1-1.13.47h0c-.84,0-1.67.09-2.46.2-3.13.42-6.49,1.64-7.65,7.7a4.3,4.3,0,0,1-.24.78s0,.08,0,.12a11.32,11.32,0,0,1-3.92,4.2,11.33,11.33,0,0,0-7.75,8.86,4.48,4.48,0,0,1-.9,1.7,7.08,7.08,0,0,0-.63,1c-.31.36-.65.71-1,1.05a7.42,7.42,0,0,0-2.44,3.88,9.87,9.87,0,0,1-1.2.63,4.71,4.71,0,0,0-2.57,2.14l-2.17,3.19-.83.29a35.44,35.44,0,0,1-6.57,1.89c-3.41.49-5.86-.48-7.71-3l-.47-1.65c0-.23,0-.39-.14-.4a.73.73,0,0,0,.09-.83,7.8,7.8,0,0,1,1-1.9c.9-1.37,1.83-2.8.45-4.29a1.44,1.44,0,0,0-1.26-.56,3.86,3.86,0,0,0-1.83,1.21,6.14,6.14,0,0,0-.58.6l0,0-.64-2.82a17.88,17.88,0,0,1,.29-2.64c.42-2.6.84-5.28-2.13-6.26,0-.24-.06-.48-.1-.79a5,5,0,0,0-1.42-.05,3,3,0,0,0-.49.18,3.12,3.12,0,0,0-.39.14,3.34,3.34,0,0,0-1,.68c-.08.07-.15.14-.22.23a10.52,10.52,0,0,0-1.75,3.59l-1.62-2.52-1.47-2.25a5.4,5.4,0,0,0,.32-1.39c-2-3.1-1.52-7-1.1-10.82.09-.83.18-1.66.25-2.5-.29-2.57.76-5,1.76-7.37a27.48,27.48,0,0,0,1.51-4.13l.43-3.8a6.46,6.46,0,0,0-2.71-7l-1.16-1.76a7.79,7.79,0,0,0-.27-.79,2.52,2.52,0,0,1-.06-2.43,6,6,0,0,0,1.11-3.72c-.22-1.27-1.41-1.88-2.78-2.59-.38-.2-.77-.4-1.17-.63a6,6,0,0,0-3.72-.71,21.21,21.21,0,0,0-2.66.47,20.07,20.07,0,0,1-2.56.46,5.9,5.9,0,0,1-2.42-.22,3.55,3.55,0,0,0-2.64-1,1.71,1.71,0,0,0-.79.24c.09-.24,0-.44-.27-.61-1.31.11-2-.73-2.68-1.61a4.48,4.48,0,0,0-1.61-1.45l-.37.13-.29.14a3.31,3.31,0,0,0-.3-.5,3,3,0,0,0-1.93-.38h0a3.07,3.07,0,0,0-.77.25,25.49,25.49,0,0,0-9-3.59l-1.23-.07a19.69,19.69,0,0,0-2.81,0,7.83,7.83,0,0,0-2.49.58l-5.62.52-3.15,2.11-2.53,1.53-.82,1.31a2.28,2.28,0,0,0-.45.15,4.42,4.42,0,0,0-3,2.79,3.43,3.43,0,0,1-2.54,1.54h0a.77.77,0,0,0-.46.21s0,0,0,.06a.48.48,0,0,0-.1.13,7.24,7.24,0,0,0-2.05-.19,3.54,3.54,0,0,0-2.72,1.59,6.37,6.37,0,0,0-.56.87.92.92,0,0,1-.09.16c-.1-.28-.19-.58-.31-.92a4.82,4.82,0,0,0-1.75-.17,12.53,12.53,0,0,0-3.89,1.22l-1,.44a13.69,13.69,0,0,0-4.47,8.28,13,13,0,0,0-.17,2,7.4,7.4,0,0,1-.54-1.67c-.31-1.31-.63-2.66-2.16-2.93l-.62,0a5.75,5.75,0,0,1-1.11-.13,4.49,4.49,0,0,1-.05-2.71,7.1,7.1,0,0,0,.13-1.36l-.84-.24a1.94,1.94,0,0,0-1.21-.4,1.69,1.69,0,0,0-1.29.94h-.39a22.73,22.73,0,0,0-4.5,1.5,4.81,4.81,0,0,1-1.53,1h-1.69l-1.74,0-.5.56c-.23,0-.45.06-.69.12a2.42,2.42,0,0,0-1,1.31,2.51,2.51,0,0,0-.21.46s0,.07,0,.1,0,.06,0,.1a5.5,5.5,0,0,0-.71,4.14s0,0,0,.06h0s0,0,0,.07a11.47,11.47,0,0,0,1.88-.81,7.52,7.52,0,0,1,2.68-.95,3.51,3.51,0,0,1,1.08.09,7.06,7.06,0,0,1,.38,2.7c0,1.37,0,2.79,1.08,3.71a13,13,0,0,0,5.86,7,1.38,1.38,0,0,0,1.54,1.07,3.26,3.26,0,0,0,2.36,1.06,5,5,0,0,1,1.53.39l.34.3.38-.08a2.54,2.54,0,0,0,2,.75,4,4,0,0,0,2.14-1c.2,0,.39-.06.59-.08a2.24,2.24,0,0,0,2.08-1.15q5.35,1.94,10.68,3.85c1.36,1.19,1.13,2.89.87,4.69a6.53,6.53,0,0,0,.18,3.85c-.33,3.76,1.7,5.29,4.19,6.76a5.19,5.19,0,0,0,1.61.53c1.26.28,2.47.53,2.63,2.5.68.86,1.29,1.42,2.06,1.34a2.71,2.71,0,0,0,1.65-1.09c.2-.72.67-1.51,1.33-1.58a.92.92,0,0,1,.31,0c.57.14,1.22.17,1.83.25l.56.08a25.35,25.35,0,0,0,5.52,0,78.1,78.1,0,0,0,7.75-1.37l2.07-.44a29.75,29.75,0,0,0,5.76,0,17.35,17.35,0,0,0,4.68-1.17,11.4,11.4,0,0,0,1.31-1.11,7.68,7.68,0,0,0,1.85-.58,7.68,7.68,0,0,1,1.82-.57,1.36,1.36,0,0,1,1.24.39,3.59,3.59,0,0,1-.44,1.94c-1.85,2.8-3.06,4.25-4.52,4.42a6.83,6.83,0,0,1-3.75-1.24l-.56-.32a5.63,5.63,0,0,0-3.4-1.11,4.23,4.23,0,0,0-2.28,1.1A12.63,12.63,0,0,0-205,475a3.65,3.65,0,0,0-2.25,3.24,1.67,1.67,0,0,0-.8.32c-1,.27-1.41,1.26-1.8,2.21s-.83,2-2,2.19c-1.85-1.93-6.95-2.33-11.18-1.88s-7.53,1.66-9,3.25a1.83,1.83,0,0,0-.49,2.07c1,3,2,6.14,5.52,5.75a7.53,7.53,0,0,0,1-.19,11.9,11.9,0,0,1,1.63-.31c3.22-.36,5.55,1,7.17,4.14a15.45,15.45,0,0,1,1,2.62l0,.09c.48,2.74,2,4.41,4.93,5.35l.19,1.91-2.31,4.43a13.24,13.24,0,0,0-.65,8.63,5.17,5.17,0,0,0,3.18,3.65,2.08,2.08,0,0,0,1.13.93h.06a1.37,1.37,0,0,0,.56.12,5.48,5.48,0,0,0,2.33-1.4l.56-.47,2.61-.16a2.76,2.76,0,0,0,2.26,1.11,5.35,5.35,0,0,1,1.33.3,5.67,5.67,0,0,0,2.91,2.53,10.31,10.31,0,0,1,1.68,1l.34.28c.53.45,1.12.94,1.74.86.47-.07.89-.45,1.29-1.16,1.08-1.93-.81-3.1-1.42-3.49a13.46,13.46,0,0,0-1.67-.84c-1.51-.68-3.07-1.38-3.64-3.42l2.26-2.93c2.33-1.2,2.23-2.9,2.14-4.55a6.86,6.86,0,0,1,.13-2.35,7.41,7.41,0,0,1,3.43-1.74,3.1,3.1,0,0,1,2.71,1c.5,1.05,1.45,1,2.36,1a4.19,4.19,0,0,1,1.33.11l1.29.73c3.11,1.77,6.33,3.58,8.07,7.31a1.54,1.54,0,0,0,.41,0,1.67,1.67,0,0,0,1.23-1.1,3.85,3.85,0,0,0,.85-1.2c.33-.61.65-1.2,1.08-1.26.28,0,.59.14.94.55a28.77,28.77,0,0,0,8.15,6.36l1.8.84.68-.31a3.86,3.86,0,0,1,.15.39,1.41,1.41,0,0,0,.68.07c.47,2,2,2.31,3.57,2.65l.76.18,2.71.37c1.62,0,3.25,0,4.87,0,2.24,0,4.5-.09,6.72,0,10.25.44,19.14,3.56,26.46,6.46l4.35.81c1.42.33,2.88.56,4.34.78a42.87,42.87,0,0,1,6.23,1.25l.13,0a16.31,16.31,0,0,1,1.83.69c.08.76.59.75,1.1.73a1.43,1.43,0,0,1,.72.09l.46.14.63.22s0,.31,0,.32a17.59,17.59,0,0,0,3.74,2.76c2.65,1.61,5.38,3.25,5.79,7.39l.06.81.08.85.88.43c1.63.77,3.17,1.49,3.44,3.86l.12,1.1c.55,5,1.12,10.24,5,13,1.14.81,1.43,2.61.8,4.79a18.19,18.19,0,0,0-1,2.24,17.06,17.06,0,0,1-1.18,2.51,7.73,7.73,0,0,0-.34.71l0,0a5,5,0,0,0-.44,1.22,2.82,2.82,0,0,0,0,.49,2.24,2.24,0,0,0,0,.38,1.25,1.25,0,0,0,.83.87l.07,0a1.84,1.84,0,0,0,.49.17l-.09.08h0a.3.3,0,0,0,.08-.08l0,0h0l-.17.15L-76,580a1.31,1.31,0,0,0,.36.73c.33.4.64.78-.1,1.77a3.83,3.83,0,0,0-.65,3.76c0,.13.06.25.09.38a7.33,7.33,0,0,0-2.68,1.6A8,8,0,0,1-83.19,591a7.78,7.78,0,0,0-4.41,3.08c-6.38,5.15-9.78,12.21-13.05,19.08l-1.69,3.55a1.28,1.28,0,0,0-.29.29l0,0a1.11,1.11,0,0,0-.26.58v0a1.26,1.26,0,0,0-.05.33c-.24.51-.53,1-.83,1.54-1,1.78-2.07,3.64-1.08,5.34a1.31,1.31,0,0,0,1.07.71h.11c.12,0,.22.06.35,0a5.93,5.93,0,0,0,1.72-1,5.8,5.8,0,0,1,1.72-1l1.67-.35a10.85,10.85,0,0,1,2.46-1,6.5,6.5,0,0,1,4,.12,6.81,6.81,0,0,0,4.14.27,6.47,6.47,0,0,0,2.4-1.28,8.7,8.7,0,0,1,3.2-1.75,11.38,11.38,0,0,1,3.82-.23h.3a11.56,11.56,0,0,0,1.41-.85,3.92,3.92,0,0,0,.9-.14A4.17,4.17,0,0,0-73.6,617l0,0h.33a6.56,6.56,0,0,0,2.22-2.27c2.52-3.75,3.57-5.29,5.07-5.72,1-.29,2.35-.05,4.53.33A10.89,10.89,0,0,0-55.89,606c.14-.17.27-.31.36-.44a3.2,3.2,0,0,0,1.13-.14,12.62,12.62,0,0,0,1.73-.7A12.24,12.24,0,0,1-51,604a5,5,0,0,1,.52-.12l.3-.09a8.39,8.39,0,0,1,1.82-.33l.41,0a1.07,1.07,0,0,1,.94.15,1.41,1.41,0,0,0,.66,0l.08,0c.14,1.06.89,1.37,1.62,1.67a2.59,2.59,0,0,1,1.36.94c.19,1.21,1.12,1.5,2,1.77l.3.09,1.05.4.37.12c.07,1,.82,1.11,1.59,1.22a11.28,11.28,0,0,1,2.77,3.63c1,1.74,2,3.53,4,4.25a4.1,4.1,0,0,1,1.78,1.7c.69,1,1.46,1.92,3,1.73h.09a3.18,3.18,0,0,0,.6-.09,5.7,5.7,0,0,0,.63-.25l.91-.37,9.71-59.86s-.25.06-.26,0l-.3.09c-.9-3.71.41-7.9,2.64-13ZM-216,497.75l.1-.1-.26.57A1.18,1.18,0,0,1-216,497.75Z"/></g></svg>