<svg id="Layer_1" data-name="Layer 1" xmlns="http://www.w3.org/2000/svg" xmlns:xlink="http://www.w3.org/1999/xlink" viewBox="0 0 1000 1000"><defs><style>.cls-1{fill:none;}.cls-2{fill:#497fb2;}.cls-3{fill:#2c5a86;}.cls-4{fill:#dff1fc;}.cls-5{fill:#ece4d8;}.cls-6{clip-path:url(#clip-path);}.cls-7{fill:#dfebfa;}.cls-8{fill:#cadbef;}</style><clipPath id="clip-path"><circle class="cls-1" cx="381.85" cy="483.1" r="125.12"/></clipPath></defs><title>aset-sigesit</title><path class="cls-2" d="M935.74,1000H64.26A64.26,64.26,0,0,1,0,935.74V873.49H1000v62.25A64.26,64.26,0,0,1,935.74,1000Z"/><path class="cls-3" d="M115.49,175H884.56c22.18,0,40.16,23.43,40.16,52.32V873.49H75.33V227.32C75.33,198.43,93.31,175,115.49,175Z"/><path class="cls-4" d="M155.65,263H844.4V793.17H155.65Z"/><path class="cls-5" d="M321.31,873.49H678.74v23.09a40.16,40.16,0,0,1-40.16,40.16H361.47a40.16,40.16,0,0,1-40.16-40.16V873.49Z"/><path class="cls-2" d="M230.74,313.45H558V758.73H230.74a25,25,0,0,1-25-25h0V338.48A25,25,0,0,1,230.74,313.45Z"/><circle class="cls-3" cx="381.85" cy="482.04" r="125.18"/><g class="cls-6"><path class="cls-4" d="M455.33,460.69h.11a.67.67,0,0,0,.39-.24.86.86,0,0,1,.3-.23,2.24,2.24,0,0,1,.14-.56,2.09,2.09,0,0,1-.4.35,1.13,1.13,0,0,0-.55.69Z"/><path class="cls-4" d="M415.77,480l.07,0-.05,0a.7.7,0,0,1-.19,0A.25.25,0,0,0,415.77,480Z"/><path class="cls-4" d="M420.61,477.39l-.1.2.06-.06a.85.85,0,0,0,.08-.11Z"/><path class="cls-4" d="M317.12,485.37l0,0-.1-.09v0C317,485.34,317.09,485.37,317.12,485.37Z"/><path class="cls-4" d="M456.54,459.16a.2.2,0,0,1-.1.06.8.8,0,0,1,0,.13Z"/><path class="cls-4" d="M489.95,494.92a.38.38,0,0,0,0,.14l.08-.16Z"/><path class="cls-4" d="M294.9,522.64a.73.73,0,0,0-.09-.14l.1.18Z"/><path class="cls-4" d="M366,506.5l0,0s0,.06.08.22l0,0,.07-.15h0l-.14,0s0,0,0,0Z"/><path class="cls-4" d="M197.15,416.69c.37-.31.17-.62,0-.92a1.52,1.52,0,0,1-.23-.52h-.8a2.35,2.35,0,0,1-.47,0,1.63,1.63,0,0,0-.32,0,.37.37,0,0,0-.3.1s0,.07,0,.11v0a1,1,0,0,0,0,.41l0,.23a2.35,2.35,0,0,0,1.48.77A1.37,1.37,0,0,0,197.15,416.69Z"/><path class="cls-4" d="M552.68,488.22l1.25-7.79a.29.29,0,0,0-.16,0,.25.25,0,0,0-.11,0,1.86,1.86,0,0,0-.64,0c-.34,0-.7.06-.92-.2l-.34-.5c-.18-.66-.69-.66-1.16-.58-.18,0-.37.08-.61.14a1.14,1.14,0,0,0-.36,0l-.28.06-.28.06a.71.71,0,0,1-.66-.15.77.77,0,0,0-.87-.48,3.45,3.45,0,0,0-1.16.54l-1.07.17-.94-.17a6.18,6.18,0,0,0-2.77-1,10.27,10.27,0,0,1-1.78-.45,7.1,7.1,0,0,1-1.66-.84,4.92,4.92,0,0,0-3-1c-1.31.07-2.16-.13-2.53-.58a1.43,1.43,0,0,0-1.38-.56,5.08,5.08,0,0,0-1.17.36l-.26.1a7,7,0,0,0-1.31.75l-.58.37-.61.35c-.47.27-1,.55-1.46.77l-.22.09a1.1,1.1,0,0,0-.77.68h0a1,1,0,0,0-.06.23l-.1.77c-.1.17,0,.32.11.48s.18.27.13.4-.2.22-.48.34a.68.68,0,0,0-.05.16l-.32.22-.15.07a1,1,0,0,0-.29,0,1.65,1.65,0,0,0-.57.28.62.62,0,0,1-.38.18h-.38a.64.64,0,0,0-.52.36l-.17.09a.93.93,0,0,1-.33.14h0c-.25,0-.49,0-.72.06a2.37,2.37,0,0,0-2.23,2.24,1.25,1.25,0,0,1-.07.23v0a3.31,3.31,0,0,1-1.14,1.22,3.3,3.3,0,0,0-2.26,2.58,1.32,1.32,0,0,1-.26.5,1.93,1.93,0,0,0-.18.28l-.29.31a2.17,2.17,0,0,0-.71,1.13,2.77,2.77,0,0,1-.35.18,1.37,1.37,0,0,0-.75.62l-.63.93-.24.09a10.27,10.27,0,0,1-1.91.55,2.14,2.14,0,0,1-2.24-.88l-.14-.48c0-.07,0-.11,0-.12a.21.21,0,0,0,0-.24,2.3,2.3,0,0,1,.3-.55c.26-.4.54-.82.13-1.25a.42.42,0,0,0-.37-.16,1.11,1.11,0,0,0-.53.35l-.17.17h0l-.19-.82a5.22,5.22,0,0,1,.08-.77c.12-.76.24-1.54-.62-1.82a2.08,2.08,0,0,1,0-.23,1.4,1.4,0,0,0-.42,0,.76.76,0,0,0-.14.05l-.11,0a1,1,0,0,0-.29.2l-.06.07a3,3,0,0,0-.51,1l-.47-.73-.43-.65a1.7,1.7,0,0,0,.09-.4,4.86,4.86,0,0,1-.32-3.15c0-.24.05-.48.07-.73a4.35,4.35,0,0,1,.51-2.15,7.65,7.65,0,0,0,.44-1.2l.13-1.11a1.88,1.88,0,0,0-.79-2l-.34-.51a2.11,2.11,0,0,0-.08-.23.73.73,0,0,1,0-.71,1.73,1.73,0,0,0,.32-1.08c-.06-.37-.41-.55-.81-.76l-.34-.18a1.74,1.74,0,0,0-1.08-.21,6.89,6.89,0,0,0-.77.14,5.68,5.68,0,0,1-.75.13,1.71,1.71,0,0,1-.71-.06,1,1,0,0,0-.77-.3.51.51,0,0,0-.23.07c0-.07,0-.13-.08-.18-.38,0-.58-.21-.78-.47a1.28,1.28,0,0,0-.47-.42l-.11,0-.08,0a1,1,0,0,0-.09-.14.89.89,0,0,0-.56-.11h0a.86.86,0,0,0-.22.07,7.44,7.44,0,0,0-2.61-1l-.36,0a5.78,5.78,0,0,0-.82,0,2.32,2.32,0,0,0-.72.17l-1.64.15-.92.62-.74.45-.24.38-.13,0a1.28,1.28,0,0,0-.89.81,1,1,0,0,1-.74.45h0a.22.22,0,0,0-.13.06v0l0,0a2.1,2.1,0,0,0-.6-.05,1,1,0,0,0-.79.46,1.78,1.78,0,0,0-.16.25l0,0-.09-.27a1.36,1.36,0,0,0-.51-.05,3.72,3.72,0,0,0-1.13.36l-.3.13a4,4,0,0,0-1.3,2.41,3.76,3.76,0,0,0,0,.6,2.25,2.25,0,0,1-.16-.49c-.09-.38-.18-.77-.63-.85h-.18a1.77,1.77,0,0,1-.32,0,1.3,1.3,0,0,1,0-.79,2.23,2.23,0,0,0,0-.4L479,474a.56.56,0,0,0-.35-.12.49.49,0,0,0-.37.27h-.11a6.7,6.7,0,0,0-1.31.44,1.36,1.36,0,0,1-.45.28h-1l-.15.16-.2,0a.71.71,0,0,0-.3.38,1,1,0,0,0-.06.13s0,0,0,0v0a1.61,1.61,0,0,0-.21,1.21.14.14,0,0,1,0,0h0v0a3.44,3.44,0,0,0,.55-.24,2.21,2.21,0,0,1,.78-.28,1,1,0,0,1,.31,0,2.08,2.08,0,0,1,.11.79,1.35,1.35,0,0,0,.32,1.08,3.79,3.79,0,0,0,1.71,2,.4.4,0,0,0,.45.31.94.94,0,0,0,.69.31,1.48,1.48,0,0,1,.45.11l.1.09.11,0a.75.75,0,0,0,.57.22,1.17,1.17,0,0,0,.62-.3l.17,0a.65.65,0,0,0,.61-.33l3.11,1.12c.4.34.33.84.25,1.37a3.43,3.43,0,0,0,1.27,3.09,1.47,1.47,0,0,0,.47.16c.37.08.72.15.77.73.2.25.38.41.6.39a.79.79,0,0,0,.48-.32c.06-.21.19-.44.39-.46h.09a5.3,5.3,0,0,0,.53.07l.16,0a7.34,7.34,0,0,0,1.61,0,22.78,22.78,0,0,0,2.26-.4l.6-.13a8.57,8.57,0,0,0,1.68,0,5,5,0,0,0,1.36-.34,3.47,3.47,0,0,0,.38-.32,2.27,2.27,0,0,0,.54-.17,2.2,2.2,0,0,1,.53-.17.4.4,0,0,1,.36.11,1.07,1.07,0,0,1-.13.56c-.54.82-.89,1.24-1.32,1.29a2,2,0,0,1-1.09-.36l-.16-.09a1.65,1.65,0,0,0-1-.32,1.22,1.22,0,0,0-.66.32,3.68,3.68,0,0,0-2,1.48,1.06,1.06,0,0,0-.66.94.48.48,0,0,0-.23.09c-.29.08-.41.37-.52.64s-.24.59-.6.64c-.54-.56-2-.68-3.26-.55a4.47,4.47,0,0,0-2.62.95.53.53,0,0,0-.14.6c.29.88.59,1.79,1.61,1.67l.3-.06a3.74,3.74,0,0,1,.48-.09,2,2,0,0,1,2.09,1.21,4.72,4.72,0,0,1,.3.76v0a1.86,1.86,0,0,0,1.44,1.56l.05.56-.67,1.29a3.85,3.85,0,0,0-.19,2.51,1.5,1.5,0,0,0,.93,1.06.6.6,0,0,0,.33.27h0a.4.4,0,0,0,.16,0,1.6,1.6,0,0,0,.68-.41l.16-.14.76,0a.8.8,0,0,0,.66.32,1.58,1.58,0,0,1,.39.09,1.65,1.65,0,0,0,.85.74,3,3,0,0,1,.49.29l.1.08c.15.13.33.27.51.25s.26-.13.37-.34c.31-.56-.23-.9-.41-1A3.73,3.73,0,0,0,496,502a1.56,1.56,0,0,1-1.06-1l.66-.85a1.15,1.15,0,0,0,.62-1.32,2,2,0,0,1,0-.68,2.17,2.17,0,0,1,1-.51.9.9,0,0,1,.79.28c.15.31.42.3.69.29a1.25,1.25,0,0,1,.39,0l.37.21a5,5,0,0,1,2.35,2.13H502a.49.49,0,0,0,.36-.32,1.11,1.11,0,0,0,.25-.35c.1-.18.19-.35.32-.37s.17,0,.28.16a8.4,8.4,0,0,0,2.37,1.85l.53.24.2-.09,0,.11a.41.41,0,0,0,.2,0c.14.57.59.67,1,.77l.22.05.79.11c.47,0,.95,0,1.42,0,.65,0,1.31,0,2,0a23.38,23.38,0,0,1,7.71,1.88l1.27.24c.41.1.84.16,1.26.23a12.15,12.15,0,0,1,1.81.36h0a4.61,4.61,0,0,1,.53.2c0,.22.17.22.32.21a.41.41,0,0,1,.21,0l.13,0,.18.07a.69.69,0,0,0,0,.09,5.11,5.11,0,0,0,1.09.8,2.76,2.76,0,0,1,1.69,2.15l0,.24,0,.25.26.13c.47.22.92.43,1,1.12l0,.32c.16,1.46.33,3,1.45,3.79.33.24.42.76.23,1.4a4.89,4.89,0,0,0-.3.65,4.78,4.78,0,0,1-.34.73,2.15,2.15,0,0,0-.1.21h0a1.37,1.37,0,0,0-.13.35.71.71,0,0,0,0,.14.59.59,0,0,0,0,.11.36.36,0,0,0,.24.25h0a.59.59,0,0,0,.14.05l0,0h0l0,0h0l0,0,0,0a.4.4,0,0,0,.11.21c.1.12.19.23,0,.52a1.12,1.12,0,0,0-.19,1.1l0,.11a2.16,2.16,0,0,0-.78.47,2.32,2.32,0,0,1-1.21.8,2.27,2.27,0,0,0-1.29.9,14.89,14.89,0,0,0-3.8,5.56l-.49,1a.33.33,0,0,0-.08.08h0a.32.32,0,0,0-.08.17h0a.4.4,0,0,0,0,.1c-.07.15-.16.3-.24.45-.29.52-.6,1.06-.31,1.55a.38.38,0,0,0,.31.21h0s.07,0,.1,0a1.75,1.75,0,0,0,.5-.29,1.72,1.72,0,0,1,.5-.28l.49-.1a3.17,3.17,0,0,1,.72-.3,1.91,1.91,0,0,1,1.16,0,2,2,0,0,0,1.21.08,1.9,1.9,0,0,0,.7-.37,2.51,2.51,0,0,1,.93-.51,3.33,3.33,0,0,1,1.11-.07h.09a3.39,3.39,0,0,0,.41-.25,1.11,1.11,0,0,0,.26,0,1.22,1.22,0,0,0,.6-.41h.09a1.93,1.93,0,0,0,.65-.66c.74-1.09,1-1.54,1.48-1.66a3.28,3.28,0,0,1,1.32.1,3.18,3.18,0,0,0,1.63-1l.11-.13a1,1,0,0,0,.33,0,3.8,3.8,0,0,0,.5-.2,3.9,3.9,0,0,1,.5-.2l.15,0,.09,0a2.48,2.48,0,0,1,.53-.09h.12c.1,0,.2,0,.28,0a.41.41,0,0,0,.19,0h0c0,.31.26.4.47.49a.75.75,0,0,1,.4.27c.05.35.33.44.59.52l.09,0,.31.12.11,0c0,.29.24.32.47.36a3.33,3.33,0,0,1,.81,1.06,2.44,2.44,0,0,0,1.16,1.24,1.2,1.2,0,0,1,.52.49c.2.29.43.56.87.5h0a.82.82,0,0,0,.18,0l.18-.07.27-.11,2.82-17.43h-.08l-.09,0a6.24,6.24,0,0,1,.77-3.8Zm-62.73,6.7,0,0-.08.16A.37.37,0,0,1,489.95,494.92Z"/><path class="cls-4" d="M283.35,519.08l.1-.08c.13-.1.27-.21.27-.38a.74.74,0,0,0-.2-.43.92.92,0,0,1-.26-.88,1.76,1.76,0,0,0,0-.38.35.35,0,0,1,.34-.2,1.07,1.07,0,0,1,.4.2,2.19,2.19,0,0,1,.26.19c.05.09.11.19.21.2h0a.11.11,0,0,1,.07,0l.3.71,1.18,1.56.55.72.23,0a1,1,0,0,0,1-.33,3.12,3.12,0,0,0,.38-2.2l-.15-3,.18-.15,0-.59,0-.43s0-.09,0-.14v-.1l.12-.18.19-.29c0-.16,0-.31.08-.47s0-.14,0-.2a7.79,7.79,0,0,0,.09-.86c0-.13,0-.27,0-.4a6.13,6.13,0,0,0,0-.7c0-.11,0-.23-.06-.34a6.37,6.37,0,0,0-.19-.76c0-.09-.07-.19-.1-.28s-.08-.27-.14-.4l-.11-.78a10,10,0,0,1,.23-5.11c-1.35-2.48-1.38-3.1-.22-4.76.11-.15.2-.31.3-.46l.12-.21a.44.44,0,0,0,.23-.1,1,1,0,0,0-.12-1.21c-.29-.13-.29-.39-.29-.69a1,1,0,0,1-.23-.5.91.91,0,0,0-.27-.52l-.07-.06h0l.15.08a4.79,4.79,0,0,0,1.15.49,3.92,3.92,0,0,1,1.43.7,2.43,2.43,0,0,0,1.87,1.45,2.69,2.69,0,0,0,1.14-.17l.06-.08h.11c1.33-.39,1.44-.63,1-2.4a1.35,1.35,0,0,0-.65-.23,2.68,2.68,0,0,0-.92.13l-.21.07a1.42,1.42,0,0,1,.24-1.45,1.33,1.33,0,0,0,.3-1.12.59.59,0,0,0-.28-.62,1.4,1.4,0,0,0-1.23-.79l-.58,0-.36-.05a1.56,1.56,0,0,0-.31,0,1.59,1.59,0,0,1-.32,0c-.22,0-.45-.12-.51-.73a.73.73,0,0,0,0-.14.87.87,0,0,0,0-.14.66.66,0,0,0-.12-.2l-.09-.08s-.05-.07-.1-.08a2.09,2.09,0,0,1-.75-1.66,10.14,10.14,0,0,0-1.12-4.22c-.61-1.21-1.09-1.88-1.88-1.94a2.87,2.87,0,0,0-1.24.25h-.13a2,2,0,0,1-.66-.23,2.09,2.09,0,0,0-.68-.24c-.31,0-.54.15-.71.54-.49.26-.7.79-.64,1.63s-.24,1.1-1,1.05a.5.5,0,0,0-.44.27,1.21,1.21,0,0,1-.51.71.7.7,0,0,0-.14.78,1.83,1.83,0,0,0,.39.57,2.15,2.15,0,0,0,.93.53,5.1,5.1,0,0,1,.7.23l.26.1a4.69,4.69,0,0,0,1.08.22l.52,0h.17c.81.07,1.28.53,1.72,1.68a15.14,15.14,0,0,1,.53,1.82c.06.23.12.45.19.67l0,.19-.23-.34a3.83,3.83,0,0,1-.64-1.2c-.46-1.69-.56-2-1.59-2.13l-.89,0-.13,0a.78.78,0,0,0-.46.16c-.26-.06-.52-.12-.8-.17-2.25-.38-2.25-.38-2.55-3l-1-.23a3.27,3.27,0,0,1-1.53-2.15,5.76,5.76,0,0,0-.64-1.4,4.07,4.07,0,0,1-.69-2.07,8.25,8.25,0,0,0-.2-1v0a3.16,3.16,0,0,0-.12-.41,2,2,0,0,0-.23-1,3.69,3.69,0,0,1-.19-.51,1.14,1.14,0,0,0-1-.82l-.59-.08a3.46,3.46,0,0,1-1.24-.3,3.37,3.37,0,0,0-1,.05,1.38,1.38,0,0,1-.46,0,4.58,4.58,0,0,1-3.28-2.87l.75-1.09a3.64,3.64,0,0,1,.61-.35,1.68,1.68,0,0,0,1-.85h0a.9.9,0,0,0,.07-.29c0-.62-.5-.84-1-1.06a3.1,3.1,0,0,1-.65-.35c-.14-.11-.21-.2-.22-.28s.1-.15.21-.22.25-.15.23-.26l.38-.1.48-.1.27,0c.25,0,.52,0,.62-.18s0-.45-.2-.88l-.34-.55a3.22,3.22,0,0,1,0-.47,1.69,1.69,0,0,0-.37-1.17l-.07-.44c-.32-1.22-1.22-1.48-2.11-1.73l-.68-.24-.57-.18c0-.2.11-.29.26-.27a1.06,1.06,0,0,1,.22.05l.12,0,.19,0a.65.65,0,0,0,.46-.15l.07-.07s.08-.06.1-.1a.9.9,0,0,0,0-.14l0-.08a.87.87,0,0,0,0-.31l0-.08a.93.93,0,0,0,0-.16,6.56,6.56,0,0,1-.45-1.33,6.44,6.44,0,0,0-.44-1.29l0-.09c-.17-.35-.37-.74-.72-.77a.58.58,0,0,0-.29.06c-.39.18-.74.48-.42,1.29l.09.23a2,2,0,0,1,.24,1.37.87.87,0,0,1-.09.17l0,0a1,1,0,0,1-.21.2.53.53,0,0,0-.07-.23h-.11a.83.83,0,0,0-.12,0h0a.75.75,0,0,0-.36.14l0,0a.91.91,0,0,0-.14.11s-.06,0-.07.11,0,.09,0,.12a1.77,1.77,0,0,1-.33.29l-.13.06a.39.39,0,0,0,0-.51.71.71,0,0,0,.28-.43l.05-.14v-.05a.61.61,0,0,0,.26.09c.2,0,.34-.16.4-.52a3.49,3.49,0,0,0-2.1-2.44.74.74,0,0,0-.24-.07l-.35-.62a1.14,1.14,0,0,0-1-.67,1.23,1.23,0,0,0-.4,0,1.34,1.34,0,0,1-.44.06c-.48,0-.67-.42-.86-1.13,0-.11,0-.22-.06-.34a1.42,1.42,0,0,0-.3-.8,3.3,3.3,0,0,0-1.13-1.12h0a1.89,1.89,0,0,0-.81-.26l-.21,0h0a2.14,2.14,0,0,0-.37,0,.37.37,0,0,0-.14.1l-.51-.28-.54-.29-.22.11a.6.6,0,0,0-.45.24.57.57,0,0,1-.43.23l-.17,0a1.22,1.22,0,0,0-.07-.23l-.34-.15-.33-.12a1.48,1.48,0,0,0,0-.17,16.19,16.19,0,0,0-.24-1.7l0-.09c0-.18-.06-.36-.11-.53l-.38-.54-.22-.13a.37.37,0,0,1,0-.24.87.87,0,0,0-.14-.66.78.78,0,0,0-.6-.24h0a2.73,2.73,0,0,1-1.55.41,4.44,4.44,0,0,1-2.76-1.56c-.17-.17-.36-.33-.54-.49l-.25-.21a1.45,1.45,0,0,0-.84-.47c-.42,0-.66.4-.89.81l-.13.24v.76a.9.9,0,0,1-.52.13,2.53,2.53,0,0,1-1-.36l-.13-.06a1.6,1.6,0,0,0-.15-.19l-.12-.15a3.32,3.32,0,0,0-.67-.59,2.27,2.27,0,0,1-.5-1,2.17,2.17,0,0,0-.55-1.07L239,442a1.77,1.77,0,0,0-.75-.69,1.88,1.88,0,0,1-.76-.69,5.18,5.18,0,0,0-2.46-2.09q-3.17-2.49-6.37-4.92a1.68,1.68,0,0,0-.41-.21l-.15.05a2,2,0,0,0-.56-.12h-.16a5,5,0,0,0-2.45-2l-.48-.26-.64-.66a2.31,2.31,0,0,0-.79-.77,2.4,2.4,0,0,1-.75-.69l-.16-.85c-.08-1-.84-1.34-1.59-1.66l-.14-.06-.15,0c-.1,0-.21-.06-.23-.11l-.06-.14c-.85-1.83-1.72-3.71-4-4.39-.11,0-.2-.18-.3-.34a1.52,1.52,0,0,0-.25-.34l-.17-.17a1.51,1.51,0,0,0-.91-.56.77.77,0,0,0-.14,0h0a1.08,1.08,0,0,0-.5.32.79.79,0,0,1-.62.22,3.12,3.12,0,0,1-1.11-.28,6,6,0,0,0-2.25-.46,5.63,5.63,0,0,0-1.53.19,11,11,0,0,1-3.06.39h-.17l-2.2-1.15a7.79,7.79,0,0,0-3.82-2.43l-.4,0-.42,0a1.17,1.17,0,0,0-.43.06,3,3,0,0,1-.57.13c-.55.09-1.13.18-1.14,1a4,4,0,0,0,.33,1.87.53.53,0,0,0,.31.59c.14.15.05.3,0,.45a.45.45,0,0,0-.1.38.5.5,0,0,0,.26.24h0a.39.39,0,0,1,.05.25l2.4,3a2.13,2.13,0,0,0,.89.73l.18.1,1.63,1.35,1,1.15a1.86,1.86,0,0,0,1.13.84,1.82,1.82,0,0,1,1.1.81,1.07,1.07,0,0,0,.67.58l1.48,1.21c.09.11.16.22.24.33a2,2,0,0,0,.83.8,7.2,7.2,0,0,1,4.66,3,2.35,2.35,0,0,0,.57.49,3.34,3.34,0,0,1,.32.24l0,0h0l0,0h0l0,0,0,0h0a2.32,2.32,0,0,0,.72,1.16,9.28,9.28,0,0,0,1.71,1.61,7.09,7.09,0,0,1,2,2.11l0,0a3.9,3.9,0,0,1,.17.39c0,.08.06.17.08.26s.07.21.09.32a1.81,1.81,0,0,0,.33,2,1.59,1.59,0,0,0,1.47.81l.15,0a11.47,11.47,0,0,1,3.36,1.16l.26.39a4.67,4.67,0,0,1,1.91,1.35l.49.48a1.29,1.29,0,0,0,.87.65.16.16,0,0,0,.12,0h0c0,.19,0,.38.07.57a4.35,4.35,0,0,1,.07.9c.2.47.42.94.63,1.41a16.38,16.38,0,0,1,1.34,3.64,12,12,0,0,0,1.07,2.91,12.62,12.62,0,0,1,1,2.74,1.12,1.12,0,0,0,.62.66h.09l.1.09c1.76.6,3.42,1.29,4.38,3.24a5.09,5.09,0,0,0,1,1.49,7.43,7.43,0,0,1,.69.94c.1.2.24.4.45.43a.24.24,0,0,0,.12,0,2,2,0,0,0,.91.92l.4.58.4.57a.65.65,0,0,0,0,.22l.45.78a20.86,20.86,0,0,0,1.63,2.52l0,0h0a1,1,0,0,0,.33.95,6.08,6.08,0,0,1,1.81,2.88,10.65,10.65,0,0,0,.81,1.77,3.42,3.42,0,0,0,1,1.46,1.36,1.36,0,0,1,.44.63l.06.09v0h0c-1,1-.89,1.42.64,3.28l1.58,2.11a2,2,0,0,0,.47.69l.45.39c.22.18.43.36.64.56a3.42,3.42,0,0,0,.51.35,1.05,1.05,0,0,0,.28.47,7.49,7.49,0,0,0,1.47,2.38,1.68,1.68,0,0,0,.68,1.13l.26.25a20.37,20.37,0,0,0,2.91,2.52.92.92,0,0,0,.37.49.52.52,0,0,0,.2.07h0l0,0v.08l.29.18.35.23a.89.89,0,0,0,.18.64,5.52,5.52,0,0,1,.51,1.23,3.19,3.19,0,0,0,1.3,2,1.13,1.13,0,0,0,.89.71h0l1.17,1.17c.2.28.4.56.74.61h0l.66.64a1.65,1.65,0,0,0,.81.75,2,2,0,0,1,.71.86c.24.44.5.89,1,1h0a.35.35,0,0,0,.13.19l0,0a.28.28,0,0,0,.1,0H267a11.62,11.62,0,0,0,2.48,2.26l.44.32c1.65,1.22,3.36,2.48,4.25,4.75a4.76,4.76,0,0,0,1.35,1.69l.33.3,0,.13c.13.6.27,1.22.9,1.36a.84.84,0,0,0,.61.62l.4.1c.37.79.72,1.18,1.09,1.24a1,1,0,0,0,.79-.38c0-.06,0-.13,0-.19a.89.89,0,0,1,0-.38c.1-.21,0-.46-.18-.71a.93.93,0,0,1-.19-.54c0-.11.11-.19.27-.25a.75.75,0,0,1,.35,0,2.08,2.08,0,0,1,1.14.9,2.64,2.64,0,0,0,1.9,1.08Z"/><path class="cls-4" d="M363.64,507.13l.13.27a2.69,2.69,0,0,0,.15.31,1.31,1.31,0,0,0,.18.6.77.77,0,0,0,.34.85.32.32,0,0,0,.15,0c.18,0,.27-.19.35-.37l.07-.14.52-.27a3.81,3.81,0,0,1,.4-.48,1.76,1.76,0,0,0,.64-1.58h0l.05-.12a1.19,1.19,0,0,0-.06-.21,1.17,1.17,0,0,0-.12-.37,1,1,0,0,1-.12-.42.94.94,0,0,1,0-.09.41.41,0,0,1,0-.08h.39a.43.43,0,0,0,.37-.14.74.74,0,0,0,.09-.5c0-.21,0-.46,0-.72a2.85,2.85,0,0,0-.16-1.38c0-.06-.1-.09-.25-.09h0c-.52,0-.56-.3-.6-.61a1.33,1.33,0,0,0-.09-.38,3,3,0,0,1,.4-2.86.53.53,0,0,0,.08-.67,2,2,0,0,1,.07-1.12,3.73,3.73,0,0,0,.11-.47,1,1,0,0,1,.06-.68.26.26,0,0,1,.24-.11,1,1,0,0,1,.31.07,4.47,4.47,0,0,0,1.22-2.43,2.77,2.77,0,0,0,0-1.68c-.09-.18-.24-.4-.4-.44a.75.75,0,0,1-.52-.36,1.42,1.42,0,0,1,0-.91,3.25,3.25,0,0,0-.17-2.23.87.87,0,0,1-.14-.55.18.18,0,0,1,.11-.12c.57-.23.7-.78.82-1.32a3.24,3.24,0,0,1,.25-.78,5.23,5.23,0,0,1,1.26-.84,3.52,3.52,0,0,0,1.91-1.81l.85-1a2.22,2.22,0,0,1,1.8-1.05,3.91,3.91,0,0,0,1-.27l.06-.15c.1-.22.18-.44.41-.51a.94.94,0,0,0,.36-1,2.13,2.13,0,0,1,0-2.24,1.18,1.18,0,0,0,.2-.51s0,0,0,0a.82.82,0,0,0,0-.2.64.64,0,0,0-.43-.43c-.6-.23-.9-.48-1-.8a1.8,1.8,0,0,1,.34-1.31,1.64,1.64,0,0,0,.28-1.37,5,5,0,0,1,1.05-4.64,6.23,6.23,0,0,1,.49-.75,3.52,3.52,0,0,0,.72-1.45,2.46,2.46,0,0,0,0-.43,2,2,0,0,1,.43.12,1.68,1.68,0,0,0,.51.12.42.42,0,0,0,.34-.14,1.43,1.43,0,0,0,.49-.14,11.37,11.37,0,0,0,1.83.12,8,8,0,0,1,2.62.32,2.13,2.13,0,0,0,.72.14c.63,0,1.11-.38,1.48-1.16l.57-1c.26-.6.37-.9.28-1.09s-.41-.29-1.1-.38a7.66,7.66,0,0,0-.42-.66l-.14-.22a8,8,0,0,0-.51-.66l-.1-.12a17.67,17.67,0,0,0-2.33-2.11c-.58-.46-1.18-.93-1.73-1.45a1.08,1.08,0,0,0-.86-.69l-.31-.24a3.33,3.33,0,0,1-1.22-1.88l-.07-.15a.2.2,0,0,0,0-.28,4.06,4.06,0,0,1,.67-1.15,3.47,3.47,0,0,0,.75-1.49,1.07,1.07,0,0,0-.17-1.27l-.15-.23c-1.44-1.16-2-3-2.6-4.69-.2-.61-.4-1.21-.63-1.79a.54.54,0,0,1,.16-.75,2.08,2.08,0,0,0,.22-2.52.69.69,0,0,0-.27-.25c0-.45.32-.64.72-.86a1.74,1.74,0,0,0,.89-1,1.83,1.83,0,0,0-.14-1.24.43.43,0,0,0-.36-.15h-.21a.41.41,0,0,1-.36-.16.36.36,0,0,1-.27-.17.7.7,0,0,1,0-.46,1.47,1.47,0,0,0,.81-.37,1.1,1.1,0,0,1,1.15-.33s.05,0,.08,0l0,0s.05,0,.07,0a.69.69,0,0,0,0-.52l-.07-.2a2.08,2.08,0,0,0-.79-1.3h0a1.27,1.27,0,0,0-.61-.14h0l-.62,0-1,0h-.72a3.72,3.72,0,0,0-1.54-1.2h0a3,3,0,0,0-1.08-.22,4,4,0,0,0-.81.09,12.87,12.87,0,0,1-2.59.28,9.8,9.8,0,0,1-2.69-.37.87.87,0,0,0-.39-.36h0a.46.46,0,0,0-.14-.05.58.58,0,0,0-.34.13,4.64,4.64,0,0,0-.57.35,2.08,2.08,0,0,1-1.07.48,1.27,1.27,0,0,1-1-.67.42.42,0,0,0-.35-.17.84.84,0,0,0-.58.27c-.14.15-.3.29-.46.43a2.84,2.84,0,0,0-1.08,1.56.48.48,0,0,0,0,.21c-.06.29-.11.59-.17.88a15.55,15.55,0,0,1-.57,2.4,5.56,5.56,0,0,0-.17,2.31,6.42,6.42,0,0,1-.06,1.89,1.67,1.67,0,0,0-.2,1c0,.07,0,.14,0,.21,0,1.19-.42,1.77-1.27,1.76a2.27,2.27,0,0,1-.41,0l-.3,0c-.86,0-1.1.83-1.26,1.61a1.71,1.71,0,0,0,0,.58,1.15,1.15,0,0,1-.09.83c0,.11-.08.23-.12.35-.16.41-.33.84.14,1.28a.62.62,0,0,1,.25.41c0,.14-.13.25-.25.35a.67.67,0,0,0-.24.27,1.77,1.77,0,0,0-.84.92,1.93,1.93,0,0,0-1.11,1.14,3.16,3.16,0,0,0,.22,2.13,1.75,1.75,0,0,1,.07.88,3.36,3.36,0,0,0-1.08,2.06c-.37.1-.48.58-.57,1s-.12.54-.26.53l-.09,0a1.87,1.87,0,0,0-.89-.24,4,4,0,0,0-1.26.26,3.82,3.82,0,0,1-1.21.25,1.64,1.64,0,0,1-.6-.12h-.18a1.68,1.68,0,0,0-1.49.86,1.32,1.32,0,0,1-1.16.63,3.88,3.88,0,0,1-.89-.16,4,4,0,0,0-.9-.17.72.72,0,0,0-.27,0c0-.08-.06-.17-.09-.27l-.56-.4h-.53c-.11-.15-.23-.26-.34-.39l-.13-.15a4,4,0,0,0-1.29-.93l-.18-.07a3.77,3.77,0,0,0-.8-.21l-.19,0c-.11,0-.22,0-.33,0a5.16,5.16,0,0,0-.72,0,6.13,6.13,0,0,1-.86,0l-.81,0a2.92,2.92,0,0,0-2.68,1c-.49.29-.55.84-.61,1.37a2.1,2.1,0,0,1-.34,1.14.13.13,0,0,0-.12,0,.12.12,0,0,0,0,.12,3.38,3.38,0,0,0-1.16.58,2.61,2.61,0,0,1-1.47.6,1.77,1.77,0,0,1-.56-.12l-.09.06a.44.44,0,0,0-.19.15h-.2a3.27,3.27,0,0,1-1.09-.3,3.28,3.28,0,0,0-1.1-.3h-.15l-.53-.07a1,1,0,0,0-.56-.19,2.29,2.29,0,0,0-.67.12,2.2,2.2,0,0,1-.66.11l-.17,0a3.16,3.16,0,0,0-1.66.85,1.26,1.26,0,0,1-1,.45,1.7,1.7,0,0,1-1-.43l-.09,0a1.42,1.42,0,0,0-.55-.18.16.16,0,0,0-.1,0,4.91,4.91,0,0,0-2-2.11l-.22-.16-.27-.11c-.07-.11-.16-.19-.23-.29l-.21-.27a7.69,7.69,0,0,0-1-1,1,1,0,0,0-.57-.65,18.77,18.77,0,0,1-2.1-4.19.8.8,0,0,0,.47-.45.55.55,0,0,0,0-.37c-.05-.12-.12-.18-.19-.19s-.23.13-.34.27h-.29a2.18,2.18,0,0,0-2.21.94s0,.15,0,.16c-.19.34-.4.67-.61,1a8.55,8.55,0,0,0-1.31,2.77c-.06.51-.1,1-.13,1.54a8.52,8.52,0,0,1-.94,4.06.58.58,0,0,0-.21.41.83.83,0,0,0,.22.54,1.14,1.14,0,0,1,.34.72,1.51,1.51,0,0,0,.21.58l0,.31a6.13,6.13,0,0,1,0,.87,2.17,2.17,0,0,0,.65,2.08,4,4,0,0,1,1.59,3.23v.3c-1,.69-1.18,1.61-.48,3.09.14.3.31.59.47.89a4.75,4.75,0,0,1,.88,3.11c-.08.09-.11.16-.09.22s.09.09.2.1c.57.06,1.17.19,1.42.64a1.7,1.7,0,0,1-.06,1.36,1.09,1.09,0,0,0,0,1.32,1.36,1.36,0,0,0,1,.66,1.46,1.46,0,0,0,1.12-.6,1.35,1.35,0,0,1,1.06-.56,1.71,1.71,0,0,1,.91.4l.95,2.28-.49,1.86v0c-.46.71-.67,1-.63,1.33s.29.51.77.94l0,.13.23.1a1.39,1.39,0,0,1,.57.36.8.8,0,0,1,.08.1,4.81,4.81,0,0,1,.14,1.55,4.47,4.47,0,0,0,.21,1.75,2.88,2.88,0,0,1,.42,1.12,3.31,3.31,0,0,0,.48,1.25q0,1.06,0,2.12a1,1,0,0,0-.15.54s0,0,0,0a1.15,1.15,0,0,0,0,.22,1.71,1.71,0,0,0,.57.93.61.61,0,0,0,.19.07l.05,0,.11,0a1.35,1.35,0,0,0,.85-.43,3,3,0,0,1,.39-.29l.79.1.08.15a2.3,2.3,0,0,0,.84,1.11h0a.59.59,0,0,0,.18.07,1.1,1.1,0,0,0,.7-.28.29.29,0,0,1,.19,0,.54.54,0,0,1,.45.39.93.93,0,0,0,.77.6,1.36,1.36,0,0,0,.61-.13l.48-.37a3.33,3.33,0,0,1,2.06-1,2.37,2.37,0,0,1,1.48.78.49.49,0,0,0,.2-.09l.11-.07h.14l.1-.12a1.71,1.71,0,0,1,.76-.2l.23,0h0a6.8,6.8,0,0,1-.1.7,3.55,3.55,0,0,0-.06,1.47,4.59,4.59,0,0,0,.17.69,3,3,0,0,1,.18,1.14.81.81,0,0,1-.08.68,1,1,0,0,0-.1.69,3.66,3.66,0,0,0,1,.24,1.16,1.16,0,0,0,1.11-.62c.64-1,1.27-1.47,2-1.43a2.59,2.59,0,0,1,1.57.81,1.59,1.59,0,0,0,.86.47c.35,0,.58-.28.67-.87a7.49,7.49,0,0,1,.66-.36A2.47,2.47,0,0,0,341,499.2c0-.11,0-.13.07-.12a1,1,0,0,1,.36.24,1.78,1.78,0,0,0,.26.2l.21.33a1,1,0,0,0,.64.62,1.81,1.81,0,0,0,1,.57l.38.14a.48.48,0,0,0,.17,0,1.17,1.17,0,0,0,.48-.13,1.1,1.1,0,0,1,.47-.13.62.62,0,0,1,.46.28l-.23.63a1.61,1.61,0,0,0,.59,1.7,1.33,1.33,0,0,0,.57.22.55.55,0,0,0,.45-.23,2.51,2.51,0,0,1,1.9-.94,2.3,2.3,0,0,1,.54.09,1.51,1.51,0,0,0,.9.45,4.1,4.1,0,0,1,.63.19,1.71,1.71,0,0,1,1.18.8,3.86,3.86,0,0,1,.41,2.94A4.46,4.46,0,0,0,353,510a.91.91,0,0,0,.62.33,1.07,1.07,0,0,0,.69-.29l1.76-.72,1.81-.75.14-.05a1.3,1.3,0,0,0,.92-.79l0,0,0-.05a.6.6,0,0,0,.27.09c.21,0,.37-.18.47-.57a.23.23,0,0,1,.27-.23h0a.77.77,0,0,1,.54-.15l.48,0c.36,0,.72-.08.84-.74a1.11,1.11,0,0,0,.54.12h.42C363.09,506.17,363.5,506.25,363.64,507.13Zm2.49-.59h0l-.07.15,0,0c-.08-.16-.08-.21-.08-.22l0,0h0s0,0,0,0ZM317,485.26l.1.09,0,0s-.07,0-.12-.1Z"/><path class="cls-4" d="M447.77,545.47a1.32,1.32,0,0,1-.21-.13,4.85,4.85,0,0,0-2.07-.29,3.66,3.66,0,0,0-2.19,1.15,1.82,1.82,0,0,1-1,.59.75.75,0,0,1-.53-.15c0-.24-.16-.27-.29-.29a.56.56,0,0,1-.18-.05,1.48,1.48,0,0,1-.37.09l-.17,0h-.42a1.87,1.87,0,0,0-.79.38,1.85,1.85,0,0,1-1.09.41,2.21,2.21,0,0,0-.86.24,4.6,4.6,0,0,0-.61.11,1.24,1.24,0,0,0-.72-.12,13.45,13.45,0,0,0-2.58.66c-.21.08-.43.14-.67.2a2.69,2.69,0,0,0-2.15,1.54,7.2,7.2,0,0,1-3.45,3.71c-.3.19-.59.37-.88.57a18.26,18.26,0,0,0-5.81,4.22,3.29,3.29,0,0,0-1.07,1.92,11.91,11.91,0,0,1-.55,2.43c-.12.4-.24.81-.33,1.26l0,.13v.05h-.17c-.38,0-.68.44-1,.8l-.14.23a2.2,2.2,0,0,0-.44,1.26,3.2,3.2,0,0,1-1.54,3l-.19.15a3.18,3.18,0,0,0-.46.45l0,0a1.41,1.41,0,0,0-.16.22,1.83,1.83,0,0,0-.82.64.5.5,0,0,0-.06.1,1.47,1.47,0,0,1-.06.87,1.4,1.4,0,0,0,0,.93s0,0,.06,0l0,0a.63.63,0,0,0,.52.14l.22,0,.32-.24.16.07c.21-.06.44-.11.66-.15a2.26,2.26,0,0,0,2.21-2.06,2.86,2.86,0,0,0,.59-2.24c0-.17,0-.33,0-.49a1.23,1.23,0,0,1,.14-.68.24.24,0,0,1,.19-.11,1.07,1.07,0,0,1,.48.15,7.17,7.17,0,0,0,1.45.05,3.33,3.33,0,0,0,2.27-1.08,3.12,3.12,0,0,1,2.1-1.13,4.12,4.12,0,0,1,.62,0H426a.86.86,0,0,0,.54-.27h0a1.81,1.81,0,0,0,.42-1l.12,0,.26-.37.32-.42c.27-.19.54-.38.52-.79a.83.83,0,0,0,.48-.62l.12-.19c.25-.41.48-.81,1-.86a.71.71,0,0,0,.29-.26,2.81,2.81,0,0,0,.48-1.14c.15-.56.28-1.09.78-1.35a11.73,11.73,0,0,0,1.68-1.16,7.53,7.53,0,0,1,2.56-1.51.64.64,0,0,1,.35-.14h.52a.68.68,0,0,0,.49-.26l.29-.23a4.31,4.31,0,0,0,.61-.54,4.68,4.68,0,0,1,2.16-1.23,4,4,0,0,0,2.79-2.21.33.33,0,0,1,.22-.13,5.65,5.65,0,0,0,2.32-1.21c.34-.25.7-.51,1.06-.73a1.84,1.84,0,0,0,.27-.16l0,0a4.18,4.18,0,0,0,1.19-1.48l.25-.43A.55.55,0,0,0,447.77,545.47Z"/><path class="cls-4" d="M417,550.87a2.46,2.46,0,0,1,1.11.18.54.54,0,0,0,.18-.08.4.4,0,0,0,.34.15.73.73,0,0,0,.14-.05h0a.81.81,0,0,0,.18-.07c.12-.06.13-.15.11-.18a9.61,9.61,0,0,0,3.08-2.79h.06l0,0h0a1.82,1.82,0,0,0-.22,1.19,1.31,1.31,0,0,0,.84.86,1.29,1.29,0,0,0,1.06.55,1,1,0,0,0,.13,0l.09,0a1.31,1.31,0,0,0,.4-.22l.07-.06a2,2,0,0,0,.22-.19,1.67,1.67,0,0,1,1.15-.53,2.81,2.81,0,0,0,.56-.12,2.45,2.45,0,0,1,1.65-.65l.46,0a4.12,4.12,0,0,0,1.09-.22c.34,0,.6-.27.85-.69a1.28,1.28,0,0,0,1-.42,2,2,0,0,0,.29-1.21c0-1-.31-1.18-.82-1.13l-.51.06-1.64.17-1.46.16h-.16c-.21,0-.43.05-.64.09s-.43.07-.64.09a2.51,2.51,0,0,1-.91-.07l-.57.69c-.33.47-.66.72-1,.75s-.71-.25-1-.86c-.15-.28-.35-.42-.57-.41a.87.87,0,0,0-.53.31,2.21,2.21,0,0,1-1.57.73c-.23,0-.45,0-.68,0s-.46,0-.68,0h-.16l-.24-.07a.45.45,0,0,0-.37-.18,1,1,0,0,0-.49.25,1.3,1.3,0,0,1-.66.35c-.36,0-.43-.46-.5-1,0-.16,0-.32-.08-.47a.64.64,0,0,0-.55-.34.82.82,0,0,0-.48.24,1.15,1.15,0,0,0-.94.55,2.7,2.7,0,0,0,.18,1.82l0,.06v0a3.32,3.32,0,0,0-.6,0,1.53,1.53,0,0,0-.65.19l-.06,0a1.38,1.38,0,0,0-.39.37l0,.05a2.53,2.53,0,0,0-.34.76c-.24.89-.62,1.36-1.15,1.39a1.75,1.75,0,0,1-1.06-.4.27.27,0,0,0-.29-.19l-.14,0-.12,0a3.08,3.08,0,0,1-.22-.37c-.18-.35-.37-.7-.79-.68a.94.94,0,0,0-.24,0c-.4.13-.8.29-1.2.46a7.14,7.14,0,0,1-2.32.68,2.76,2.76,0,0,1-2.27-1.06.43.43,0,0,0-.34-.08h-.16a1.24,1.24,0,0,0-1.33-.62,1.5,1.5,0,0,1-1-.23.31.31,0,0,0-.29-.25.36.36,0,0,1-.23-.12l-.75,0a1.23,1.23,0,0,0-.92-.41,2.65,2.65,0,0,0-1.15.44,3.38,3.38,0,0,1-1,.42s-.05-.08-.1-.07-.07,0-.1.09a8.14,8.14,0,0,1-1,.74,3.7,3.7,0,0,0-1.92,2.59.42.42,0,0,1-.29.17c-.15,0-.27-.13-.4-.27s-.26-.28-.42-.28a.11.11,0,0,0-.1,0h0a2.58,2.58,0,0,0-1-1.75l-.12-.1-.56.31a2.4,2.4,0,0,0-.39,1.26,4.33,4.33,0,0,1-.11.68c0,.06-.06.09-.16.09h0a1.43,1.43,0,0,0,0,1.68,1.19,1.19,0,0,0,.75.35c.35,0,.61-.3.84-.71l.17-.29a1.82,1.82,0,0,0,.64,1.13,2.4,2.4,0,0,0,.34.26h0l0,0a.91.91,0,0,0,.14,0l.09,0a.66.66,0,0,0,.24-.13.83.83,0,0,0,.2-.23,1,1,0,0,0,.76.59,11.25,11.25,0,0,0,1.34,0l1.26,0H396a2.74,2.74,0,0,1,.81-.14c.27,0,.54,0,.82,0a7.57,7.57,0,0,0,.82,0,2.57,2.57,0,0,0,.75-.13l-.06.1a.73.73,0,0,0,.78.56l.35,0,.23,0a.53.53,0,0,1,.28-.14.23.23,0,0,1,.13,0,.78.78,0,0,1,.14.48.65.65,0,0,0,.44.17.54.54,0,0,0,.17,0l.67-.25a10.84,10.84,0,0,1,3.26-.88,4.56,4.56,0,0,1,1.44.16c.05,0,.11,0,.22-.12a5.81,5.81,0,0,1,1.64-.69,5.1,5.1,0,0,0,.57-.19,3.29,3.29,0,0,1,1.21-.22,4.85,4.85,0,0,0,.73-.08,2.3,2.3,0,0,0,.64-.28,2.08,2.08,0,0,1,.61-.26,6.8,6.8,0,0,0,2-.87A5.75,5.75,0,0,1,417,550.87Z"/><path class="cls-4" d="M362.2,548.57c-.93-1.43-1.89-2.72-3.44-2.84l-.09,0a.17.17,0,0,1-.12-.07.46.46,0,0,0-.3-.16s-.06,0-.09,0l0,0s-.08,0-.12,0l-.27.24c-.19.16-.37.32-.56.47a2.32,2.32,0,0,1-1.51.45,2.78,2.78,0,0,1-2.19-1.19l0,0a2.47,2.47,0,0,1-.16-.29,5.53,5.53,0,0,1,0-.66,1.86,1.86,0,0,0-.57-1.78l-.75,0a2.79,2.79,0,0,1-.72-.39,2.06,2.06,0,0,0-1-.44h-.09l-.24-.32a1,1,0,0,0-.65-.31,1.65,1.65,0,0,0-1.06.53h-2.1l-.22,0-.22,0a.45.45,0,0,0-.48.3.29.29,0,0,1-.16,0h0a5.79,5.79,0,0,1-3-1.49,2.27,2.27,0,0,1-1-1.52,1.46,1.46,0,0,1,.34-.88,3.16,3.16,0,0,1,.55-.53v-.07h0l.36,0a6.37,6.37,0,0,1,.38.53,2.07,2.07,0,0,0,1.36.65,3.69,3.69,0,0,0,1.57-.35l.42-.33c.33-.08.4-.39.44-.79l0-.12a.07.07,0,0,0,0,0l.68.07.44-.21.13-.06a3.86,3.86,0,0,1,1.67-.34l.36,0c.54-.25.82-.55.86-.91a1.63,1.63,0,0,0-.57-1.19.51.51,0,0,0-.4-.16h-.19a.47.47,0,0,1-.47-.32.53.53,0,0,0-.36-.24c-.19,0-.35.17-.5.37a7.4,7.4,0,0,1-2.13.13l-1.11-.07c-.33,0-.67,0-1,0s-.49,0-.73,0l-.75,0a4.33,4.33,0,0,0-2.16.29l-.28.33a1.59,1.59,0,0,1-.85.33.73.73,0,0,1-.57-.44,1.4,1.4,0,0,0-1.2-.82,3.9,3.9,0,0,0-.65,0,1.12,1.12,0,0,0-.54-.15L335,533.6a1.74,1.74,0,0,0-1.67-1.08l-.45,0a3.6,3.6,0,0,1-.45-.06,5.33,5.33,0,0,1-.55-.56c-.37-.42-.76-.84-1.22-.88a1.09,1.09,0,0,0-.78.3l-.5,0a.76.76,0,0,1-.4.09c-.42,0-.66-.54-.84-1a2.34,2.34,0,0,0-1.45-1.54l-1.57-.14c-1.34.07-1.46,1.22-1.58,2.33,0,.3-.06.59-.11.87-.24,1.12-.51,1.46-1.1,1.41a4.12,4.12,0,0,1-1.22-.39,3,3,0,0,0-.85-.24,1.35,1.35,0,0,0-.48,0v0l-.07-.06,0,0h0l-.57-.16c-.25-.07-.5-.15-.74-.2l-.23-.09a6.34,6.34,0,0,0-1.6-.46h-.41l-.27,0a1.23,1.23,0,0,0-.41-.11,2.7,2.7,0,0,0-.93.13,2.62,2.62,0,0,1-.92.13,1.42,1.42,0,0,1-.87-.46l-.24-.06-.54-.15-.56-.16a3,3,0,0,1-2.66-2.88c-.16-1-1.17-2.69-2.33-2.81a1.2,1.2,0,0,0-.33,0,4.12,4.12,0,0,1-1.12,0,9.8,9.8,0,0,1-2.72-.87c-.35-.15-.71-.3-1.06-.44-.16-.2-.31-.42-.47-.63a3.67,3.67,0,0,0-1.38-1.37l-.09,0a1.43,1.43,0,0,0-.3-.1,4.79,4.79,0,0,1-.63-.31,2.86,2.86,0,0,0-.91-.38c-.49-.06-.75.36-.8,1.3a1.22,1.22,0,0,1-.85.2,2.65,2.65,0,0,1-.69-.22l-.24-.12v0l-.67-.33a7.45,7.45,0,0,0-2.31-.87,2.77,2.77,0,0,0-.79,0,.39.39,0,0,1-.23.05c-.13,0-.26-.11-.47-.37l-.13-.49-.19-.08a1,1,0,0,0-.28-.1c-.13,0-.23,0-.35.18l-.19,0c-1,.65-1.26,1.92-1.37,3.18-.08.13,0,.31.12.55a2.09,2.09,0,0,0,0,.44l-.15.06a1.74,1.74,0,0,0-.63-.25.68.68,0,0,0-.48.12l0,0a1.47,1.47,0,0,0-.5,1,12.25,12.25,0,0,0-.19,1.79l0,.34a.13.13,0,0,1-.09,0c-.12,0-.23-.24-.34-.46s-.23-.46-.42-.49l-.16,0a.38.38,0,0,1-.3-.14.71.71,0,0,1,0-.52.86.86,0,0,0-.11-.68,1.2,1.2,0,0,0-.64-.56c-.36-.05-.57.26-.77.56a2.52,2.52,0,0,1-.3.39c-.3.28-.14.51,0,.75a2.3,2.3,0,0,1,.16.26,3.7,3.7,0,0,0,3,2.24l.4,0,.56.06a10.79,10.79,0,0,0,1.23.1,4.17,4.17,0,0,1,.56,0,7,7,0,0,1,3.06,1.42,2.18,2.18,0,0,1,1,1.11,1.14,1.14,0,0,1-.26.93c-.35.48,0,.93.3,1.25a3.39,3.39,0,0,0,2.12,1.36l6.38,1.75.29.33a7.92,7.92,0,0,1,.59.53,6,6,0,0,0,.59.5,2.84,2.84,0,0,0,.43.28h0a.81.81,0,0,0,.08.18h0a.41.41,0,0,0,.13.17l0,0s0,0,.07,0A.94.94,0,0,0,304,539a.76.76,0,0,1,.23,0,1.88,1.88,0,0,1,.63.26,2.48,2.48,0,0,0,.43.21l.28.37a4.58,4.58,0,0,1,.85.56,2.91,2.91,0,0,0,1.27.68,1.1,1.1,0,0,0,.79-.22c0-.13.06-.27.09-.47l.86-.72h.24l.38.05a1.06,1.06,0,0,0,.41,0,1.62,1.62,0,0,0,.3.14,2.85,2.85,0,0,0,.43.09,1.8,1.8,0,0,0,.53,0l.22-.07.09.09a4.92,4.92,0,0,1,1.09,0,13,13,0,0,1,3.15.93,17.43,17.43,0,0,0,2.29.77,21.92,21.92,0,0,1,1.89,1.34,13.33,13.33,0,0,0,2.92,1.85l.13,0a4.91,4.91,0,0,0,.63.22.82.82,0,0,0,.67.57H325l.11,0a2.27,2.27,0,0,0,1.54.87,2.24,2.24,0,0,0,.41,0,6.06,6.06,0,0,1,1,0,3.21,3.21,0,0,1,1.12.3l.38.1a1.36,1.36,0,0,0,.9.38,1.2,1.2,0,0,1,1.06.61.72.72,0,0,0,.37.35h0a.47.47,0,0,0,.1,0,1,1,0,0,0,.55-.2c.19-.63.54-.69.85-.67l.38.06.39.06h.15l.78.1a7,7,0,0,1,.77.33,4,4,0,0,0,1.38.46h.2l1.3.45a2.62,2.62,0,0,0,.22.15l.17.11a2,2,0,0,0,.39.19l.28.07a1.66,1.66,0,0,0,.19,0h0l.2-.11a1.5,1.5,0,0,0,.42.09,3.13,3.13,0,0,0,1.59-.53.21.21,0,0,0,.17-.05l.3,0a2.3,2.3,0,0,0,.41,0,1.87,1.87,0,0,0,.35-.07,2.15,2.15,0,0,1,.76-.12,1.14,1.14,0,0,1,.52.16l.28.23.15.17a7.19,7.19,0,0,0,.76.72l.08.06a2.23,2.23,0,0,0,.29.22,1.29,1.29,0,0,0,.34.11h.11l.1.14.34.15a1.93,1.93,0,0,1,.2.38,2.52,2.52,0,0,0,.9.69l.29.16a4.49,4.49,0,0,0,2,.53h.23a1.68,1.68,0,0,1,1.18.47,1.87,1.87,0,0,0,1.27.61l.17,0h0a2.27,2.27,0,0,0,.5-.06.81.81,0,0,0,.33-.27,1.87,1.87,0,0,0-.13-1.66,2.1,2.1,0,0,0-.27-.36,3.57,3.57,0,0,0-1-.69l-.2-.09-.27-.68h0l.09-.06a.45.45,0,0,1,.36-.23c.15,0,.3.13.48.38a1.72,1.72,0,0,0,1.13.8,5.79,5.79,0,0,1,2.64,1.36.58.58,0,0,0,.16.06,2.58,2.58,0,0,1,.07.49,1.81,1.81,0,0,0-.45.93c.21.86.6,1,.92,1a2.73,2.73,0,0,0,.54-.05,3.56,3.56,0,0,1,.45-.05c.47-.21.55-.73.63-1.24l0-.16c.09-.24.17-.36.24-.36s.13.14.18.27a.77.77,0,0,0,.15.27l.1.08a1,1,0,0,0,.93.88h.1c.42,0,.46-.46.51-.88q0-.2.05-.4l-.05-.15c-.08-.24-.16-.49-.4-.5h0c-.18-.52.07-.67.33-.83a1.46,1.46,0,0,0,.25-.18L362,551a1.39,1.39,0,0,0,.49-1.83Zm-67.3-25.94v0l-.1-.18A.63.63,0,0,1,294.9,522.64Z"/><path class="cls-4" d="M504.32,518.05c-.32-.13-.26-.71-.21-1.26a10.93,10.93,0,0,0,0-3,2,2,0,0,1,0-1,1.64,1.64,0,0,0-.07-1.13c-.42-.39-.76-.65-1.06-.6a.56.56,0,0,0-.1,0h0c-.33.14-.62.62-1,1.41a2.42,2.42,0,0,1-1.37,1.32,1,1,0,0,0-.65.73.49.49,0,0,0,.19.57c.3.14.43.31.42.49s-.36.53-.63.74a3,3,0,0,0-1.25,3.31A3.76,3.76,0,0,1,497.4,523c-.36,1.13-.3,1.28.77,1.9a1.11,1.11,0,0,1,.28.09.79.79,0,0,0,.47.09.68.68,0,0,0,.26-.12l.71-.57.16-.13a7.53,7.53,0,0,0,2-2.78l.16-.11.18-.15.07-.05a1.66,1.66,0,0,0,0,.23.7.7,0,0,1-.18.57,1.53,1.53,0,0,0-.41,1,.43.43,0,0,0,.28.41.52.52,0,0,0,.31,0c.3-.06.49-.42.67-.76a4.15,4.15,0,0,1,.26-.44.9.9,0,0,0,.29-.49.56.56,0,0,0-.2-.49c-.07,0-.1-.07-.09-.17-.08-.3-.19-.44-.34-.41h0a.7.7,0,0,1,.4-.21l.36-.05a.75.75,0,0,0,.44-.24l.2-.28a2,2,0,0,0,.53-1.14C504.9,518.4,504.7,518.2,504.32,518.05Z"/><path class="cls-4" d="M353,510h0Z"/><path class="cls-4" d="M483.05,529.87c-.05-.4-.39-.64-.78-.84a1.77,1.77,0,0,0-1.05-.13L481,529l-.07,0a3.19,3.19,0,0,0-1.23.72l-.09.09a3.12,3.12,0,0,0-.32.36l0,.05a3,3,0,0,0-.28.42c-.67,1.31-1.42,2-2.37,2.15l-.35,0-.2,0a2.74,2.74,0,0,0-.58.17.82.82,0,0,0-.53.88c0,.29.18.44.42.4l.15,0a2,2,0,0,1,.42-.13c.17,0,.27,0,.32.09s0,.49-.14.79c0,.13-.09.25-.12.36a4,4,0,0,1-.42.89c-.37.65-.76,1.32-.16,2.12,0,.15-.28.39-.41.5L473.74,540l-.31.27a2.25,2.25,0,0,0-1.05,1.83.67.67,0,0,0,.32,0,1.76,1.76,0,0,0,.78-.48,1.9,1.9,0,0,1,.7-.46,2.86,2.86,0,0,0,2.45-2,1.19,1.19,0,0,1,.39-.41,1.07,1.07,0,0,0,.47-.59l1.24-2.33c1.15-1.31,2.07-2.53,1.67-4.24a.33.33,0,0,1,0-.23c.06-.12.21-.18.4-.25a2,2,0,0,0,.33-.09,1.92,1.92,0,0,1,.32-.09.53.53,0,0,1,.41.08c.49-.11,1.08-.26,1.19-.94a.7.7,0,0,0,0-.16A.34.34,0,0,0,483.05,529.87Z"/><path class="cls-4" d="M388.06,552.54A2,2,0,0,0,388,552a1.28,1.28,0,0,0-.7-.8l-.32-.29a7,7,0,0,1,.22-1.89,1.05,1.05,0,0,1,.25-.37.72.72,0,0,0,.12-1c-.05-.12-.1-.26-.28-.25h-.12a2.1,2.1,0,0,0-1.26.67,3.16,3.16,0,0,1-.83.57l-.45.09-.08,0a.18.18,0,0,0-.15.08l-1.07-.29a.91.91,0,0,0-.66-.43c-.3,0-.55.3-.78.58a3.57,3.57,0,0,1-.38.42c-.84-.21-1-1-1.18-1.86,0-.14-.06-.29-.1-.44a4.63,4.63,0,0,0-.47-.17h0a4.1,4.1,0,0,0-.87-.21h-.08c-.09,0-.2,0-.29,0a2.73,2.73,0,0,0-1.94.82.8.8,0,0,1-.61.2l-.32,0-.28,0c-.19,0-.4,0-.42.31-.12,1.5-.5,1.74-1.29,1.74-.19,0-.42,0-.67,0h-.14a4.63,4.63,0,0,0-2.83,2,4.11,4.11,0,0,0-.68,2.27,7,7,0,0,1-.25,1.46c0,.46.08,1.27.69,1.49l.68.25a6.35,6.35,0,0,0,2.14.54c.1,0,.19,0,.28,0l.18,0a2.78,2.78,0,0,0,.38,0c.59-.16,1.17-.36,1.75-.56a16.68,16.68,0,0,1,2.89-.81l.49-.61a3.6,3.6,0,0,1,.78-.17,2.16,2.16,0,0,0,1.26-.48,1.76,1.76,0,0,0,.15-.18,1.21,1.21,0,0,0,.09-.1l.18.16.23.24c.32.34.65.68,1.06.68a.79.79,0,0,0,.32-.07,7.13,7.13,0,0,1,2-.42,11.08,11.08,0,0,0,1.21-.19C386.81,554.47,387.89,554.22,388.06,552.54Z"/><path class="cls-4" d="M443.87,539.21l-.17-.11c-.33-.58-.73-.84-1.21-.79a2.84,2.84,0,0,0-1.39.73,3.32,3.32,0,0,1-1.67.85,1.53,1.53,0,0,1-1.28-.52h0l0,0,0,0a3.92,3.92,0,0,1-1.13,1.53,2.71,2.71,0,0,0-.85,2.33c0,.47.14.69.36.66a.87.87,0,0,0,.4-.2,5.42,5.42,0,0,1,3-1.06l.83-.07.6-.05a.56.56,0,0,0,.36.09c.28,0,.5-.31.69-.59a1.91,1.91,0,0,1,1.37-1.11l.47-.4a1.48,1.48,0,0,0,.25-.59v0a.93.93,0,0,0,0-.15C444.38,539.53,444.11,539.37,443.87,539.21Z"/><path class="cls-4" d="M300.13,498.32a.36.36,0,0,0,.28.19c.24,0,.53-.21.76-.39l.11-.08a.57.57,0,0,0,.38-.16.55.55,0,0,1,.36-.16.47.47,0,0,1,.2.07c.21.85.53,1.06.76,1.07s.52-.16.76-.52a7.26,7.26,0,0,0,1.27-3.9,1,1,0,0,0-.07-.32l-.45-.38-.11-.1-.1-.07v-.11a1,1,0,0,0-.67-.74l-1.07-.75a4.88,4.88,0,0,0-1.47-.37,3.43,3.43,0,0,0-1.34.16,6.33,6.33,0,0,0-.35,2.08A6.61,6.61,0,0,1,299,496c-.21.53.28,1.21.71,1.82C299.9,498,300,498.14,300.13,498.32Z"/><path class="cls-4" d="M274.31,465.07a1.09,1.09,0,0,0-.44-.19.32.32,0,0,0-.25.09.5.5,0,0,0-.15.4.71.71,0,0,0,.17.44c.49.54.26.86,0,1.25a2.51,2.51,0,0,0-.34,1.54.9.9,0,0,0,.25.83,2.48,2.48,0,0,1,.3.51l0,.05a2.17,2.17,0,0,0-.34-.06,1.16,1.16,0,0,0-.29,0h-.11a1,1,0,0,0-.23.08.86.86,0,0,0-.16.11,1,1,0,0,0-.23.24l-.07.13a1.6,1.6,0,0,0-.15.43l0,.12a2,2,0,0,0,0,.27c0,.52.33.61.68.7a1.06,1.06,0,0,1,.63.33.36.36,0,0,0,.13.09,2.46,2.46,0,0,1,.34.24,1.23,1.23,0,0,0,.6.33.5.5,0,0,0,.42-.2l.12-.13a1.35,1.35,0,0,0,.38-1.67,1.09,1.09,0,0,1-.11-.85c.08-.14.24-.2.49-.18a2.36,2.36,0,0,1,.53.12,2.91,2.91,0,0,1,.61.32,2,2,0,0,0,.89.38.52.52,0,0,0,.21,0,2.38,2.38,0,0,0-.32-1.47,1.17,1.17,0,0,0-.18-.15l-.06,0a1.37,1.37,0,0,0-.6-.25c-.58-.2-.69-.72-.83-1.33A3.64,3.64,0,0,0,274.31,465.07Z"/><path class="cls-4" d="M459.67,451.39h0c2.2-.1,3.57-1.68,3.75-4.32a3.37,3.37,0,0,0-.6-2.21.79.79,0,0,0-.6-.34.53.53,0,0,0-.21.05,5.93,5.93,0,0,0-2.76,3.23,4.47,4.47,0,0,0,0,3.27C459.33,451.25,459.43,451.4,459.67,451.39Z"/><path class="cls-4" d="M451.55,481.85a.38.38,0,0,0-.4.28,2,2,0,0,0-.1,2l0,.47c.19.46.38.91.73,1h0s.08,0,.13,0a1.21,1.21,0,0,0,.68-.36,2.38,2.38,0,0,1,1.3-.43h1.2a2.74,2.74,0,0,0,.64-.11l.11,0a1.65,1.65,0,0,1,.36,0,1.5,1.5,0,0,0,.38,0c.28,0,.44-.21.5-.61,0-.11,0-.19,0-.29s0-.12,0-.17a2.77,2.77,0,0,0,0-.48,1.91,1.91,0,0,0-.07-.33,1.47,1.47,0,0,0-.1-.23,1.29,1.29,0,0,0-.13-.18,1.19,1.19,0,0,0-.26-.22l-.12-.06a1.35,1.35,0,0,0-.23-.11,2.83,2.83,0,0,1-1.46-.88.85.85,0,0,0-.54-.5l-.14,0-.13-.31-.33-.28-.11-.35a1.18,1.18,0,0,0-.87-.52,1,1,0,0,0-.69.42,1.18,1.18,0,0,0-.06.17l0,.09a1,1,0,0,0-.05.14l-.25.28a.78.78,0,0,0,0,.88,1,1,0,0,1,.15.58l-.16,0Z"/><path class="cls-4" d="M475.06,471.28l.15,0a.56.56,0,0,0,.15-.07h0a1,1,0,0,1-.15.51.9.9,0,0,0-.13.63l.45.45.27.29a1.8,1.8,0,0,0,.72.09,4.07,4.07,0,0,0,2-1l.33-.27a.48.48,0,0,0,.35.18,3.21,3.21,0,0,0,.9-.25l.26-.1a2.09,2.09,0,0,1,.61-.19,1.37,1.37,0,0,0,1.07-.63.8.8,0,0,0,0-.2l.1-.07a1.22,1.22,0,0,0,.67-.9l-.49-.64-.3-.52-1.08-.84a1.09,1.09,0,0,1-.38.1,1.89,1.89,0,0,1-.78-.17,1.9,1.9,0,0,0-.8-.17h-.1a3.59,3.59,0,0,0-.76,0,8.59,8.59,0,0,0-2.55.73c-.45.18-.92.37-1.38.5a1,1,0,0,0-.71.63,1.54,1.54,0,0,0,1.54,1.94Z"/><path class="cls-4" d="M268.6,458.2l.12.09a5.41,5.41,0,0,1,2.2,2.47h0a1.37,1.37,0,0,0,1.44-1.27s0,0,0-.07a2.31,2.31,0,0,1,.4.38,1,1,0,0,0,.63.42l.48.05c1.14.07,1.29-.44,1.26-2.36a2.68,2.68,0,0,0-.91-.95,2,2,0,0,0-1.39-.57h-1l-.22,0h-.25a4.84,4.84,0,0,1-.56-.08,4.38,4.38,0,0,0-.56-.08,1.07,1.07,0,0,0-1,.45c-.08.28-.3.29-.53.3s-.44,0-.54.27a.68.68,0,0,0,0,.51A.92.92,0,0,0,268.6,458.2Z"/><path class="cls-4" d="M468.73,485.16a.69.69,0,0,0,.13.31h0a1,1,0,0,0,.14.17,10.39,10.39,0,0,0,2.05,1.4,1.39,1.39,0,0,0,.72.09c1-.09,2.46-.87,2.59-1.58a3.29,3.29,0,0,0-.29-2.77,1.75,1.75,0,0,1-.2-.16,1,1,0,0,0-.39-.22h0a.35.35,0,0,0-.12,0,.66.66,0,0,0-.35.16,3.53,3.53,0,0,1-1.82.83h-.37a2.83,2.83,0,0,0-1.64.81,1.26,1.26,0,0,0-.47.81.79.79,0,0,0,0,.11Z"/><path class="cls-4" d="M449.58,476.72s0,0,.15.1l.08,0c.64.42,1,.65,1.19.64s.27-.25.3-.73c0-.12,0-.24,0-.39.26,1,1,1.11,1.73,1.25a5.76,5.76,0,0,1,.71.16.4.4,0,0,0,.18-.07.66.66,0,0,0,.22.09,1.18,1.18,0,0,0,.29,0c.35,0,.6-.24.75-.68l.33-.55a2.47,2.47,0,0,0,.42-.29,1.3,1.3,0,0,1,.65-.35.61.61,0,0,1,.47.22.7.7,0,0,0,.39.28.65.65,0,0,1,.5.57.43.43,0,0,0,.06.12.55.55,0,0,0,0,.09.33.33,0,0,0,.14.11l.11,0s.05,0,.1,0a2,2,0,0,0,.38-.07,2.29,2.29,0,0,1,.33-.07.56.56,0,0,0,.51-.5.7.7,0,0,0-.41-.78l-.15-.11-.72-.55-2-4.26a1.82,1.82,0,0,0-.25-1.09,3.9,3.9,0,0,1-.17-.38.84.84,0,0,0-.05-.15l0-.47a4,4,0,0,0,.68-2.24c0-.34.06-.68.12-1l.25,0h.06a3.41,3.41,0,0,1,1,.14,20.5,20.5,0,0,0,2.46.45l1,.14.58.43a1.36,1.36,0,0,0,.64.14,1,1,0,0,1,.82.29c.09.11.23.24.37.23a.28.28,0,0,0,.21-.13.49.49,0,0,0,0-.55,1.08,1.08,0,0,1-.11-.3l-1.55-1.18c0-.11,0-.22,0-.33a1.56,1.56,0,0,0-.18-.92.74.74,0,0,0-.06-.6.81.81,0,0,0-.71-.3h-.14a1.61,1.61,0,0,1-1-.35,2.45,2.45,0,0,0-.56-.29c-.32-.1-.6-.23-.52-.68s.39-.56.7-.7c3-1.38,3.13-1.69,3.42-5.28.07-.84,0-1.3-.2-1.55a.64.64,0,0,0-.57-.22,2.4,2.4,0,0,0-.74.18,6.42,6.42,0,0,0-4.08,3,1,1,0,0,0-.18.65.26.26,0,0,0,.07.13v0l-.26.11a3,3,0,0,0-.34.32l-.07.06,0-.06.14-.23.12-.25a1.86,1.86,0,0,0,.25-.71,4.48,4.48,0,0,0,.09-4.28c-.7-1.07-.4-1.56.24-2.41.28-.37.71-.94.32-1.44a.72.72,0,0,0-.61-.29,1.51,1.51,0,0,0-.82.34,8.06,8.06,0,0,0-2.57,3.08,3,3,0,0,0-.54,1.24,3.65,3.65,0,0,1-.39,1l-.42,2.33c-1.19,1.6-1.22,2.24-.14,3.56A2.27,2.27,0,0,1,453,463a3.54,3.54,0,0,0-.14,1.66l0,.23a3.12,3.12,0,0,1,.07.41,1.48,1.48,0,0,0,.26.79l.25.34.22,1.5.14,1.52a2.15,2.15,0,0,0-.79,1.34,4.15,4.15,0,0,1-.28.76,1,1,0,0,0-.06.15l-.18,0a1.62,1.62,0,0,1-.93-.36,1.65,1.65,0,0,0-.94-.36,1,1,0,0,0-.25,0,2,2,0,0,0-1.12,1.58,5.53,5.53,0,0,0,.22,1.76A4.41,4.41,0,0,1,449.58,476.72Zm6.3-16.72a2,2,0,0,0,.4-.35,2.25,2.25,0,0,0-.14.56.88.88,0,0,0-.3.23.66.66,0,0,1-.39.24h-.12A1.12,1.12,0,0,1,455.87,460Zm.67-.85-.12.18a1.23,1.23,0,0,0,0-.13A.22.22,0,0,0,456.54,459.16Z"/><path class="cls-4" d="M517.71,477.67a3,3,0,0,0-.75.19,14.09,14.09,0,0,0-1.57,0,12.93,12.93,0,0,1-1.75,0l-.28,0-.38-.06c-.4.48-.57.85-.51,1.1s.35.43.9.5a4.34,4.34,0,0,0,.91,0,2.11,2.11,0,0,1,1.69.32,6.4,6.4,0,0,0,2.86.78l.43,0a3.13,3.13,0,0,0,.77,0,2.4,2.4,0,0,0,1.52-.81l1.36-.38.22,0a1.55,1.55,0,0,0,.64-.22c.22-.21.32-.35.32-.46s0,0,0-.07h0a.46.46,0,0,0-.23-.14c-.13,0-.26-.08-.26-.2a.61.61,0,0,0-.62-.22l-.3.06-.37.07-.37-.24-.39-.24a3.07,3.07,0,0,1-.7.17,6.1,6.1,0,0,1-1.52-.06A6.12,6.12,0,0,0,517.71,477.67Z"/><path class="cls-4" d="M438,486.12l-1.36-.29a1.94,1.94,0,0,1-1-.36,2,2,0,0,0-1-.36.92.92,0,0,0-.49.18h0a1.88,1.88,0,0,0,0-.3,13.93,13.93,0,0,0-4.25-.6,8.48,8.48,0,0,0-.89.08,1.32,1.32,0,0,0-1.15.85,4.89,4.89,0,0,1-.33,1.3,3.51,3.51,0,0,0-.29,1.9.9.9,0,0,0,.77,1c0,.1.08.16.14.15s0,0,.06,0h0s.05,0,.07-.06h.11a4.46,4.46,0,0,0,1.94-.74,5.3,5.3,0,0,1,1.69-.72l.6.56a.35.35,0,0,0,.27.15.38.38,0,0,0,.27-.21,1.66,1.66,0,0,1,1.15-.57,1.27,1.27,0,0,1,.35,0,7.62,7.62,0,0,0,2.13.21,6,6,0,0,0,2.14-.51l.14,0a4.12,4.12,0,0,0,.39,3.3l.09.17a1.45,1.45,0,0,1,.24.92l.47.71a.8.8,0,0,0,.42.15c.16,0,.28-.12.39-.33a1.56,1.56,0,0,0,.14-1.76c-.5-1.1-.63-1.68-.48-2.15s.7-.9,1.52-1.35a2.22,2.22,0,0,0,.33-.24,2.8,2.8,0,0,1,.27-.2.74.74,0,0,0,.42-.59.51.51,0,0,0-.39-.45l-.23-.07a7.27,7.27,0,0,0-2.56-.5A3.33,3.33,0,0,0,438,486.12Z"/><path class="cls-4" d="M299.8,434.59c.15.09.27.17.19.42-.31.37-.43.67-.35.94s.6.59,1,.71a1.14,1.14,0,0,0,.33.06h0a2.31,2.31,0,0,0,1.12-.37,1.88,1.88,0,0,0,.81-1.25,2.12,2.12,0,0,0-.11-1.94l-1.23-1.61c-.25-.63-.5-.94-.77-.95s-.6.38-.88.74l-.11.14c-.71.54-1,1-1,1.41s.26.92.9,1.59A.77.77,0,0,0,299.8,434.59Z"/><path class="cls-4" d="M446.92,433.4l0,.06a.93.93,0,0,0,.05.18,2.47,2.47,0,0,1,.18.65c.08.43.18.86.51,1h0a.55.55,0,0,0,.24.06,1.44,1.44,0,0,0,.53-.13c.09-.14.19-.27.29-.4a2,2,0,0,0,.58-1.58,2.49,2.49,0,0,1,.45-1.36c.09-.17.19-.34.27-.51a2.88,2.88,0,0,0,.12-2.25,2.12,2.12,0,0,0-1.59-1.29.91.91,0,0,0-.48.47.67.67,0,0,0,.07.49q0,1,0,1.9a.4.4,0,0,0,.13.37,1.17,1.17,0,0,1-.07.83.75.75,0,0,1-.5.37,1,1,0,0,0-.76.58.8.8,0,0,0,0,.15.58.58,0,0,0,0,.08A.92.92,0,0,0,446.92,433.4Z"/><path class="cls-4" d="M422.16,482.94a1.7,1.7,0,0,0-.78-1.36c-.25-.11-.51-.24-.76-.37a5.19,5.19,0,0,0-2.45-.79,2.74,2.74,0,0,0-1.33.4.92.92,0,0,0-.14.34.85.85,0,0,0-.6.58,4.15,4.15,0,0,1-.33.81,2,2,0,0,0-.23,1.91c.36.77.74,1.13,1.19,1.12a1.26,1.26,0,0,0,.66-.25.72.72,0,0,1,.36-.16c.14,0,.24.08.39.3s.45.52.64.52.48-.32.7-1l.24-.31H420a2.08,2.08,0,0,0,1.13-.4A2,2,0,0,0,422.16,482.94Z"/><path class="cls-4" d="M440.35,498c-.31,0-.63.42-.72.89-.49,1.1-.43,1.84.19,2.4a8.31,8.31,0,0,0,4.78,3.67,1,1,0,0,0,.41.06,3.84,3.84,0,0,0,1.78-1,9.57,9.57,0,0,1,1-.74,2.07,2.07,0,0,0,2-1.1,3.9,3.9,0,0,0,0-2.25,6.7,6.7,0,0,1-1.23-1.2,4.88,4.88,0,0,0-1.81-1.51.18.18,0,0,0-.13-.06l-.1,0h0a1,1,0,0,0-.95-.57,1.26,1.26,0,0,0-.4.1c-.54.15-1.08.35-1.6.54a10.37,10.37,0,0,1-2.89.77Z"/><path class="cls-4" d="M493.29,513.13l0-.06a1.72,1.72,0,0,0,.06-.45s0-.07,0-.1a2,2,0,0,0-.08-.46V512c0-.09,0-.17-.07-.26a1,1,0,0,0-.75-.25c-.32,0-.59.34-.83.87a1.37,1.37,0,0,0-.09.47c0,.33-.06.64-.49.8h0v0h0l0,0,0,0h0l.06.08v0h0a.28.28,0,0,1-.08.22,6.54,6.54,0,0,0-.21.62,3.51,3.51,0,0,1-.43,1,6.78,6.78,0,0,1-.64.48h0l-.05-.21a1.65,1.65,0,0,0-.37-.8l0,0a.58.58,0,0,0-.31-.12h-.09a.68.68,0,0,0-.15,0l0,0h-.07l0,.06,0,0,0,.13a1.27,1.27,0,0,0-.51.82l-.08.26.42.88v.25a1.44,1.44,0,0,0,.23,1l0,0a.63.63,0,0,0,.1.09.48.48,0,0,0,0,.28l.26,0,.27-.13.41-.07a.55.55,0,0,0,.12.12.6.6,0,0,0,.2,0,.61.61,0,0,0,.2-.1l.06,0a.89.89,0,0,0,.16-.15l.05-.07a1.38,1.38,0,0,0,.14-.19,2.75,2.75,0,0,0,.35-1.26l.56-.9c.42-.68.85-1.38,1.34-2a3.23,3.23,0,0,0,.19-.31h0A2.57,2.57,0,0,0,493.29,513.13Z"/><path class="cls-4" d="M440.47,439.13a1,1,0,0,0,.14.14l.07.07a.82.82,0,0,0,.26.17l.12,0a.73.73,0,0,0,.14,0,1.25,1.25,0,0,0,.73-.31c.49-.39.57-.94.26-1.7-.1-.15-.21-.29-.32-.43a3.34,3.34,0,0,1-.6-1c-.2-.63-.48-.94-.86-.93a1.77,1.77,0,0,0-1,.46,1.74,1.74,0,0,0,0,1.62Z"/><path class="cls-4" d="M409.65,473a1.92,1.92,0,0,0-.92.36l-.19.05a5.18,5.18,0,0,0-1.76,2,1.21,1.21,0,0,0-.1.45l.1.19.27.3h0l.74-.28c.56-.21,1.11-.42,1.65-.67s1.1-.58,1.17-.94-.23-.82-.77-1.48Z"/><path class="cls-4" d="M358.58,537l.07,0a1.83,1.83,0,0,1,1-.29A1.32,1.32,0,0,0,361,536c.08-.16-.11-.56-.22-.75a1.45,1.45,0,0,0-1.37-.76h-.22l-.17,0c-.42,0-1,.1-1.07,1a2.48,2.48,0,0,0,.41,1.36C358.42,537,358.51,537,358.58,537Z"/><path class="cls-4" d="M454,543.34a1.61,1.61,0,0,1,0-.17c0-.15-.07-.3-.15-.32a3.74,3.74,0,0,1-.82-.3,2.41,2.41,0,0,0-1.32-.32,1.52,1.52,0,0,0-.28.06.8.8,0,0,0-.53.42.86.86,0,0,0,0,.67,1.84,1.84,0,0,0,1.35,1,4.74,4.74,0,0,1,.57.22h.07a1.91,1.91,0,0,0,1-1l.07-.16A1.51,1.51,0,0,0,454,543.34Z"/><path class="cls-4" d="M508.4,475.35a.39.39,0,0,0,.42.18l.18,0,.17,0a.54.54,0,0,1,.21,0h0a.83.83,0,0,0,.53-.39l.17-.19a1.39,1.39,0,0,0,.37-.93c0-.31-.26-.55-.72-.76a1.27,1.27,0,0,0-.67-.13c-.47,0-.84.42-1.09,1.12A.84.84,0,0,0,508.4,475.35Z"/><path class="cls-4" d="M512.91,471.58l.09.09.08.12a.54.54,0,0,0,.3.28h0a.41.41,0,0,0,.14,0h0c0,.33.23.35.47.37.05.3.28.36.51.42s.42.11.48.37a.58.58,0,0,0,.26.41c.33.75,1,.9,1.65,1.06a6.27,6.27,0,0,1,.69.19,2.33,2.33,0,0,0,1.07.15,2.89,2.89,0,0,0,1.91-1.35c0-.56-.29-.82-.67-1.12a.48.48,0,0,0-.25-.05c-.12,0-.22.1-.28.27a.6.6,0,0,1-.31.2c-.17,0-.22-.21-.23-.4a2.62,2.62,0,0,0-.45-1.2l-.17-.29a.38.38,0,0,0-.26-.18l-.09,0-.13-.21-.26-.38-.52,0-.8.08a2.26,2.26,0,0,0-1.19-.22,2.28,2.28,0,0,1-1.06-.17,1.13,1.13,0,0,0-.64-.17c-.34,0-.6.3-.87.9A1.22,1.22,0,0,0,512.91,471.58Z"/><path class="cls-4" d="M339.71,522.77a1.91,1.91,0,0,0-1.33-.88,1.31,1.31,0,0,0-.83.27,2.25,2.25,0,0,0,.3.69,1.58,1.58,0,0,1,.25,1.43.54.54,0,0,0,0,.41c.15.28.61.34.93.38h.08a.61.61,0,0,0,.46-.15l0,0s.06,0,.08-.07a.75.75,0,0,0,0-.59,1.86,1.86,0,0,1,0-.8A2,2,0,0,0,339.71,522.77Z"/><path class="cls-4" d="M458.8,532.26a1.83,1.83,0,0,1-.27-.2.82.82,0,0,0-.58-.27.8.8,0,0,0-.48.31,1.78,1.78,0,0,0-.56,1.56c.12.57.43.88.85.88h.09c.4-.05.53-.42.65-.78a1.74,1.74,0,0,1,.27-.57.89.89,0,0,0,.23-.54A.48.48,0,0,0,458.8,532.26Z"/><path class="cls-4" d="M281.95,443.12h.12a1,1,0,0,0,.18-.07l.06,0a1.13,1.13,0,0,0,.34-.2l0,0a1.23,1.23,0,0,0,.24-.31l0-.09a1.29,1.29,0,0,0,.1-.34s0-.08,0-.12a1,1,0,0,0,0-.19,1.08,1.08,0,0,0-.07-.24h0a2.11,2.11,0,0,0-1.3-1.15,1.46,1.46,0,0,0-.57,1.54C281.18,442.25,281.33,443.1,281.95,443.12Z"/><path class="cls-4" d="M467.86,470.18c.22.19.43.38.63.59a.32.32,0,0,0,.25.12.36.36,0,0,0,.25-.15c.23-.26.1-.47,0-.7a11,11,0,0,0-2-2.39l-.48,0h-.08A3.55,3.55,0,0,0,467.86,470.18Z"/><path class="cls-4" d="M459.89,541.75a2.26,2.26,0,0,0-.35,0,1.45,1.45,0,0,0-1.15.86.64.64,0,0,0-.1.41s0,.06.07.09h0a.67.67,0,0,0,.27.17l.08,0a1.25,1.25,0,0,0,1,.38h0a1.36,1.36,0,0,0,1-1.21C460.78,542,460.32,541.75,459.89,541.75Z"/><path class="cls-4" d="M308.45,485h.16c.46-.1,1.31-.3,1.26-1.1s-.5-.7-.87-.72a1.42,1.42,0,0,1-.35-.05l-.29,0a.57.57,0,0,0-.55.18.88.88,0,0,0-.07.65C307.87,484.63,308.11,485,308.45,485Z"/><path class="cls-4" d="M399.37,539.47l0,0s0,.06.07.07a2.91,2.91,0,0,1,.62.33,1.83,1.83,0,0,0,1,.39,1,1,0,0,0,.58-.23,2.81,2.81,0,0,0,0-.3.88.88,0,0,0,0-.11,1.92,1.92,0,0,0-.07-.42,1.14,1.14,0,0,0-.09-.24s0-.07,0-.09c-.25-.34-.67-.34-1.07-.35a2.55,2.55,0,0,1-.77-.09l-.09.19a1.31,1.31,0,0,0-.21.76S399.36,539.45,399.37,539.47Z"/><path class="cls-4" d="M420.31,520.23a2.18,2.18,0,0,0,.92.27.46.46,0,0,0,.38-.29l0,0a4,4,0,0,0,.23-1.32,1.12,1.12,0,0,0-.85-.36,1.33,1.33,0,0,0-.85.44c-.33.33-.15.7,0,1Z"/><path class="cls-4" d="M385.34,495.19a3.36,3.36,0,0,1-.41.48,1.62,1.62,0,0,0-.62,1.52.7.7,0,0,0,.29.61.91.91,0,0,1,.27.38h.22a2.27,2.27,0,0,1-.13,1.48,2.3,2.3,0,0,0-.13,1.5c0,.13,0,.26,0,.4A2.35,2.35,0,0,0,385,503c0,.23,0,.46.2.57.27.66.57,1.1,1.13,1.09a1.9,1.9,0,0,0,.75-.19l.43-.2a4,4,0,0,1,1.67-.53,2.37,2.37,0,0,1,.42,0,2.36,2.36,0,0,0,.11.25c.08.17.17.35.14.46a3.87,3.87,0,0,0,.8,3.61,1.74,1.74,0,0,1,.22.92,3.79,3.79,0,0,0,0,.47,10.58,10.58,0,0,1-.55,4.66,14.29,14.29,0,0,0-.62,3.37.28.28,0,0,1,0,0c0,.18,0,.35,0,.54s-.19.37-.3.49a3.7,3.7,0,0,0-.71,3,1.78,1.78,0,0,0,1,1.72,3.41,3.41,0,0,0,.34.24,1.63,1.63,0,0,1,.74.77,1,1,0,0,0,.92.69A1.56,1.56,0,0,0,393,524a6.6,6.6,0,0,0,1.28-.26,6,6,0,0,1,1.4-.27,2.13,2.13,0,0,1,1.54.58.34.34,0,0,0,.23.09.53.53,0,0,0,.44-.43c.1-.35-.11-.51-.29-.66l-.1-.06a.69.69,0,0,0-.17-.65,1.4,1.4,0,0,1-.15-.24,10.13,10.13,0,0,0-.25-2.17,6.87,6.87,0,0,1-.09-3.26h0a4.13,4.13,0,0,1,.17-.48c.49-1.15,1-2.35.31-3.64,0-.09,0-.19,0-.28a3.63,3.63,0,0,0-.21-1.43c.06-.53.08-1.07.09-1.59a9.32,9.32,0,0,1,.5-3.29.78.78,0,0,0,0-.6s0-.05,0-.08h0s0,0,0,0l-.07,0q0-1.6,0-3.2a.55.55,0,0,0,.19-.37,1.53,1.53,0,0,1,0-.26c0-.23,0-.48-.27-.48h0a1.34,1.34,0,0,0-.26-.87,1.89,1.89,0,0,1-.36-1.29,1.8,1.8,0,0,1,.75-1.13,2.85,2.85,0,0,0,.61-.67,1.18,1.18,0,0,1,.15-.23l0,0a1.81,1.81,0,0,1,.65-.43,2.12,2.12,0,0,0,.53-.31H400l.63,0a2,2,0,0,1,1.39.38l0,2.12a2,2,0,0,1-.5,1.59,2.91,2.91,0,0,0-.61,1.6,4,4,0,0,0-.39,1.77s0,.08,0,.12a1.83,1.83,0,0,0,.12.5l.06.13a1.63,1.63,0,0,0,.11.23,20.35,20.35,0,0,0,4.22,4.27.39.39,0,0,0,.37.24.61.61,0,0,1,.22.06.52.52,0,0,1,.35.36.8.8,0,0,1-.19.59,2,2,0,0,0-.27,1.37,3.51,3.51,0,0,0-.43,3.07,1.55,1.55,0,0,0,.09.3,3,3,0,0,0,3.17,1.87,1.1,1.1,0,0,0,.67.21,2,2,0,0,0,1.25-.81,1.16,1.16,0,0,0-.13-1.14.23.23,0,0,1-.17-.14,2.88,2.88,0,0,1,0-.88,1.88,1.88,0,0,0,.23-.35l.05-.13a1.24,1.24,0,0,1,.31-.1.93.93,0,0,0,.44-.18v0h0l.1,0a1.22,1.22,0,0,0,.37-.07,3.74,3.74,0,0,0,.7-.35l.12-.07,0,0,0,0a.48.48,0,0,0,.26.07.54.54,0,0,0,.35-.16,1.39,1.39,0,0,0,.53.52,2.58,2.58,0,0,0,.4.21l.2.08.15.08h-.21a2.82,2.82,0,0,0-1.65,1l-.42.4a1.77,1.77,0,0,0-.25.14.51.51,0,0,0-.16.22l-.24.31-.25.34a4.4,4.4,0,0,1,.12,2.71,2.47,2.47,0,0,1-.46.62c-.28,1.69-.07,2.11,1.18,2.36l.22,0c.27,0,.52.05.65.43l.06.24a3.18,3.18,0,0,1,.12.51,2.66,2.66,0,0,0,.07.31l0,.15a1.9,1.9,0,0,0,.15.4,1.34,1.34,0,0,0,.12.2,1.07,1.07,0,0,0,.2.2,1,1,0,0,0,.21.13,1.36,1.36,0,0,0,.4.1h.12a1.54,1.54,0,0,0,.19,0h.12c.92-.09,1.37-.66,1.5-1.92a4.71,4.71,0,0,1,.16-.74,1.79,1.79,0,0,0,.07-.32l.14,0,.09-.09a.6.6,0,0,0,.31.07c.3,0,.55-.29.77-.52.48-.19,1.19-.48,1.07-1.38a1.41,1.41,0,0,0-.57-1h0a.92.92,0,0,0-.54-.16l-.15,0c-.57-.37-.65-.89-.27-1.72l.11-.26c.13-.31.23-.56.48-.57a.91.91,0,0,1,.45.14.39.39,0,0,0,.22.06.37.37,0,0,0,.14-.06h0a.58.58,0,0,0,.27-.3,1.36,1.36,0,0,0,0-.15s0,0,0-.07a.89.89,0,0,0,0-.32l0-.09a.58.58,0,0,0,0-.14,4.43,4.43,0,0,1-.42-1.52c-.18-1.1-.36-2.23-1.77-2.22a.19.19,0,0,1-.09,0l0,0a.73.73,0,0,1-.11-.45,1,1,0,0,0-.07-.41c.12-.14.2-.21.28-.21s.15.07.21.23a1.44,1.44,0,0,0,1,.48,1.2,1.2,0,0,0,.9-.65,3.83,3.83,0,0,0,.35-1.75c0-.51-.14-1.12-.45-1.1l-.11,0a2.23,2.23,0,0,1-.8.17,1.52,1.52,0,0,0-1.14.45l0,.06a1.3,1.3,0,0,0-.18.25l-.79-.17a.27.27,0,0,0-.21-.09.88.88,0,0,0-.41.19.63.63,0,0,1-.27.14s-.09,0-.12-.15a3,3,0,0,0-.13-.39v0a5.55,5.55,0,0,0-1.29-1.88,2.14,2.14,0,0,1-.85-4,2.55,2.55,0,0,0,.83-.84l0,0a1.53,1.53,0,0,0,.12-.32v-.05a1.82,1.82,0,0,0,.07-.38c.05-.47-.2-.59-.5-.7l-.76-.67a2,2,0,0,0,0-.37.5.5,0,0,1,0-.05,3.18,3.18,0,0,0-.71-1.62c-.12-.16-.23-.32-.33-.49a2.57,2.57,0,0,1-.3-.29l0,0a6.36,6.36,0,0,1-.73-1.2,8.37,8.37,0,0,0-.56-1l-1.52-2.61a2.15,2.15,0,0,0-.27-.24,1.69,1.69,0,0,1-.48-.52,1.36,1.36,0,0,1-.12-.32c.76-.24,1.13-.94,1.5-1.63a5.09,5.09,0,0,1,.79-1.21l.25-.09h.2a2,2,0,0,0,1.47-.66,3.68,3.68,0,0,1,.29-.37l0-.05a7.51,7.51,0,0,1,1.11-.94,9.49,9.49,0,0,0,1-.81c.47,0,.67-.44.82-.88,0-.1,0-.2,0-.28a3.93,3.93,0,0,0,1.17-2,1.85,1.85,0,0,0,.57-.85l.18,0a8.3,8.3,0,0,1,.77-.39l.45-.21.26,0,.24.09a1.78,1.78,0,0,1,.95.61,1,1,0,0,0,.85.46,1.12,1.12,0,0,0,.18,0l.12,0a1.42,1.42,0,0,0,.34-.17l.19-.15a1.55,1.55,0,0,0,.14-.1,2.67,2.67,0,0,1,.21-1,2.06,2.06,0,0,0,.16-1.31,1.72,1.72,0,0,0-1.11-2.23,2.93,2.93,0,0,0-1.28-.25,6.6,6.6,0,0,0-2.12.55,9.8,9.8,0,0,1-1.52.48l-.68.93a.21.21,0,0,0-.15.08h-.77l-1.27,0-.68,0h-.27a.56.56,0,0,0-.45.17.79.79,0,0,0-.13.52l0,.16v.15a3.05,3.05,0,0,1-1.89,1,2.38,2.38,0,0,1-1.9-1.23l-.27,0a.71.71,0,0,0-.34-.1c-.22,0-.37.19-.44.53l-.4.35-.31,0A2.34,2.34,0,0,0,404,481a1.08,1.08,0,0,0,.05.33,5,5,0,0,1-.43.47,2.18,2.18,0,0,0-.77,1.3,1.87,1.87,0,0,0-.2.32,1.22,1.22,0,0,0-.08.32,2.47,2.47,0,0,1-.58.08,2.7,2.7,0,0,1-.65-.07.74.74,0,0,0-.2-.3.48.48,0,0,0-.2,0h0l-.18-.07c-.65-.24-1.27-.46-1.43-1.43a2.6,2.6,0,0,0-.23-.45,1.62,1.62,0,0,1-.3-.87.66.66,0,0,1-.08-.33.68.68,0,0,0-.1-.37.24.24,0,0,0-.15-.06l-.08,0,0-.06a1,1,0,0,0-.11-.73,2,2,0,0,0-.9-.55,1.55,1.55,0,0,1-1.2-1.18c-.69-2.93-1.09-6.34,1.24-9.32a1.85,1.85,0,0,1,1.62-.86,6.64,6.64,0,0,1,.78.05c.22,0,.43,0,.71.05a.56.56,0,0,0,.24-.07h.08l0,0a.81.81,0,0,0,.89.58l.25,0a1,1,0,0,0,.21-.15.66.66,0,0,0,.49.26,1.18,1.18,0,0,0,.68-.41,1.89,1.89,0,0,1,.51-.38.76.76,0,0,1,.09-.21l.47.19a2.83,2.83,0,0,0,1.11.3,1.13,1.13,0,0,0,.23,0h0a1.24,1.24,0,0,0,.59-.32l.3.07a3.24,3.24,0,0,0,.58,0l.41,0a1.22,1.22,0,0,0,.34-.1,1.7,1.7,0,0,0,.91.3,1,1,0,0,0,.51-.14s.07,0,.1.06l.13.07s.07.06.12.07a1.73,1.73,0,0,0,.52.06,4.51,4.51,0,0,0,.82-.12l.27-.05a1.33,1.33,0,0,0,.35-.34l2.55-.29,1.9-.08a1.61,1.61,0,0,0,.14.19,2.45,2.45,0,0,0,.58,0l.67,0a2,2,0,0,1,.81.12,1.87,1.87,0,0,1,.61.62c.26.35.52.72,1,.71a1,1,0,0,0,.33-.07h.27c.42,0,.84,0,1.27,0s.95,0,1.42,0a5.9,5.9,0,0,0,2.55-.56,2.49,2.49,0,0,1,.47-.05h.31a1.66,1.66,0,0,0,.9-.23h.24a1.17,1.17,0,0,0,.27-.06l.08,0a.94.94,0,0,0,.24-.12l.07-.06a1.08,1.08,0,0,0,.2-.17,5,5,0,0,0,2.24-2.66l.12-.24a3.6,3.6,0,0,1,1.11-1.53c1.54-1,2.14-2.7,2.73-4.37l.16-.47a1.42,1.42,0,0,0,1-.67,2,2,0,0,0-.14-1.43c-.06-.19-.13-.38-.18-.57s-.25-.2-.37-.31a2,2,0,0,0-1.33-.68,1.31,1.31,0,0,0-.51.12l-.33.52a9.35,9.35,0,0,0-.59.82c-.51.77-1,1.56-2,1.66-.15,0-.34.27-.42.45a5.52,5.52,0,0,1-1.37,1.68c-.2.19-.41.38-.6.59a7.4,7.4,0,0,1-3.16,2.19l-.09,0a4.2,4.2,0,0,1-1,.15h0a4.36,4.36,0,0,1-.73,0h-.06a7.4,7.4,0,0,1-2.51-1,1.09,1.09,0,0,0-.83-.36,1.73,1.73,0,0,0-.66.17.75.75,0,0,0-.3.41l-1.55.87-2.74-.61a1.15,1.15,0,0,0-1-.4c-.16,0-.32,0-.49,0l-.12,0a.82.82,0,0,0-.46-.19.66.66,0,0,1-.56-.32l0-.07,0-.05,0,0v-.05l-.06.09h-.38a1,1,0,0,0,0-.17,4.77,4.77,0,0,0-1.59-.81c-.26,0-.52.07-.78.12a6.58,6.58,0,0,1-1.1.14,2,2,0,0,1-1.49-.56,2.62,2.62,0,0,1-.36-.45h0l0,0-.08,0a.6.6,0,0,0,0-.17l-.55,0-.55,0a.18.18,0,0,0-.15-.08.12.12,0,0,0-.1,0,3.13,3.13,0,0,0-2.18-.59h-1.18c-.38.1-.43.43-.48.75a2.74,2.74,0,0,1-.07.32l-.12,1.2-.2.38-.6.6h-.09c-.3,0-.41.29-.52.56-.22.56-.52,1.13-1,1.14l-.17,0c-.44-.12-.42-.6-.4-1.07a3.24,3.24,0,0,0,0-.48,1,1,0,0,0-.73-.34,1.11,1.11,0,0,0-.67.27c0,.05,0,.09-.11.09h0c-.41.19-.41.6-.4,1.08l.12.28-.21.16a3.12,3.12,0,0,0-.92,1c-.17,0-.25.2-.31.34l-.08.17a1.36,1.36,0,0,1-.44,1.15,1.84,1.84,0,0,0-.43.73l-.31.53c-.51.85-1,1.74-.6,2.68a2.24,2.24,0,0,0,.15.29l.1.14a3.25,3.25,0,0,0,.34.39.43.43,0,0,1-.28.11,1.3,1.3,0,0,1-.39-.08,1.41,1.41,0,0,0-.42-.09c-.26,0-.45.17-.61.53a1.5,1.5,0,0,0,.13,1.46,3.26,3.26,0,0,1,.19.43c.27,1.9.38,3.73-1,5.19a1,1,0,0,0-.19.52,1.12,1.12,0,0,1-.19.53v.68l-.59,1.29a6.48,6.48,0,0,0-.9,6.37l0,.66,0,.83c-1.32.95-1.35,2.57-1.38,4a.5.5,0,0,0-.09.4,3.48,3.48,0,0,1-1.86,2Zm30.5-15.26-.07,0a.26.26,0,0,1-.17-.09.68.68,0,0,0,.19,0Zm4.67-2.34.1-.2,0,0a.62.62,0,0,1-.08.11Z"/><path class="cls-4" d="M469.72,479.61c.18,0,.36,0,.54,0a2,2,0,0,0,1-.37l.12-.07.05,0h0l-.15-.16c-.12-.72-.52-.79-.93-.76l-.32,0-.35,0h0c-.37,0-.57.26-.62.73S469.38,479.6,469.72,479.61Z"/><path class="cls-4" d="M399,538.31a1,1,0,0,0,.38-.1l.52-.75a1.39,1.39,0,0,0-.12-.95.62.62,0,0,0-.59-.23h0a1,1,0,0,0-.6.27l0,0a.78.78,0,0,0-.1.09,1,1,0,0,0-.16.65C398.36,538,398.6,538.32,399,538.31Z"/><path class="cls-4" d="M436.83,445.87s.05,0,.08.07h0a.54.54,0,0,0,.38.12h.09c.7-.07.83-.7.87-1.3s-.22-.78-.77-.79a.69.69,0,0,0-.5.25.93.93,0,0,0-.06.63,1,1,0,0,1,0,.59A.48.48,0,0,0,436.83,445.87Z"/><path class="cls-4" d="M466.94,538.37c-.09-.26-.17-.53-.45-.59a1.18,1.18,0,0,0-1-.47l-.3,0a.86.86,0,0,0-.61.32,2,2,0,0,0-.21,1.16c0,.17,0,.33,0,.49.13,1,.37,1.43.79,1.37a2.07,2.07,0,0,0,1-.65l.1,0c.16,0,.34-.1.38-.39l.29-.36a.55.55,0,0,0,.1-.65C467,538.53,467,538.45,466.94,538.37Z"/><path class="cls-4" d="M449.23,537.19H449a1.46,1.46,0,0,0-.29,0c-.23,0-.39.16-.51.46.11.22,0,.46-.15.69a1,1,0,0,0-.18.53.39.39,0,0,0,.18.27.78.78,0,0,0,.54.11.88.88,0,0,0,.45-.17,1.1,1.1,0,0,0,.3-1.25A3.14,3.14,0,0,1,449.23,537.19Z"/><path class="cls-4" d="M352,536.07a.64.64,0,0,0-.39.15,1.17,1.17,0,0,0-.57.82,1.25,1.25,0,0,0,.32.86,1.7,1.7,0,0,0,.23.06l.08,0a1.45,1.45,0,0,0,.22.06.59.59,0,0,0,.58-.35,1.34,1.34,0,0,0,.09-.21l0-.06a2.3,2.3,0,0,0,.08-.42l0,0v0C352.46,536.5,352.3,536.08,352,536.07Z"/><path class="cls-4" d="M306.46,443.56h.12c.52-.08.71-.59.85-1.07-.17-.38-.38-.78-.69-.79l-.13,0a1.19,1.19,0,0,0-.83,1.1.78.78,0,0,0,.18.5A.68.68,0,0,0,306.46,443.56Z"/><path class="cls-4" d="M396.53,530.73a.92.92,0,0,0,.29.73,1.4,1.4,0,0,1,.24.29c.14.2.28.4.49.39a.57.57,0,0,0,.36-.18q.05-.78.11-1.57c.72-1.68.7-2.27-.28-5.81-.77.31-.9,1.11-.94,1.85a15.22,15.22,0,0,0,.24,3.87C396.74,530.4,396.57,530.54,396.53,530.73Z"/><path class="cls-4" d="M475.87,502.29a.63.63,0,0,0,.46-.18c.16-.2.18-.61.22-1.58A1.73,1.73,0,0,0,477,499a2.58,2.58,0,0,0-.69-1l-.19-.21c-.09-.1-.19-.2-.29-.3a2,2,0,0,1-.64-.93c-.61-2.18-1.51-2.86-3.57-2.66h-.15a4.79,4.79,0,0,1-2.18-.15l-1-.23c-.12-.26-.35-.29-.57-.31a.73.73,0,0,1-.48-.16.71.71,0,0,0,0-.33,1.73,1.73,0,0,0-.83-.21,1.1,1.1,0,0,0-.82.61L465,494a1.56,1.56,0,0,0-.38.3,1,1,0,0,1-.46.31.27.27,0,0,1-.22-.1,2.92,2.92,0,0,0-2.53-.78l-.83.1-.82.1-.5,0c-.31,0-.62,0-.92,0a3.44,3.44,0,0,0-3.26,2.42,1.06,1.06,0,0,1-.41.4l-.23.17L452,498.06c-.63.16-1,.3-1.15.58s0,.63.23,1.15a1.23,1.23,0,0,1,.55.19,1.19,1.19,0,0,0,.59.2c.3,0,.5-.37.62-1.07a1.54,1.54,0,0,1,.64-.13h.35c.33,0,.31.3.28.6a2.25,2.25,0,0,0,0,.23c0,.33,0,.66-.05,1a4.94,4.94,0,0,0,.09,2,1.21,1.21,0,0,0,.08.8.28.28,0,0,0,.26.11.85.85,0,0,0,.32-.12,1.34,1.34,0,0,1,.55-.18,1.21,1.21,0,0,1,.55.09H456a3.35,3.35,0,0,0,1.5-.69,4.7,4.7,0,0,1,1.08-.6,1.81,1.81,0,0,0,.28-.17l.13,0,.39-.09.17,0h.51a.75.75,0,0,0,.71-.62,1.24,1.24,0,0,0-.52-1.53s0-.15,0-.26a.3.3,0,0,0,0-.14l1-.57.95-.57.23.32c0,.34,0,.66.33.71l.73.13a17.86,17.86,0,0,0,1.93.27,2.31,2.31,0,0,0,.38,0,2.16,2.16,0,0,0,1.46-.85,1.62,1.62,0,0,1,1-.62,1.35,1.35,0,0,1,1.22.71,2.56,2.56,0,0,0,2.52,1.26l.14,0,3.55,2.22Z"/><path class="cls-4" d="M221.13,453a3.35,3.35,0,0,1-1.6-1.45,3.09,3.09,0,0,0-1-1h0a1.79,1.79,0,0,0-.73-.24,2,2,0,0,0-1.24.35,1.2,1.2,0,0,1-.78.27l-.17,0a.88.88,0,0,0,0,.71,1.63,1.63,0,0,0,.81.68c.11.11.22.23.32.35l.06.07a12,12,0,0,1,.87,1.27,12,12,0,0,0,.93,1.35,10.35,10.35,0,0,1,1.59,2.35,1.6,1.6,0,0,0,1.29,1,2,2,0,0,0,.48,0c.72-.11,1-.55.87-1.3l0-.1a2.27,2.27,0,0,1,0-1.12A2.76,2.76,0,0,0,221.13,453Z"/><path class="cls-4" d="M209.68,442l-.34-.31c-.06-.09-.14-.15-.21-.23l-.15-.16a3.8,3.8,0,0,0-.56-.47h0a8.6,8.6,0,0,0-1.56-.8l-.25-.1c-.15-.1-.32-.18-.48-.27a2,2,0,0,1-1.18-1.14,1.51,1.51,0,0,0-1-.56,1.47,1.47,0,0,0-1.09.61,1.22,1.22,0,0,0-.37,1.11,2,2,0,0,0,.82,1.08,4.09,4.09,0,0,0,1.81,1,9.47,9.47,0,0,1,1.93.88l0,0a5.52,5.52,0,0,1,.64.48l.15.13.27.27a1.77,1.77,0,0,0,1.11.65h0a1,1,0,0,0,.44-.07c.46-.2.39-.65.32-1.08a3.1,3.1,0,0,1,0-.34,1.36,1.36,0,0,0-.25-.58Z"/><path class="cls-4" d="M245.86,491.16a.63.63,0,0,0,.13-.1c.41-.5.15-1-.15-1.46l-.16-.27a3.19,3.19,0,0,0-1.13-1.33l-.56-1a.75.75,0,0,1-.18-.51.78.78,0,0,0-.23-.57,4.67,4.67,0,0,1-.38-.32,4.49,4.49,0,0,0-.43-.35l-.27-.2a2.1,2.1,0,0,0-.85-.47.56.56,0,0,0-.47.15c-.56.49-.21,1.24.19,1.91A4.71,4.71,0,0,0,243,489a5.65,5.65,0,0,1,1.47,2.16c.11.24.23.48.35.71a1,1,0,0,0,.71.61,1,1,0,0,0,.32,0c.18,0,.28-.1.29-.21s-.16-.36-.33-.54a.58.58,0,0,1-.2-.34C245.65,491.29,245.76,491.22,245.86,491.16Z"/><path class="cls-4" d="M240.81,483.54a.76.76,0,0,1-.15-.42l-.33-.52a8.91,8.91,0,0,0-.79-1.15,2.23,2.23,0,0,0-1.28-.81,1,1,0,0,0-.49.06c-.46.18-.31.69-.17,1.15a4.07,4.07,0,0,1,.11.4c.08.41.36.51.63.61a1.68,1.68,0,0,1,.47.25l0,0h0l0,0a1.14,1.14,0,0,1,.61.4,1.72,1.72,0,0,0,.4.33,1.87,1.87,0,0,1,.24.16,1.1,1.1,0,0,0,.44.24.35.35,0,0,0,.3-.1C241.07,484,240.94,483.75,240.81,483.54Z"/><path class="cls-4" d="M260.52,510.77h-.13a.1.1,0,0,1-.1,0l-.16-.05a1.06,1.06,0,0,0-.2-.06c-.17,0-.26.06-.29.27-.05.39.22.63.49.86l.17.15.4.38c.24.23.49.46.72.7l.17.2c.17.21.35.42.55.45a.43.43,0,0,0,.39-.18,1.24,1.24,0,0,0-.15-1.64A2.8,2.8,0,0,0,260.52,510.77Z"/><path class="cls-4" d="M227.55,462a1.29,1.29,0,0,0,1.2.91l.17,0,1.29.15.66.08s0,0,0,0c-.05-1.18-.75-1.32-1.42-1.46a3.66,3.66,0,0,1-.66-.18l-.8,0A.56.56,0,0,0,227.55,462Z"/><path class="cls-4" d="M216.4,446.53h0c.42-.07.44-.42.46-.77,0-.07,0-.14,0-.21a1.42,1.42,0,0,0-1.34-1.32h-.2l-.31,0c-.27,0-.51,0-.47.49a4.24,4.24,0,0,0,.93,1.15C215.67,446,216.21,446.52,216.4,446.53Z"/><path class="cls-4" d="M235.66,476.78l-.64-.72-.21-.23,0-.33-.84-1.46a.28.28,0,0,0,0-.22.27.27,0,0,0-.19-.1h0a.81.81,0,0,1-.3-.64.28.28,0,0,0-.11,0h-.11c0-.73-.49-1.16-1-1.55a.85.85,0,0,0-.23-.63l-.17-.25-.13,0a.79.79,0,0,0-.58.23.76.76,0,0,1-.58.22h0c-.64-.07-.94.26-.95,1l-.24.53a.82.82,0,0,0,.15.89l.31.32a1.43,1.43,0,0,0,.64,1l.27.25.24.49a1.56,1.56,0,0,0,.81,1.44l.05.2.06.22,1.88,1.27c0,.08.07.16.1.25a1.13,1.13,0,0,0,.58.36c.21,0,.38-.1.5-.36l.48-.45c.73-.12.56-.64.4-1.12A2.59,2.59,0,0,1,235.66,476.78Z"/><path class="cls-4" d="M226.78,449.73a1.5,1.5,0,0,1-.28-.25l-.18-.05a2.86,2.86,0,0,0-.54-.12.85.85,0,0,0-.41.06c-.19.37-.24.61-.13.77s0,0,.07.05h0a.68.68,0,0,0,.43.16H226c.26,0,.53,0,.8,0h.39C227.21,450,227,449.89,226.78,449.73Z"/><path class="cls-4" d="M228.8,468.05a.66.66,0,0,0,.16-.84v-.16a3.21,3.21,0,0,0-.43-1.65,3.33,3.33,0,0,0-1.11-2.08,1.14,1.14,0,0,0-1.4-.24c-.11.06-.17.13-.17.21s.1.23.19.34a.61.61,0,0,1,.2.37s0,0,0,0h0s0,0,0,0l.14,0c.18,0,.36.08.42.34a.75.75,0,0,0,0,.41.57.57,0,0,1,0,.47,3.88,3.88,0,0,1-.08.58,2.09,2.09,0,0,0,.07,1.36,1.48,1.48,0,0,0,.17.59l0,0a.84.84,0,0,0,.08.13.68.68,0,0,0,.44.2h.36a2.37,2.37,0,0,1,.36,0,1,1,0,0,1,.31.09l.25,0A.23.23,0,0,0,228.8,468.05Z"/><path class="cls-4" d="M435.28,544.64c-.56.08-.95.52-1.11,1.29a1.12,1.12,0,0,0,0,.59h0a.56.56,0,0,0,0,.11.26.26,0,0,0,.25.13h0a1.76,1.76,0,0,0,1.23-1.34.9.9,0,0,0-.1-.63.38.38,0,0,0-.38-.13Z"/><path class="cls-4" d="M408.71,517.49a.56.56,0,0,0-.18,0c-.25,0-.42.22-.58.42a1.83,1.83,0,0,1-.32.34l-.08.56a1.66,1.66,0,0,0,0,1.72l.7,1.31a1.58,1.58,0,0,0,.79.87h0a.44.44,0,0,1,.17-.22.4.4,0,0,0,.2-.4,3,3,0,0,1,.24-1.34,2.65,2.65,0,0,0-.16-1.73C409.49,518.35,409.39,517.66,408.71,517.49Z"/><path class="cls-4" d="M369.34,552.37a1.59,1.59,0,0,0,.25-1.22.54.54,0,0,0,.2-.22,1.76,1.76,0,0,0-.76-2.58,3.58,3.58,0,0,0-1.87-.66,2.57,2.57,0,0,0-1.2.27,1.49,1.49,0,0,0-1.13,1.29l-.23.46-.06.16h0v0l.08,0a1.38,1.38,0,0,0-.07.8v.17c0,.28,0,.56-.06.82a2.23,2.23,0,0,1-1.45,1.41,1.14,1.14,0,0,0,.54,1.07,1.62,1.62,0,0,0,1.43.65h.37c.82,0,1.64,0,2.46,0l.92,0H369A2.51,2.51,0,0,1,369.34,552.37Z"/><path class="cls-4" d="M399,563.27l-.69-.66-.14-.19a2,2,0,0,0-.86-.79,2.43,2.43,0,0,0-1.24-.94l-.27-.12-.27-.41c-.69-1.06-1.47-2.26-2.3-2.24a.9.9,0,0,0-.24,0,9.61,9.61,0,0,1-2.6.37,6.89,6.89,0,0,0-3.7.89,2.26,2.26,0,0,0-1,1.48,3,3,0,0,0,1,2,1.65,1.65,0,0,0,1.36.57c.2,0,.39,0,.59,0s.39,0,.59,0a2.15,2.15,0,0,1,.5,0,1.28,1.28,0,0,0,.29,0h.31c.35,0,.7,0,.83.77a4.59,4.59,0,0,0,2.07,1.66.65.65,0,0,0,.35.6,1.68,1.68,0,0,0,1.28,1.5c.15.06.3.13.44.2l.09,0,.08.09a.69.69,0,0,0,.41.16.38.38,0,0,0,.31-.18.53.53,0,0,0,.37.23h0l.89-.37.13-.13a1,1,0,0,1,.28-.23c1.28-.54,1.9-1,2.06-1.69a1.62,1.62,0,0,0,0-.19s0,0,0-.07A4,4,0,0,0,399,563.27Z"/><path class="cls-4" d="M407.48,567.86a1.08,1.08,0,0,0-.24,0l-.15.17a1.94,1.94,0,0,0-.31.41,1.54,1.54,0,0,1-.57.52c-.26.17-.51.33-.59.6a.88.88,0,0,0,.07.58.66.66,0,0,0,.72.44,3.39,3.39,0,0,0,.79-.19l.33-.1.13-.06.28-.22a1.08,1.08,0,0,0,.71-1.08C408.41,568.19,408,567.83,407.48,567.86Z"/></g><path class="cls-7" d="M558,758.73H230.74a25,25,0,0,1-25-25h0a25,25,0,0,1,25-25H558Z"/><path class="cls-2" d="M271.18,645.17H492.53v25H271.18Z"/><path class="cls-8" d="M246.84,727.43a6.26,6.26,0,1,0,0,12.52H558V727.43Z"/><path class="cls-7" d="M590,342c0-7.77,6.88-14.08,15.37-14.09H740.61c8.5,0,15.39,6.31,15.39,14.09S749.11,356,740.61,356H605.39c-8.5,0-15.39-6.29-15.39-14.07Z"/><path class="cls-3" d="M636,387c0-7.77,6.88-14.08,15.37-14.09H786.61c8.5,0,15.39,6.31,15.39,14.09S795.11,401,786.61,401H651.39c-8.5,0-15.39-6.29-15.39-14.07Z"/><path class="cls-3" d="M711,483c0-7.77,6.88-14.08,15.37-14.09h60.24c8.5,0,15.39,6.31,15.39,14.09S795.11,497,786.61,497H726.39c-8.5,0-15.39-6.29-15.39-14.07Z"/><path class="cls-3" d="M591,483c0-7.77,6.88-14.08,15.37-14.09h60.24c8.5,0,15.39,6.31,15.39,14.09S675.11,497,666.61,497H606.39c-8.5,0-15.39-6.29-15.39-14.07Z"/><path class="cls-3" d="M711,528c0-7.77,6.88-14.08,15.37-14.09h60.24c8.5,0,15.39,6.31,15.39,14.09S795.11,542,786.61,542H726.39c-8.5,0-15.39-6.29-15.39-14.07Z"/><path class="cls-3" d="M591,528c0-7.77,6.88-14.08,15.37-14.09h60.24c8.5,0,15.39,6.31,15.39,14.09S675.11,542,666.61,542H606.39c-8.5,0-15.39-6.29-15.39-14.07Z"/><path class="cls-3" d="M711,579c0-7.77,6.88-14.08,15.37-14.09h60.24c8.5,0,15.39,6.31,15.39,14.09S795.11,593,786.61,593H726.39c-8.5,0-15.39-6.29-15.39-14.07Z"/><path class="cls-3" d="M591,579c0-7.77,6.88-14.08,15.37-14.09h60.24c8.5,0,15.39,6.31,15.39,14.09S675.11,593,666.61,593H606.39c-8.5,0-15.39-6.29-15.39-14.07Z"/><path class="cls-3" d="M590,432c0-7.77,6.88-14.08,15.37-14.09h12.24c8.5,0,15.39,6.31,15.39,14.09S626.11,446,617.61,446H605.39c-8.5,0-15.39-6.29-15.39-14.07Z"/><path class="cls-2" d="M646,432c0-7.77,6.88-14.08,15.37-14.09h12.24c8.5,0,15.39,6.31,15.39,14.09S682.11,446,673.61,446H661.39c-8.5,0-15.39-6.29-15.39-14.07Z"/><path class="cls-3" d="M702,432c0-7.77,6.88-14.08,15.37-14.09h12.24c8.5,0,15.39,6.31,15.39,14.09S738.11,446,729.61,446H717.39c-8.5,0-15.39-6.29-15.39-14.07Z"/><path class="cls-2" d="M758,432c0-7.77,6.88-14.08,15.37-14.09h12.24c8.5,0,15.39,6.31,15.39,14.09S794.11,446,785.61,446H773.39c-8.5,0-15.39-6.29-15.39-14.07Z"/></svg>