<svg id="Layer_1" data-name="Layer 1" xmlns="http://www.w3.org/2000/svg" viewBox="0 0 1000 1000"><defs><style>.cls-1{fill:#497fb2;}.cls-2{fill:#dfebfa;}.cls-3{fill:#ece4d8;}.cls-4{fill:#2c5a86;}</style></defs><title>aset-sigesit</title><path class="cls-1" d="M32.13,0H967.87C985.62,0,1000,23.77,1000,53.1V946.9c0,29.32-14.38,53.1-32.13,53.1H32.13C14.38,1000,0,976.23,0,946.9V53.1C0,23.77,14.38,0,32.13,0Z"/><path class="cls-2" d="M80.32,80.32H919.68V889H80.32Z"/><path class="cls-3" d="M749.66,1001.09H250.34l80.39-112.48H669.28Z"/><path class="cls-4" d="M593,958.91H407a14.06,14.06,0,0,1,0-28.11H593a14.06,14.06,0,0,1,0,28.11Z"/><path class="cls-4" d="M919.68,309.24H627.9L576.24,80.32H423.76l-19.49,86.35h-324V251H385.25L242,889H758L646.93,393.57H919.68Z"/><path class="cls-3" d="M500,230.2,433.73,414,500,381.84,566.27,414Z"/></svg>