<svg id="Layer_1" data-name="Layer 1" xmlns="http://www.w3.org/2000/svg" xmlns:xlink="http://www.w3.org/1999/xlink" viewBox="0 0 1000 1000"><defs><style>.cls-1{fill:none;}.cls-2{fill:#497fb2;}.cls-3{fill:#2c5a86;}.cls-4{fill:#dfebfa;}.cls-5{clip-path:url(#clip-path);}.cls-6{fill:#ece4d8;}</style><clipPath id="clip-path"><path class="cls-1" d="M155.67,264.75,844.2,265,844,793l-688.54-.22Z"/></clipPath></defs><title>aset-sigesit</title><path class="cls-2" d="M935.71,1000l-871.49-.28A64.26,64.26,0,0,1,0,935.45L0,873.2l1000,.32,0,62.25A64.26,64.26,0,0,1,935.71,1000Z"/><path class="cls-3" d="M115.72,168.74,884.8,169c22.18,0,40.15,23.64,40.14,52.78l-.21,651.72h0l-849.4-.27h0l.21-651.72C75.55,192.35,93.54,168.73,115.72,168.74Z"/><path class="cls-4" d="M155.85,264.75,844.6,265l-.17,528.17-688.75-.22Z"/><g class="cls-5"><path class="cls-2" d="M857.23,380.2h.38a2.29,2.29,0,0,0,1.34-.84,3,3,0,0,1,1-.78,7.42,7.42,0,0,1,.48-1.94,6.83,6.83,0,0,1-1.37,1.19,3.86,3.86,0,0,0-1.9,2.36Z"/><path class="cls-2" d="M721.38,446.33a.52.52,0,0,0,.24-.09l-.17-.06a2.42,2.42,0,0,1-.65-.15A.86.86,0,0,0,721.38,446.33Z"/><path class="cls-2" d="M738,437.51c-.11.24-.23.46-.35.68a1.71,1.71,0,0,0,.19-.19,3.52,3.52,0,0,0,.29-.38Z"/><path class="cls-2" d="M382.67,464.77l-.09-.1a4.2,4.2,0,0,1-.35-.31l0,.06C382.42,464.67,382.56,464.76,382.67,464.77Z"/><path class="cls-2" d="M861.39,374.94a.7.7,0,0,1-.34.19,2.77,2.77,0,0,1-.06.43C861.11,375.36,861.24,375.15,861.39,374.94Z"/><path class="cls-2" d="M976,497.75a1.25,1.25,0,0,0-.17.47l.26-.57Z"/><path class="cls-2" d="M306.36,592.66a2.31,2.31,0,0,0-.31-.49c.12.23.22.43.33.62A.82.82,0,0,0,306.36,592.66Z"/><path class="cls-2" d="M550.47,537.37l-.06.08s0,.2.27.76l.1-.16.23-.5-.06,0c-.17,0-.35-.1-.46-.1v-.05Z"/><path class="cls-2" d="M1191.41,474.8l4.31-26.76a1,1,0,0,0-.53,0,.88.88,0,0,0-.38.16,6.37,6.37,0,0,0-2.19,0c-1.18.11-2.4.22-3.16-.68l-1.18-1.71c-.62-2.25-2.36-2.28-4-2-.62.1-1.25.26-2.1.47a3.93,3.93,0,0,0-1.24,0c-.32.05-.64.13-1,.2s-.65.15-1,.2a2.44,2.44,0,0,1-2.28-.5,2.65,2.65,0,0,0-3-1.64,12,12,0,0,0-4,1.86l-3.66.57-3.21-.59c-2.65-2.09-6.13-2.73-9.5-3.36a34.82,34.82,0,0,1-6.12-1.54,24.11,24.11,0,0,1-5.71-2.9c-2.93-1.84-6-3.76-10.26-3.54-4.49.22-7.41-.45-8.68-2a4.9,4.9,0,0,0-4.75-1.93,17.58,17.58,0,0,0-4,1.24l-.9.35a23.82,23.82,0,0,0-4.49,2.57c-.66.44-1.31.88-2,1.28s-1.4.78-2.1,1.19c-1.63.93-3.32,1.9-5,2.65l-.77.32A3.79,3.79,0,0,0,1096,441v0a3.53,3.53,0,0,0-.2.8l-.34,2.64c-.35.58,0,1.12.36,1.64s.62.92.43,1.38-.69.76-1.65,1.18a2.18,2.18,0,0,0-.18.55l-1.09.76-.5.24a3.38,3.38,0,0,0-1-.08,5.77,5.77,0,0,0-2,1,2.13,2.13,0,0,1-1.32.63c-.22,0-.43,0-.65.05s-.44,0-.66.05a2.22,2.22,0,0,0-1.8,1.22c-.19.08-.38.2-.57.31a3.18,3.18,0,0,1-1.13.47h0c-.84,0-1.67.09-2.46.2-3.13.42-6.49,1.64-7.65,7.7a4.3,4.3,0,0,1-.24.78s0,.08,0,.12a11.32,11.32,0,0,1-3.92,4.2,11.33,11.33,0,0,0-7.75,8.86,4.48,4.48,0,0,1-.9,1.7,7.08,7.08,0,0,0-.63,1c-.31.36-.65.71-1,1.05a7.42,7.42,0,0,0-2.44,3.88,9.87,9.87,0,0,1-1.2.63,4.71,4.71,0,0,0-2.57,2.14l-2.17,3.19-.83.29a35.44,35.44,0,0,1-6.57,1.89c-3.41.49-5.86-.48-7.71-3l-.47-1.65c0-.23,0-.39-.14-.4a.73.73,0,0,0,.09-.83,7.8,7.8,0,0,1,1-1.9c.9-1.37,1.83-2.8.45-4.29a1.44,1.44,0,0,0-1.26-.56,3.86,3.86,0,0,0-1.83,1.21,6.14,6.14,0,0,0-.58.6l0,0-.64-2.82a17.88,17.88,0,0,1,.29-2.64c.42-2.6.84-5.28-2.13-6.26,0-.24-.06-.48-.1-.79a5,5,0,0,0-1.42-.05,3,3,0,0,0-.49.18,3.12,3.12,0,0,0-.39.14,3.34,3.34,0,0,0-1,.68c-.08.07-.15.14-.22.23a10.52,10.52,0,0,0-1.75,3.59l-1.62-2.52-1.47-2.25a5.4,5.4,0,0,0,.32-1.39c-2-3.1-1.52-7-1.1-10.82.09-.83.18-1.66.25-2.5-.29-2.57.76-5,1.76-7.37a27.48,27.48,0,0,0,1.51-4.13l.43-3.8a6.46,6.46,0,0,0-2.71-7l-1.16-1.76a7.79,7.79,0,0,0-.27-.79,2.52,2.52,0,0,1-.06-2.43,6,6,0,0,0,1.11-3.72c-.22-1.27-1.41-1.88-2.78-2.59-.38-.2-.77-.4-1.17-.63a6,6,0,0,0-3.72-.71,21.21,21.21,0,0,0-2.66.47,20.07,20.07,0,0,1-2.56.46,5.9,5.9,0,0,1-2.42-.22,3.55,3.55,0,0,0-2.64-1,1.71,1.71,0,0,0-.79.24c.09-.24,0-.44-.27-.61-1.31.11-2-.73-2.68-1.61a4.48,4.48,0,0,0-1.61-1.45l-.37.13L998,415a3.31,3.31,0,0,0-.3-.5,3,3,0,0,0-1.93-.38h0a3.07,3.07,0,0,0-.77.25,25.49,25.49,0,0,0-9-3.59l-1.23-.07a19.69,19.69,0,0,0-2.81,0,7.83,7.83,0,0,0-2.49.58l-5.62.52-3.15,2.11-2.53,1.53-.82,1.31a2.28,2.28,0,0,0-.45.15,4.42,4.42,0,0,0-3,2.79,3.43,3.43,0,0,1-2.54,1.54h0a.77.77,0,0,0-.46.21s0,0,0,.06a.48.48,0,0,0-.1.13,7.24,7.24,0,0,0-2.05-.19,3.54,3.54,0,0,0-2.72,1.59,6.37,6.37,0,0,0-.56.87.92.92,0,0,1-.09.16c-.1-.28-.19-.58-.31-.92a4.82,4.82,0,0,0-1.75-.17,12.53,12.53,0,0,0-3.89,1.22l-1,.44a13.69,13.69,0,0,0-4.47,8.28,13,13,0,0,0-.17,2,7.4,7.4,0,0,1-.54-1.67c-.31-1.31-.63-2.66-2.16-2.93l-.62,0a5.75,5.75,0,0,1-1.11-.13,4.49,4.49,0,0,1-.05-2.71,7.1,7.1,0,0,0,.13-1.36l-.84-.24a1.94,1.94,0,0,0-1.21-.4,1.69,1.69,0,0,0-1.29.94h-.39a22.73,22.73,0,0,0-4.5,1.5,4.81,4.81,0,0,1-1.53,1h-1.69l-1.74,0-.5.56c-.23,0-.45.06-.69.12a2.42,2.42,0,0,0-1,1.31,2.51,2.51,0,0,0-.21.46s0,.07,0,.1,0,.06,0,.1a5.5,5.5,0,0,0-.71,4.14s0,0,0,.06h0s0,0,0,.07a11.47,11.47,0,0,0,1.88-.81,7.52,7.52,0,0,1,2.68-.95,3.51,3.51,0,0,1,1.08.09,7.06,7.06,0,0,1,.38,2.7c0,1.37,0,2.79,1.08,3.71a13,13,0,0,0,5.86,7,1.38,1.38,0,0,0,1.54,1.07,3.26,3.26,0,0,0,2.36,1.06,5,5,0,0,1,1.53.39l.34.3.38-.08a2.54,2.54,0,0,0,2,.75,4,4,0,0,0,2.14-1c.2,0,.39-.06.59-.08a2.24,2.24,0,0,0,2.08-1.15q5.35,1.94,10.68,3.85c1.36,1.19,1.13,2.89.87,4.69a6.53,6.53,0,0,0,.18,3.85c-.33,3.76,1.7,5.29,4.19,6.76a5.19,5.19,0,0,0,1.61.53c1.26.28,2.47.53,2.63,2.5.68.86,1.29,1.42,2.06,1.34a2.71,2.71,0,0,0,1.65-1.09c.2-.72.67-1.51,1.33-1.58a.92.92,0,0,1,.31,0c.57.14,1.22.17,1.83.25l.56.08a25.35,25.35,0,0,0,5.52,0,78.1,78.1,0,0,0,7.75-1.37l2.07-.44a29.75,29.75,0,0,0,5.76,0,17.35,17.35,0,0,0,4.68-1.17,11.4,11.4,0,0,0,1.31-1.11,7.68,7.68,0,0,0,1.85-.58,7.68,7.68,0,0,1,1.82-.57,1.36,1.36,0,0,1,1.24.39,3.59,3.59,0,0,1-.44,1.94c-1.85,2.8-3.06,4.25-4.52,4.42a6.83,6.83,0,0,1-3.75-1.24l-.56-.32a5.63,5.63,0,0,0-3.4-1.11,4.23,4.23,0,0,0-2.28,1.1A12.63,12.63,0,0,0,987,475a3.65,3.65,0,0,0-2.25,3.24,1.67,1.67,0,0,0-.8.32c-1,.27-1.41,1.26-1.8,2.21s-.83,2-2,2.19c-1.85-1.93-6.95-2.33-11.18-1.88s-7.53,1.66-9,3.25a1.83,1.83,0,0,0-.49,2.07c1,3,2,6.14,5.52,5.75a7.53,7.53,0,0,0,1-.19,11.9,11.9,0,0,1,1.63-.31c3.22-.36,5.55,1,7.17,4.14a15.45,15.45,0,0,1,1,2.62l0,.09c.48,2.74,2,4.41,4.93,5.35l.19,1.91-2.31,4.43a13.24,13.24,0,0,0-.65,8.63,5.17,5.17,0,0,0,3.18,3.65,2.08,2.08,0,0,0,1.13.93h.06a1.37,1.37,0,0,0,.56.12,5.48,5.48,0,0,0,2.33-1.4l.56-.47,2.61-.16a2.76,2.76,0,0,0,2.26,1.11,5.35,5.35,0,0,1,1.33.3,5.67,5.67,0,0,0,2.91,2.53,10.31,10.31,0,0,1,1.68,1l.34.28c.53.45,1.12.94,1.74.86.47-.07.89-.45,1.29-1.16,1.08-1.93-.81-3.1-1.42-3.49a13.46,13.46,0,0,0-1.67-.84c-1.51-.68-3.07-1.38-3.64-3.42l2.26-2.93c2.33-1.2,2.23-2.9,2.14-4.55a6.86,6.86,0,0,1,.13-2.35,7.41,7.41,0,0,1,3.43-1.74,3.1,3.1,0,0,1,2.71,1c.5,1.05,1.45,1,2.36,1a4.19,4.19,0,0,1,1.33.11l1.29.73c3.11,1.77,6.33,3.58,8.07,7.31a1.54,1.54,0,0,0,.41,0,1.67,1.67,0,0,0,1.23-1.1,3.85,3.85,0,0,0,.85-1.2c.33-.61.65-1.2,1.08-1.26.28,0,.59.14.94.55a28.77,28.77,0,0,0,8.15,6.36l1.8.84.68-.31a3.86,3.86,0,0,1,.15.39,1.41,1.41,0,0,0,.68.07c.47,2,2,2.31,3.57,2.65l.76.18,2.71.37c1.62,0,3.25,0,4.87,0,2.24,0,4.5-.09,6.72,0,10.25.44,19.14,3.56,26.46,6.46l4.35.81c1.42.33,2.88.56,4.34.78a42.87,42.87,0,0,1,6.23,1.25l.13,0a16.31,16.31,0,0,1,1.83.69c.08.76.59.75,1.1.73a1.43,1.43,0,0,1,.72.09l.46.14.63.22s0,.31,0,.32a17.59,17.59,0,0,0,3.74,2.76c2.65,1.61,5.38,3.25,5.79,7.39l.06.81.08.85.88.43c1.63.77,3.17,1.49,3.44,3.86l.12,1.1c.55,5,1.12,10.24,5,13,1.14.81,1.43,2.61.8,4.79a18.19,18.19,0,0,0-1,2.24,17.06,17.06,0,0,1-1.18,2.51,7.73,7.73,0,0,0-.34.71l0,0a5,5,0,0,0-.44,1.22,2.82,2.82,0,0,0,0,.49,2.24,2.24,0,0,0,0,.38,1.25,1.25,0,0,0,.83.87l.07,0a1.84,1.84,0,0,0,.49.17l-.09.08h0a.3.3,0,0,0,.08-.08l0,0h0l-.17.15.17-.14a1.31,1.31,0,0,0,.36.73c.33.4.64.78-.1,1.77a3.83,3.83,0,0,0-.65,3.76c0,.13.06.25.09.38a7.33,7.33,0,0,0-2.68,1.6,8,8,0,0,1-4.16,2.76,7.78,7.78,0,0,0-4.41,3.08c-6.38,5.15-9.78,12.21-13.05,19.08l-1.69,3.55a1.28,1.28,0,0,0-.29.29l0,0a1.11,1.11,0,0,0-.26.58v0a1.26,1.26,0,0,0-.05.33c-.24.51-.53,1-.83,1.54-1,1.78-2.07,3.64-1.08,5.34a1.31,1.31,0,0,0,1.07.71h.11c.12,0,.22.06.35,0a5.93,5.93,0,0,0,1.72-1,5.8,5.8,0,0,1,1.72-1l1.67-.35a10.85,10.85,0,0,1,2.46-1,6.5,6.5,0,0,1,4,.12,6.81,6.81,0,0,0,4.14.27,6.47,6.47,0,0,0,2.4-1.28,8.7,8.7,0,0,1,3.2-1.75,11.38,11.38,0,0,1,3.82-.23h.3a11.56,11.56,0,0,0,1.41-.85,3.92,3.92,0,0,0,.9-.14,4.17,4.17,0,0,0,2.06-1.4l0,0h.33a6.56,6.56,0,0,0,2.22-2.27c2.52-3.75,3.57-5.29,5.07-5.72,1-.29,2.35-.05,4.53.33a10.89,10.89,0,0,0,5.59-3.35c.14-.17.27-.31.36-.44a3.2,3.2,0,0,0,1.13-.14,12.62,12.62,0,0,0,1.73-.7,12.24,12.24,0,0,1,1.72-.7,5,5,0,0,1,.52-.12l.3-.09a8.39,8.39,0,0,1,1.82-.33l.41,0a1.07,1.07,0,0,1,.94.15,1.41,1.41,0,0,0,.66,0l.08,0c.14,1.06.89,1.37,1.62,1.67a2.59,2.59,0,0,1,1.36.94c.19,1.21,1.12,1.5,2,1.77l.3.09,1.05.4.37.12c.07,1,.82,1.11,1.59,1.22a11.28,11.28,0,0,1,2.77,3.63c1,1.74,2,3.53,4,4.25a4.1,4.1,0,0,1,1.78,1.7c.69,1,1.46,1.92,3,1.73h.09a3.18,3.18,0,0,0,.6-.09,5.7,5.7,0,0,0,.63-.25l.91-.37,9.71-59.86s-.25.06-.26,0l-.3.09c-.9-3.71.41-7.9,2.64-13ZM976,497.75l.1-.1-.26.57A1.18,1.18,0,0,1,976,497.75Z"/><path class="cls-2" d="M266.68,580.43l.36-.29c.45-.35.91-.71.92-1.31a2.5,2.5,0,0,0-.69-1.48,3.17,3.17,0,0,1-.9-3,6.17,6.17,0,0,0,0-1.29,1.18,1.18,0,0,1,1.17-.69,3.66,3.66,0,0,1,1.37.67,7,7,0,0,1,.9.67c.18.32.38.66.71.7h.1a.36.36,0,0,1,.23.12l1,2.42,4.06,5.36,1.89,2.48a6.92,6.92,0,0,0,.78.15,3.61,3.61,0,0,0,3.44-1.13c1.16-1.36,1.61-3.9,1.32-7.55q-.25-5.21-.5-10.42l.6-.51q0-1-.05-2l-.1-1.48c0-.16,0-.32,0-.48l0-.12V561l.41-.6c.22-.32.44-.64.66-1,.13-.56.17-1.08.26-1.63,0-.23.08-.46.11-.7a27.19,27.19,0,0,0,.31-3c0-.46,0-.92,0-1.39a21.81,21.81,0,0,0-.16-2.39c-.05-.39-.12-.78-.2-1.18a19.81,19.81,0,0,0-.65-2.59c-.1-.32-.23-.64-.35-1s-.29-.93-.5-1.38q-.19-1.35-.38-2.69a34.39,34.39,0,0,1,.79-17.55c-4.63-8.53-4.74-10.65-.76-16.35.36-.51.69-1.06,1-1.59l.43-.72a1.48,1.48,0,0,0,.78-.34,3.33,3.33,0,0,0-.4-4.17c-1-.45-1-1.33-1-2.37a3.34,3.34,0,0,1-.79-1.72,3.14,3.14,0,0,0-.94-1.78,1.94,1.94,0,0,0-.25-.21l0,0,.51.27a16.48,16.48,0,0,0,4,1.7,13.56,13.56,0,0,1,4.9,2.39c1.73,3.1,3.83,4.73,6.43,5a9.26,9.26,0,0,0,3.92-.57l.2-.26.39,0c4.59-1.34,4.94-2.18,3.36-8.24a4.67,4.67,0,0,0-2.23-.8,9.2,9.2,0,0,0-3.17.45l-.71.25c-.88-2.33,0-3.68.83-5,.74-1.14,1.43-2.22,1-3.85a2,2,0,0,0-1-2.12,4.79,4.79,0,0,0-4.23-2.7l-2-.11a11.58,11.58,0,0,1-1.23-.18,5.74,5.74,0,0,0-1.06.05,5.64,5.64,0,0,1-1.11.06c-.75-.06-1.54-.42-1.75-2.51a3.44,3.44,0,0,0-.12-.47,2.73,2.73,0,0,0-.12-.47,2.12,2.12,0,0,0-.4-.69,1.86,1.86,0,0,0-.32-.28c-.12-.09-.19-.22-.33-.29-1.57-1.18-2.44-3.11-2.57-5.71a34.85,34.85,0,0,0-3.83-14.48c-2.1-4.17-3.75-6.46-6.46-6.68a9.88,9.88,0,0,0-4.25.85,2.17,2.17,0,0,1-.45,0,7,7,0,0,1-2.28-.81,7.18,7.18,0,0,0-2.33-.82c-1.08-.09-1.87.51-2.45,1.86-1.7.88-2.42,2.71-2.2,5.61.2,2.7-.83,3.78-3.43,3.61a1.7,1.7,0,0,0-1.51.93,4.16,4.16,0,0,1-1.75,2.43,2.42,2.42,0,0,0-.49,2.68,6.2,6.2,0,0,0,1.32,2,7.33,7.33,0,0,0,3.19,1.82,17.61,17.61,0,0,1,2.42.8l.89.34a15.74,15.74,0,0,0,3.71.76c.6.06,1.2.08,1.79.09l.6,0c2.78.25,4.38,1.82,5.91,5.78a51.77,51.77,0,0,1,1.83,6.26c.19.78.4,1.54.65,2.29.06.21.11.43.17.64-.25-.39-.52-.77-.79-1.16a13.48,13.48,0,0,1-2.2-4.11c-1.58-5.8-1.91-7-5.47-7.33-.81-.07-1.8-.1-3.06-.15L264,474a2.61,2.61,0,0,0-1.57.56c-.89-.21-1.79-.41-2.74-.57-7.73-1.29-7.73-1.29-8.76-10.17l-3.55-.79c-3.14-1.48-4.21-4.48-5.24-7.37a19.89,19.89,0,0,0-2.2-4.79c-1.7-2.19-2-4.69-2.37-7.11a27.68,27.68,0,0,0-.67-3.43l0-.12a11.85,11.85,0,0,0-.42-1.4,6.78,6.78,0,0,0-.8-3.32,12.42,12.42,0,0,1-.65-1.74,3.9,3.9,0,0,0-3.28-2.81c-.67-.13-1.35-.21-2-.28a11.87,11.87,0,0,1-4.27-1,11.53,11.53,0,0,0-3.6.18,4.85,4.85,0,0,1-1.58.11c-4.26-.37-9.72-5.21-11.24-9.87l2.58-3.76a12.31,12.31,0,0,1,2.08-1.21c1.4-.7,2.8-1.47,3.29-2.91v0a3.21,3.21,0,0,0,.23-1c0-2.14-1.71-2.9-3.39-3.65a10.32,10.32,0,0,1-2.24-1.21c-.48-.38-.73-.69-.74-.95s.34-.53.71-.76.85-.51.79-.91l1.32-.33,1.66-.33.93.09c.87.07,1.8,0,2.11-.6s.05-1.56-.7-3l-1.18-1.9a10.94,10.94,0,0,1-.14-1.6,5.81,5.81,0,0,0-1.27-4l-.25-1.5c-1.09-4.19-4.18-5.07-7.25-5.94l-2.35-.84-2-.63c.1-.68.37-1,.91-.94a3.63,3.63,0,0,1,.77.18l.42.12a4.1,4.1,0,0,0,.64.1,2.21,2.21,0,0,0,1.59-.51,1.7,1.7,0,0,0,.24-.24c.11-.13.27-.19.35-.35a125.73,125.73,0,0,0,.15-.74,3,3,0,0,0,0-1.08,2.66,2.66,0,0,0-.07-.27,3.12,3.12,0,0,0-.14-.55,23.14,23.14,0,0,1-1.55-4.55,22.19,22.19,0,0,0-1.51-4.42l-.16-.32c-.6-1.2-1.27-2.55-2.46-2.63a2,2,0,0,0-1,.22c-1.34.63-2.56,1.65-1.45,4.43l.32.77c.65,1.55,1.35,3.25.83,4.71a2.79,2.79,0,0,1-.3.58l-.06.1a3.47,3.47,0,0,1-.71.68,1.8,1.8,0,0,0-.23-.8l-.36,0a2.49,2.49,0,0,0-.42.07h0a2.58,2.58,0,0,0-1.22.49l-.13.1a3.28,3.28,0,0,0-.48.37c-.11,0-.2.12-.26.38s0,.32,0,.41a6.3,6.3,0,0,1-1.14,1,2.62,2.62,0,0,1-.43.22,1.35,1.35,0,0,0-.14-1.75,2.39,2.39,0,0,0,.95-1.49c.06-.16.14-.3.18-.47a1.48,1.48,0,0,0,0-.19,2.09,2.09,0,0,0,.88.31c.71,0,1.16-.53,1.38-1.8-1-4.74-4.35-7-7.19-8.39a2.49,2.49,0,0,0-.82-.24l-1.2-2.11a3.92,3.92,0,0,0-3.27-2.31,4.23,4.23,0,0,0-1.39.15,4.68,4.68,0,0,1-1.51.2c-1.64-.1-2.3-1.44-3-3.87a10.65,10.65,0,0,1-.22-1.16,4.87,4.87,0,0,0-1-2.74,11.3,11.3,0,0,0-3.87-3.85h0a6.48,6.48,0,0,0-2.79-.9c-.23,0-.48.06-.71.07h-.12a7.28,7.28,0,0,0-1.28.12,1.25,1.25,0,0,0-.48.33l-1.75-1-1.84-1a7.81,7.81,0,0,0-.77.37,2.08,2.08,0,0,0-1.54.82,2,2,0,0,1-1.47.79,3,3,0,0,1-.58-.11,4.82,4.82,0,0,0-.25-.8l-1.17-.5-1.12-.42a4.69,4.69,0,0,0,0-.59,54.17,54.17,0,0,0-.82-5.83c0-.11,0-.21-.07-.32-.13-.61-.21-1.22-.39-1.83l-1.29-1.86-.74-.44a1.3,1.3,0,0,1,0-.83,3,3,0,0,0-.47-2.25,2.67,2.67,0,0,0-2.07-.83h-.06a9.37,9.37,0,0,1-5.32,1.42c-3-.16-6.07-1.92-9.47-5.35-.59-.6-1.23-1.14-1.86-1.68l-.85-.73a5,5,0,0,0-2.88-1.63c-1.43-.07-2.26,1.37-3.05,2.77l-.46.81q0,1.31,0,2.62a3.08,3.08,0,0,1-1.79.43,8.68,8.68,0,0,1-3.31-1.23L124,331a6.32,6.32,0,0,0-.5-.64c-.13-.18-.26-.35-.4-.51a11.26,11.26,0,0,0-2.31-2,7.75,7.75,0,0,1-1.72-3.47,7.46,7.46,0,0,0-1.9-3.66l-2.55-4.83a6.06,6.06,0,0,0-2.57-2.37,6.43,6.43,0,0,1-2.63-2.38c-2-3.75-5.57-5.82-8.43-7.19Q90.07,295.37,79.09,287a5.81,5.81,0,0,0-1.4-.74l-.53.18a6.69,6.69,0,0,0-1.92-.43l-.56,0c-2.14-2.91-4.64-5.76-8.41-6.94l-1.66-.9-2.18-2.27a7.87,7.87,0,0,0-2.71-2.64,8.26,8.26,0,0,1-2.56-2.39l-.53-2.93c-.26-3.48-2.9-4.6-5.45-5.68l-.47-.2a4.49,4.49,0,0,0-.51-.16c-.34-.1-.72-.21-.79-.37l-.22-.47c-2.9-6.27-5.9-12.73-13.72-15.06-.38-.11-.69-.63-1-1.17a5.07,5.07,0,0,0-.85-1.16l-.6-.57c-1-1-2-1.9-3.13-1.91a2.43,2.43,0,0,0-.5.13l-.13,0a3.71,3.71,0,0,0-1.72,1.1,2.74,2.74,0,0,1-2.13.77,10.83,10.83,0,0,1-3.8-1,20.85,20.85,0,0,0-7.73-1.59,19.21,19.21,0,0,0-5.25.66,37.75,37.75,0,0,1-10.52,1.35H-2.5L-10,238.68c-4.09-4.43-8.38-7.15-13.11-8.35-.44,0-.91,0-1.37-.09s-1-.09-1.43-.09a4.05,4.05,0,0,0-1.48.22,10.19,10.19,0,0,1-2,.44c-1.91.31-3.88.62-3.9,3.28a13.75,13.75,0,0,0,1.12,6.44,1.81,1.81,0,0,0,1.08,2c.48.53.19,1-.12,1.53a1.53,1.53,0,0,0-.33,1.3,1.67,1.67,0,0,0,.9.83l0,0a1.34,1.34,0,0,1,.17.86q4.13,5.2,8.24,10.45A7.33,7.33,0,0,0-19.18,260l.61.34L-13,265l3.4,3.95c.81,1.66,2.37,2.28,3.88,2.88s3,1.19,3.77,2.77a3.67,3.67,0,0,0,2.29,2l5.08,4.17c.29.36.56.75.82,1.13a6.72,6.72,0,0,0,2.85,2.74,24.68,24.68,0,0,1,16,10.25,8,8,0,0,0,2,1.69,10.61,10.61,0,0,1,1.09.84l-.05.06h0s0,0,.05-.06l.05,0-.1.11.11-.09h0a8,8,0,0,0,2.48,4A31.81,31.81,0,0,0,36.56,307c2.62,2.08,5.3,4.24,6.9,7.23l.06.11a12.55,12.55,0,0,1,.59,1.36c.11.29.19.6.28.9s.22.71.29,1.09c-1,2.07-.67,4.27,1.12,6.74C47,326.75,49,327,50.85,327.17l.52.06c3.94.47,7.71,2.22,11.53,4l.91,1.33c2.66.77,4.64,2.73,6.54,4.63.57.56,1.13,1.12,1.7,1.65.75,1.05,1.68,2.15,3,2.24a.53.53,0,0,0,.41-.08h0c0,.65.14,1.3.24,2a14.79,14.79,0,0,1,.25,3.07c.68,1.62,1.42,3.22,2.16,4.83,1.85,4,3.76,8.17,4.6,12.5a41.13,41.13,0,0,0,3.66,10,43.19,43.19,0,0,1,3.52,9.4A3.81,3.81,0,0,0,92,385l.31,0,.34.3c6,2.05,11.75,4.44,15,11.14a17.45,17.45,0,0,0,3.26,5.12,25.41,25.41,0,0,1,2.37,3.24c.36.68.82,1.39,1.53,1.46a.93.93,0,0,0,.41,0,7,7,0,0,0,3.14,3.17l1.38,2,1.37,2a2.07,2.07,0,0,0,0,.77c.53.88,1,1.77,1.55,2.66a71.18,71.18,0,0,0,5.58,8.65l.12-.11.06,0a3.57,3.57,0,0,0,1.13,3.26c3.4,2.62,4.82,6.31,6.2,9.88a36.54,36.54,0,0,0,2.78,6.07,11.67,11.67,0,0,0,3.46,5,4.68,4.68,0,0,1,1.52,2.16l.2.3,0,.08,0,0c-3.35,3.42-3.05,4.87,2.19,11.26l5.42,7.26A6.89,6.89,0,0,0,153.1,473c.51.46,1,.9,1.56,1.34.73.62,1.47,1.24,2.18,1.92a11.6,11.6,0,0,0,1.73,1.2,3.61,3.61,0,0,0,1,1.63,25.89,25.89,0,0,0,5,8.16c.11,1.78,1.23,2.84,2.32,3.87.3.28.6.57.89.87a69.87,69.87,0,0,0,10,8.67,3.14,3.14,0,0,0,1.28,1.69,1.82,1.82,0,0,0,.67.24h.11l.08.12,0,.27,1,.62,1.2.79a3,3,0,0,0,.62,2.19,18.73,18.73,0,0,1,1.74,4.23c.84,2.63,1.71,5.34,4.45,7a3.88,3.88,0,0,0,3.05,2.43h.07l4,4c.67,1,1.36,1.94,2.55,2.1h0l2.26,2.19a5.68,5.68,0,0,0,2.78,2.58,6.88,6.88,0,0,1,2.45,2.94c.85,1.5,1.72,3,3.44,3.29h0a1.18,1.18,0,0,0,.45.64s.08,0,.12.06a.94.94,0,0,0,.33.15h.19a39.77,39.77,0,0,0,8.52,7.78l1.5,1.11c5.67,4.19,11.53,8.52,14.6,16.31a16.31,16.31,0,0,0,4.64,5.8l1.13,1,.1.44c.46,2.06.93,4.2,3.09,4.66a2.89,2.89,0,0,0,2.08,2.13l1.39.36c1.28,2.71,2.46,4.07,3.73,4.25a3.23,3.23,0,0,0,2.73-1.29,6.4,6.4,0,0,0,0-.66,3,3,0,0,1,.13-1.29c.34-.72-.14-1.59-.61-2.43a3.17,3.17,0,0,1-.64-1.86c.08-.36.38-.65.94-.85a2.53,2.53,0,0,1,1.22-.13c1.57.22,3,1.87,3.9,3.11a9,9,0,0,0,6.54,3.7C266,580.38,266.32,580.42,266.68,580.43Z"/><path class="cls-2" d="M542.39,539.53c.16.3.29.62.44.94a11.35,11.35,0,0,0,.51,1.07,4.39,4.39,0,0,0,.62,2.06,2.65,2.65,0,0,0,1.18,2.91,1.18,1.18,0,0,0,.5.14c.6,0,.92-.64,1.22-1.27l.24-.5,1.77-.91a12.94,12.94,0,0,1,1.36-1.64c1.26-1.36,2.56-2.76,2.19-5.44h-.06l.17-.4a4.68,4.68,0,0,0-.22-.73,4.07,4.07,0,0,0-.41-1.26,3.51,3.51,0,0,1-.42-1.43,1.62,1.62,0,0,1,0-.32,1.84,1.84,0,0,1,0-.27l.62,0c.24,0,.49,0,.72.05a1.48,1.48,0,0,0,1.28-.48,2.54,2.54,0,0,0,.32-1.7c0-.71,0-1.57,0-2.46,0-2,.07-4-.54-4.73-.16-.2-.36-.31-.85-.31h-.05c-1.81,0-1.94-1-2.08-2.09a4.72,4.72,0,0,0-.29-1.29c-1.7-3.85-.25-7,1.38-9.81a1.81,1.81,0,0,0,.27-2.29,6.62,6.62,0,0,1,.24-3.83A13.27,13.27,0,0,0,553,502a3.54,3.54,0,0,1,.2-2.34.91.91,0,0,1,.82-.38,3.51,3.51,0,0,1,1.05.23c1.7-.95,3.43-5,4.2-8.34.6-2.63.63-4.73.07-5.75-.33-.61-.83-1.37-1.36-1.52a2.56,2.56,0,0,1-1.79-1.24,5,5,0,0,1,.13-3.12,11.11,11.11,0,0,0-.58-7.67,2.94,2.94,0,0,1-.47-1.88.63.63,0,0,1,.39-.42c2-.8,2.39-2.69,2.82-4.51a11,11,0,0,1,.87-2.68,18,18,0,0,1,4.33-2.87c2.54-1.35,5.17-2.75,6.56-6.21l2.91-3.44c1.54-2.74,3.9-3.18,6.18-3.62a13.7,13.7,0,0,0,3.28-.91l.22-.5c.32-.77.64-1.49,1.42-1.76.93-.93,1.66-1.82,1.24-3.38-1.39-3.07-1.34-5.44.16-7.7a4.08,4.08,0,0,0,.68-1.77s0-.08,0-.13a2.23,2.23,0,0,0,0-.69,2.2,2.2,0,0,0-1.48-1.46c-2-.8-3.1-1.65-3.42-2.75s0-2.47,1.18-4.5c.86-1.55,1.49-2.87.95-4.69-2.05-7,.84-12.17,3.61-15.94a21.45,21.45,0,0,1,1.67-2.56,12.06,12.06,0,0,0,2.48-5,8.05,8.05,0,0,0,.15-1.49,6.76,6.76,0,0,1,1.49.41,5.71,5.71,0,0,0,1.74.42,1.45,1.45,0,0,0,1.16-.49,4.82,4.82,0,0,0,1.7-.49,39.16,39.16,0,0,0,6.29.42,27.67,27.67,0,0,1,9,1.11,7.55,7.55,0,0,0,2.46.47c2.16,0,3.82-1.31,5.08-4l2-3.36c.91-2,1.26-3.07,1-3.75s-1.39-1-3.79-1.29a25.47,25.47,0,0,0-1.43-2.28c-.16-.25-.31-.52-.48-.76-.56-.8-1.14-1.55-1.76-2.27l-.36-.41a60.6,60.6,0,0,0-8-7.25c-2-1.57-4.06-3.2-5.93-5a3.7,3.7,0,0,0-3-2.36l-1.06-.81c-2.3-1.35-3.26-3.95-4.19-6.47l-.23-.52a.69.69,0,0,0,0-.95,14.05,14.05,0,0,1,2.29-4,11.92,11.92,0,0,0,2.58-5.1c1.06-1.84.23-3.12-.59-4.36-.17-.26-.34-.52-.51-.8-4.95-4-7-10.15-8.93-16.11-.69-2.08-1.37-4.16-2.18-6.16a1.85,1.85,0,0,1,.54-2.59c2.81-2.62,1.88-6,.75-8.66a2.42,2.42,0,0,0-.93-.87c.14-1.53,1.11-2.19,2.46-3a6,6,0,0,0,3.06-3.47,6.26,6.26,0,0,0-.47-4.25,1.46,1.46,0,0,0-1.24-.51l-.72,0a1.41,1.41,0,0,1-1.23-.55,1.25,1.25,0,0,1-.93-.59,2.43,2.43,0,0,1-.05-1.57,5,5,0,0,0,2.79-1.28,5,5,0,0,1,2.85-1.29,4.79,4.79,0,0,1,1.1.17c.11,0,.17-.12.27-.17l.11-.07c.07-.06.17-.05.23-.14a2.37,2.37,0,0,0,.07-1.78l-.23-.7c-.57-1.79-1.17-3.61-2.71-4.46l0,0a4.29,4.29,0,0,0-2.09-.49h0c-.71,0-1.41.05-2.12.05-1.17,0-2.34,0-3.51-.08-.72,0-1.45-.05-2.14-.05h-.33a12.74,12.74,0,0,0-5.27-4.11l0,0a10.09,10.09,0,0,0-3.72-.76,13.84,13.84,0,0,0-2.77.29,44.32,44.32,0,0,1-8.88.94,33.84,33.84,0,0,1-9.25-1.28,3,3,0,0,0-1.33-1.23l-.07,0a1.5,1.5,0,0,0-.49-.18,2,2,0,0,0-1.18.45,16.2,16.2,0,0,0-1.94,1.18,7.21,7.21,0,0,1-3.69,1.63c-1.2,0-2.3-.76-3.39-2.3a1.41,1.41,0,0,0-1.2-.6,2.92,2.92,0,0,0-2,.92c-.49.52-1,1-1.57,1.47-1.57,1.39-3.18,2.82-3.71,5.34a1.68,1.68,0,0,0-.15.72c-.21,1-.39,2-.57,3a53.87,53.87,0,0,1-2,8.25c-.94,2.63-.76,5.33-.58,7.94a21.83,21.83,0,0,1-.2,6.49,5.69,5.69,0,0,0-.68,3.51c0,.24,0,.48,0,.72,0,4.09-1.45,6.06-4.35,6a8,8,0,0,1-1.41-.15,5.48,5.48,0,0,0-1-.11c-2.94,0-3.79,2.84-4.35,5.53a6,6,0,0,0,.05,2,4,4,0,0,1-.31,2.86,11.62,11.62,0,0,1-.42,1.19c-.55,1.42-1.12,2.89.47,4.38a2.15,2.15,0,0,1,.87,1.41c0,.48-.44.84-.86,1.19a2.32,2.32,0,0,0-.82.94,6,6,0,0,0-2.9,3.14,6.65,6.65,0,0,0-3.8,3.9c-.65,1.92-.4,4.31.75,7.3a6.14,6.14,0,0,1,.24,3c-1.88,1.55-3.07,3.82-3.7,7.08-1.27.34-1.64,2-1.95,3.31-.22,1-.42,1.84-.9,1.83a.66.66,0,0,1-.32-.1,6.4,6.4,0,0,0-3.06-.82,13.75,13.75,0,0,0-4.34.9,13.24,13.24,0,0,1-4.15.87,5.75,5.75,0,0,1-2-.4,5.78,5.78,0,0,0-5.71,2.92,4.51,4.51,0,0,1-4,2.18,13.32,13.32,0,0,1-3.06-.56,13.2,13.2,0,0,0-3.08-.57,2.43,2.43,0,0,0-.92.12c-.11-.29-.2-.58-.3-.93L469.26,368h-1.82c-.37-.51-.78-.88-1.17-1.33-.15-.17-.29-.34-.44-.5a13.88,13.88,0,0,0-4.42-3.19c-.2-.09-.41-.17-.63-.25A13.09,13.09,0,0,0,458,362l-.66-.09c-.39,0-.74-.14-1.15-.15a17.41,17.41,0,0,0-2.49.13,20.86,20.86,0,0,1-2.95.11L448,362c-3.2-.07-6.53.15-9.19,3.56-1.68,1-1.88,2.89-2.08,4.71a7.24,7.24,0,0,1-1.16,3.9.46.46,0,0,0-.4.16.4.4,0,0,0,0,.42,11.62,11.62,0,0,0-4,2c-1.55,1-3.16,2.11-5.05,2.06a6.09,6.09,0,0,1-1.92-.4l-.31.19a1.49,1.49,0,0,0-.64.53,5.13,5.13,0,0,1-.7,0,11.21,11.21,0,0,1-3.73-1,11.26,11.26,0,0,0-3.77-1h-.51l-1.83-.25a3.52,3.52,0,0,0-1.94-.64,8,8,0,0,0-2.29.4,7.71,7.71,0,0,1-2.27.39,3.81,3.81,0,0,1-.59-.06,10.83,10.83,0,0,0-5.7,2.93,4.34,4.34,0,0,1-3.27,1.53,5.82,5.82,0,0,1-3.37-1.48l-.3-.14a4.91,4.91,0,0,0-1.87-.6.54.54,0,0,0-.36.07c-1.41-3.47-4.1-5.38-6.69-7.24l-.77-.55-.94-.38c-.23-.37-.53-.65-.78-1s-.47-.62-.72-.91a26,26,0,0,0-3.54-3.42,3.56,3.56,0,0,0-2-2.25c-2.46-4-5.52-8.95-7.22-14.39a2.77,2.77,0,0,0,1.61-1.55,1.88,1.88,0,0,0-.12-1.28c-.17-.42-.39-.64-.65-.64s-.78.46-1.16.94l-1,0c-2.8-.08-5.69.1-7.59,3.24,0,0-.11.51-.11.53-.66,1.18-1.37,2.31-2.09,3.44-1.82,2.86-3.68,5.81-4.49,9.49-.23,1.74-.34,3.52-.46,5.3-.32,4.84-.65,9.85-3.23,13.94a2,2,0,0,0-.73,1.42,2.91,2.91,0,0,0,.75,1.84,3.87,3.87,0,0,1,1.15,2.47,5.13,5.13,0,0,0,.71,2l.09,1.05a20.65,20.65,0,0,1,0,3c-.11,2.63-.22,5.36,2.22,7.14,3.39,2.48,5,5.81,5.44,11.1q0,.52,0,1c-3.57,2.37-4,5.54-1.64,10.62.49,1,1.05,2,1.62,3,1.81,3.23,3.68,6.58,3,10.69-.27.31-.37.56-.3.75s.3.31.7.35c1.94.22,4,.65,4.86,2.19.59,1.09.51,2.62-.22,4.68-1,1.24-.95,2.67.1,4.52a4.69,4.69,0,0,0,3.36,2.27c1.24.07,2.54-.63,3.83-2.07a4.62,4.62,0,0,1,3.65-1.91,5.88,5.88,0,0,1,3.14,1.36l3.25,7.81-1.69,6.39,0-.06c-1.59,2.43-2.31,3.54-2.16,4.58s1,1.74,2.64,3.23l-.08.46c.26.13.52.24.79.35a4.78,4.78,0,0,1,2,1.25,2.89,2.89,0,0,1,.28.36,16.72,16.72,0,0,1,.48,5.33,15.26,15.26,0,0,0,.71,6,9.85,9.85,0,0,1,1.46,3.83,11.52,11.52,0,0,0,1.63,4.29q.05,3.64.1,7.28a3.4,3.4,0,0,0-.51,1.86s0,.05,0,.08a3.62,3.62,0,0,0,0,.74,5.87,5.87,0,0,0,2,3.2,2.22,2.22,0,0,0,.64.25l.18.07c.12,0,.24.13.37.14,1,.07,2-.72,2.91-1.47a10.66,10.66,0,0,1,1.35-1l2.7.34.26.52c.81,1.63,1.66,3.24,2.89,3.8l.11,0a2.07,2.07,0,0,0,.63.22,3.76,3.76,0,0,0,2.42-.95,1,1,0,0,1,.65-.17,1.86,1.86,0,0,1,1.56,1.33,3.2,3.2,0,0,0,2.63,2.06,4.72,4.72,0,0,0,2.09-.46c.55-.4,1.09-.83,1.64-1.26,2.21-1.74,4.49-3.54,7.07-3.4,1.65.09,3.27.94,5.09,2.68a1.6,1.6,0,0,0,.68-.3l.38-.23.47,0,.36-.43a5.92,5.92,0,0,1,2.59-.68c.29,0,.57.07.8.09h0a22.51,22.51,0,0,1-.36,2.42,12.23,12.23,0,0,0-.2,5,17.09,17.09,0,0,0,.58,2.36,10.34,10.34,0,0,1,.62,3.93,2.8,2.8,0,0,1-.26,2.35,3.27,3.27,0,0,0-.34,2.37,12.41,12.41,0,0,0,3.3.81,4,4,0,0,0,3.82-2.13c2.21-3.47,4.36-5,6.76-4.92,1.68.08,3.44,1,5.39,2.77a5.44,5.44,0,0,0,3,1.6c1.21.06,2-1,2.29-3a25.37,25.37,0,0,1,2.28-1.24c2.87-1.44,5.84-2.94,6-8.34,0-.39.15-.43.25-.43.29,0,.78.43,1.25.82a6,6,0,0,0,.9.68l.73,1.14a3.59,3.59,0,0,0,2.21,2.12,6.24,6.24,0,0,0,3.32,2c.44.14.89.29,1.31.47a1.61,1.61,0,0,0,.6.14,3.94,3.94,0,0,0,1.64-.45,3.94,3.94,0,0,1,1.63-.45,2.15,2.15,0,0,1,1.59.95l-.8,2.18c-.8,2.65.56,4.34,2,5.85a4.51,4.51,0,0,0,1.95.75,1.88,1.88,0,0,0,1.56-.78c2.21-2.27,4.27-3.29,6.51-3.21a7.78,7.78,0,0,1,1.86.31,5.2,5.2,0,0,0,3.07,1.54,13.79,13.79,0,0,1,2.15.64c1.76.06,3,1.45,4.07,2.75,2.31,3.06,1.83,6.81,1.42,10.1a15.27,15.27,0,0,0,1.84,10,3.08,3.08,0,0,0,2.14,1.14,3.62,3.62,0,0,0,2.37-1c2-.8,4-1.64,6-2.49s4.13-1.73,6.21-2.57l.48-.19c1.31-.51,2.54-1,3.17-2.72a1.2,1.2,0,0,0-.13-.16l-.11-.18a2.07,2.07,0,0,0,.93.33c.73,0,1.26-.62,1.61-2a.79.79,0,0,1,.93-.81h0a2.66,2.66,0,0,1,1.85-.51l1.64.1c1.24,0,2.46-.27,2.89-2.56a3.8,3.8,0,0,0,1.84.41h1.44C540.48,536.24,541.9,536.52,542.39,539.53Zm8.56-2,.06,0-.23.5-.1.16c-.28-.55-.28-.72-.27-.76l.06-.08h0v.05C550.6,537.43,550.78,537.51,551,537.52ZM382.24,464.36a4.46,4.46,0,0,0,.35.31l.09.1c-.11,0-.25-.1-.41-.35Z"/><path class="cls-2" d="M831.19,671.28a4.65,4.65,0,0,1-.7-.46,16.56,16.56,0,0,0-7.1-1,12.53,12.53,0,0,0-7.52,3.94,6.28,6.28,0,0,1-3.28,2,2.58,2.58,0,0,1-1.82-.51c-.06-.83-.53-.92-1-1a1.92,1.92,0,0,1-.61-.18,5.29,5.29,0,0,1-1.27.3l-.58.1h-1.44a6.34,6.34,0,0,0-2.72,1.3,6.3,6.3,0,0,1-3.73,1.41,7.6,7.6,0,0,0-3,.83,16.71,16.71,0,0,0-2.1.38,4.25,4.25,0,0,0-2.47-.42,46.38,46.38,0,0,0-8.85,2.28c-.72.26-1.49.48-2.28.7-3,.83-6,1.67-7.4,5.27-2.63,6.9-7.12,9.74-11.86,12.73-1,.64-2,1.28-3,2a62.59,62.59,0,0,0-19.94,14.47c-1.68,1.86-3.42,3.78-3.66,6.6a41.09,41.09,0,0,1-1.89,8.33c-.42,1.39-.82,2.8-1.14,4.34,0,.15-.09.3-.12.45s0,.12,0,.19a2.1,2.1,0,0,0-.57,0c-1.31.1-2.35,1.5-3.27,2.73l-.46.81c-.81,1.38-1.65,2.81-1.51,4.34.51,5.35-2.44,7.84-5.3,10.24l-.66.53a10.35,10.35,0,0,0-1.59,1.54l-.1.14a4.71,4.71,0,0,0-.55.75,6.24,6.24,0,0,0-2.82,2.19s-.24.3-.22.33c.34.7.06,1.86-.21,3s-.59,2.43-.15,3.18c0,.07.14.09.2.16l.07.05a2.19,2.19,0,0,0,1.78.48,6.43,6.43,0,0,0,.75-.1l1.11-.84a4,4,0,0,0,.56.25c.73-.22,1.5-.37,2.27-.52,3.2-.63,6.51-1.3,7.59-7.07,2.13-2.22,2.08-5,2-7.69,0-.57,0-1.13,0-1.68a4.28,4.28,0,0,1,.48-2.34.88.88,0,0,1,.66-.37,3.63,3.63,0,0,1,1.65.51,24.86,24.86,0,0,0,5,.18,11.42,11.42,0,0,0,7.79-3.71,10.73,10.73,0,0,1,7.2-3.87,14.14,14.14,0,0,1,2.14,0,4.47,4.47,0,0,0,.92,0,3,3,0,0,0,1.85-.92l0,0a6.13,6.13,0,0,0,1.44-3.51l.41-.15.89-1.29,1.11-1.44c.91-.64,1.85-1.32,1.79-2.72a2.83,2.83,0,0,0,1.64-2.13l.4-.66c.85-1.43,1.65-2.78,3.27-2.95a2.4,2.4,0,0,0,1-.88,9.68,9.68,0,0,0,1.65-3.92c.5-1.93,1-3.76,2.69-4.65a39.9,39.9,0,0,0,5.78-4c2.74-2.14,5.57-4.35,8.81-5.19a2.26,2.26,0,0,1,1.22-.48,7.09,7.09,0,0,1,.89,0,7,7,0,0,0,.91,0,2.4,2.4,0,0,0,1.67-.89c.32-.28.67-.54,1-.79A14.41,14.41,0,0,0,797,700c2.11-2.39,4.8-3.31,7.4-4.21,3.58-1.24,7.28-2.52,9.57-7.59a1.14,1.14,0,0,1,.77-.46c2.9-.45,5.47-2.33,8-4.15a44,44,0,0,1,3.64-2.49,5.83,5.83,0,0,0,.93-.56l.11-.07a14.37,14.37,0,0,0,4.08-5.08c.27-.48.55-1,.86-1.48C832.79,672.17,832,671.72,831.19,671.28Z"/><path class="cls-2" d="M725.41,689.76a8.42,8.42,0,0,1,3.81.63,1.86,1.86,0,0,0,.62-.27,1.39,1.39,0,0,0,1.18.53,2.46,2.46,0,0,0,.46-.18l.07,0a2.55,2.55,0,0,0,.63-.24c.41-.2.46-.5.39-.63,4.14-1.9,7.36-5.72,10.56-9.56a.62.62,0,0,0,.19,0,.27.27,0,0,0,.13-.07h0a6.19,6.19,0,0,0-.75,4.1,4.49,4.49,0,0,0,2.88,3,4.42,4.42,0,0,0,3.63,1.89,3.34,3.34,0,0,0,.44-.15c.11,0,.21-.07.32-.11a4.52,4.52,0,0,0,1.36-.75l.24-.2a6.65,6.65,0,0,0,.76-.65,5.75,5.75,0,0,1,3.94-1.8,9.52,9.52,0,0,0,1.92-.42,8.4,8.4,0,0,1,5.67-2.24l1.57-.12a14.19,14.19,0,0,0,3.74-.77c1.16-.1,2.06-.91,2.92-2.38,1.51-.14,2.66-.43,3.42-1.43a6.9,6.9,0,0,0,1-4.14c0-3.46-1.06-4.05-2.83-3.9-.28,0-1.44.19-1.75.22-1.88.16-3.75.38-5.63.59l-5,.53-.56,0c-.73.06-1.47.18-2.2.3s-1.46.23-2.2.29a8.73,8.73,0,0,1-3.12-.25l-2,2.37c-1.16,1.62-2.27,2.49-3.32,2.57-1.24.1-2.42-.87-3.6-2.94-.53-1-1.2-1.45-1.95-1.4a3,3,0,0,0-1.83,1.07,7.61,7.61,0,0,1-5.39,2.51c-.77.06-1.55,0-2.33,0s-1.56,0-2.34,0l-.54.05-.81-.24a1.53,1.53,0,0,0-1.28-.63,3.34,3.34,0,0,0-1.69.87,4.5,4.5,0,0,1-2.26,1.2c-1.25.08-1.47-1.59-1.71-3.36-.07-.55-.14-1.09-.26-1.61a2.18,2.18,0,0,0-1.89-1.17,2.81,2.81,0,0,0-1.66.84c-1.67.26-2.72.87-3.23,1.88-.79,1.58-.11,3.84.61,6.24l.12.19,0,.1a12,12,0,0,0-2-.08,5.2,5.2,0,0,0-2.23.66l-.21.14a4.63,4.63,0,0,0-1.33,1.27l-.13.18a8.62,8.62,0,0,0-1.15,2.6c-.81,3.06-2.14,4.67-4,4.77a6,6,0,0,1-3.65-1.36.93.93,0,0,0-1-.67,3.58,3.58,0,0,0-.46.07l-.41.09a10.43,10.43,0,0,1-.74-1.28c-.62-1.19-1.27-2.42-2.71-2.35a3.17,3.17,0,0,0-.82.16c-1.36.44-2.74,1-4.11,1.57-2.62,1.08-5.34,2.2-8,2.32a9.49,9.49,0,0,1-7.79-3.63c-.26-.29-.71-.27-1.15-.26l-.55,0c-1.14-2.16-2.88-2.15-4.56-2.14a5.17,5.17,0,0,1-3.48-.8,1.07,1.07,0,0,0-1-.85,1.24,1.24,0,0,1-.78-.41l-2.57-.16a4.22,4.22,0,0,0-3.15-1.4,9.07,9.07,0,0,0-3.94,1.5,11.67,11.67,0,0,1-3.32,1.46c-.07-.11-.19-.26-.33-.26s-.23.11-.33.31a27.05,27.05,0,0,1-3.29,2.55c-2.84,2-5.78,4-6.58,8.87a1.46,1.46,0,0,1-1,.58c-.51,0-.92-.44-1.37-.93s-.89-1-1.44-1a.38.38,0,0,0-.35.17h0c-.19-2.89-1.8-4.48-3.35-6l-.4-.34-1.92,1.08a8.18,8.18,0,0,0-1.35,4.32,16.3,16.3,0,0,1-.39,2.34c-.09.2-.2.31-.55.31H628a4.89,4.89,0,0,0,0,5.78,4.05,4.05,0,0,0,2.59,1.19c1.22,0,2.09-1,2.88-2.42.2-.32.39-.65.58-1a6.27,6.27,0,0,0,2.2,3.89,8.66,8.66,0,0,0,1.16.88h.09l.12.08a2.64,2.64,0,0,0,.46-.13,3,3,0,0,0,.33-.09,2.31,2.31,0,0,0,.83-.43,2.9,2.9,0,0,0,.7-.78,3.84,3.84,0,0,0,1.25,1.5,4,4,0,0,0,1.36.52,38.14,38.14,0,0,0,4.59.11l4.33-.16c.6,0,1.19,0,1.8,0a9.25,9.25,0,0,1,2.77-.48,27,27,0,0,1,2.8.11,25.91,25.91,0,0,0,2.81.11,8.87,8.87,0,0,0,2.57-.44l-.19.34a2.5,2.5,0,0,0,2.69,1.94,9.73,9.73,0,0,0,1.21-.14l.79-.12a1.82,1.82,0,0,1,1-.48.72.72,0,0,1,.44.15,2.68,2.68,0,0,1,.48,1.66,2.23,2.23,0,0,0,1.53.6,1.92,1.92,0,0,0,.58-.12l2.3-.87c3.64-1.4,7.41-2.85,11.21-3a15.6,15.6,0,0,1,4.93.54c.18,0,.38-.15.76-.42a19.74,19.74,0,0,1,5.62-2.37,16.17,16.17,0,0,0,2-.67,11.32,11.32,0,0,1,4.17-.77,17,17,0,0,0,2.51-.27,7.81,7.81,0,0,0,2.19-.95,7.38,7.38,0,0,1,2.08-.9,23.65,23.65,0,0,0,6.86-3C720,691.46,722.63,689.95,725.41,689.76Z"/><path class="cls-2" d="M537.42,681.8c-3.17-4.9-6.47-9.33-11.82-9.77a.56.56,0,0,1-.3.09.6.6,0,0,1-.42-.24,1.58,1.58,0,0,0-1-.56c-.1,0-.2.09-.31.12l-.14.06a1.26,1.26,0,0,0-.42.17l-.94.82c-.63.55-1.27,1.11-1.92,1.63a7.91,7.91,0,0,1-5.2,1.54,9.54,9.54,0,0,1-7.52-4.08l-.05-.09a7.41,7.41,0,0,1-.53-1,19.1,19.1,0,0,1,0-2.27c.08-2.2.17-4.48-2-6.1l-2.56-.07a9.65,9.65,0,0,1-2.47-1.34,7,7,0,0,0-3.42-1.53.82.82,0,0,0-.33,0l-.81-1.11a3.57,3.57,0,0,0-2.21-1.05c-1.31-.07-2.48.83-3.65,1.82h-7.2a6.21,6.21,0,0,1-.75-.11,6.34,6.34,0,0,0-.76-.11,1.55,1.55,0,0,0-1.65,1,1,1,0,0,1-.53.09h-.1c-3.42-.45-6.77-2.12-10.27-5.11-2.23-1.91-3.33-3.62-3.36-5.23a5,5,0,0,1,1.18-3,10.89,10.89,0,0,1,1.89-1.8l0-.25h0l1.24.16c.45.59.89,1.18,1.31,1.83a7.12,7.12,0,0,0,4.66,2.22,12.63,12.63,0,0,0,5.39-1.21l1.43-1.12c1.15-.27,1.38-1.35,1.5-2.71,0-.14,0-.27.05-.41a.31.31,0,0,0,0-.08l2.35.22,1.49-.72a3.54,3.54,0,0,0,.46-.22,13.29,13.29,0,0,1,5.74-1.16,11.58,11.58,0,0,1,1.22.13c1.86-.85,2.82-1.88,3-3.12s-.53-2.55-2-4.09a1.75,1.75,0,0,0-1.36-.57l-.66,0a1.61,1.61,0,0,1-1.62-1.1,1.83,1.83,0,0,0-1.24-.81c-.66,0-1.21.58-1.72,1.26a25.53,25.53,0,0,1-7.32.44l-3.81-.24c-1.15-.06-2.29-.1-3.43-.06-.84,0-1.68,0-2.52-.05l-2.57-.17a14.94,14.94,0,0,0-7.42,1l-1,1.14a5.5,5.5,0,0,1-2.9,1.14,2.51,2.51,0,0,1-2-1.5c-1.35-2.36-2.91-2.75-4.12-2.83a13.46,13.46,0,0,0-2.24.1,3.83,3.83,0,0,0-1.86-.51l-3.81-1c-1.52-3.15-3.68-3.55-5.75-3.7l-1.55-.1a12.77,12.77,0,0,1-1.56-.19,19.48,19.48,0,0,1-1.88-1.93c-1.27-1.43-2.6-2.9-4.2-3a3.76,3.76,0,0,0-2.69,1l-1.71-.07a2.63,2.63,0,0,1-1.37.32c-1.46-.11-2.26-1.86-2.9-3.49-1.12-2.88-2.71-4.56-5-5.3l-5.41-.49c-4.6.23-5,4.18-5.42,8-.1,1-.21,2-.4,3-.82,3.85-1.74,5-3.8,4.84a14.47,14.47,0,0,1-4.17-1.35,10.4,10.4,0,0,0-2.92-.84,4.49,4.49,0,0,0-1.64.13l0,.07-.24-.2-.14.14h-.06c-.63-.15-1.29-.35-2-.56-.85-.25-1.71-.52-2.54-.69l-.78-.3a21.71,21.71,0,0,0-5.5-1.59,8.63,8.63,0,0,0-1.42,0l-.92-.11a4.26,4.26,0,0,0-1.39-.38,9.14,9.14,0,0,0-3.21.46,9,9,0,0,1-3.17.45,4.87,4.87,0,0,1-3-1.56l-.83-.22c-.61-.16-1.23-.32-1.84-.51s-1.29-.38-1.93-.55c-4.08-1.11-7.92-2.17-9.12-9.88-.56-3.57-4-9.24-8-9.66a4.21,4.21,0,0,0-1.12,0,14.23,14.23,0,0,1-3.85.08,33.67,33.67,0,0,1-9.34-3c-1.21-.52-2.43-1.05-3.64-1.5-.56-.69-1.08-1.43-1.6-2.18-1.33-1.91-2.74-3.81-4.74-4.69l-.32-.11a5.22,5.22,0,0,0-1-.36,16.35,16.35,0,0,1-2.17-1.07,9.92,9.92,0,0,0-3.14-1.32c-1.68-.2-2.57,1.23-2.75,4.45a4.17,4.17,0,0,1-2.93.69,8.64,8.64,0,0,1-2.37-.76c-.27-.14-.54-.26-.81-.43l0-.1c-.77-.36-1.54-.75-2.31-1.14-2.57-1.3-5.23-2.64-7.93-3a9.57,9.57,0,0,0-2.72,0,1.29,1.29,0,0,1-.8.17c-.46-.06-.9-.39-1.6-1.27l-.46-1.67a5.66,5.66,0,0,1-.64-.27,3.46,3.46,0,0,0-1-.34,1.27,1.27,0,0,0-1.19.61l-.64-.06c-3.54,2.25-4.35,6.59-4.7,10.92-.28.44,0,1.06.42,1.89a7,7,0,0,0-.07,1.51,2.15,2.15,0,0,1-.53.22,5.9,5.9,0,0,0-2.17-.85,2.34,2.34,0,0,0-1.65.4l-.08.05c-.83.58-1.43,1.72-1.72,3.55a42.38,42.38,0,0,0-.64,6.13l.08,1.18a.43.43,0,0,1-.33.1c-.41-.06-.8-.84-1.18-1.58s-.8-1.59-1.45-1.69l-.53-.06a1.3,1.3,0,0,1-1-.49,2.43,2.43,0,0,1,.09-1.77,2.94,2.94,0,0,0-.37-2.35,4.08,4.08,0,0,0-2.18-1.91c-1.22-.18-1.94.89-2.63,1.92a8.4,8.4,0,0,1-1,1.34c-1,1-.47,1.74.09,2.56a6.59,6.59,0,0,1,.55.88c2.24,4.54,5.46,7,10.14,7.68.46.07.92.12,1.39.15l1.92.22a36.43,36.43,0,0,0,4.21.34,14.11,14.11,0,0,1,1.92.14c3.17.46,6.52,2,10.52,4.87,1.51,1.08,3,2.26,3.34,3.81a3.9,3.9,0,0,1-.88,3.19c-1.19,1.65.09,3.17,1,4.29,2.32,2.79,4.63,4.31,7.27,4.69,0,0,21.92,6,21.92,6l1,1.14a24.57,24.57,0,0,1,2,1.82,22.22,22.22,0,0,0,2,1.73,9.05,9.05,0,0,0,1.49,1h0a2.85,2.85,0,0,0,.26.61v0a1.52,1.52,0,0,0,.46.58.92.92,0,0,0,.16.1c.08,0,.15.13.23.14a3.28,3.28,0,0,0,1.59-.46,2.37,2.37,0,0,1,.8,0,6.36,6.36,0,0,1,2.18.9,8.57,8.57,0,0,0,1.49.71l1,1.26a15.8,15.8,0,0,1,2.93,1.92c1.39,1.06,2.83,2.16,4.35,2.35a3.78,3.78,0,0,0,2.73-.75c.12-.45.21-.93.32-1.62l3-2.46a5.22,5.22,0,0,1,.82,0l1.32.19a3.69,3.69,0,0,0,1.39,0,5.18,5.18,0,0,0,1,.48,9.9,9.9,0,0,0,1.48.3,6.22,6.22,0,0,0,1.81,0c.26-.1.54-.17.76-.25l.32.32a17.21,17.21,0,0,1,3.76,0c3.64.41,7.28,1.82,10.81,3.18A59.75,59.75,0,0,0,387.7,658a75,75,0,0,1,6.48,4.62,45.93,45.93,0,0,0,10,6.37l.44.16a17.89,17.89,0,0,0,2.15.75,2.82,2.82,0,0,0,2.31,2,3.06,3.06,0,0,0,.62,0l.37-.09a7.78,7.78,0,0,0,5.28,3,8.15,8.15,0,0,0,1.42,0,21.07,21.07,0,0,1,3.51,0,11.06,11.06,0,0,1,3.85,1l1.31.34a4.7,4.7,0,0,0,3.1,1.3c1.37.2,2.67.38,3.62,2.09a2.47,2.47,0,0,0,1.28,1.2h0a1.64,1.64,0,0,0,.35.15,3.24,3.24,0,0,0,1.89-.69c.67-2.17,1.85-2.37,2.93-2.29a11.47,11.47,0,0,1,1.32.22,11.61,11.61,0,0,0,1.33.22,3.83,3.83,0,0,0,.52,0l2.69.35a26.92,26.92,0,0,1,2.65,1.14,13.9,13.9,0,0,0,4.74,1.59,5.61,5.61,0,0,0,.7,0l4.47,1.54a8.32,8.32,0,0,0,.75.51c.19.14.38.27.57.38a6.76,6.76,0,0,0,1.34.64,5.75,5.75,0,0,0,.95.24,5.83,5.83,0,0,0,.65.16h0a5.29,5.29,0,0,0,.69-.38,5.24,5.24,0,0,0,1.43.31c1.92.13,3.64-.88,5.47-1.82a.7.7,0,0,0,.57-.18A8.1,8.1,0,0,0,472,683a6.46,6.46,0,0,0,1.18-.25,7.32,7.32,0,0,1,2.6-.43,4,4,0,0,1,1.79.55l1,.8.53.57a24.62,24.62,0,0,0,2.6,2.48l.27.21a9.19,9.19,0,0,0,1,.76,4.53,4.53,0,0,0,1.18.38l.38,0,.35.46,1.18.51a6.51,6.51,0,0,1,.69,1.29,8.62,8.62,0,0,0,3.09,2.36c.33.17.66.35,1,.54a15.47,15.47,0,0,0,6.82,1.82l.79,0a5.76,5.76,0,0,1,4.06,1.61,6.46,6.46,0,0,0,4.37,2.09c.19,0,.4-.07.6-.07h.08a7.5,7.5,0,0,0,1.72-.21,2.75,2.75,0,0,0,1.14-.93,6.4,6.4,0,0,0-.45-5.7,7.4,7.4,0,0,0-.93-1.23,12.33,12.33,0,0,0-3.3-2.35l-.67-.31-.94-2.35-.05,0,.3-.21a1.55,1.55,0,0,1,1.25-.78c.51,0,1,.44,1.66,1.31a5.89,5.89,0,0,0,3.89,2.74c3.38.49,6.34,2.53,9,4.66a1.94,1.94,0,0,0,.54.21,8.9,8.9,0,0,1,.25,1.69,6.19,6.19,0,0,0-1.53,3.18c.72,2.95,2.07,3.38,3.17,3.42a9.4,9.4,0,0,0,1.84-.18,11.89,11.89,0,0,1,1.55-.19c1.61-.72,1.89-2.51,2.15-4.24l.08-.54c.32-.82.6-1.24.82-1.23s.43.47.62.91a2.6,2.6,0,0,0,.52.91,2,2,0,0,0,.34.29c.46,1.83,1.65,3,3.21,3h.33c1.43-.1,1.59-1.59,1.74-3,0-.46.09-.91.18-1.37l-.19-.53c-.28-.83-.56-1.69-1.37-1.72h0c-.62-1.77.23-2.29,1.13-2.84a5.14,5.14,0,0,0,.87-.63l.4-.39c1.55-1.5,3.15-3.06,1.67-6.27ZM306.36,592.66a.53.53,0,0,1,0,.13c-.11-.2-.21-.39-.33-.62A2.14,2.14,0,0,1,306.36,592.66Z"/><path class="cls-2" d="M505.73,549.36s0,0,0,0v0Z"/><path class="cls-2" d="M952.34,617.76c-.18-1.38-1.34-2.21-2.69-2.88a6,6,0,0,0-3.62-.43c-.29,0-.57.19-.85.26l-.25.08a11,11,0,0,0-4.22,2.46l-.31.3a11.76,11.76,0,0,0-1.08,1.22l-.12.18a10.57,10.57,0,0,0-1,1.43c-2.29,4.51-4.87,6.86-8.14,7.38a9.12,9.12,0,0,1-1.19.11,5,5,0,0,0-.67.06,9.17,9.17,0,0,0-2,.59,2.81,2.81,0,0,0-1.81,3c.08,1,.61,1.5,1.43,1.37a2.38,2.38,0,0,0,.5-.14,7,7,0,0,1,1.44-.45c.58-.09.93,0,1.09.3.3.54-.12,1.7-.5,2.73-.17.44-.31.87-.41,1.22a13.41,13.41,0,0,1-1.45,3.06c-1.28,2.22-2.6,4.52-.54,7.28-.09.51-1,1.33-1.4,1.72l-4.22,3.9c-.34.32-.7.63-1.06.93-1.79,1.53-3.64,3.11-3.61,6.3a2.27,2.27,0,0,0,1.09.08,6.06,6.06,0,0,0,2.67-1.64,6.56,6.56,0,0,1,2.42-1.58c3.12-.55,6.55-1.8,8.4-6.86a4.06,4.06,0,0,1,1.35-1.41,3.61,3.61,0,0,0,1.61-2l4.25-8c3.95-4.5,7.12-8.69,5.75-14.55a1.11,1.11,0,0,1,.06-.78c.21-.41.72-.62,1.36-.86a6.83,6.83,0,0,0,1.12-.33,6.44,6.44,0,0,1,1.1-.32,1.84,1.84,0,0,1,1.4.29c1.66-.39,3.73-.87,4.09-3.22a180.73,180.73,0,0,1,0-.79Z"/><path class="cls-2" d="M626.2,695.46a7.19,7.19,0,0,0-.21-1.8,4.38,4.38,0,0,0-2.39-2.76l-1.1-1a24,24,0,0,1,.74-6.49,3.57,3.57,0,0,1,.87-1.27c.75-.82,1.52-1.67.41-3.55-.17-.43-.34-.88-1-.87h-.4c-1.67,0-3,1.17-4.32,2.28a11,11,0,0,1-2.84,2c-.44.06-.9.15-1.55.29l-.29-.06a.63.63,0,0,0-.52.28l-3.67-1a3.14,3.14,0,0,0-2.26-1.48c-1,0-1.88,1-2.69,2a12.05,12.05,0,0,1-1.32,1.44c-2.88-.74-3.45-3.48-4-6.38-.1-.5-.2-1-.36-1.52-.56-.26-1.07-.39-1.6-.57l-.06,0a14.22,14.22,0,0,0-3-.72l-.28,0c-.32,0-.67-.13-1-.13a9.4,9.4,0,0,0-6.66,2.8,2.73,2.73,0,0,1-2.08.7c-.37,0-.75,0-1.11-.07s-.65-.06-.95-.06c-.67,0-1.36.12-1.44,1.07-.43,5.14-1.7,6-4.42,6-.67,0-1.43-.07-2.29-.14l-.47,0c-2.56,0-6.92,3-9.71,6.84-1.78,2.18-2.07,5-2.34,7.8a24,24,0,0,1-.85,5c0,1.59.28,4.37,2.38,5.1.79.27,1.56.56,2.34.86a21.85,21.85,0,0,0,7.36,1.86c.33,0,.65-.09,1-.12l.64-.08a10.2,10.2,0,0,0,1.29-.16c2-.54,4-1.22,6-1.91a57.47,57.47,0,0,1,9.92-2.78c.56-.71,1.13-1.4,1.68-2.08a12.29,12.29,0,0,1,2.68-.58,7.39,7.39,0,0,0,4.32-1.66,6.16,6.16,0,0,0,.53-.6c.1-.13.21-.21.31-.35.2.2.41.38.62.57s.53.54.8.83c1.09,1.16,2.22,2.34,3.64,2.34a2.78,2.78,0,0,0,1.09-.24,24.45,24.45,0,0,1,6.81-1.45,36.84,36.84,0,0,0,4.16-.63C621.9,702.07,625.62,701.21,626.2,695.46Z"/><path class="cls-2" d="M817.8,649.78l-.59-.38c-1.14-2-2.51-2.89-4.17-2.71-1.32.14-2.79.9-4.77,2.49-2.32,1.86-4.08,2.76-5.73,2.93a5.26,5.26,0,0,1-4.41-1.79h0s-.09.12-.11.12a1,1,0,0,0-.11.17c-1,2-2,3.87-3.87,5.26s-3.07,4.42-2.94,8c.06,1.61.46,2.35,1.24,2.27a2.9,2.9,0,0,0,1.37-.69,18.62,18.62,0,0,1,10.17-3.64c1-.1,1.91-.17,2.87-.24l2.07-.17a1.9,1.9,0,0,0,1.23.33c1-.1,1.73-1.07,2.37-2,1.26-2.27,2.79-3.5,4.7-3.79l1.6-1.36a5,5,0,0,0,.84-2s0-.08,0-.12a2.81,2.81,0,0,0,.08-.51C819.55,650.88,818.66,650.33,817.8,649.78Z"/><path class="cls-2" d="M324.33,509.18a1.25,1.25,0,0,0,1,.66c.82.07,1.82-.71,2.62-1.35l.37-.29a2,2,0,0,0,1.31-.56,1.88,1.88,0,0,1,1.25-.54,1.58,1.58,0,0,1,.67.24c.71,2.93,1.82,3.62,2.61,3.69s1.79-.56,2.61-1.79a24.91,24.91,0,0,0,4.35-13.4,3.5,3.5,0,0,0-.26-1.08l-1.56-1.31-.36-.33-.34-.25s0-.37,0-.39a3.38,3.38,0,0,0-2.28-2.56l-3.67-2.56a16.69,16.69,0,0,0-5-1.27,11.79,11.79,0,0,0-4.61.54,21.82,21.82,0,0,0-1.21,7.15,22.8,22.8,0,0,1-1.21,7.27c-.73,1.8,1,4.16,2.44,6.24C323.52,507.95,324,508.58,324.33,509.18Z"/><path class="cls-2" d="M235.69,395a3.75,3.75,0,0,0-1.52-.66,1.11,1.11,0,0,0-.85.3,1.73,1.73,0,0,0-.51,1.37,2.45,2.45,0,0,0,.57,1.52c1.69,1.85.88,3-.08,4.28-1.08,1.47-1.18,3.34-1.18,5.28-.37,1.14.23,2,.87,2.86a8.52,8.52,0,0,1,1,1.76,1.5,1.5,0,0,1,.06.18,7,7,0,0,0-1.18-.2,4.27,4.27,0,0,0-1,.12c-.12,0-.26,0-.37,0a3.66,3.66,0,0,0-.81.28,3.39,3.39,0,0,0-.55.36,3.56,3.56,0,0,0-.8.83,4.12,4.12,0,0,0-.26.44,5.68,5.68,0,0,0-.53,1.48c0,.13-.06.27-.07.4a6.53,6.53,0,0,0-.16.91c-.08,1.77,1.14,2.09,2.33,2.4a3.63,3.63,0,0,1,2.18,1.13,1.23,1.23,0,0,0,.44.32,8.82,8.82,0,0,1,1.16.83,4.28,4.28,0,0,0,2.05,1.13,1.71,1.71,0,0,0,1.44-.7l.4-.45c1.24-1.35,2.52-2.76,1.31-5.74-.56-1.36-.68-2.35-.36-2.93s.83-.69,1.69-.62a7.84,7.84,0,0,1,1.83.4,10.11,10.11,0,0,1,2.08,1.09,7.08,7.08,0,0,0,3.06,1.3,1.77,1.77,0,0,0,.73-.08c0-1.84-.08-3.74-1.09-5a3.59,3.59,0,0,0-.6-.5l-.2-.16a4.67,4.67,0,0,0-2.07-.86c-2-.69-2.38-2.46-2.83-4.57A12.52,12.52,0,0,0,235.69,395Z"/><path class="cls-2" d="M872.13,348.29h0c7.55-.35,12.24-5.75,12.89-14.82a11.59,11.59,0,0,0-2.06-7.59,2.72,2.72,0,0,0-2.07-1.18,1.77,1.77,0,0,0-.72.18c-4,2-7.77,6.3-9.49,11.08a15.31,15.31,0,0,0,0,11.24C871,347.78,871.3,348.32,872.13,348.29Z"/><path class="cls-2" d="M844.25,452.86a1.32,1.32,0,0,0-1.36,1,7,7,0,0,0-.36,7l.17,1.62c.64,1.58,1.32,3.13,2.49,3.47l.11,0a1.46,1.46,0,0,0,.44.11,4.17,4.17,0,0,0,2.33-1.25,8.23,8.23,0,0,1,4.46-1.48c.69,0,1.38,0,2.07,0s1.38,0,2.07,0a9.7,9.7,0,0,0,2.2-.37,1.7,1.7,0,0,1,.37-.06,5.57,5.57,0,0,1,1.25.13,5.49,5.49,0,0,0,1.29.13c1-.07,1.49-.74,1.7-2.11.06-.37,0-.65.06-1s0-.4,0-.6a9.9,9.9,0,0,0,0-1.66,6.24,6.24,0,0,0-.25-1.12,4.71,4.71,0,0,0-.36-.8,4,4,0,0,0-.45-.61,3.86,3.86,0,0,0-.91-.77,4,4,0,0,0-.41-.2,4.58,4.58,0,0,0-.78-.39,9.7,9.7,0,0,1-5-3,2.91,2.91,0,0,0-1.84-1.71c-.18,0-.35-.06-.47-.07l-.46-1.07-1.15-1-.37-1.2c-.75-.87-1.76-1.86-3-1.8a3.58,3.58,0,0,0-2.37,1.43,3.19,3.19,0,0,0-.22.58,3.06,3.06,0,0,0-.12.31,3.27,3.27,0,0,0-.18.48l-.85.95a2.68,2.68,0,0,0,.09,3,3.26,3.26,0,0,1,.52,2,2.82,2.82,0,0,1-.54.06Z"/><path class="cls-2" d="M925,416.57l.52-.06a1.9,1.9,0,0,0,.51-.23h0a3.53,3.53,0,0,1-.5,1.76,3.1,3.1,0,0,0-.45,2.16l1.53,1.54.93,1a6.17,6.17,0,0,0,2.46.33c2.5-.18,4.73-1.87,6.89-3.51l1.14-.92a1.63,1.63,0,0,0,1.19.62,11,11,0,0,0,3.08-.85l.9-.34a7.32,7.32,0,0,1,2.09-.64,4.72,4.72,0,0,0,3.68-2.17,2.9,2.9,0,0,0,.16-.69l.34-.23a4.21,4.21,0,0,0,2.31-3.1l-1.7-2.2-1-1.77-3.72-2.87a3.63,3.63,0,0,1-1.3.34,6.52,6.52,0,0,1-2.69-.59,6.6,6.6,0,0,0-2.73-.6l-.35,0a12.45,12.45,0,0,0-2.6-.1,29.56,29.56,0,0,0-8.77,2.5c-1.55.62-3.14,1.25-4.72,1.72a3.52,3.52,0,0,0-2.45,2.16,5.29,5.29,0,0,0,5.28,6.67Z"/><path class="cls-2" d="M216.11,371.41l.43.31c3,2.19,6.09,4.45,7.54,8.47a.07.07,0,0,0,.06.05h0c3-.22,4.57-1.64,4.95-4.37,0-.08.05-.14.07-.23a7.67,7.67,0,0,1,1.37,1.31,3.28,3.28,0,0,0,2.15,1.43c.61.09,1.16.14,1.66.17,3.92.24,4.44-1.51,4.32-8.11a9.14,9.14,0,0,0-3.12-3.24,6.88,6.88,0,0,0-4.79-2c-.56,0-1.13,0-1.7,0s-1.13,0-1.69,0l-.76-.06a5.54,5.54,0,0,1-.86,0,15.37,15.37,0,0,1-1.92-.28,16.31,16.31,0,0,0-1.93-.27,3.66,3.66,0,0,0-3.49,1.55c-.28,1-1,1-1.84,1s-1.51.07-1.86.91a2.32,2.32,0,0,0-.14,1.75A3.12,3.12,0,0,0,216.11,371.41Z"/><path class="cls-2" d="M903.22,464.24a2.44,2.44,0,0,0,.46,1.07l0,0a3,3,0,0,0,.47.58,35.56,35.56,0,0,0,7,4.8,4.76,4.76,0,0,0,2.45.32c3.49-.3,8.44-3,8.91-5.41.65-3.38,1.11-6.89-1-9.52a6.75,6.75,0,0,1-.7-.55,3.36,3.36,0,0,0-1.32-.74h0a1.32,1.32,0,0,0-.4-.1,2.23,2.23,0,0,0-1.21.56,12.19,12.19,0,0,1-6.25,2.84c-.23,0-1.07,0-1.26,0a9.78,9.78,0,0,0-5.64,2.78,4.3,4.3,0,0,0-1.63,2.79,2.36,2.36,0,0,0,.07.38S903.21,464.19,903.22,464.24Z"/><path class="cls-2" d="M837.46,435.24c0,.09,0,.11.53.33l.28.12c2.17,1.43,3.37,2.22,4.08,2.18s.92-.86,1-2.52c0-.39.09-.84.13-1.34.88,3.32,3.44,3.82,5.94,4.28a19.21,19.21,0,0,1,2.45.56,1.37,1.37,0,0,0,.6-.25,2.3,2.3,0,0,0,.77.31,4,4,0,0,0,1,.09c1.21-.07,2.05-.84,2.56-2.33l1.13-1.9a8.31,8.31,0,0,0,1.45-1,4.44,4.44,0,0,1,2.23-1.19,2.08,2.08,0,0,1,1.62.75,2.39,2.39,0,0,0,1.35,1,2.26,2.26,0,0,1,1.73,1.94c0,.19.14.27.2.42a1.5,1.5,0,0,0,.15.32,1.12,1.12,0,0,0,.49.39,1.35,1.35,0,0,0,.38.1c.12,0,.2.1.34.09a7.41,7.41,0,0,0,1.29-.25,7.58,7.58,0,0,1,1.13-.23,1.92,1.92,0,0,0,1.73-1.73,2.4,2.4,0,0,0-1.4-2.67c-.18-.13-.36-.25-.53-.38l-2.49-1.91-6.7-14.64a6.2,6.2,0,0,0-.84-3.76c-.2-.43-.41-.87-.57-1.31a2.44,2.44,0,0,0-.17-.53q0-.81.05-1.61c1.84-2.33,2.08-5,2.32-7.67.11-1.15.21-2.34.4-3.42a7.62,7.62,0,0,1,.85-.1h.22a11.65,11.65,0,0,1,3.39.49,70.9,70.9,0,0,0,8.46,1.55l3.4.5,2,1.47a4.65,4.65,0,0,0,2.21.47,3.39,3.39,0,0,1,2.8,1,1.78,1.78,0,0,0,1.26.8,1,1,0,0,0,.71-.46,1.68,1.68,0,0,0-.09-1.87,3.69,3.69,0,0,1-.37-1l-5.32-4.05c0-.36,0-.74,0-1.12a5.34,5.34,0,0,0-.61-3.17,2.52,2.52,0,0,0-.22-2.06,2.78,2.78,0,0,0-2.42-1l-.48,0a5.57,5.57,0,0,1-3.29-1.19,8.68,8.68,0,0,0-1.91-1c-1.09-.35-2-.8-1.79-2.34s1.34-1.91,2.4-2.4c10.42-4.74,10.75-5.79,11.76-18.12.24-2.86,0-4.46-.68-5.33a2.22,2.22,0,0,0-1.94-.75,8.19,8.19,0,0,0-2.53.62c-4.58,1.34-10.3,3.71-14,10.23a3.55,3.55,0,0,0-.63,2.21.89.89,0,0,0,.23.43.49.49,0,0,0,0,.09,5.62,5.62,0,0,0-.89.38,9.41,9.41,0,0,0-1.18,1.08l-.24.2.13-.22c.15-.26.31-.53.48-.79s.27-.57.42-.84a6.39,6.39,0,0,0,.87-2.43c2.58-5.1,2.72-11,.31-14.69s-1.37-5.37.83-8.26c1-1.28,2.44-3.22,1.08-5a2.47,2.47,0,0,0-2.1-1,5.15,5.15,0,0,0-2.81,1.16,27.61,27.61,0,0,0-8.81,10.58,10.22,10.22,0,0,0-1.85,4.27,12.57,12.57,0,0,1-1.34,3.58l-1.45,8c-4.1,5.5-4.18,7.68-.49,12.21,1.8,2.21,2,4.86.67,8.35a12.09,12.09,0,0,0-.47,5.69l.06.78a10.75,10.75,0,0,1,.25,1.41,5.11,5.11,0,0,0,.89,2.72l.85,1.16.75,5.14.48,5.21c-1.67,1.08-2.2,2.87-2.72,4.6a14.5,14.5,0,0,1-1,2.62,2.67,2.67,0,0,0-.22.5,3.22,3.22,0,0,1-.61.09,5.59,5.59,0,0,1-3.18-1.22,5.64,5.64,0,0,0-3.24-1.24,3.27,3.27,0,0,0-.86.16c-2.4,1.37-3.65,3.15-3.84,5.43a19.1,19.1,0,0,0,.76,6C837.69,429.66,838.32,432.31,837.46,435.24Zm21.63-57.39a6.73,6.73,0,0,0,1.37-1.19,7.42,7.42,0,0,0-.48,1.94,3.07,3.07,0,0,0-1,.78,2.3,2.3,0,0,1-1.34.84h-.42A3.86,3.86,0,0,1,859.09,377.85Zm2.3-2.9c-.15.21-.28.41-.4.62a2.78,2.78,0,0,0,.06-.43A.68.68,0,0,0,861.39,374.94Z"/><path class="cls-2" d="M797.85,467.5l-4.69-1a6.71,6.71,0,0,1-3.53-1.22,6.84,6.84,0,0,0-3.58-1.24,3.12,3.12,0,0,0-1.69.6l-.12,0a5.83,5.83,0,0,0-.08-1,47.85,47.85,0,0,0-14.6-2.08,30.18,30.18,0,0,0-3.06.29,4.53,4.53,0,0,0-3.94,2.92,17,17,0,0,1-1.13,4.47c-.73,2.06-1.48,4.2-1,6.54a3.09,3.09,0,0,0,2.65,3.36c.12.36.27.53.47.52s.13-.11.19-.15h0c.09-.06.18-.07.26-.2h.39c2.38-.11,4.56-1.33,6.67-2.53a18.08,18.08,0,0,1,5.82-2.46l2.05,1.92a1.21,1.21,0,0,0,.92.53,1.31,1.31,0,0,0,.94-.71,5.66,5.66,0,0,1,3.94-1.95,4.31,4.31,0,0,1,1.21.1,26.1,26.1,0,0,0,7.33.71,20.6,20.6,0,0,0,7.34-1.73c.16-.06.31-.09.47-.16-1.51,4.59-.17,8.32,1.34,11.34l.3.58a5,5,0,0,1,.84,3.16l1.61,2.45a2.7,2.7,0,0,0,1.43.5c.53,0,1-.41,1.34-1.15a5.39,5.39,0,0,0,.49-6c-1.7-3.76-2.15-5.77-1.63-7.39.57-1.79,2.42-3.1,5.21-4.63a7.58,7.58,0,0,0,1.13-.81,10.66,10.66,0,0,1,.92-.69,2.55,2.55,0,0,0,1.46-2,1.74,1.74,0,0,0-1.34-1.54l-.79-.25c-2.86-.92-5.8-1.87-8.79-1.72A11.46,11.46,0,0,0,797.85,467.5Z"/><path class="cls-2" d="M323.24,290.42c.5.32.94.6.65,1.44-1.06,1.26-1.46,2.31-1.21,3.22.37,1.31,2.07,2,3.32,2.43a3.87,3.87,0,0,0,1.14.2h0a7.91,7.91,0,0,0,3.83-1.28,6.44,6.44,0,0,0,2.79-4.3,7.28,7.28,0,0,0-.36-6.66L329.19,280c-.84-2.17-1.71-3.24-2.66-3.25s-2.05,1.28-3,2.54l-.37.48c-2.44,1.84-3.49,3.29-3.54,4.83s.89,3.15,3.1,5.46A3,3,0,0,0,323.24,290.42Z"/><path class="cls-2" d="M828.38,286.51l.06.19a4.14,4.14,0,0,0,.18.63,8.44,8.44,0,0,1,.61,2.24c.27,1.48.6,2.94,1.73,3.43h0a1.88,1.88,0,0,0,.84.22,4.82,4.82,0,0,0,1.81-.46c.3-.47.64-.92,1-1.37,1.15-1.51,2.34-3.07,2-5.41a8.63,8.63,0,0,1,1.53-4.68c.32-.58.65-1.15.91-1.74a9.9,9.9,0,0,0,.42-7.74A7.28,7.28,0,0,0,834,267.4a3.15,3.15,0,0,0-1.66,1.61,2.27,2.27,0,0,0,.23,1.7q0,3.26,0,6.52a1.38,1.38,0,0,0,.45,1.26,4,4,0,0,1-.26,2.86,2.58,2.58,0,0,1-1.72,1.26,3.56,3.56,0,0,0-2.62,2,3.27,3.27,0,0,0-.08.5,2.45,2.45,0,0,0,0,.28A3.1,3.1,0,0,0,828.38,286.51Z"/><path class="cls-2" d="M743.33,456.55c.11-1.53-.76-3.05-2.68-4.66-.88-.39-1.75-.84-2.61-1.29-2.68-1.37-5.45-2.79-8.42-2.7a9.37,9.37,0,0,0-4.55,1.37,3.23,3.23,0,0,0-.49,1.17,2.91,2.91,0,0,0-2.06,2,13.9,13.9,0,0,1-1.14,2.8c-1,2-2,4-.79,6.57s2.53,3.88,4.08,3.83a4.37,4.37,0,0,0,2.28-.87,2.47,2.47,0,0,1,1.24-.54c.46,0,.83.27,1.33,1,.81,1.22,1.53,1.8,2.21,1.78.88,0,1.65-1.09,2.39-3.31l.82-1.06a6.79,6.79,0,0,0,.93,0,7.13,7.13,0,0,0,3.9-1.37C742,459.69,743.21,458.14,743.33,456.55Z"/><path class="cls-2" d="M805.76,508.13c-1.08.07-2.16,1.42-2.48,3.07-1.68,3.77-1.47,6.32.66,8.24,3.84,7.22,10.48,10.32,16.39,12.62a3.24,3.24,0,0,0,1.42.21c1.95-.15,4.06-1.89,6.11-3.58a32.33,32.33,0,0,1,3.37-2.55c2.71-.22,5.08-.67,6.73-3.77.54-2.58,1.11-5.24.14-7.72a22.87,22.87,0,0,1-4.24-4.12c-1.79-2.07-3.65-4.21-6.22-5.19a.62.62,0,0,0-.45-.21c-.13,0-.25.08-.34.08h0a3.56,3.56,0,0,0-3.26-2,4.3,4.3,0,0,0-1.38.35c-1.85.51-3.71,1.2-5.51,1.86-3.22,1.19-6.54,2.43-9.93,2.64Z"/><path class="cls-2" d="M987.5,560.28a2,2,0,0,0,.06-.2,6,6,0,0,0,.22-1.54c0-.12,0-.24,0-.36a6.88,6.88,0,0,0-.26-1.58l-.05-.18a8.23,8.23,0,0,0-.26-.89,3.53,3.53,0,0,0-2.57-.86c-1.11.17-2,1.15-2.84,3a5,5,0,0,0-.3,1.6c-.09,1.12-.19,2.18-1.7,2.74a.12.12,0,0,1,0,0h0l0-.06-.17,0-.12-.1.07.09-.12,0,.21.26,0-.05h0l0,0a.9.9,0,0,1-.26.75,21.14,21.14,0,0,0-.73,2.14,12,12,0,0,1-1.49,3.52,24,24,0,0,1-2.18,1.65l0,0-.18-.71a5.68,5.68,0,0,0-1.26-2.74l-.1-.08a2,2,0,0,0-1.07-.42l-.31,0a2.41,2.41,0,0,0-.5,0l-.13.11c-.08,0-.14,0-.23,0s0,.14-.05.21l-.07.06L971,567a4.34,4.34,0,0,0-1.74,2.82l-.26.88,1.42,3c0,.28,0,.56,0,.85,0,1.37,0,2.74.79,3.6a1.85,1.85,0,0,0,.15.14,2.06,2.06,0,0,0,.35.32,1.53,1.53,0,0,0,.14,1l.89.08.93-.45,1.39-.25a2,2,0,0,0,.42.4,2.22,2.22,0,0,0,.7,0,2.16,2.16,0,0,0,.67-.33c.07,0,.14-.06.2-.1a3.06,3.06,0,0,0,.55-.51l.19-.25a4.28,4.28,0,0,0,.48-.64,9.49,9.49,0,0,0,1.19-4.32q1-1.53,1.93-3.09c1.44-2.33,2.94-4.74,4.59-6.92a11.6,11.6,0,0,0,.66-1.06v0A8.14,8.14,0,0,0,987.5,560.28Z"/><path class="cls-2" d="M806.22,306.16a3.71,3.71,0,0,0,.49.49l.23.23a2.85,2.85,0,0,0,.9.57,2.21,2.21,0,0,0,.41.11,2.39,2.39,0,0,0,.48.13,4.28,4.28,0,0,0,2.51-1.07c1.68-1.33,2-3.23.89-5.84-.34-.51-.72-1-1.1-1.49a11.47,11.47,0,0,1-2.08-3.42c-.69-2.17-1.66-3.22-2.94-3.2a6.06,6.06,0,0,0-3.32,1.59c-.64,1.56-1.23,3.61-.06,5.57Z"/><path class="cls-2" d="M700.37,422.57a6.58,6.58,0,0,0-3.17,1.24l-.65.18a17.73,17.73,0,0,0-6.06,6.93,4.13,4.13,0,0,0-.33,1.56l.33.66.92,1a0,0,0,0,0,0,0l2.56-1c1.9-.72,3.8-1.44,5.66-2.31,2.3-1.07,3.78-2,4-3.22s-.77-2.81-2.65-5.08A3.23,3.23,0,0,0,700.37,422.57Z"/><path class="cls-2" d="M525,642.21l.25-.08a6.32,6.32,0,0,1,3.43-1c1.77-.17,3.44-.32,4.47-2.49.26-.54-.38-1.93-.76-2.59a5,5,0,0,0-4.7-2.61h-.74l-.57.06c-1.45.15-3.43.35-3.68,3.31a8.5,8.5,0,0,0,1.41,4.66C524.43,642,524.73,642.2,525,642.21Z"/><path class="cls-2" d="M852.49,664c-.05-.16-.1-.36-.15-.57-.12-.51-.24-1-.51-1.09a12.6,12.6,0,0,1-2.81-1,8.36,8.36,0,0,0-4.53-1.1,4.94,4.94,0,0,0-1,.21,2.73,2.73,0,0,0-1.82,1.43,2.92,2.92,0,0,0,.14,2.29c.95,2.31,2.82,2.94,4.63,3.54a15.1,15.1,0,0,1,2,.75l.23,0c.74-.1,2.35-1.46,3.29-3.28a5.4,5.4,0,0,0,.25-.56A5.6,5.6,0,0,0,852.49,664Z"/><path class="cls-2" d="M460.21,593.19c-1.52-2-3-2.94-4.56-3a4.54,4.54,0,0,0-2.86.91,7.88,7.88,0,0,0,1,2.37c.77,1.34,1.57,2.72.87,4.9a1.83,1.83,0,0,0,0,1.41c.5,1,2.08,1.17,3.21,1.32l.26,0a2.08,2.08,0,0,0,1.59-.53l.08-.07c.08-.09.21-.13.27-.23a2.58,2.58,0,0,0,.07-2,6.45,6.45,0,0,1,0-2.74A6.57,6.57,0,0,0,460.21,593.19Z"/><path class="cls-2" d="M869.07,625.94a6.4,6.4,0,0,1-.92-.68,2.15,2.15,0,0,0-3.65.13c-1.15,1.3-2.41,3.09-1.92,5.37.42,2,1.46,3,2.93,3l.31,0c1.39-.17,1.82-1.46,2.24-2.69a6.07,6.07,0,0,1,.94-2,3,3,0,0,0,.8-1.84A1.67,1.67,0,0,0,869.07,625.94Z"/><path class="cls-2" d="M261.94,319.66a2.5,2.5,0,0,0,.41,0,3.49,3.49,0,0,0,.62-.22l.21-.08a3.86,3.86,0,0,0,1.15-.7l.11-.11a4.32,4.32,0,0,0,.83-1.06c.06-.1.1-.2.15-.3a4.3,4.3,0,0,0,.35-1.18,3,3,0,0,0,0-.42,4.66,4.66,0,0,0,.06-.64,3.92,3.92,0,0,0-.24-.82v0c-.51-1.54-1.94-2.85-4.47-3.93-2.08,1.14-2.11,3.56-2,5.28C259.32,316.69,259.81,319.58,261.94,319.66Z"/><path class="cls-2" d="M900.25,412.79c.74.66,1.48,1.32,2.16,2a1.11,1.11,0,0,0,.86.4,1.27,1.27,0,0,0,.86-.51c.78-.91.35-1.61-.13-2.39a37.79,37.79,0,0,0-7-8.2l-1.65.14h-.2s0,0,0,0h-.06C895.43,408.47,897.88,410.67,900.25,412.79Z"/><path class="cls-2" d="M872.81,658.51a8.2,8.2,0,0,0-1.19.07,5,5,0,0,0-4,3,2.19,2.19,0,0,0-.33,1.42c0,.14.15.21.23.31l0,0a2.28,2.28,0,0,0,.94.58l.26.09a4.31,4.31,0,0,0,3.55,1.32h0a4.67,4.67,0,0,0,3.44-4.15C875.87,659.21,874.3,658.52,872.81,658.51Z"/><path class="cls-2" d="M352.91,463.57a2,2,0,0,0,.55,0c1.57-.35,4.49-1,4.34-3.78-.12-2.3-1.71-2.4-3-2.48a4.64,4.64,0,0,1-1.21-.18,8.57,8.57,0,0,0-1-.13,2,2,0,0,0-1.89.62,3,3,0,0,0-.23,2.24C350.91,462.19,351.75,463.49,352.91,463.57Z"/><path class="cls-2" d="M665,650.59a.84.84,0,0,0,.15.15c.09.07.11.19.24.23a10,10,0,0,1,2.12,1.13,6.28,6.28,0,0,0,3.41,1.35,3.4,3.4,0,0,0,2-.79c0-.41,0-.69,0-1,0-.13,0-.25,0-.37a6.7,6.7,0,0,0-.22-1.45,3.67,3.67,0,0,0-.33-.82,3.43,3.43,0,0,0-.13-.32c-.84-1.16-2.29-1.18-3.69-1.2a8.73,8.73,0,0,1-2.64-.31l-.3.64c-.44.91-.93,1.95-.73,2.62C664.89,650.5,665,650.52,665,650.59Z"/><path class="cls-2" d="M737,584.57a7.51,7.51,0,0,0,3.17.94,1.6,1.6,0,0,0,1.32-1,1.52,1.52,0,0,0,.08-.14,13.77,13.77,0,0,0,.8-4.53,3.84,3.84,0,0,0-2.91-1.23,4.57,4.57,0,0,0-2.92,1.49c-1.13,1.14-.52,2.39,0,3.49C736.66,583.91,736.81,584.23,737,584.57Z"/><path class="cls-2" d="M616.88,498.57a11.35,11.35,0,0,1-1.41,1.65c-1.26,1.29-2.55,2.62-2.14,5.21a2.39,2.39,0,0,0,1,2.1,3.07,3.07,0,0,1,.93,1.32,2.36,2.36,0,0,0,.4,0,2.06,2.06,0,0,0,.35,0c.63,1.78.08,3.46-.44,5.09s-1.07,3.34-.45,5.14c0,.45,0,.91,0,1.37a8.16,8.16,0,0,0,.8,4.77c0,.77,0,1.57.69,2,.93,2.26,2,3.76,3.89,3.75a6.58,6.58,0,0,0,2.56-.67c.48-.21,1-.45,1.46-.69a13.81,13.81,0,0,1,5.72-1.82,8.58,8.58,0,0,1,1.43.12c.1.27.24.55.38.84a2.7,2.7,0,0,1,.47,1.58c-1.59,5.26.38,9.07,2.74,12.38a5.9,5.9,0,0,1,.75,3.16,13.71,13.71,0,0,0,.14,1.6c1,5.63-.51,10.9-1.91,16A49,49,0,0,0,632,575s0,.07,0,.11c0,.61-.07,1.22,0,1.84s-.66,1.29-1,1.7c-2.84,3.15-2.79,7.21-2.44,10.38s1.38,5.06,3.52,5.92a12,12,0,0,0,1.17.82,5.61,5.61,0,0,1,2.53,2.65,3.44,3.44,0,0,0,3.17,2.36c1.59,0,3.22-1.27,4.24-3.24a22,22,0,0,0,4.4-.89,20.5,20.5,0,0,1,4.82-.92,7.33,7.33,0,0,1,5.3,2,1.15,1.15,0,0,0,.8.31,1.82,1.82,0,0,0,1.52-1.47c.34-1.19-.38-1.76-1-2.27l-.33-.21a2.37,2.37,0,0,0-.6-2.25,4.53,4.53,0,0,1-.53-.83,34.9,34.9,0,0,0-.86-7.47c-.68-3.62-1.4-7.36-.29-11.2,0,0,0,0,0,0a13.69,13.69,0,0,1,.59-1.65c1.68-4,3.42-8.07,1.07-12.5q0-.48,0-1a12.43,12.43,0,0,0-.71-4.9c.2-1.8.26-3.66.32-5.46.12-3.78.24-7.68,1.72-11.31a2.69,2.69,0,0,0,.13-2.05c0-.09,0-.18,0-.27h0s0,0,0-.07l-.23.11q0-5.5.09-11A1.88,1.88,0,0,0,660,521a4.78,4.78,0,0,1-.07-.88c0-.78,0-1.66-.91-1.64H659a4.62,4.62,0,0,0-.9-3,6.49,6.49,0,0,1-1.23-4.42,6.16,6.16,0,0,1,2.57-3.88,9.72,9.72,0,0,0,2.09-2.28,4,4,0,0,1,.52-.79l.08-.11a6.31,6.31,0,0,1,2.23-1.46,7.25,7.25,0,0,0,1.81-1.06c.4,0,.8,0,1.2,0l2.17-.08a7,7,0,0,1,4.76,1.29q.08,3.64.15,7.27c.43,2.17-.52,3.75-1.72,5.45a10,10,0,0,0-2.11,5.49,13.79,13.79,0,0,0-1.32,6.06c0,.14,0,.27,0,.41a6.17,6.17,0,0,0,.41,1.72c.06.15.14.3.22.44a5.34,5.34,0,0,0,.38.78A69.85,69.85,0,0,0,684.82,545a1.33,1.33,0,0,0,1.28.82,2,2,0,0,1,.76.21,1.76,1.76,0,0,1,1.19,1.24,2.76,2.76,0,0,1-.66,2,6.67,6.67,0,0,0-.93,4.69A12.08,12.08,0,0,0,685,564.53a5.32,5.32,0,0,0,.32,1c2.4,5.63,6.87,6.41,10.89,6.41a3.81,3.81,0,0,0,2.29.74c1.65-.06,3.09-1.43,4.28-2.77a4,4,0,0,0-.46-3.91.78.78,0,0,1-.6-.48,9.6,9.6,0,0,1-.07-3,6.49,6.49,0,0,0,.79-1.21c.07-.19.14-.34.19-.45a4.43,4.43,0,0,1,1.07-.33,3.19,3.19,0,0,0,1.51-.62l0-.06h0l.33.11a4.19,4.19,0,0,0,1.27-.24,12.94,12.94,0,0,0,2.41-1.21c.13-.08.27-.14.41-.22l.08-.08.11-.07a1.65,1.65,0,0,0,.9.23,1.88,1.88,0,0,0,1.2-.54,4.83,4.83,0,0,0,1.83,1.78,9.54,9.54,0,0,0,1.36.74c.23.11.46.19.69.29s.34.17.5.27a4,4,0,0,0-.71,0c-2.14.09-3.93,1.85-5.67,3.56-.47.47-1,.94-1.43,1.37a5.77,5.77,0,0,0-.86.49,1.84,1.84,0,0,0-.55.74l-.84,1.07-.85,1.15a15.1,15.1,0,0,1,.41,9.3,8.53,8.53,0,0,1-1.57,2.13c-1,5.79-.25,7.24,4.06,8.12a7.47,7.47,0,0,0,.77.1c.93.09,1.8.17,2.23,1.47l.21.81a11.19,11.19,0,0,1,.4,1.76,8.86,8.86,0,0,0,.24,1c0,.17.07.34.12.51a7,7,0,0,0,.52,1.37,4.22,4.22,0,0,0,.42.68,3.58,3.58,0,0,0,.67.68,3.52,3.52,0,0,0,.71.43,4.58,4.58,0,0,0,1.37.36l.4,0a6,6,0,0,0,.67.08l.41,0c3.16-.29,4.7-2.26,5.15-6.57a16.42,16.42,0,0,1,.54-2.53,6.06,6.06,0,0,0,.23-1.1l.47.07.32-.29a2.13,2.13,0,0,0,1.08.25c1-.05,1.9-1,2.64-1.79,1.63-.65,4.1-1.63,3.67-4.73a4.82,4.82,0,0,0-2-3.56l0,0a3.14,3.14,0,0,0-1.85-.53,2.72,2.72,0,0,0-.52.07c-2-1.28-2.24-3-.91-5.92.14-.3.27-.61.38-.89.44-1.08.78-1.93,1.66-2a3.1,3.1,0,0,1,1.56.49,1.38,1.38,0,0,0,.74.19,1.29,1.29,0,0,0,.48-.21h0a2,2,0,0,0,.92-1,4.4,4.4,0,0,0,.1-.52c0-.08,0-.16.05-.25a3.1,3.1,0,0,0,0-1.1,2,2,0,0,0-.07-.31,2.18,2.18,0,0,0-.12-.48,15.1,15.1,0,0,1-1.45-5.21c-.6-3.76-1.22-7.64-6.08-7.62a.64.64,0,0,1-.31-.1.67.67,0,0,1-.16-.09,2.52,2.52,0,0,1-.38-1.55,3.37,3.37,0,0,0-.26-1.4c.4-.49.7-.72,1-.73s.51.23.74.78a5,5,0,0,0,3.41,1.66c1.11-.05,2.11-.77,3.08-2.23a13.16,13.16,0,0,0,1.19-6c-.12-1.75-.49-3.84-1.53-3.79a1,1,0,0,0-.39.11,7.57,7.57,0,0,1-2.73.57,5.22,5.22,0,0,0-3.91,1.55l-.14.2a4.63,4.63,0,0,0-.61.86l-2.7-.58a.92.92,0,0,0-.72-.3,3.09,3.09,0,0,0-1.4.66,2.27,2.27,0,0,1-.92.48c-.13,0-.32,0-.41-.51a10.77,10.77,0,0,0-.43-1.33s0-.09,0-.13a19,19,0,0,0-4.42-6.45c-2.84-3-5.76-6.19-4.9-12.11a13.46,13.46,0,0,1,2-1.6,8.73,8.73,0,0,0,2.84-2.88l.05-.1a5.77,5.77,0,0,0,.42-1.11c0-.05,0-.12,0-.18a6.22,6.22,0,0,0,.23-1.31c.19-1.6-.69-2-1.7-2.4l-2.61-2.31a7.8,7.8,0,0,0,0-1.27c0-.06,0-.12,0-.17a10.88,10.88,0,0,0-2.44-5.57c-.39-.55-.78-1.1-1.15-1.69a8.17,8.17,0,0,1-1-1l-.15-.16a22.09,22.09,0,0,1-2.51-4.12,28.38,28.38,0,0,0-1.92-3.37l-5.2-9a7.21,7.21,0,0,0-.91-.82,5.93,5.93,0,0,1-1.63-1.8,5,5,0,0,1-.43-1.1c2.6-.81,3.89-3.24,5.14-5.59a17.58,17.58,0,0,1,2.72-4.14l.86-.31c.24,0,.47,0,.7,0a7,7,0,0,0,5-2.27,12.25,12.25,0,0,1,1-1.28l.15-.18a25.3,25.3,0,0,1,3.82-3.23,32.44,32.44,0,0,0,3.42-2.77c1.63,0,2.29-1.51,2.82-3,0-.35,0-.69,0-1a13.45,13.45,0,0,0,4-6.95,6.32,6.32,0,0,0,1.94-2.91,2.34,2.34,0,0,0,.6-.1,28.7,28.7,0,0,1,2.64-1.32c.52-.23,1-.47,1.53-.73l.9-.15.82.3a6.07,6.07,0,0,1,3.26,2.1,3.43,3.43,0,0,0,2.9,1.56,3.79,3.79,0,0,0,.61-.17l.4-.11a4.74,4.74,0,0,0,1.17-.57,6.68,6.68,0,0,0,.67-.5c.15-.13.31-.19.46-.35a9,9,0,0,1,.73-3.35,7.08,7.08,0,0,0,.57-4.49c.69-4.08-.33-6.16-3.8-7.66a10.09,10.09,0,0,0-4.4-.85,22.73,22.73,0,0,0-7.26,1.87,34.37,34.37,0,0,1-5.23,1.66l-2.33,3.19a.69.69,0,0,0-.53.26l-2.63,0c-1.46,0-2.9,0-4.36.06l-2.32.08h-.92a1.9,1.9,0,0,0-1.54.58,2.73,2.73,0,0,0-.44,1.79l-.07.55,0,.51c-2.39,2.18-4.51,3.26-6.5,3.31-2.31.05-4.44-1.32-6.53-4.21l-.94-.12a2.43,2.43,0,0,0-1.15-.34c-.76,0-1.28.65-1.5,1.83l-1.38,1.19-1.06.13c-2.62,1.38-4,3.82-4.22,7.26a3.77,3.77,0,0,0,.17,1.12,17.19,17.19,0,0,1-1.46,1.61c-1.2,1.21-2.43,2.46-2.65,4.46a6.75,6.75,0,0,0-.68,1.09,4.34,4.34,0,0,0-.27,1.1,8.69,8.69,0,0,1-2,.28,9.19,9.19,0,0,1-2.22-.24,2.49,2.49,0,0,0-.7-1,1.56,1.56,0,0,0-.69-.12h-.11l-.63-.23c-2.24-.81-4.36-1.58-4.91-4.91a8.72,8.72,0,0,0-.79-1.56,5.53,5.53,0,0,1-1-3,2.28,2.28,0,0,1-.29-1.13,2.36,2.36,0,0,0-.36-1.26.82.82,0,0,0-.53-.21.74.74,0,0,0-.27.06l.15-.22a3.53,3.53,0,0,0-.39-2.49,6.8,6.8,0,0,0-3.1-1.88c-1.71-.64-3.47-1.31-4.12-4.06-2.36-10.07-3.74-21.76,4.28-32a6.33,6.33,0,0,1,5.57-2.93,23,23,0,0,1,2.67.18c.75.08,1.49.16,2.43.18a1.87,1.87,0,0,0,.84-.24,2.58,2.58,0,0,0,.27,0l.14-.17a2.78,2.78,0,0,0,3.05,2c.27,0,.55,0,.86-.06a3.53,3.53,0,0,0,.7-.52,2.27,2.27,0,0,0,1.68.91,4,4,0,0,0,2.34-1.4,6.43,6.43,0,0,1,1.75-1.31,2.47,2.47,0,0,1,.31-.73c.54.18,1.09.41,1.63.64a9.84,9.84,0,0,0,3.8,1,4,4,0,0,0,.78-.17l.07,0a4.17,4.17,0,0,0,2-1.08l1,.25a11.35,11.35,0,0,0,2,.14,10.58,10.58,0,0,0,1.42-.12,4.23,4.23,0,0,0,1.15-.36,5.81,5.81,0,0,0,3.13,1,3.49,3.49,0,0,0,1.77-.49c.09.1.24.12.34.2a2.18,2.18,0,0,0,.43.25c.15.07.24.2.41.24a5.94,5.94,0,0,0,1.78.22,15.51,15.51,0,0,0,2.8-.4l.92-.18a4.49,4.49,0,0,0,1.22-1.18l8.77-1,6.54-.28a5.26,5.26,0,0,0,.48.64,8.34,8.34,0,0,0,2,.16l2.29-.11a7,7,0,0,1,2.79.4,6.37,6.37,0,0,1,2.1,2.14c.88,1.21,1.78,2.47,3.31,2.43a3.4,3.4,0,0,0,1.14-.24l.93,0c1.45,0,2.9,0,4.36.1,1.63.07,3.25.13,4.87.09a20.26,20.26,0,0,0,8.74-1.94,8.39,8.39,0,0,1,1.62-.17l1.06,0a5.69,5.69,0,0,0,3.1-.79,7.08,7.08,0,0,0,.84,0,4.05,4.05,0,0,0,.94-.21l.27-.06a3.38,3.38,0,0,0,.81-.4c.08-.05.15-.13.23-.19a3.44,3.44,0,0,0,.69-.58c3.93-1.65,5.93-5.63,7.7-9.13l.41-.83c1-2,2-4.12,3.83-5.25,5.29-3.37,7.37-9.28,9.38-15l.54-1.61c1.76-.51,2.86-1.25,3.35-2.29.67-1.42.09-3.19-.48-4.9-.21-.65-.43-1.3-.6-2-.44-.33-.86-.7-1.28-1.07-1.35-1.17-2.75-2.39-4.55-2.34a4.49,4.49,0,0,0-1.74.42l-1.14,1.78a31.09,31.09,0,0,0-2,2.81c-1.76,2.63-3.58,5.35-6.94,5.71-.53.05-1.16.94-1.44,1.55a18.88,18.88,0,0,1-4.7,5.77c-.7.66-1.41,1.32-2.07,2-3.77,4-7.28,6.45-10.84,7.51l-.3.09a14.47,14.47,0,0,1-3.49.53h0a15.47,15.47,0,0,1-2.52-.16l-.21,0a25.28,25.28,0,0,1-8.63-3.27,3.73,3.73,0,0,0-2.84-1.23,6,6,0,0,0-2.27.57,2.59,2.59,0,0,0-1,1.39l-5.33,3L717,383a3.92,3.92,0,0,0-3.31-1.38,15.65,15.65,0,0,0-1.68.15l-.41.07a2.83,2.83,0,0,0-1.59-.67,2.26,2.26,0,0,1-1.91-1.11l.05-.23.1-.19-.09.13,0-.17-.19.32h-.69l-.63,0a3.22,3.22,0,0,0-.16-.58,16.4,16.4,0,0,0-5.47-2.77c-.88.09-1.77.25-2.66.41a23.46,23.46,0,0,1-3.79.48,6.77,6.77,0,0,1-5.1-1.92A9.11,9.11,0,0,1,688.3,374h-.06l-.06-.08-.29-.09a2.08,2.08,0,0,0-.09-.59l-1.9.06-1.87.08a.64.64,0,0,0-.5-.28.41.41,0,0,0-.33.16c-2.36-1.94-5-2.07-7.49-2l-2,0c-.66,0-1.32,0-2,0-1.29.36-1.48,1.49-1.66,2.59a8.53,8.53,0,0,1-.23,1.11l-.42,4.13-.68,1.31-2.07,2.05a1.68,1.68,0,0,0-.32,0c-1,0-1.41,1-1.79,1.92-.77,1.92-1.77,3.88-3.36,3.9a2.14,2.14,0,0,1-.58-.08c-1.52-.41-1.44-2.07-1.37-3.68a10.41,10.41,0,0,0,0-1.64,3.53,3.53,0,0,0-2.49-1.16,3.78,3.78,0,0,0-2.3.94.34.34,0,0,1-.38.29h-.15c-1.41.65-1.39,2-1.36,3.69l.43,1-.71.56A10.78,10.78,0,0,0,649,391.4c-.6.13-.84.67-1.08,1.18-.08.18-.16.35-.27.57.25,1.8-.61,2.84-1.52,3.94a6.3,6.3,0,0,0-1.48,2.5c-.34.61-.7,1.21-1.06,1.82-1.77,2.93-3.52,6-2.06,9.21a7.39,7.39,0,0,0,.53,1c.1.16.23.32.35.48a11.39,11.39,0,0,0,1.15,1.34,1.45,1.45,0,0,1-1,.37,4.48,4.48,0,0,1-1.34-.28,4.8,4.8,0,0,0-1.43-.3c-.89,0-1.55.58-2.08,1.81-1,2.21-.24,3.63.45,5a11.74,11.74,0,0,1,.66,1.47c.9,6.53,1.3,12.81-3.56,17.81a3.28,3.28,0,0,0-.67,1.77,3.9,3.9,0,0,1-.64,1.81q0,1.17,0,2.34l-2,4.43c-4.77,5.74-6,14.54-3.1,21.86q0,1.13.07,2.27.06,1.43.13,2.85c-4.53,3.25-4.64,8.83-4.73,13.71a1.73,1.73,0,0,0-.32,1.37c-1,3.56-3.78,5.29-6.39,6.81A4.8,4.8,0,0,0,616.88,498.57Zm104.73-52.34a.51.51,0,0,1-.24.09.86.86,0,0,1-.59-.3,2.35,2.35,0,0,0,.65.15Zm16-8c.12-.22.23-.44.35-.68l.13.1a2.77,2.77,0,0,1-.29.38A2.15,2.15,0,0,1,737.66,438.19Z"/><path class="cls-2" d="M906.61,445.16c.62,0,1.24,0,1.86,0a6.7,6.7,0,0,0,3.6-1.27l.43-.24.18-.07,0,0,.06,0-.53-.56c-.43-2.48-1.8-2.73-3.2-2.62-.36,0-.72.08-1.09.13s-.71.1-1.2.13h0c-1.28.09-2,.88-2.11,2.49C904.37,445,905.46,445.15,906.61,445.16Z"/><path class="cls-2" d="M663.82,646.61a3.36,3.36,0,0,0,1.3-.34l1.79-2.58a4.73,4.73,0,0,0-.42-3.26,2.11,2.11,0,0,0-2-.8h0a3.37,3.37,0,0,0-2.05.93l-.09.08c-.11.11-.26.18-.35.3a3.44,3.44,0,0,0-.54,2.21C661.55,645.43,662.4,646.65,663.82,646.61Z"/><path class="cls-2" d="M793.73,329.29c0,.11.18.16.27.25l0,0a1.86,1.86,0,0,0,1.31.42l.32,0c2.39-.25,2.85-2.4,3-4.47.13-1.79-.73-2.68-2.64-2.72a2.36,2.36,0,0,0-1.72.87,3.17,3.17,0,0,0-.2,2.17,3.44,3.44,0,0,1-.13,2A1.63,1.63,0,0,0,793.73,329.29Z"/><path class="cls-2" d="M897,646.92c-.29-.9-.6-1.83-1.55-2a4.08,4.08,0,0,0-3.34-1.61,6.76,6.76,0,0,0-1,.06,3,3,0,0,0-2.09,1.11c-.74,1-.72,2.52-.71,4,0,.57,0,1.14,0,1.69.43,3.46,1.27,4.91,2.71,4.7.85-.12,1.95-.86,3.33-2.21l.34-.1a1.45,1.45,0,0,0,1.29-1.32l1-1.22a1.87,1.87,0,0,0,.35-2.23C897.2,647.48,897.12,647.2,897,646.92Z"/><path class="cls-2" d="M836.23,642.86a5.86,5.86,0,0,1-.87,0,4.85,4.85,0,0,0-1,0c-.78.09-1.32.56-1.75,1.58.39.76-.07,1.58-.52,2.37a3.33,3.33,0,0,0-.63,1.83,1.34,1.34,0,0,0,.6.94,2.68,2.68,0,0,0,1.85.36,3,3,0,0,0,1.54-.58c1.64-1.3,1.33-2.83,1-4.31A10.64,10.64,0,0,1,836.23,642.86Z"/><path class="cls-2" d="M502.31,638.85a2.23,2.23,0,0,0-1.34.5,4,4,0,0,0-2,2.82,4.3,4.3,0,0,0,1.08,3,5,5,0,0,0,.78.21l.27.07a5.52,5.52,0,0,0,.77.21,2,2,0,0,0,2-1.22,4.14,4.14,0,0,0,.3-.72c0-.07,0-.12.06-.2a7.52,7.52,0,0,0,.26-1.43l-.05-.14s0-.08,0-.13C504,640.36,503.42,638.9,502.31,638.85Z"/><path class="cls-2" d="M346.12,321.21a2.2,2.2,0,0,0,.42,0c1.77-.28,2.44-2,2.92-3.68-.6-1.3-1.31-2.68-2.36-2.7a1.26,1.26,0,0,0-.44.07,4.08,4.08,0,0,0-2.85,3.79,2.63,2.63,0,0,0,.61,1.73A2.3,2.3,0,0,0,346.12,321.21Z"/><path class="cls-2" d="M655.28,620.59a3.16,3.16,0,0,0,1,2.52,5,5,0,0,1,.82,1c.47.67.95,1.36,1.68,1.34a1.93,1.93,0,0,0,1.22-.62l.37-5.39c2.49-5.76,2.41-7.8-.94-20-2.63,1.06-3.11,3.8-3.23,6.34a52.21,52.21,0,0,0,.82,13.29C656,619.46,655.43,619.95,655.28,620.59Z"/><path class="cls-2" d="M927.72,523.06a2.18,2.18,0,0,0,1.59-.62c.57-.69.62-2.09.74-5.43,1.55-1.92,2.1-3.63,1.69-5.21a8.75,8.75,0,0,0-2.37-3.55l-.65-.71c-.32-.37-.66-.69-1-1a6.75,6.75,0,0,1-2.2-3.19c-2.11-7.5-5.17-9.81-12.24-9.14l-.52,0a16.44,16.44,0,0,1-7.47-.52l-3.5-.8c-.43-.9-1.21-1-2-1.07a2.51,2.51,0,0,1-1.64-.57,2.47,2.47,0,0,0,0-1.12,5.92,5.92,0,0,0-2.84-.71,3.78,3.78,0,0,0-2.82,2.08l-2,2.93a5.38,5.38,0,0,0-1.3,1,3.25,3.25,0,0,1-1.59,1.06.93.93,0,0,1-.76-.33c-2.69-2.77-5.9-2.91-8.69-2.68-.94.08-1.89.21-2.84.33s-1.89.25-2.83.33c-.57,0-1.14.07-1.7.07-1.06,0-2.12,0-3.16.09-4,.32-8.45,1.53-11.18,8.3a3.63,3.63,0,0,1-1.4,1.37c-.28.2-.56.4-.79.6l-8.45,3.89c-2.17.53-3.5,1-3.94,2s0,2.16.78,3.94a4.18,4.18,0,0,1,1.88.67,4.14,4.14,0,0,0,2,.68c1-.08,1.71-1.25,2.12-3.68a5.33,5.33,0,0,1,2.19-.46,9,9,0,0,1,1.19,0c1.13.08,1,1,1,2.06a7.3,7.3,0,0,0,0,.8c0,1.13-.09,2.27-.18,3.42a16.88,16.88,0,0,0,.3,6.71,4.17,4.17,0,0,0,.26,2.74,1,1,0,0,0,.9.38,2.85,2.85,0,0,0,1.11-.4,4.64,4.64,0,0,1,1.87-.63,4.17,4.17,0,0,1,1.88.31l.44,0c1.86-.16,3.53-1.29,5.15-2.38a16.29,16.29,0,0,1,3.7-2.06,6,6,0,0,0,1-.6l.43.11,1.34-.3a3.63,3.63,0,0,1,.57-.1c.28,0,.58,0,.88,0s.6,0,.89,0a2.58,2.58,0,0,0,2.42-2.12,4.26,4.26,0,0,0-1.77-5.25c-.13-.09-.11-.51-.1-.88a1,1,0,0,0,0-.47l3.31-2,3.24-2,.79,1.1c-.11,1.16-.05,2.25,1.12,2.44L885,513a60.83,60.83,0,0,0,6.61.92,8.28,8.28,0,0,0,1.29,0,7.39,7.39,0,0,0,5-2.92,5.52,5.52,0,0,1,3.53-2.13c1.54-.15,3,.72,4.18,2.45,2.17,3.24,5.07,4.7,8.63,4.33l.49-.07q6.11,3.85,12.19,7.63Z"/><path class="cls-2" d="M53.11,353.57c-2.53-1-3.93-2.61-5.49-5a10.53,10.53,0,0,0-3.6-3.51h0a6.18,6.18,0,0,0-2.49-.84,6.81,6.81,0,0,0-4.25,1.21,4.18,4.18,0,0,1-2.67.93l-.58-.06a3,3,0,0,0,0,2.44,5.66,5.66,0,0,0,2.77,2.35c.39.39.75.8,1.1,1.22l.21.24a41.46,41.46,0,0,1,3,4.37,41.09,41.09,0,0,0,3.19,4.65,35.78,35.78,0,0,1,5.45,8.06A5.48,5.48,0,0,0,54.14,373a6.83,6.83,0,0,0,1.66-.06c2.49-.38,3.48-1.88,3-4.47l-.07-.34a7.85,7.85,0,0,1-.16-3.84A9.48,9.48,0,0,0,53.11,353.57Z"/><path class="cls-2" d="M13.8,315.58l-1.18-1.07a10.46,10.46,0,0,0-.72-.8c-.17-.19-.33-.38-.5-.56a13.19,13.19,0,0,0-1.93-1.63h0a29.29,29.29,0,0,0-5.37-2.75l-.86-.36c-.53-.34-1.09-.63-1.66-.93-1.74-.9-3.39-1.76-4.05-3.92a5.19,5.19,0,0,0-3.33-1.91c-1.52-.09-2.75,1-3.74,2.11a4.18,4.18,0,0,0-1.27,3.8A6.69,6.69,0,0,0-8,311.25c1.66,1.84,3.82,2.6,6.2,3.44a32.36,32.36,0,0,1,6.64,3l.12.07a18.71,18.71,0,0,1,2.2,1.66c.17.15.34.3.5.46s.63.59.92.92A6.1,6.1,0,0,0,12.4,323h0a3.22,3.22,0,0,0,1.5-.25c1.6-.68,1.35-2.23,1.1-3.72-.07-.4-.13-.8-.16-1.18a4.73,4.73,0,0,0-.85-2Z"/><path class="cls-2" d="M138,484.53a2,2,0,0,0,.44-.35c1.41-1.71.53-3.49-.51-5l-.55-.94c-1-1.75-2-3.56-3.87-4.56l-1.92-3.44a2.58,2.58,0,0,1-.63-1.74,2.62,2.62,0,0,0-.81-2c-.46-.33-.89-.71-1.32-1.09a15.91,15.91,0,0,0-1.47-1.2c-.31-.21-.62-.45-.94-.68a7.14,7.14,0,0,0-2.92-1.6,1.93,1.93,0,0,0-1.61.5c-1.91,1.67-.74,4.26.66,6.56a16.11,16.11,0,0,0,5.79,8.16c2.38,1.83,3.73,4.68,5,7.43.39.83.78,1.66,1.2,2.45a3.39,3.39,0,0,0,2.42,2.11,3.47,3.47,0,0,0,1.11,0c.64-.11,1-.35,1-.71.06-.54-.56-1.24-1.14-1.85a2,2,0,0,1-.68-1.15C137.26,485,137.65,484.75,138,484.53Z"/><path class="cls-2" d="M120.65,458.37a2.62,2.62,0,0,1-.53-1.44c-.38-.59-.75-1.19-1.12-1.79a29.88,29.88,0,0,0-2.72-4,7.64,7.64,0,0,0-4.4-2.8,3.37,3.37,0,0,0-1.67.19c-1.59.62-1.06,2.38-.59,3.94.14.47.28.93.36,1.36.27,1.39,1.23,1.75,2.15,2.11a5.85,5.85,0,0,1,1.6.87l.1.1.07,0,.08.06a3.89,3.89,0,0,1,2.08,1.37,6,6,0,0,0,1.36,1.14,6.35,6.35,0,0,1,.82.56,3.64,3.64,0,0,0,1.51.81,1.2,1.2,0,0,0,1-.35C121.54,459.87,121.09,459.1,120.65,458.37Z"/><path class="cls-2" d="M188.31,551.88l-.44,0a.38.38,0,0,1-.35.07,3,3,0,0,1-.56-.18,3.83,3.83,0,0,0-.7-.21c-.58-.09-.89.2-1,.93-.18,1.34.76,2.17,1.67,3,.2.17.4.35.58.53l1.36,1.29c.84.78,1.67,1.56,2.46,2.41.21.22.4.45.6.69.59.71,1.21,1.44,1.89,1.55a1.46,1.46,0,0,0,1.33-.63c1.3-1.45,1.11-3.57-.5-5.64A9.62,9.62,0,0,0,188.31,551.88Z"/><path class="cls-2" d="M75.13,384.46a4.44,4.44,0,0,0,4.11,3.14l.58.06c1.47.15,3,.34,4.43.52l2.26.28a0,0,0,0,0,.05-.05c-.18-4.06-2.56-4.54-4.86-5a12.63,12.63,0,0,1-2.25-.6l-2.76-.08A1.93,1.93,0,0,0,75.13,384.46Z"/><path class="cls-2" d="M36.86,331.29h.07c1.44-.24,1.52-1.46,1.6-2.63,0-.24,0-.48.06-.73-.57-2.84-2.13-4.37-4.61-4.53l-.67,0-1.08-.1c-.91-.06-1.74.1-1.6,1.68,0,.57,1.64,2.42,3.18,3.95C34.36,329.44,36.23,331.25,36.86,331.29Z"/><path class="cls-2" d="M103,435.15l-2.19-2.47-.74-.8-.07-1.13-2.87-5A1,1,0,0,0,97,425a.91.91,0,0,0-.64-.33h0a2.77,2.77,0,0,1-1-2.2,1,1,0,0,0-.38-.14,1.41,1.41,0,0,0-.37,0h0c.13-2.52-1.67-4-3.39-5.33a2.92,2.92,0,0,0-.79-2.15c-.19-.27-.38-.53-.57-.85a2.42,2.42,0,0,0-.44-.09,2.72,2.72,0,0,0-2,.78,2.6,2.6,0,0,1-2,.75h0c-2.2-.25-3.24.88-3.26,3.51l-.84,1.8c-.47.88-.31,1.87.5,3.06l1,1.1c.05,1.63,1.13,2.59,2.18,3.51.33.29.65.58.94.87l.81,1.7c.14,1.83.59,3.85,2.79,4.94l.17.7.21.75,6.46,4.36c.12.27.23.54.34.87a3.85,3.85,0,0,0,2,1.25c.72.09,1.29-.33,1.73-1.25l1.66-1.55c2.49-.43,1.92-2.18,1.38-3.86A8.36,8.36,0,0,1,103,435.15Z"/><path class="cls-2" d="M72.51,342.28a5.06,5.06,0,0,1-1-.84l-.62-.17a9.34,9.34,0,0,0-1.85-.4,2.89,2.89,0,0,0-1.41.22c-.67,1.28-.81,2.09-.46,2.64,0,.08.16.12.23.18l0,0a2.37,2.37,0,0,0,1.48.53,7.23,7.23,0,0,0,.78,0c.91,0,1.83,0,2.75.07l1.32,0C74,343.38,73.24,342.82,72.51,342.28Z"/><path class="cls-2" d="M79.43,405.19A2.26,2.26,0,0,0,80,402.3l0-.54a11,11,0,0,0-1.46-5.66c-.18-3.16-2.25-5.59-3.8-7.14a3.91,3.91,0,0,0-4.82-.82c-.39.2-.59.43-.6.71s.33.79.66,1.17a2,2,0,0,1,.67,1.27s0,.06,0,.09h0a.53.53,0,0,1,0,.06,4.79,4.79,0,0,0,.49.13c.63.15,1.23.29,1.45,1.16a2.56,2.56,0,0,0,.17,1.41,2,2,0,0,1,0,1.63,13.83,13.83,0,0,1-.27,2,7.21,7.21,0,0,0,.24,4.68,5.19,5.19,0,0,0,.6,2l.09.15a3.52,3.52,0,0,0,.26.45,2.32,2.32,0,0,0,1.51.69,9.14,9.14,0,0,0,1.25,0,8.49,8.49,0,0,1,1.23,0,3.37,3.37,0,0,1,1.07.31l.86-.07A.79.79,0,0,0,79.43,405.19Z"/><path class="cls-2" d="M788.32,668.4c-1.94.26-3.25,1.78-3.8,4.42a3.81,3.81,0,0,0,.08,2h0a2.2,2.2,0,0,0,.11.39.89.89,0,0,0,.88.43l.15,0c2-.43,3.55-2.14,4.24-4.61a3.11,3.11,0,0,0-.36-2.18,1.32,1.32,0,0,0-1.3-.46Z"/><path class="cls-2" d="M697.12,575.14a2,2,0,0,0-.62-.09c-.85,0-1.43.75-2,1.44a6.43,6.43,0,0,1-1.11,1.17l-.29,1.94a5.66,5.66,0,0,0,.06,5.91l2.41,4.51a5.4,5.4,0,0,0,2.72,3h0a.07.07,0,0,0,0,0,1.5,1.5,0,0,1,.6-.76,1.37,1.37,0,0,0,.67-1.38,10.28,10.28,0,0,1,.81-4.61c.25-2,.52-4.16-.54-5.94C699.79,578.09,699.44,575.73,697.12,575.14Z"/><path class="cls-2" d="M561.93,694.85c.94-1,1-2.52.88-4.17a1.8,1.8,0,0,0,.68-.77,7.05,7.05,0,0,0,.83-4.71c-.36-1.55-1.44-2.86-3.43-4.14a12.37,12.37,0,0,0-6.41-2.28,8.8,8.8,0,0,0-4.12.93,5.08,5.08,0,0,0-3.88,4.41l-.8,1.57-.21.56,0,0h0l0,.06.27.09a4.74,4.74,0,0,0-.24,2.73l0,.59c-.05,1-.11,1.91-.22,2.82-.77,2.72-2.93,3.93-5,4.82.1,1.45.39,3,1.84,3.69,1.36,1.94,3.24,2.17,4.9,2.23l1.26,0c2.82.08,5.63.08,8.45.08l3.16-.07h.76v0h.06C560,700.42,559.61,697.34,561.93,694.85Z"/><path class="cls-2" d="M663.68,732.33l-2.36-2.27-.47-.64a6.69,6.69,0,0,0-2.95-2.71,8.36,8.36,0,0,0-4.26-3.23l-.93-.42-.91-1.39c-2.36-3.63-5-7.76-7.9-7.68a2.9,2.9,0,0,0-.83.14,32.88,32.88,0,0,1-8.93,1.26c-4.25.2-8.65.39-12.7,3.05-2.31,1.85-3.4,3.42-3.54,5.07-.16,1.84.83,3.9,3.3,6.88a5.68,5.68,0,0,0,4.69,2c.67,0,1.34-.08,2-.16s1.34-.15,2-.16a7.38,7.38,0,0,1,1.71.15,4.31,4.31,0,0,0,1,.08l1.06,0c1.21,0,2.42.15,2.84,2.64,1.8,2.87,4.3,4.32,7.12,5.71a2.24,2.24,0,0,0,1.2,2c.36,3.41,2.4,4.29,4.38,5.15.51.22,1,.44,1.52.7l.3-.08.27.3a2.38,2.38,0,0,0,1.42.55,1.31,1.31,0,0,0,1.06-.61,1.83,1.83,0,0,0,1.27.8h0l3-1.28c.15-.14.29-.29.44-.44a3.24,3.24,0,0,1,1-.79c4.4-1.85,6.52-3.59,7.07-5.8a5.64,5.64,0,0,0,0-.63c0-.08,0-.16,0-.24C666.83,738.24,665.95,735.83,663.68,732.33Z"/><path class="cls-2" d="M692.86,748.09a3.68,3.68,0,0,0-.83.14c-.17.2-.35.4-.52.59a6.47,6.47,0,0,0-1.07,1.39,5.24,5.24,0,0,1-2,1.78c-.9.58-1.75,1.12-2,2.07a3.06,3.06,0,0,0,.22,2,2.27,2.27,0,0,0,2.48,1.51,11.63,11.63,0,0,0,2.71-.64c.39-.12.77-.25,1.12-.34a2.25,2.25,0,0,0,.43-.21l.95-.76c1.19-.67,2.54-1.44,2.45-3.71C696.06,749.23,694.76,748,692.86,748.09Z"/></g><path class="cls-6" d="M321.32,873.3l357.43.11h0V896.5a40.16,40.16,0,0,1-40.17,40.15l-277.11-.09a40.16,40.16,0,0,1-40.15-40.17V873.3Z"/><path class="cls-3" d="M708.23,619.94a61.24,61.24,0,1,0-90.89,53.55A291.34,291.34,0,0,0,647,738.89a291.34,291.34,0,0,0,29.66-65.38,61.21,61.21,0,0,0,31.62-53.57Z"/><path class="cls-6" d="M654.77,634H639.2a14.06,14.06,0,0,1,0-28.11h15.57a14.06,14.06,0,1,1,0,28.11Z"/></svg>