<svg id="Layer_1" data-name="Layer 1" xmlns="http://www.w3.org/2000/svg" xmlns:xlink="http://www.w3.org/1999/xlink" viewBox="0 0 1000 1000"><defs><style>.cls-1{fill:none;}.cls-2{fill:#497fb2;}.cls-3{fill:#2c5a86;}.cls-4{clip-path:url(#clip-path);}.cls-5{fill:#dff1fc;}.cls-6{fill:#dfebfa;}</style><clipPath id="clip-path"><circle class="cls-1" cx="499.99" cy="457.7" r="242.43"/></clipPath></defs><title>aset-sigesit</title><path class="cls-2" d="M207.22,129H841.27V991.73H207.22a48.51,48.51,0,0,1-48.51-48.51h0V177.51A48.51,48.51,0,0,1,207.22,129Z"/><circle class="cls-3" cx="499.99" cy="455.64" r="242.53"/><g class="cls-4"><path class="cls-5" d="M642.35,414.28h.21a1.29,1.29,0,0,0,.75-.47,1.71,1.71,0,0,1,.58-.44,4.28,4.28,0,0,1,.27-1.09,3.82,3.82,0,0,1-.77.67,2.18,2.18,0,0,0-1.07,1.33Z"/><path class="cls-5" d="M565.69,451.62a.29.29,0,0,0,.13-.05l-.1,0a1.36,1.36,0,0,1-.37-.08A.49.49,0,0,0,565.69,451.62Z"/><path class="cls-5" d="M575.08,446.65l-.2.38a1.09,1.09,0,0,0,.11-.11,1.57,1.57,0,0,0,.16-.21Z"/><path class="cls-5" d="M374.56,462.11l0-.05-.2-.18,0,0C374.42,462,374.5,462.1,374.56,462.11Z"/><path class="cls-5" d="M644.7,411.31a.39.39,0,0,1-.19.11,1.42,1.42,0,0,1,0,.24Q644.57,411.49,644.7,411.31Z"/><path class="cls-5" d="M709.42,480.6a.68.68,0,0,0-.09.26l.15-.32Z"/><path class="cls-5" d="M331.52,534.3a1.24,1.24,0,0,0-.17-.28l.19.35A.42.42,0,0,0,331.52,534.3Z"/><path class="cls-5" d="M469.27,503l0,0s0,.12.15.43l.05-.09.13-.28h0c-.1,0-.2-.05-.26-.06s0,0,0,0Z"/><path class="cls-5" d="M142.13,329c.71-.6.34-1.21,0-1.79a2.92,2.92,0,0,1-.46-1l-.78,0-.77,0a4.42,4.42,0,0,1-.92-.08,3.12,3.12,0,0,0-.63-.08.73.73,0,0,0-.58.2c0,.05,0,.14-.06.21l0,.06a2.14,2.14,0,0,0,0,.8l.09.45a4.58,4.58,0,0,0,2.86,1.49A2.66,2.66,0,0,0,142.13,329Z"/><path class="cls-5" d="M831,467.62l2.43-15.1a.59.59,0,0,0-.3,0,.5.5,0,0,0-.22.09,3.59,3.59,0,0,0-1.23,0c-.67.06-1.35.12-1.78-.38l-.67-1c-.35-1.27-1.33-1.29-2.25-1.13-.35.06-.71.15-1.18.27a2.22,2.22,0,0,0-.7,0l-.55.11-.54.11a1.38,1.38,0,0,1-1.29-.28,1.49,1.49,0,0,0-1.69-.92,6.75,6.75,0,0,0-2.25,1.05l-2.06.32-1.81-.33a12,12,0,0,0-5.36-1.9,19.62,19.62,0,0,1-3.45-.87,13.59,13.59,0,0,1-3.23-1.64c-1.65-1-3.37-2.12-5.79-2s-4.18-.25-4.9-1.13a2.77,2.77,0,0,0-2.68-1.09,9.88,9.88,0,0,0-2.28.7l-.51.2a13.47,13.47,0,0,0-2.54,1.45c-.37.25-.74.5-1.11.72l-1.18.67c-.92.53-1.87,1.07-2.82,1.5l-.43.18a2.14,2.14,0,0,0-1.5,1.32v0a2,2,0,0,0-.12.45l-.19,1.49c-.2.33,0,.63.2.93s.35.52.24.78-.39.43-.93.67a1.27,1.27,0,0,0-.1.31l-.62.43-.28.13a1.89,1.89,0,0,0-.57,0,3.26,3.26,0,0,0-1.11.54,1.19,1.19,0,0,1-.74.35l-.37,0-.37,0a1.26,1.26,0,0,0-1,.69l-.32.17a1.79,1.79,0,0,1-.64.27h0c-.48,0-.94.05-1.39.11-1.77.23-3.66.93-4.32,4.35a2.48,2.48,0,0,1-.14.44l0,.07a6.4,6.4,0,0,1-2.21,2.37,6.4,6.4,0,0,0-4.37,5,2.52,2.52,0,0,1-.51,1,3.91,3.91,0,0,0-.36.55c-.18.2-.36.4-.55.59a4.2,4.2,0,0,0-1.38,2.19,5.5,5.5,0,0,1-.68.36,2.66,2.66,0,0,0-1.45,1.21l-1.22,1.8-.47.17a19.93,19.93,0,0,1-3.71,1.07,4.15,4.15,0,0,1-4.35-1.71l-.26-.93c0-.13,0-.22-.08-.22a.41.41,0,0,0,.05-.47,4.42,4.42,0,0,1,.57-1.07c.51-.78,1-1.58.25-2.42a.81.81,0,0,0-.71-.32,2.18,2.18,0,0,0-1,.68,3.43,3.43,0,0,0-.32.34l0,0-.36-1.59a10.22,10.22,0,0,1,.16-1.49c.23-1.47.47-3-1.2-3.53,0-.14,0-.27-.06-.44a2.84,2.84,0,0,0-.8,0,1.63,1.63,0,0,0-.28.1l-.22.08a1.86,1.86,0,0,0-.57.38l-.12.13a5.94,5.94,0,0,0-1,2l-.91-1.42-.83-1.27a3.19,3.19,0,0,0,.18-.78c-1.1-1.75-.86-4-.62-6.11.05-.47.1-.94.14-1.41a8.39,8.39,0,0,1,1-4.16,15.27,15.27,0,0,0,.85-2.33l.24-2.15a3.65,3.65,0,0,0-1.53-4l-.66-1a3.88,3.88,0,0,0-.15-.44,1.42,1.42,0,0,1,0-1.37,3.39,3.39,0,0,0,.63-2.1c-.13-.72-.79-1.06-1.57-1.46l-.66-.36a3.39,3.39,0,0,0-2.1-.4,12.14,12.14,0,0,0-1.5.27,11.31,11.31,0,0,1-1.44.26,3.33,3.33,0,0,1-1.37-.12,2,2,0,0,0-1.49-.59,1,1,0,0,0-.45.13c.05-.13,0-.25-.15-.34-.74.06-1.11-.41-1.51-.91a2.54,2.54,0,0,0-.91-.82l-.21.07-.16.08a2.06,2.06,0,0,0-.17-.28,1.7,1.7,0,0,0-1.09-.21h0a1.77,1.77,0,0,0-.44.14,14.42,14.42,0,0,0-5.05-2l-.69,0a11.08,11.08,0,0,0-1.59,0,4.42,4.42,0,0,0-1.4.33l-3.17.3-1.78,1.19-1.43.86-.46.74a1.24,1.24,0,0,0-.25.09,2.5,2.5,0,0,0-1.72,1.57,1.94,1.94,0,0,1-1.43.87h0a.44.44,0,0,0-.26.12l0,0s0,0-.06.07a4.1,4.1,0,0,0-1.16-.11,2,2,0,0,0-1.54.9,3.72,3.72,0,0,0-.32.49.5.5,0,0,1-.05.09l-.17-.52a2.72,2.72,0,0,0-1-.1,7.1,7.1,0,0,0-2.2.69l-.58.25a7.73,7.73,0,0,0-2.52,4.67,7.08,7.08,0,0,0-.09,1.16,4.27,4.27,0,0,1-.3-.94c-.17-.74-.35-1.5-1.22-1.65l-.35,0a3.25,3.25,0,0,1-.63-.07,2.54,2.54,0,0,1,0-1.53,4.27,4.27,0,0,0,.07-.77l-.47-.14a1.09,1.09,0,0,0-.68-.23,1,1,0,0,0-.73.53h-.22a12.78,12.78,0,0,0-2.54.85,2.71,2.71,0,0,1-.87.54h-1.94L681,442l-.39.07a1.37,1.37,0,0,0-.58.74,1.46,1.46,0,0,0-.12.26.49.49,0,0,0,0,.06s0,0,0,.06a3.1,3.1,0,0,0-.4,2.34v0h0v0a6.41,6.41,0,0,0,1.06-.46,4.26,4.26,0,0,1,1.51-.54,2,2,0,0,1,.61,0,4,4,0,0,1,.21,1.52,2.64,2.64,0,0,0,.61,2.09,7.35,7.35,0,0,0,3.31,4,.78.78,0,0,0,.87.61,1.84,1.84,0,0,0,1.33.6,2.86,2.86,0,0,1,.86.22l.19.17.22,0a1.44,1.44,0,0,0,1.11.42,2.24,2.24,0,0,0,1.2-.58l.33,0a1.26,1.26,0,0,0,1.17-.65l6,2.17c.77.67.63,1.63.49,2.65a3.69,3.69,0,0,0,.1,2.17c-.19,2.12,1,3,2.37,3.81a2.94,2.94,0,0,0,.91.3c.71.15,1.39.3,1.49,1.41.38.49.73.8,1.16.75a1.54,1.54,0,0,0,.93-.61c.12-.41.37-.85.75-.89a.5.5,0,0,1,.17,0c.32.08.69.09,1,.14l.32,0a14.31,14.31,0,0,0,3.11,0,44.19,44.19,0,0,0,4.37-.77l1.17-.25a16.75,16.75,0,0,0,3.25,0,9.79,9.79,0,0,0,2.64-.66,6.68,6.68,0,0,0,.74-.63,4.37,4.37,0,0,0,1-.33,4.34,4.34,0,0,1,1-.32.77.77,0,0,1,.7.22,2,2,0,0,1-.25,1.09c-1,1.58-1.73,2.4-2.55,2.5a3.86,3.86,0,0,1-2.12-.7l-.31-.18a3.19,3.19,0,0,0-1.92-.63,2.39,2.39,0,0,0-1.29.62,7.14,7.14,0,0,0-3.83,2.87,2.06,2.06,0,0,0-1.27,1.83,1,1,0,0,0-.45.18c-.57.15-.8.71-1,1.25s-.47,1.15-1.16,1.24c-1-1.09-3.92-1.32-6.31-1.06s-4.25.94-5.08,1.83a1,1,0,0,0-.27,1.17c.56,1.71,1.14,3.47,3.11,3.25a4,4,0,0,0,.57-.11,6.63,6.63,0,0,1,.92-.17,3.78,3.78,0,0,1,4,2.34,9,9,0,0,1,.57,1.48l0,0a3.6,3.6,0,0,0,2.78,3l.1,1.08-1.3,2.5a7.45,7.45,0,0,0-.37,4.87,2.91,2.91,0,0,0,1.8,2.06,1.17,1.17,0,0,0,.64.53h0a.76.76,0,0,0,.32.07,3.1,3.1,0,0,0,1.32-.79l.32-.27,1.47-.09a1.55,1.55,0,0,0,1.27.62,3,3,0,0,1,.75.17,3.21,3.21,0,0,0,1.64,1.43,5.9,5.9,0,0,1,.95.57l.19.16c.3.25.63.53,1,.48s.5-.25.73-.65c.61-1.09-.45-1.75-.8-2a7.44,7.44,0,0,0-.94-.47,3,3,0,0,1-2.05-1.93l1.28-1.66a2.23,2.23,0,0,0,1.21-2.57,3.89,3.89,0,0,1,.07-1.33,4.19,4.19,0,0,1,1.94-1,1.75,1.75,0,0,1,1.53.55c.29.59.82.58,1.33.57a2.4,2.4,0,0,1,.75.06l.73.41c1.76,1,3.57,2,4.55,4.13a.85.85,0,0,0,.23,0,.94.94,0,0,0,.7-.62,2.2,2.2,0,0,0,.48-.67c.19-.35.37-.67.61-.71s.33.08.53.31a16.22,16.22,0,0,0,4.6,3.59l1,.47.38-.18a1.8,1.8,0,0,1,.09.22.78.78,0,0,0,.38,0c.26,1.11,1.15,1.31,2,1.5l.43.1,1.53.21c.91,0,1.83,0,2.75,0,1.27,0,2.53,0,3.79,0a45.25,45.25,0,0,1,14.93,3.64l2.45.46c.8.19,1.63.31,2.45.44a24.34,24.34,0,0,1,3.52.71l.07,0a9.19,9.19,0,0,1,1,.39c0,.43.34.42.62.41a.82.82,0,0,1,.41.05l.26.08.36.13a1.57,1.57,0,0,0,0,.18,9.93,9.93,0,0,0,2.11,1.56c1.49.91,3,1.83,3.27,4.17l0,.46,0,.48.5.24c.92.43,1.79.84,1.94,2.18l.07.62c.31,2.84.63,5.77,2.8,7.33.64.46.81,1.47.45,2.7a10.3,10.3,0,0,0-.58,1.27,9.49,9.49,0,0,1-.67,1.42,4.21,4.21,0,0,0-.19.4v0a2.87,2.87,0,0,0-.25.69,1.31,1.31,0,0,0,0,.27,1.41,1.41,0,0,0,0,.21.71.71,0,0,0,.47.49h0a1.11,1.11,0,0,0,.28.1l0,0h0l0,0h0l-.09.09.1-.08a.74.74,0,0,0,.21.41c.19.23.36.44-.06,1a2.16,2.16,0,0,0-.37,2.12c0,.07,0,.14.05.21a4.17,4.17,0,0,0-1.51.91,4.49,4.49,0,0,1-2.35,1.56,4.39,4.39,0,0,0-2.49,1.74c-3.6,2.9-5.52,6.89-7.37,10.77l-1,2a.73.73,0,0,0-.16.16l0,0a.63.63,0,0,0-.15.33v0a.74.74,0,0,0,0,.18c-.14.29-.3.58-.47.87-.57,1-1.17,2.06-.61,3a.74.74,0,0,0,.6.4h.06c.07,0,.12,0,.2,0a3.4,3.4,0,0,0,1-.56,3.3,3.3,0,0,1,1-.55l.94-.2a6.13,6.13,0,0,1,1.39-.58,3.67,3.67,0,0,1,2.24.07,3.84,3.84,0,0,0,2.34.15,3.66,3.66,0,0,0,1.35-.72,4.88,4.88,0,0,1,1.81-1,6.43,6.43,0,0,1,2.15-.13h.17a6.35,6.35,0,0,0,.8-.48,2.24,2.24,0,0,0,.51-.08,2.37,2.37,0,0,0,1.16-.79l0,0h.19a3.72,3.72,0,0,0,1.25-1.28c1.42-2.12,2-3,2.86-3.23a6.32,6.32,0,0,1,2.56.19,6.15,6.15,0,0,0,3.16-1.89l.21-.25a1.78,1.78,0,0,0,.64-.08,7.11,7.11,0,0,0,1-.4,7,7,0,0,1,1-.4l.29-.07.17,0a4.75,4.75,0,0,1,1-.18l.23,0a.61.61,0,0,1,.53.08.82.82,0,0,0,.37,0h0c.08.6.5.77.91.94a1.45,1.45,0,0,1,.77.53c.11.68.63.85,1.14,1l.17.05.59.23.21.07c0,.56.47.63.9.69a6.4,6.4,0,0,1,1.57,2,4.72,4.72,0,0,0,2.24,2.4,2.32,2.32,0,0,1,1,1c.39.56.82,1.08,1.68,1h0a1.73,1.73,0,0,0,.34,0l.36-.14.52-.21L823.13,516l-.15,0-.17.05c-.5-2.09.23-4.46,1.49-7.36Zm-121.54,13,.05-.05-.15.32A.68.68,0,0,1,709.42,480.6Z"/><path class="cls-5" d="M309.13,527.41l.2-.16c.25-.2.52-.4.52-.74a1.42,1.42,0,0,0-.39-.84A1.78,1.78,0,0,1,309,524a3.24,3.24,0,0,0,0-.73.67.67,0,0,1,.66-.39,2.1,2.1,0,0,1,.77.38,4.1,4.1,0,0,1,.51.38c.1.18.21.37.4.39h.05a.2.2,0,0,1,.13.07l.59,1.37,2.29,3,1.07,1.4.44.09a2,2,0,0,0,1.94-.64c.66-.77.91-2.2.75-4.26l-.28-5.88.34-.29,0-1.14-.06-.84v-.27l0-.07v-.12l.23-.34c.12-.18.25-.36.37-.56s.09-.61.15-.92c0-.13,0-.26.06-.39a15.42,15.42,0,0,0,.17-1.67c0-.26,0-.52,0-.78a12,12,0,0,0-.09-1.35c0-.22-.07-.44-.11-.66a11.53,11.53,0,0,0-.37-1.46c-.06-.18-.13-.36-.19-.54s-.16-.52-.28-.78l-.22-1.52a19.42,19.42,0,0,1,.44-9.9c-2.62-4.81-2.68-6-.43-9.23.2-.29.39-.6.58-.9l.24-.41a.83.83,0,0,0,.44-.19,1.88,1.88,0,0,0-.22-2.35c-.56-.25-.55-.75-.56-1.34a1.86,1.86,0,0,1-.45-1,1.77,1.77,0,0,0-.53-1,1,1,0,0,0-.14-.12l0,0,.29.15a9.32,9.32,0,0,0,2.24,1,7.66,7.66,0,0,1,2.77,1.35c1,1.75,2.16,2.67,3.63,2.8a5.21,5.21,0,0,0,2.21-.32l.11-.15.22,0c2.59-.75,2.78-1.23,1.9-4.65a2.64,2.64,0,0,0-1.26-.45,5.18,5.18,0,0,0-1.79.26l-.4.14a2.74,2.74,0,0,1,.47-2.81,2.57,2.57,0,0,0,.58-2.17A1.13,1.13,0,0,0,328,473a2.7,2.7,0,0,0-2.39-1.52l-1.12-.06a6.41,6.41,0,0,1-.69-.1,3.23,3.23,0,0,0-.6,0,3.15,3.15,0,0,1-.63,0c-.42,0-.87-.23-1-1.42a1.68,1.68,0,0,0-.07-.27,1.58,1.58,0,0,0-.07-.27,1.16,1.16,0,0,0-.23-.39,1.07,1.07,0,0,0-.18-.16c-.07,0-.11-.13-.19-.16a4.05,4.05,0,0,1-1.45-3.22,19.69,19.69,0,0,0-2.17-8.17c-1.19-2.35-2.12-3.65-3.64-3.77a5.59,5.59,0,0,0-2.4.48h-.25a4,4,0,0,1-1.29-.46,4,4,0,0,0-1.31-.46c-.61,0-1.05.29-1.38,1.05-1,.5-1.37,1.53-1.24,3.17s-.47,2.13-1.94,2a1,1,0,0,0-.85.52,2.35,2.35,0,0,1-1,1.37,1.36,1.36,0,0,0-.28,1.51,3.52,3.52,0,0,0,.75,1.11,4.13,4.13,0,0,0,1.8,1,10.21,10.21,0,0,1,1.36.45l.5.19a8.87,8.87,0,0,0,2.09.43c.34,0,.68,0,1,.05l.34,0c1.57.14,2.47,1,3.34,3.26a29.12,29.12,0,0,1,1,3.53c.11.44.23.87.37,1.29,0,.12.06.24.09.36-.14-.22-.29-.44-.44-.65a7.56,7.56,0,0,1-1.24-2.32c-.89-3.27-1.08-4-3.09-4.13-.46,0-1-.06-1.73-.08l-.25,0a1.48,1.48,0,0,0-.89.32c-.51-.12-1-.23-1.54-.32-4.36-.72-4.36-.73-4.95-5.74l-2-.45c-1.77-.83-2.37-2.53-3-4.16a11.22,11.22,0,0,0-1.24-2.7,7.85,7.85,0,0,1-1.34-4,15.86,15.86,0,0,0-.38-1.94l0-.07a6.23,6.23,0,0,0-.24-.79,3.83,3.83,0,0,0-.45-1.88,7,7,0,0,1-.37-1,2.21,2.21,0,0,0-1.85-1.58c-.38-.08-.76-.12-1.15-.16a6.7,6.7,0,0,1-2.41-.58,6.48,6.48,0,0,0-2,.1,2.76,2.76,0,0,1-.89.06c-2.4-.21-5.49-2.94-6.35-5.57l1.46-2.12a7,7,0,0,1,1.17-.68,3.25,3.25,0,0,0,1.85-1.64h0a1.74,1.74,0,0,0,.13-.57c0-1.21-1-1.64-1.92-2.06a5.82,5.82,0,0,1-1.27-.68c-.27-.22-.41-.39-.42-.54s.19-.3.4-.43.48-.29.45-.51l.74-.19.94-.18.52.05c.49,0,1,0,1.19-.34s0-.88-.39-1.7l-.67-1.07a6.44,6.44,0,0,1-.08-.9A3.27,3.27,0,0,0,280,421l-.14-.85c-.62-2.37-2.36-2.86-4.09-3.35l-1.33-.47-1.1-.36c.05-.39.21-.55.51-.53a2.1,2.1,0,0,1,.43.1l.23.06a2.33,2.33,0,0,0,.36.05,1.25,1.25,0,0,0,.9-.29,1,1,0,0,0,.13-.14c.06-.07.15-.11.19-.2a1.5,1.5,0,0,0,.05-.27s0-.1,0-.15a1.63,1.63,0,0,0,0-.61l0-.15a1.79,1.79,0,0,0-.08-.31,13,13,0,0,1-.88-2.57,12.39,12.39,0,0,0-.85-2.49l-.09-.18c-.34-.68-.72-1.44-1.39-1.48a1.14,1.14,0,0,0-.55.12c-.75.36-1.44.93-.82,2.5l.18.44a3.87,3.87,0,0,1,.47,2.66,1.62,1.62,0,0,1-.17.33l0,.06a2,2,0,0,1-.4.39,1,1,0,0,0-.13-.45l-.2,0a1.38,1.38,0,0,0-.23,0h0a1.45,1.45,0,0,0-.69.28l-.07.06a1.83,1.83,0,0,0-.27.21c-.07,0-.11.07-.14.22s0,.18,0,.23a3.57,3.57,0,0,1-.64.56,1.58,1.58,0,0,1-.24.12.76.76,0,0,0-.08-1,1.35,1.35,0,0,0,.54-.84c0-.09.08-.17.1-.27s0-.07,0-.11a1.17,1.17,0,0,0,.49.18c.4,0,.65-.3.78-1a6.76,6.76,0,0,0-4.06-4.74,1.43,1.43,0,0,0-.46-.14l-.68-1.19a2.21,2.21,0,0,0-1.84-1.3,2.39,2.39,0,0,0-.78.09,2.64,2.64,0,0,1-.85.11c-.92-.06-1.3-.81-1.67-2.18a6.39,6.39,0,0,1-.13-.66,2.75,2.75,0,0,0-.57-1.54,6.4,6.4,0,0,0-2.18-2.17h0a3.66,3.66,0,0,0-1.57-.51c-.13,0-.27,0-.4,0h-.07a4.08,4.08,0,0,0-.72.07.71.71,0,0,0-.27.18l-1-.55-1-.56a4.09,4.09,0,0,0-.43.21,1.17,1.17,0,0,0-.87.46,1.11,1.11,0,0,1-.83.45,1.73,1.73,0,0,1-.33-.06,2.62,2.62,0,0,0-.14-.45l-.66-.28-.63-.24a2.8,2.8,0,0,0,0-.33A31.74,31.74,0,0,0,248,393l0-.18c-.07-.34-.12-.69-.22-1l-.73-1.05-.42-.25a.71.71,0,0,1,0-.47,1.68,1.68,0,0,0-.27-1.27,1.51,1.51,0,0,0-1.17-.47h0a5.28,5.28,0,0,1-3,.8c-1.68-.09-3.42-1.08-5.35-3-.33-.34-.69-.64-1.05-.95l-.48-.41a2.81,2.81,0,0,0-1.63-.92c-.81,0-1.27.77-1.72,1.56l-.26.46,0,1.48a1.74,1.74,0,0,1-1,.25,4.89,4.89,0,0,1-1.87-.69l-.25-.12a3.63,3.63,0,0,0-.28-.36c-.07-.1-.14-.2-.23-.29a6.4,6.4,0,0,0-1.3-1.14,4.39,4.39,0,0,1-1-2,4.2,4.2,0,0,0-1.07-2.06l-1.44-2.72a3.44,3.44,0,0,0-1.45-1.34,3.65,3.65,0,0,1-1.48-1.34,10,10,0,0,0-4.76-4.06q-6.15-4.82-12.35-9.54a3.26,3.26,0,0,0-.79-.41l-.3.1a3.79,3.79,0,0,0-1.08-.24l-.32,0a9.7,9.7,0,0,0-4.75-3.91l-.94-.51-1.23-1.28a4.42,4.42,0,0,0-1.53-1.49,4.66,4.66,0,0,1-1.45-1.35l-.3-1.65c-.15-2-1.64-2.6-3.07-3.21l-.26-.11-.28-.09c-.19-.05-.4-.12-.45-.21l-.12-.26c-1.64-3.54-3.33-7.19-7.74-8.5-.22-.06-.39-.35-.57-.66a2.93,2.93,0,0,0-.48-.66l-.34-.32a2.92,2.92,0,0,0-1.77-1.08,1.31,1.31,0,0,0-.28.07l-.07,0a2.08,2.08,0,0,0-1,.62,1.54,1.54,0,0,1-1.2.44,6.1,6.1,0,0,1-2.15-.55,11.77,11.77,0,0,0-4.36-.9,10.83,10.83,0,0,0-3,.37,21.28,21.28,0,0,1-5.94.76h-.33l-4.25-2.22a15.07,15.07,0,0,0-7.4-4.71c-.25,0-.51,0-.77,0s-.55,0-.81,0a2.29,2.29,0,0,0-.83.12,5.81,5.81,0,0,1-1.11.25c-1.08.17-2.19.35-2.2,1.85a7.77,7.77,0,0,0,.63,3.63,1,1,0,0,0,.61,1.14c.27.3.1.57-.07.86a.87.87,0,0,0-.19.73.94.94,0,0,0,.51.47h0a.77.77,0,0,1,.1.49q2.33,2.94,4.65,5.9a4.13,4.13,0,0,0,1.73,1.42l.35.19,3.15,2.62,1.92,2.23a3.6,3.6,0,0,0,2.19,1.62,3.53,3.53,0,0,1,2.13,1.56,2.07,2.07,0,0,0,1.3,1.12l2.87,2.35c.17.2.31.42.46.64a3.8,3.8,0,0,0,1.61,1.55,13.93,13.93,0,0,1,9,5.78,4.5,4.5,0,0,0,1.11,1,6,6,0,0,1,.62.47l0,0h0s0,0,0,0l0,0-.05.06.06-.05h0a4.51,4.51,0,0,0,1.4,2.24,17.92,17.92,0,0,0,3.31,3.11,13.79,13.79,0,0,1,3.89,4.08l0,.06a6.84,6.84,0,0,1,.33.76c.06.16.11.34.16.51s.12.4.17.62c-.58,1.17-.37,2.41.63,3.8a3.1,3.1,0,0,0,2.85,1.56l.29,0a22.17,22.17,0,0,1,6.51,2.25l.51.75a9,9,0,0,1,3.69,2.61c.32.32.64.63,1,.93a2.49,2.49,0,0,0,1.68,1.26.31.31,0,0,0,.23,0h0c0,.37.08.73.14,1.1a8.38,8.38,0,0,1,.14,1.73c.38.91.8,1.82,1.22,2.72a31.75,31.75,0,0,1,2.6,7.05,23.14,23.14,0,0,0,2.06,5.65,24.43,24.43,0,0,1,2,5.3,2.15,2.15,0,0,0,1.2,1.28h.18l.19.17c3.41,1.16,6.63,2.5,8.49,6.29a9.85,9.85,0,0,0,1.84,2.89,14.49,14.49,0,0,1,1.34,1.83c.2.38.47.78.86.83a.52.52,0,0,0,.23,0,4,4,0,0,0,1.77,1.79l.78,1.13.77,1.1a1.2,1.2,0,0,0,0,.43c.3.5.59,1,.88,1.5A40.08,40.08,0,0,0,231,440l.07-.06h0a2,2,0,0,0,.64,1.84c1.92,1.48,2.72,3.56,3.5,5.58a20.57,20.57,0,0,0,1.57,3.42,6.61,6.61,0,0,0,2,2.84,2.63,2.63,0,0,1,.86,1.22l.11.17,0,0,0,0c-1.89,1.93-1.72,2.75,1.24,6.35l3.06,4.1a3.9,3.9,0,0,0,.91,1.34c.29.26.58.51.88.75s.83.7,1.23,1.08a6.61,6.61,0,0,0,1,.68,2,2,0,0,0,.55.92,14.56,14.56,0,0,0,2.84,4.6,3.26,3.26,0,0,0,1.31,2.18c.17.16.34.32.5.49A39.56,39.56,0,0,0,259,482.4a1.78,1.78,0,0,0,.72,1,1,1,0,0,0,.38.13h.06l0,.07v.15l.55.35.68.45a1.72,1.72,0,0,0,.35,1.24,10.72,10.72,0,0,1,1,2.39c.47,1.48,1,3,2.51,3.92a2.19,2.19,0,0,0,1.72,1.37h0l2.26,2.27c.38.54.77,1.09,1.44,1.19h0l1.28,1.23a3.2,3.2,0,0,0,1.57,1.45,3.9,3.9,0,0,1,1.38,1.66c.48.84,1,1.72,1.94,1.86h0a.68.68,0,0,0,.26.36l.07,0a.54.54,0,0,0,.19.09h.11a22.44,22.44,0,0,0,4.81,4.39l.85.63c3.2,2.36,6.51,4.8,8.24,9.2a9.19,9.19,0,0,0,2.62,3.27l.64.58.06.25c.26,1.16.53,2.37,1.74,2.63a1.62,1.62,0,0,0,1.18,1.2l.78.2c.72,1.53,1.39,2.3,2.11,2.4a1.83,1.83,0,0,0,1.54-.73c0-.12,0-.25,0-.37a1.71,1.71,0,0,1,.07-.73c.19-.41-.08-.9-.34-1.37a1.77,1.77,0,0,1-.36-1c0-.21.22-.37.53-.48a1.42,1.42,0,0,1,.69-.07,4.05,4.05,0,0,1,2.2,1.75,5.1,5.1,0,0,0,3.69,2.08Z"/><path class="cls-5" d="M464.7,504.26c.09.17.17.35.25.53a6.27,6.27,0,0,0,.29.6,2.49,2.49,0,0,0,.35,1.16,1.5,1.5,0,0,0,.67,1.64.65.65,0,0,0,.28.08c.34,0,.52-.36.69-.72l.14-.28,1-.52a7.2,7.2,0,0,1,.77-.92,3.42,3.42,0,0,0,1.23-3.07h0l.1-.23a2.87,2.87,0,0,0-.12-.41,2.25,2.25,0,0,0-.23-.71,2,2,0,0,1-.24-.81,1.17,1.17,0,0,1,0-.18,1.25,1.25,0,0,1,0-.15l.35,0,.41,0a.83.83,0,0,0,.72-.27,1.43,1.43,0,0,0,.18-1c0-.4,0-.89,0-1.39a5.51,5.51,0,0,0-.3-2.67c-.09-.11-.2-.17-.48-.18h0c-1,0-1.09-.58-1.17-1.18a2.67,2.67,0,0,0-.17-.73c-1-2.17-.14-3.93.77-5.54a1,1,0,0,0,.15-1.29,3.76,3.76,0,0,1,.14-2.16,8.06,8.06,0,0,0,.21-.9,2,2,0,0,1,.11-1.32.52.52,0,0,1,.46-.21,2,2,0,0,1,.59.13c1-.54,1.94-2.82,2.37-4.71a5.37,5.37,0,0,0,0-3.25c-.18-.34-.47-.77-.77-.86a1.46,1.46,0,0,1-1-.7,2.78,2.78,0,0,1,.07-1.76,6.27,6.27,0,0,0-.33-4.33,1.68,1.68,0,0,1-.27-1.06.36.36,0,0,1,.22-.24c1.1-.45,1.35-1.52,1.59-2.55a6.24,6.24,0,0,1,.49-1.52,10.16,10.16,0,0,1,2.44-1.62c1.44-.76,2.92-1.55,3.7-3.51l1.64-1.94c.87-1.55,2.2-1.8,3.49-2a7.75,7.75,0,0,0,1.85-.51l.12-.28c.18-.43.36-.84.8-1a1.81,1.81,0,0,0,.7-1.91,4.14,4.14,0,0,1,.09-4.35,2.29,2.29,0,0,0,.38-1s0,0,0-.07a1.34,1.34,0,0,0,0-.39,1.24,1.24,0,0,0-.84-.82c-1.15-.45-1.75-.93-1.93-1.55a3.5,3.5,0,0,1,.66-2.54,3.17,3.17,0,0,0,.53-2.65c-1.16-3.93.47-6.87,2-9a12.08,12.08,0,0,1,.94-1.45,6.83,6.83,0,0,0,1.4-2.82,4.48,4.48,0,0,0,.08-.84,3.81,3.81,0,0,1,.84.23,3.2,3.2,0,0,0,1,.23.82.82,0,0,0,.65-.28,2.75,2.75,0,0,0,1-.28,22.06,22.06,0,0,0,3.55.23,15.61,15.61,0,0,1,5.07.62,4.22,4.22,0,0,0,1.39.26c1.22,0,2.16-.74,2.87-2.25l1.11-1.89c.51-1.16.71-1.74.54-2.12s-.79-.56-2.14-.73a13.86,13.86,0,0,0-.81-1.28c-.09-.14-.18-.29-.27-.43a16.12,16.12,0,0,0-1-1.28l-.2-.23a34.21,34.21,0,0,0-4.52-4.09c-1.12-.89-2.29-1.8-3.35-2.81a2.09,2.09,0,0,0-1.67-1.33l-.6-.46c-1.3-.76-1.84-2.23-2.37-3.65l-.13-.29a.39.39,0,0,0,0-.54,7.9,7.9,0,0,1,1.29-2.24A6.74,6.74,0,0,0,496,393a2.07,2.07,0,0,0-.33-2.46l-.29-.45c-2.79-2.25-3.94-5.72-5-9.09-.39-1.17-.77-2.35-1.23-3.48a1,1,0,0,1,.31-1.46c1.58-1.48,1.06-3.39.42-4.89a1.34,1.34,0,0,0-.52-.49c.08-.87.63-1.24,1.39-1.67a3.38,3.38,0,0,0,1.73-2,3.52,3.52,0,0,0-.26-2.4.83.83,0,0,0-.7-.29h-.41a.8.8,0,0,1-.7-.31.7.7,0,0,1-.53-.33,1.37,1.37,0,0,1,0-.89,2.86,2.86,0,0,0,1.58-.72,2.83,2.83,0,0,1,1.61-.73,2.71,2.71,0,0,1,.62.09c.06,0,.1-.07.15-.09l.06,0s.1,0,.13-.08a1.34,1.34,0,0,0,0-1l-.13-.39a4,4,0,0,0-1.53-2.52h0a2.44,2.44,0,0,0-1.18-.27h0c-.4,0-.8,0-1.2,0-.66,0-1.32,0-2,0l-1.21,0h-.18a7.2,7.2,0,0,0-3-2.32h0a5.68,5.68,0,0,0-2.1-.43,7.79,7.79,0,0,0-1.56.17,25,25,0,0,1-5,.53,19.07,19.07,0,0,1-5.22-.72,1.69,1.69,0,0,0-.75-.7l0,0a.87.87,0,0,0-.27-.1,1.13,1.13,0,0,0-.67.26,9.18,9.18,0,0,0-1.1.67,4.06,4.06,0,0,1-2.08.92,2.47,2.47,0,0,1-1.91-1.3.8.8,0,0,0-.68-.34,1.64,1.64,0,0,0-1.12.52c-.28.29-.58.56-.88.83a5.48,5.48,0,0,0-2.1,3,.94.94,0,0,0-.08.41c-.12.57-.22,1.14-.32,1.71a29.86,29.86,0,0,1-1.11,4.65,10.78,10.78,0,0,0-.32,4.48,12.47,12.47,0,0,1-.11,3.66,3.22,3.22,0,0,0-.39,2v.41c0,2.31-.82,3.42-2.45,3.41a4.51,4.51,0,0,1-.8-.08,3.13,3.13,0,0,0-.59-.06c-1.66,0-2.14,1.61-2.45,3.12a3.34,3.34,0,0,0,0,1.13,2.24,2.24,0,0,1-.17,1.61,7.07,7.07,0,0,1-.24.67c-.31.8-.64,1.63.26,2.47a1.21,1.21,0,0,1,.49.8c0,.27-.25.47-.49.67a1.32,1.32,0,0,0-.46.53,3.41,3.41,0,0,0-1.64,1.77,3.75,3.75,0,0,0-2.14,2.2,6.15,6.15,0,0,0,.42,4.12,3.44,3.44,0,0,1,.13,1.7,6.51,6.51,0,0,0-2.09,4c-.72.19-.93,1.12-1.1,1.87-.13.56-.24,1-.51,1a.39.39,0,0,1-.18-.06,3.61,3.61,0,0,0-1.72-.46,7.75,7.75,0,0,0-2.45.51,7.44,7.44,0,0,1-2.34.49,3.24,3.24,0,0,1-1.16-.23l-.35,0a3.25,3.25,0,0,0-2.88,1.67,2.55,2.55,0,0,1-2.24,1.23,7.5,7.5,0,0,1-1.72-.32,7.51,7.51,0,0,0-1.74-.32,1.37,1.37,0,0,0-.52.07c-.06-.16-.11-.33-.17-.52l-1.09-.77h-1c-.21-.29-.44-.5-.66-.75l-.25-.28a7.82,7.82,0,0,0-2.5-1.8l-.35-.14a7.33,7.33,0,0,0-1.56-.4l-.37,0c-.22,0-.42-.08-.65-.09a9.77,9.77,0,0,0-1.4.08,11.83,11.83,0,0,1-1.66.06l-1.57,0c-1.8,0-3.69.09-5.19,2-.95.57-1.06,1.63-1.17,2.66a4.08,4.08,0,0,1-.65,2.2.26.26,0,0,0-.23.09.23.23,0,0,0,0,.24,6.54,6.54,0,0,0-2.26,1.12,5,5,0,0,1-2.85,1.16,3.41,3.41,0,0,1-1.08-.22l-.18.11a.84.84,0,0,0-.36.3l-.39,0a6.33,6.33,0,0,1-2.11-.57,6.34,6.34,0,0,0-2.13-.58h-.29l-1-.14a2,2,0,0,0-1.09-.36,4.5,4.5,0,0,0-1.29.22,4.34,4.34,0,0,1-1.28.22l-.33,0a6.11,6.11,0,0,0-3.22,1.65,2.45,2.45,0,0,1-1.85.86,3.3,3.3,0,0,1-1.9-.83l-.17-.08a2.76,2.76,0,0,0-1.06-.34.31.31,0,0,0-.2,0,9.5,9.5,0,0,0-3.78-4.08l-.43-.31-.53-.21c-.13-.21-.3-.37-.44-.56s-.27-.35-.41-.52a14.79,14.79,0,0,0-2-1.93,2,2,0,0,0-1.11-1.27,36.57,36.57,0,0,1-4.08-8.12,1.56,1.56,0,0,0,.91-.87,1.06,1.06,0,0,0-.07-.72c-.1-.24-.22-.36-.37-.36s-.44.26-.65.53l-.55,0c-1.58,0-3.21.06-4.28,1.83,0,0-.06.29-.06.3-.37.66-.77,1.3-1.18,1.94a16.48,16.48,0,0,0-2.53,5.36c-.13,1-.19,2-.26,3-.18,2.73-.37,5.56-1.82,7.87a1.12,1.12,0,0,0-.41.8,1.64,1.64,0,0,0,.43,1,2.2,2.2,0,0,1,.65,1.4,2.91,2.91,0,0,0,.4,1.13l.05.59a11.71,11.71,0,0,1,0,1.69c-.06,1.49-.12,3,1.26,4,1.91,1.4,2.83,3.28,3.07,6.26v.58c-2,1.34-2.29,3.13-.93,6,.27.58.59,1.15.91,1.72,1,1.82,2.08,3.71,1.71,6-.15.18-.21.32-.17.42s.17.18.39.2c1.09.12,2.28.37,2.74,1.23a3.3,3.3,0,0,1-.12,2.64,2.11,2.11,0,0,0,.06,2.55,2.65,2.65,0,0,0,1.9,1.28,2.83,2.83,0,0,0,2.16-1.17,2.61,2.61,0,0,1,2.06-1.08,3.33,3.33,0,0,1,1.77.77l1.83,4.41-1,3.61v0c-.9,1.37-1.3,2-1.22,2.58s.55,1,1.49,1.82l0,.26c.15.07.3.13.45.2a2.69,2.69,0,0,1,1.11.71,1.64,1.64,0,0,1,.16.2,9.38,9.38,0,0,1,.27,3,8.59,8.59,0,0,0,.4,3.39,5.56,5.56,0,0,1,.82,2.16,6.51,6.51,0,0,0,.92,2.42l.06,4.11a1.93,1.93,0,0,0-.29,1s0,0,0,0a2,2,0,0,0,0,.42,3.31,3.31,0,0,0,1.11,1.8,1.25,1.25,0,0,0,.36.14l.1,0c.07,0,.14.08.21.08a2.62,2.62,0,0,0,1.64-.83,5.86,5.86,0,0,1,.76-.56l1.53.19.15.29a4.45,4.45,0,0,0,1.63,2.14l.06,0a1.18,1.18,0,0,0,.36.13,2.12,2.12,0,0,0,1.37-.53.56.56,0,0,1,.37-.1,1,1,0,0,1,.88.75,1.81,1.81,0,0,0,1.48,1.16,2.65,2.65,0,0,0,1.18-.26c.31-.23.62-.47.93-.71,1.25-1,2.54-2,4-1.92a4.6,4.6,0,0,1,2.87,1.51.91.91,0,0,0,.38-.17l.22-.13.26,0,.2-.24a3.33,3.33,0,0,1,1.46-.39l.45,0h0a13.12,13.12,0,0,1-.2,1.36,6.88,6.88,0,0,0-.11,2.85,9.65,9.65,0,0,0,.33,1.33,5.87,5.87,0,0,1,.35,2.22,1.58,1.58,0,0,1-.15,1.32,1.85,1.85,0,0,0-.19,1.34,7,7,0,0,0,1.86.46,2.26,2.26,0,0,0,2.16-1.2c1.25-2,2.46-2.84,3.81-2.78a5,5,0,0,1,3,1.56,3.07,3.07,0,0,0,1.67.9c.69,0,1.13-.55,1.29-1.68a14.47,14.47,0,0,1,1.29-.7c1.62-.81,3.3-1.66,3.36-4.71,0-.22.08-.24.14-.24s.44.24.71.47a3.45,3.45,0,0,0,.51.38l.41.64a2,2,0,0,0,1.25,1.19,3.53,3.53,0,0,0,1.87,1.11c.25.08.5.16.74.27a.92.92,0,0,0,.34.08,2.23,2.23,0,0,0,.93-.26,2.22,2.22,0,0,1,.92-.26,1.21,1.21,0,0,1,.9.53l-.45,1.23c-.45,1.5.32,2.45,1.14,3.3a2.55,2.55,0,0,0,1.1.42,1.07,1.07,0,0,0,.88-.44,4.87,4.87,0,0,1,3.67-1.81,4.39,4.39,0,0,1,1.05.17,2.92,2.92,0,0,0,1.73.87,8,8,0,0,1,1.22.36,3.32,3.32,0,0,1,2.3,1.55c1.3,1.73,1,3.84.8,5.7a8.61,8.61,0,0,0,1,5.67,1.74,1.74,0,0,0,1.21.64,2,2,0,0,0,1.33-.56c1.14-.45,2.28-.93,3.41-1.4s2.33-1,3.5-1.45l.27-.11a2.52,2.52,0,0,0,1.79-1.54l-.08-.09-.06-.1a1.17,1.17,0,0,0,.52.18c.41,0,.71-.35.91-1.11a.44.44,0,0,1,.53-.45h0a1.51,1.51,0,0,1,1-.29l.93.05c.7,0,1.39-.15,1.63-1.44a2.14,2.14,0,0,0,1,.23h.81C463.62,502.41,464.43,502.56,464.7,504.26Zm4.83-1.14h0l-.13.28-.05.09c-.16-.31-.16-.4-.15-.43l0,0h0a.15.15,0,0,1,0,0C469.33,503.07,469.44,503.12,469.53,503.13Zm-95.21-41.25.2.18,0,.05c-.06,0-.14-.06-.23-.2Z"/><path class="cls-5" d="M627.69,578.55a2.75,2.75,0,0,1-.4-.26,9.35,9.35,0,0,0-4-.56A7.07,7.07,0,0,0,619,580a3.54,3.54,0,0,1-1.85,1.15,1.45,1.45,0,0,1-1-.29c0-.47-.3-.52-.56-.56a1.09,1.09,0,0,1-.35-.1,2.92,2.92,0,0,1-.71.17l-.33.06h-.81a3.58,3.58,0,0,0-1.54.74,3.56,3.56,0,0,1-2.11.8,4.27,4.27,0,0,0-1.67.47,9.32,9.32,0,0,0-1.19.21,2.4,2.4,0,0,0-1.39-.23,26.13,26.13,0,0,0-5,1.29c-.41.15-.84.27-1.29.39-1.67.47-3.4.94-4.17,3-1.49,3.89-4,5.5-6.69,7.19-.57.36-1.15.73-1.71,1.11a35.33,35.33,0,0,0-11.25,8.17,6.38,6.38,0,0,0-2.07,3.72,23.25,23.25,0,0,1-1.07,4.7c-.23.78-.46,1.58-.65,2.45,0,.09,0,.17-.07.26s0,.07,0,.1a1.19,1.19,0,0,0-.32,0c-.73.06-1.32.84-1.84,1.54l-.26.45a4.25,4.25,0,0,0-.85,2.45c.29,3-1.38,4.42-3,5.78l-.37.3a5.89,5.89,0,0,0-.9.87l-.06.08a2.45,2.45,0,0,0-.31.42,3.5,3.5,0,0,0-1.59,1.24s-.13.17-.13.19a2.87,2.87,0,0,1-.12,1.68,2.72,2.72,0,0,0-.09,1.8s.08.05.11.09l0,0a1.24,1.24,0,0,0,1,.27l.42-.06.63-.47a2.18,2.18,0,0,0,.32.14c.41-.12.85-.21,1.28-.29,1.81-.36,3.67-.74,4.28-4C571,626,571,624.4,571,622.88c0-.32,0-.64,0-1a2.41,2.41,0,0,1,.27-1.32.49.49,0,0,1,.37-.21,2.06,2.06,0,0,1,.93.28,14,14,0,0,0,2.82.1,6.44,6.44,0,0,0,4.4-2.1,6.05,6.05,0,0,1,4.06-2.18,8,8,0,0,1,1.21,0,2.52,2.52,0,0,0,.52,0,1.66,1.66,0,0,0,1-.52l0,0a3.46,3.46,0,0,0,.81-2l.23-.08.5-.73.63-.81c.51-.36,1-.74,1-1.53a1.6,1.6,0,0,0,.92-1.2l.23-.37c.48-.81.93-1.57,1.84-1.66a1.36,1.36,0,0,0,.55-.5,5.46,5.46,0,0,0,.93-2.21c.28-1.09.55-2.12,1.52-2.63A22.59,22.59,0,0,0,599,600a14.58,14.58,0,0,1,5-2.93,1.28,1.28,0,0,1,.69-.27,4,4,0,0,1,.51,0,3.92,3.92,0,0,0,.51,0,1.35,1.35,0,0,0,.94-.5c.18-.16.38-.3.56-.45a8.2,8.2,0,0,0,1.18-1,9,9,0,0,1,4.18-2.38c2-.7,4.11-1.43,5.4-4.29a.64.64,0,0,1,.43-.26,10.88,10.88,0,0,0,4.49-2.35,24.67,24.67,0,0,1,2.05-1.41,3.34,3.34,0,0,0,.53-.31l.06,0a8.11,8.11,0,0,0,2.3-2.87l.48-.84C628.6,579.05,628.14,578.8,627.69,578.55Z"/><path class="cls-5" d="M568,589a4.75,4.75,0,0,1,2.15.35,1.06,1.06,0,0,0,.35-.15.78.78,0,0,0,.66.3,1.41,1.41,0,0,0,.26-.1l0,0a1.46,1.46,0,0,0,.35-.14c.23-.12.26-.28.22-.36,2.34-1.07,4.15-3.23,6-5.4h.11a.15.15,0,0,0,.08,0h0a3.54,3.54,0,0,0-.42,2.31,2.53,2.53,0,0,0,1.63,1.67,2.49,2.49,0,0,0,2,1.07,2,2,0,0,0,.25-.08l.18-.06a2.52,2.52,0,0,0,.77-.42l.13-.11a3.69,3.69,0,0,0,.43-.37,3.24,3.24,0,0,1,2.22-1,5.39,5.39,0,0,0,1.08-.24,4.74,4.74,0,0,1,3.2-1.27l.89-.07a8,8,0,0,0,2.11-.43c.66-.06,1.17-.52,1.65-1.34a2.48,2.48,0,0,0,1.93-.81,3.89,3.89,0,0,0,.55-2.34c0-2-.6-2.29-1.6-2.2l-1,.12c-1.06.09-2.12.21-3.18.33l-2.83.3-.31,0c-.41,0-.83.1-1.24.17s-.83.13-1.24.16a4.92,4.92,0,0,1-1.76-.14l-1.1,1.34c-.65.92-1.28,1.4-1.87,1.45s-1.37-.49-2-1.66c-.3-.54-.68-.82-1.1-.79a1.67,1.67,0,0,0-1,.61,4.29,4.29,0,0,1-3,1.42c-.44,0-.88,0-1.32,0s-.88,0-1.32,0l-.31,0-.46-.14a.86.86,0,0,0-.72-.36,1.89,1.89,0,0,0-1,.49,2.55,2.55,0,0,1-1.27.68c-.71,0-.83-.9-1-1.89,0-.31-.08-.62-.15-.91a1.23,1.23,0,0,0-1.06-.66,1.59,1.59,0,0,0-.94.47,2.23,2.23,0,0,0-1.82,1.06c-.45.89-.06,2.17.35,3.52l.07.11,0,.06a6.81,6.81,0,0,0-1.16,0,3,3,0,0,0-1.26.37l-.12.08a2.63,2.63,0,0,0-.75.72l-.07.1a4.85,4.85,0,0,0-.65,1.47c-.46,1.73-1.21,2.64-2.23,2.69a3.38,3.38,0,0,1-2.06-.77.52.52,0,0,0-.56-.38l-.26,0-.23,0a6.13,6.13,0,0,1-.42-.72c-.35-.67-.72-1.37-1.53-1.33a1.78,1.78,0,0,0-.46.09c-.77.25-1.54.57-2.32.89a14,14,0,0,1-4.5,1.31,5.35,5.35,0,0,1-4.4-2c-.14-.16-.4-.15-.65-.15h-.31a2.4,2.4,0,0,0-2.57-1.21,2.92,2.92,0,0,1-2-.45.6.6,0,0,0-.56-.48.7.7,0,0,1-.44-.23l-1.45-.09a2.38,2.38,0,0,0-1.78-.79,5.14,5.14,0,0,0-2.22.85,6.54,6.54,0,0,1-1.88.82c0-.06-.11-.15-.19-.14s-.13.06-.19.17a15.18,15.18,0,0,1-1.86,1.44c-1.6,1.12-3.26,2.27-3.71,5a.82.82,0,0,1-.56.33c-.29,0-.52-.25-.77-.52s-.5-.55-.81-.54a.21.21,0,0,0-.2.1h0a5,5,0,0,0-1.89-3.39l-.22-.19-1.08.61a4.62,4.62,0,0,0-.76,2.44,8.87,8.87,0,0,1-.22,1.32c-.05.11-.12.17-.31.18h-.05a2.76,2.76,0,0,0,0,3.26,2.29,2.29,0,0,0,1.46.67c.69,0,1.18-.59,1.63-1.37l.33-.56a3.53,3.53,0,0,0,1.24,2.2,5,5,0,0,0,.65.5h.05l.07,0a1.47,1.47,0,0,0,.26-.07l.18,0a1.29,1.29,0,0,0,.47-.24,1.64,1.64,0,0,0,.39-.44,2.16,2.16,0,0,0,.71.84,2.28,2.28,0,0,0,.77.29,21.53,21.53,0,0,0,2.59.06l2.44-.09,1,0a5.22,5.22,0,0,1,1.56-.27,15.35,15.35,0,0,1,1.58.06,14.58,14.58,0,0,0,1.59.06,5,5,0,0,0,1.45-.25l-.11.19a1.41,1.41,0,0,0,1.52,1.09,5.64,5.64,0,0,0,.68-.08l.45-.07a1,1,0,0,1,.55-.27.42.42,0,0,1,.25.08,1.51,1.51,0,0,1,.27.93,1.26,1.26,0,0,0,.86.34,1.08,1.08,0,0,0,.33-.07l1.3-.49a21,21,0,0,1,6.32-1.71,8.84,8.84,0,0,1,2.78.3c.1,0,.21-.08.43-.24a11.13,11.13,0,0,1,3.17-1.34,9.33,9.33,0,0,0,1.1-.38,6.39,6.39,0,0,1,2.35-.43,9.44,9.44,0,0,0,1.42-.15,4.41,4.41,0,0,0,1.24-.53,4.09,4.09,0,0,1,1.18-.51,13.35,13.35,0,0,0,3.87-1.69A11.24,11.24,0,0,1,568,589Z"/><path class="cls-5" d="M461.92,584.56c-1.79-2.76-3.65-5.26-6.67-5.51a.31.31,0,0,1-.17,0,.34.34,0,0,1-.24-.13.9.9,0,0,0-.59-.31c-.06,0-.12.05-.17.07l-.08,0a.71.71,0,0,0-.24.09l-.53.46c-.36.31-.71.63-1.08.92a4.47,4.47,0,0,1-2.93.87,5.38,5.38,0,0,1-4.24-2.3l0-.05a4,4,0,0,1-.3-.56,10.67,10.67,0,0,1,0-1.28c0-1.24.1-2.53-1.11-3.44l-1.45,0a5.48,5.48,0,0,1-1.39-.76,4,4,0,0,0-1.93-.86.49.49,0,0,0-.18,0l-.46-.63a2,2,0,0,0-1.25-.59,3.19,3.19,0,0,0-2.06,1h-4.06a3.41,3.41,0,0,1-.42-.06,3.52,3.52,0,0,0-.43-.06.88.88,0,0,0-.93.59.55.55,0,0,1-.3,0h-.06a11.2,11.2,0,0,1-5.79-2.88c-1.26-1.08-1.88-2-1.9-2.95a2.8,2.8,0,0,1,.67-1.71,6.14,6.14,0,0,1,1.07-1s0-.1,0-.14h0l.7.09c.26.33.5.67.74,1a4,4,0,0,0,2.63,1.25,7.12,7.12,0,0,0,3-.69l.81-.63c.65-.16.78-.76.84-1.53l0-.23s0,0,0,0l1.33.13.84-.4.26-.13a7.49,7.49,0,0,1,3.24-.66,6.29,6.29,0,0,1,.69.07c1-.48,1.59-1.06,1.67-1.76a3.15,3.15,0,0,0-1.11-2.3,1,1,0,0,0-.77-.32h-.37a.91.91,0,0,1-.91-.62,1,1,0,0,0-.7-.46c-.37,0-.68.33-1,.71a14.38,14.38,0,0,1-4.13.25l-2.15-.13c-.65,0-1.29-.05-1.93,0-.47,0-.95,0-1.42,0l-1.45-.1a8.42,8.42,0,0,0-4.19.57l-.55.65a3.1,3.1,0,0,1-1.64.64,1.42,1.42,0,0,1-1.11-.85,2.71,2.71,0,0,0-2.33-1.6,7.66,7.66,0,0,0-1.26.06,2.17,2.17,0,0,0-1.05-.29l-2.15-.55a3.37,3.37,0,0,0-3.24-2.09l-.87-.05a7.33,7.33,0,0,1-.88-.11,10.74,10.74,0,0,1-1.06-1.09c-.72-.81-1.46-1.64-2.37-1.71a2.12,2.12,0,0,0-1.51.58l-1,0a1.48,1.48,0,0,1-.77.18c-.82-.06-1.27-1-1.64-2a4.53,4.53,0,0,0-2.81-3l-3.05-.27c-2.6.13-2.83,2.36-3.06,4.52-.06.57-.12,1.14-.22,1.68-.46,2.17-1,2.84-2.14,2.73a8.15,8.15,0,0,1-2.35-.76,5.87,5.87,0,0,0-1.65-.47,2.54,2.54,0,0,0-.93.07v0l-.13-.12-.08.08h0c-.36-.09-.73-.2-1.11-.31s-1-.29-1.43-.39l-.44-.17a12.24,12.24,0,0,0-3.1-.89,5,5,0,0,0-.8,0l-.52-.06a2.41,2.41,0,0,0-.79-.21,5.17,5.17,0,0,0-1.81.26,5,5,0,0,1-1.79.25,2.75,2.75,0,0,1-1.69-.88l-.47-.12c-.35-.09-.69-.18-1-.29s-.73-.21-1.09-.31c-2.3-.62-4.47-1.22-5.15-5.57-.31-2-2.28-5.21-4.52-5.45a2.4,2.4,0,0,0-.63,0,8.06,8.06,0,0,1-2.17,0,19,19,0,0,1-5.27-1.69c-.69-.3-1.37-.59-2.05-.85-.31-.39-.61-.81-.9-1.23a7.07,7.07,0,0,0-2.68-2.65l-.18-.06a3,3,0,0,0-.59-.2,9.35,9.35,0,0,1-1.22-.6,5.58,5.58,0,0,0-1.77-.74c-1-.11-1.45.7-1.55,2.51a2.35,2.35,0,0,1-1.65.39,4.89,4.89,0,0,1-1.34-.43c-.15-.08-.31-.15-.46-.24l0-.06c-.44-.2-.87-.42-1.3-.64a14.45,14.45,0,0,0-4.48-1.68,5.45,5.45,0,0,0-1.53,0,.73.73,0,0,1-.45.1c-.26,0-.51-.22-.9-.72l-.26-.94a3.26,3.26,0,0,1-.36-.15,2,2,0,0,0-.54-.19.72.72,0,0,0-.67.34l-.36,0c-2,1.27-2.45,3.72-2.65,6.16-.16.25,0,.6.24,1.07a4.06,4.06,0,0,0,0,.85,1.26,1.26,0,0,1-.3.12,3.37,3.37,0,0,0-1.22-.48,1.33,1.33,0,0,0-.93.22l0,0a2.85,2.85,0,0,0-1,2,24.2,24.2,0,0,0-.36,3.46l0,.67a.25.25,0,0,1-.18.05c-.23,0-.45-.47-.67-.89s-.45-.9-.82-1l-.3,0a.74.74,0,0,1-.57-.28,1.38,1.38,0,0,1,.05-1,1.66,1.66,0,0,0-.21-1.32,2.31,2.31,0,0,0-1.23-1.08c-.69-.1-1.09.5-1.49,1.08a4.58,4.58,0,0,1-.59.76c-.57.54-.27,1,.05,1.44a4,4,0,0,1,.31.5,7.19,7.19,0,0,0,5.72,4.33l.78.09,1.08.12a20.7,20.7,0,0,0,2.38.19,8,8,0,0,1,1.08.08,13.73,13.73,0,0,1,5.94,2.75,4.21,4.21,0,0,1,1.89,2.15,2.21,2.21,0,0,1-.5,1.8c-.67.93.05,1.79.58,2.42a6.57,6.57,0,0,0,4.1,2.64q6.19,1.72,12.37,3.39l.55.65a14.37,14.37,0,0,1,1.15,1,12.22,12.22,0,0,0,1.14,1,5,5,0,0,0,.84.55h0a1.64,1.64,0,0,0,.15.35h0a.83.83,0,0,0,.26.33l.09.05s.08.07.13.08a1.85,1.85,0,0,0,.9-.26,1.33,1.33,0,0,1,.45,0,3.57,3.57,0,0,1,1.23.51,4.83,4.83,0,0,0,.84.4l.55.71a9,9,0,0,1,1.65,1.08,5.63,5.63,0,0,0,2.45,1.33,2.14,2.14,0,0,0,1.54-.42c.06-.26.12-.52.18-.91l1.67-1.39a3,3,0,0,1,.46,0l.74.11a2.09,2.09,0,0,0,.79,0,2.89,2.89,0,0,0,.58.27,5.67,5.67,0,0,0,.83.17,3.53,3.53,0,0,0,1,0l.43-.14.18.18a9.81,9.81,0,0,1,2.12,0,25.29,25.29,0,0,1,6.1,1.79,33.89,33.89,0,0,0,4.44,1.48,42,42,0,0,1,3.66,2.6,25.91,25.91,0,0,0,5.66,3.59l.25.09a10,10,0,0,0,1.22.42,1.59,1.59,0,0,0,1.31,1.11,1.77,1.77,0,0,0,.35,0l.21-.05a4.39,4.39,0,0,0,3,1.68,4.52,4.52,0,0,0,.8,0,12,12,0,0,1,2,0,6.25,6.25,0,0,1,2.17.58l.74.19a2.65,2.65,0,0,0,1.75.73,2.32,2.32,0,0,1,2,1.18,1.39,1.39,0,0,0,.72.67h0c.07,0,.13.08.2.08a1.82,1.82,0,0,0,1.07-.39c.38-1.23,1-1.34,1.65-1.29a6.56,6.56,0,0,1,.75.12,6.62,6.62,0,0,0,.75.12H408l1.52.2a14.7,14.7,0,0,1,1.5.64,7.82,7.82,0,0,0,2.68.9h.4l2.52.87a5,5,0,0,0,.42.29l.32.22a3.83,3.83,0,0,0,.76.36,3.2,3.2,0,0,0,.53.13,3.49,3.49,0,0,0,.37.09h0a3,3,0,0,0,.39-.21,2.94,2.94,0,0,0,.81.18,6,6,0,0,0,3.08-1,.39.39,0,0,0,.32-.1,4.46,4.46,0,0,0,.59.08,4.51,4.51,0,0,0,.8,0,3.68,3.68,0,0,0,.67-.14,4.15,4.15,0,0,1,1.47-.24,2.25,2.25,0,0,1,1,.31l.55.45.3.32a14.05,14.05,0,0,0,1.47,1.4l.16.12a5.08,5.08,0,0,0,.57.43,2.55,2.55,0,0,0,.66.21l.22,0,.19.26.66.29a3.62,3.62,0,0,1,.39.73,4.86,4.86,0,0,0,1.74,1.33l.56.31a8.72,8.72,0,0,0,3.85,1l.44,0a3.25,3.25,0,0,1,2.29.91,3.64,3.64,0,0,0,2.47,1.18c.11,0,.23,0,.34,0h0a4.22,4.22,0,0,0,1-.12,1.56,1.56,0,0,0,.64-.53,3.61,3.61,0,0,0-.25-3.22,4.12,4.12,0,0,0-.52-.7,7,7,0,0,0-1.86-1.33l-.38-.18-.53-1.32,0,0,.17-.12a.87.87,0,0,1,.71-.44c.29,0,.58.25.94.74a3.32,3.32,0,0,0,2.2,1.54A11.2,11.2,0,0,1,452.2,591a1.07,1.07,0,0,0,.31.12,5.26,5.26,0,0,1,.14,1,3.49,3.49,0,0,0-.86,1.8c.41,1.66,1.17,1.91,1.79,1.93a5.3,5.3,0,0,0,1-.1,6.72,6.72,0,0,1,.87-.11c.91-.4,1.06-1.42,1.21-2.39l0-.3c.18-.46.34-.7.46-.69s.24.27.35.52a1.5,1.5,0,0,0,.29.51,1.13,1.13,0,0,0,.19.16,2,2,0,0,0,1.81,1.7H460c.81-.05.9-.9,1-1.71,0-.26.05-.51.1-.77l-.1-.3c-.16-.47-.32-1-.77-1h0c-.35-1,.13-1.29.64-1.6a2.8,2.8,0,0,0,.49-.36l.23-.22c.87-.85,1.78-1.73.94-3.54ZM331.52,534.3a.37.37,0,0,1,0,.07l-.19-.35A1.2,1.2,0,0,1,331.52,534.3Z"/><path class="cls-5" d="M737.27,525.42c-.63-.25-.51-1.37-.41-2.43a20.91,20.91,0,0,0-.09-5.72,3.84,3.84,0,0,1,0-1.87,3.19,3.19,0,0,0-.13-2.2c-.81-.76-1.47-1.25-2.06-1.15a1.11,1.11,0,0,0-.19.09h0c-.63.27-1.2,1.2-1.9,2.74a4.69,4.69,0,0,1-2.66,2.56,2,2,0,0,0-1.25,1.41.94.94,0,0,0,.36,1.09c.57.27.85.6.81,1,0,.52-.71,1-1.23,1.44a5.81,5.81,0,0,0-2.41,6.4,7.28,7.28,0,0,1-2.23,6.18c-.69,2.19-.58,2.47,1.49,3.68a2.25,2.25,0,0,1,.54.18,1.53,1.53,0,0,0,.91.18,1.32,1.32,0,0,0,.51-.23l1.37-1.1a2.35,2.35,0,0,0,.3-.25c1.78-1.37,2.79-3.4,3.78-5.39l.31-.21a3.1,3.1,0,0,0,.35-.29l.14-.1a3.26,3.26,0,0,0,0,.46,1.34,1.34,0,0,1-.34,1.09,3,3,0,0,0-.79,1.85.84.84,0,0,0,.54.79,1,1,0,0,0,.61.08c.58-.11,1-.8,1.31-1.47a7.23,7.23,0,0,1,.5-.86,1.76,1.76,0,0,0,.57-.95,1.08,1.08,0,0,0-.39-.95c-.13,0-.19-.14-.17-.33-.15-.58-.36-.85-.66-.79h0a1.34,1.34,0,0,1,.78-.41l.69-.1a1.44,1.44,0,0,0,.86-.47l.38-.55a3.9,3.9,0,0,0,1-2.21C738.38,526.09,738,525.71,737.27,525.42Z"/><path class="cls-5" d="M444,509.82s0,0,0,0h0Z"/><path class="cls-5" d="M696.06,548.32c-.1-.78-.76-1.25-1.52-1.62a3.41,3.41,0,0,0-2-.24,4.88,4.88,0,0,0-.48.15l-.14,0a6.16,6.16,0,0,0-2.38,1.39l-.18.17a6.55,6.55,0,0,0-.61.69l-.07.1a6.11,6.11,0,0,0-.54.81c-1.29,2.55-2.75,3.87-4.59,4.17a5.07,5.07,0,0,1-.67.06l-.38,0a5.23,5.23,0,0,0-1.13.33,1.58,1.58,0,0,0-1,1.7c0,.57.34.85.81.77a1.27,1.27,0,0,0,.28-.08,3.94,3.94,0,0,1,.81-.25c.32-.05.53,0,.62.17s-.07,1-.28,1.54c-.09.25-.18.49-.23.69a7.57,7.57,0,0,1-.82,1.73c-.72,1.25-1.47,2.55-.3,4.11,0,.29-.55.75-.79,1l-2.38,2.2-.6.53c-1,.86-2.05,1.76-2,3.55a1.28,1.28,0,0,0,.62,0,3.42,3.42,0,0,0,1.51-.93,3.69,3.69,0,0,1,1.37-.89,5.54,5.54,0,0,0,4.74-3.87,2.3,2.3,0,0,1,.76-.8,2,2,0,0,0,.91-1.14l2.4-4.52c2.23-2.54,4-4.9,3.24-8.21a.64.64,0,0,1,0-.44c.12-.23.41-.35.77-.48a3.85,3.85,0,0,0,.63-.18,3.68,3.68,0,0,1,.62-.18,1,1,0,0,1,.79.16c.94-.22,2.1-.49,2.31-1.82a1.51,1.51,0,0,0,0-.31A1.31,1.31,0,0,0,696.06,548.32Z"/><path class="cls-5" d="M512,592.24a4.07,4.07,0,0,0-.12-1,2.46,2.46,0,0,0-1.35-1.56l-.62-.57a13.57,13.57,0,0,1,.42-3.66,2,2,0,0,1,.49-.72,1.4,1.4,0,0,0,.23-2c-.09-.24-.19-.49-.55-.49h-.22a4.06,4.06,0,0,0-2.44,1.29,6.18,6.18,0,0,1-1.6,1.11c-.25,0-.51.09-.87.17l-.16,0a.36.36,0,0,0-.29.16l-2.07-.56a1.77,1.77,0,0,0-1.28-.83c-.58,0-1.06.58-1.52,1.13a6.79,6.79,0,0,1-.74.81c-1.62-.42-1.94-2-2.28-3.6-.06-.28-.11-.56-.2-.86-.32-.14-.6-.22-.91-.32h0a8,8,0,0,0-1.68-.41l-.16,0c-.18,0-.38-.07-.55-.07a5.3,5.3,0,0,0-3.76,1.58,1.54,1.54,0,0,1-1.17.4c-.21,0-.43,0-.63,0l-.54,0c-.38,0-.77.07-.81.6-.24,2.9-1,3.38-2.49,3.37-.38,0-.81,0-1.29-.08l-.27,0c-1.45,0-3.91,1.72-5.48,3.86a7.93,7.93,0,0,0-1.32,4.4,13.64,13.64,0,0,1-.48,2.82c0,.9.16,2.47,1.35,2.88.44.15.88.32,1.32.49a12.31,12.31,0,0,0,4.15,1c.19,0,.36-.05.55-.07l.36,0a5.87,5.87,0,0,0,.73-.09c1.14-.3,2.26-.69,3.38-1.08a32.38,32.38,0,0,1,5.6-1.57l.95-1.17a6.93,6.93,0,0,1,1.51-.33,4.17,4.17,0,0,0,2.44-.94,3.16,3.16,0,0,0,.3-.34,2.44,2.44,0,0,0,.18-.2l.35.32.45.47c.62.65,1.25,1.32,2.05,1.32a1.57,1.57,0,0,0,.62-.13,13.8,13.8,0,0,1,3.84-.82,20.79,20.79,0,0,0,2.35-.36C509.59,596,511.69,595.49,512,592.24Z"/><path class="cls-5" d="M620.14,566.42l-.33-.21c-.65-1.13-1.42-1.63-2.35-1.53a5.49,5.49,0,0,0-2.69,1.41,6.43,6.43,0,0,1-3.23,1.65,3,3,0,0,1-2.49-1h0l-.06.07a.52.52,0,0,0-.06.1,7.64,7.64,0,0,1-2.18,3,5.26,5.26,0,0,0-1.66,4.51c0,.91.26,1.33.7,1.28a1.64,1.64,0,0,0,.78-.39,10.5,10.5,0,0,1,5.74-2.06c.54-.06,1.08-.09,1.62-.13l1.17-.1a1.07,1.07,0,0,0,.69.18c.54-.06,1-.61,1.33-1.14a3.7,3.7,0,0,1,2.65-2.14l.9-.77a2.83,2.83,0,0,0,.48-1.14v-.07a1.51,1.51,0,0,0,0-.29C621.12,567,620.62,566.73,620.14,566.42Z"/><path class="cls-5" d="M341.66,487.18a.7.7,0,0,0,.54.37c.46,0,1-.4,1.48-.76l.21-.16a1.12,1.12,0,0,0,.74-.32,1.07,1.07,0,0,1,.7-.31.92.92,0,0,1,.38.13c.4,1.65,1,2,1.47,2.08s1-.32,1.47-1a14.06,14.06,0,0,0,2.45-7.57A2.07,2.07,0,0,0,351,479l-.88-.74-.2-.19-.19-.14s0-.21,0-.22a1.91,1.91,0,0,0-1.29-1.44l-2.07-1.45a9.43,9.43,0,0,0-2.84-.71,6.65,6.65,0,0,0-2.6.31,12.28,12.28,0,0,0-.68,4,12.85,12.85,0,0,1-.68,4.1c-.41,1,.54,2.35,1.38,3.52C341.2,486.49,341.45,486.85,341.66,487.18Z"/><path class="cls-5" d="M291.62,422.77a2.12,2.12,0,0,0-.86-.37.63.63,0,0,0-.48.17,1,1,0,0,0-.29.77,1.39,1.39,0,0,0,.32.86c1,1,.5,1.67,0,2.41a4.86,4.86,0,0,0-.66,3,1.73,1.73,0,0,0,.49,1.61,4.81,4.81,0,0,1,.59,1,1,1,0,0,1,0,.1,3.92,3.92,0,0,0-.66-.11,2.41,2.41,0,0,0-.55.07l-.21,0a2,2,0,0,0-.45.16,1.83,1.83,0,0,0-.31.2,2.07,2.07,0,0,0-.45.47,2.59,2.59,0,0,0-.14.25,3.1,3.1,0,0,0-.3.84c0,.08,0,.15,0,.23a4,4,0,0,0-.09.51c0,1,.65,1.18,1.31,1.35a2.06,2.06,0,0,1,1.23.64.68.68,0,0,0,.25.18,4.9,4.9,0,0,1,.66.47,2.42,2.42,0,0,0,1.16.64,1,1,0,0,0,.81-.39l.23-.25a2.62,2.62,0,0,0,.74-3.24,2.09,2.09,0,0,1-.2-1.66c.15-.27.47-.39,1-.35a4.38,4.38,0,0,1,1,.23,5.72,5.72,0,0,1,1.17.61,4,4,0,0,0,1.73.73,1,1,0,0,0,.41,0,4.62,4.62,0,0,0-.62-2.84,2,2,0,0,0-.34-.28l-.11-.09a2.64,2.64,0,0,0-1.17-.48c-1.13-.39-1.34-1.39-1.6-2.58A7.06,7.06,0,0,0,291.62,422.77Z"/><path class="cls-5" d="M650.75,396.27h0c4.26-.2,6.91-3.25,7.28-8.37a6.53,6.53,0,0,0-1.17-4.28,1.53,1.53,0,0,0-1.17-.67,1,1,0,0,0-.4.1,11.5,11.5,0,0,0-5.36,6.26,8.66,8.66,0,0,0,0,6.34C650.09,396,650.29,396.29,650.75,396.27Z"/><path class="cls-5" d="M635,455.29a.75.75,0,0,0-.77.54,4,4,0,0,0-.2,4l.09.91c.36.89.75,1.76,1.41,2l.06,0a.85.85,0,0,0,.25.06,2.36,2.36,0,0,0,1.32-.7,4.64,4.64,0,0,1,2.52-.84c.39,0,.78,0,1.17,0s.78,0,1.17,0a5.47,5.47,0,0,0,1.24-.21l.21,0a3.15,3.15,0,0,1,.7.07,3,3,0,0,0,.73.08c.54,0,.84-.42,1-1.19,0-.21,0-.37,0-.56s0-.22,0-.34a5.49,5.49,0,0,0,0-.94,3.34,3.34,0,0,0-.14-.63,2.63,2.63,0,0,0-.2-.45,2.19,2.19,0,0,0-.26-.34,2.16,2.16,0,0,0-.51-.44l-.23-.11a2.53,2.53,0,0,0-.44-.22,5.47,5.47,0,0,1-2.83-1.7,1.64,1.64,0,0,0-1-1l-.26,0-.26-.6-.65-.54-.21-.68a2.29,2.29,0,0,0-1.68-1,2,2,0,0,0-1.34.81,1.9,1.9,0,0,0-.12.33l-.07.17a1.89,1.89,0,0,0-.1.27l-.48.54a1.52,1.52,0,0,0,.05,1.71,1.85,1.85,0,0,1,.29,1.12l-.31,0Z"/><path class="cls-5" d="M680.58,434.79l.3,0a1.08,1.08,0,0,0,.29-.13h0a2,2,0,0,1-.28,1,1.76,1.76,0,0,0-.25,1.22l.86.87.53.57a3.48,3.48,0,0,0,1.39.18,7.87,7.87,0,0,0,3.89-2l.64-.52a.92.92,0,0,0,.67.35,6.25,6.25,0,0,0,1.74-.48l.51-.19a4.15,4.15,0,0,1,1.18-.36,2.67,2.67,0,0,0,2.08-1.22,1.57,1.57,0,0,0,.09-.39l.19-.13a2.37,2.37,0,0,0,1.3-1.75l-1-1.24-.58-1-2.1-1.62a2.06,2.06,0,0,1-.73.19,3.68,3.68,0,0,1-1.52-.33,3.72,3.72,0,0,0-1.54-.34l-.2,0a7,7,0,0,0-1.47-.05,16.7,16.7,0,0,0-5,1.41c-.87.35-1.78.71-2.66,1A2,2,0,0,0,677.6,431a3,3,0,0,0,3,3.77Z"/><path class="cls-5" d="M280.56,409.45l.24.18c1.69,1.23,3.44,2.51,4.26,4.78a0,0,0,0,0,0,0h0A2.65,2.65,0,0,0,287.9,412s0-.08,0-.13a4.46,4.46,0,0,1,.78.74,1.85,1.85,0,0,0,1.21.81c.34,0,.66.08.94.1,2.21.13,2.51-.85,2.43-4.58a5.18,5.18,0,0,0-1.76-1.83,3.88,3.88,0,0,0-2.7-1.11c-.32,0-.64,0-1,0s-.64,0-1,0l-.43,0a3.15,3.15,0,0,1-.49,0,8.6,8.6,0,0,1-1.08-.16,9.14,9.14,0,0,0-1.09-.15,2.07,2.07,0,0,0-2,.88c-.16.55-.58.57-1,.59s-.85,0-1,.52a1.32,1.32,0,0,0-.08,1A1.76,1.76,0,0,0,280.56,409.45Z"/><path class="cls-5" d="M668.32,461.7a1.36,1.36,0,0,0,.26.6h0a1.65,1.65,0,0,0,.27.33,20,20,0,0,0,4,2.71,2.69,2.69,0,0,0,1.38.18c2-.17,4.76-1.69,5-3.06.37-1.91.63-3.89-.57-5.37a3.44,3.44,0,0,1-.4-.31,1.9,1.9,0,0,0-.75-.42h0a.75.75,0,0,0-.23-.06,1.26,1.26,0,0,0-.68.32,6.88,6.88,0,0,1-3.52,1.6l-.71,0a5.52,5.52,0,0,0-3.18,1.57,2.44,2.44,0,0,0-.92,1.58,1.35,1.35,0,0,0,0,.21S668.31,461.67,668.32,461.7Z"/><path class="cls-5" d="M631.2,445.34c0,.05,0,.06.3.18l.16.07c1.23.81,1.9,1.25,2.3,1.23s.52-.49.59-1.42c0-.22,0-.48.08-.76.5,1.87,1.94,2.15,3.35,2.41a11,11,0,0,1,1.39.32.76.76,0,0,0,.34-.14,1.29,1.29,0,0,0,.43.18,2.22,2.22,0,0,0,.57,0c.68,0,1.16-.47,1.44-1.31l.64-1.07a4.67,4.67,0,0,0,.82-.56,2.51,2.51,0,0,1,1.26-.67,1.18,1.18,0,0,1,.91.42,1.35,1.35,0,0,0,.76.55,1.27,1.27,0,0,1,1,1.1c0,.11.08.15.11.24a.89.89,0,0,0,.09.18.64.64,0,0,0,.27.22.78.78,0,0,0,.21.06c.07,0,.11.06.19.05a4.14,4.14,0,0,0,.73-.14,4.28,4.28,0,0,1,.64-.13,1.08,1.08,0,0,0,1-1,1.35,1.35,0,0,0-.79-1.51l-.3-.21-1.4-1.07-3.79-8.26a3.51,3.51,0,0,0-.48-2.12c-.11-.24-.23-.49-.32-.74a1.51,1.51,0,0,0-.1-.3l0-.91A7.65,7.65,0,0,0,644.9,426c.06-.65.12-1.32.22-1.93a4.46,4.46,0,0,1,.48-.05h.13a6.54,6.54,0,0,1,1.91.27,40.15,40.15,0,0,0,4.77.87l1.92.28,1.12.83a2.62,2.62,0,0,0,1.25.26,1.92,1.92,0,0,1,1.58.57,1,1,0,0,0,.71.45.53.53,0,0,0,.4-.26,1,1,0,0,0,0-1.06,2,2,0,0,1-.21-.58l-3-2.29c0-.21,0-.42,0-.63a3,3,0,0,0-.35-1.79,1.43,1.43,0,0,0-.12-1.17,1.57,1.57,0,0,0-1.37-.58l-.27,0a3.15,3.15,0,0,1-1.86-.67,4.83,4.83,0,0,0-1.08-.56c-.61-.2-1.15-.45-1-1.32s.75-1.08,1.35-1.35c5.88-2.68,6.07-3.27,6.63-10.23.13-1.62,0-2.52-.38-3a1.25,1.25,0,0,0-1.1-.42,4.59,4.59,0,0,0-1.43.35,12.44,12.44,0,0,0-7.91,5.77,2,2,0,0,0-.36,1.25.5.5,0,0,0,.13.24l0,0a3.17,3.17,0,0,0-.5.22,5.5,5.5,0,0,0-.66.61l-.13.11.07-.13c.09-.15.18-.3.27-.44s.16-.32.24-.48a3.61,3.61,0,0,0,.49-1.37c1.46-2.88,1.53-6.21.17-8.29s-.77-3,.46-4.66c.55-.72,1.38-1.82.61-2.8a1.39,1.39,0,0,0-1.19-.57,2.91,2.91,0,0,0-1.58.66,15.6,15.6,0,0,0-5,6,5.8,5.8,0,0,0-1,2.41,7.08,7.08,0,0,1-.76,2l-.82,4.52c-2.31,3.1-2.36,4.33-.27,6.89,1,1.25,1.14,2.74.38,4.71a6.84,6.84,0,0,0-.27,3.21l0,.44a5.81,5.81,0,0,1,.14.8,2.88,2.88,0,0,0,.5,1.54l.48.65.42,2.9.27,2.94a4.18,4.18,0,0,0-1.53,2.6,8.15,8.15,0,0,1-.54,1.48,1.54,1.54,0,0,0-.12.28,1.82,1.82,0,0,1-.35.05,3.15,3.15,0,0,1-1.79-.69,3.19,3.19,0,0,0-1.83-.7,1.87,1.87,0,0,0-.49.09,3.8,3.8,0,0,0-2.17,3.07,10.77,10.77,0,0,0,.43,3.41A8.54,8.54,0,0,1,631.2,445.34ZM643.4,413a3.81,3.81,0,0,0,.77-.67,4.24,4.24,0,0,0-.27,1.09,1.71,1.71,0,0,0-.58.44,1.29,1.29,0,0,1-.75.47h-.24A2.18,2.18,0,0,1,643.4,413Zm1.3-1.64c-.08.12-.16.23-.23.35a1.57,1.57,0,0,0,0-.24A.39.39,0,0,0,644.7,411.31Z"/><path class="cls-5" d="M763.2,447.18a5.81,5.81,0,0,0-1.46.36,28,28,0,0,0-3,0,25.53,25.53,0,0,1-3.38,0l-.54-.07c-.25,0-.5-.06-.74-.12-.77.94-1.09,1.64-1,2.14s.68.84,1.74,1a8.68,8.68,0,0,0,1.77,0c1.16-.1,2.36-.2,3.26.61a12.4,12.4,0,0,0,5.54,1.51l.83.1a5.93,5.93,0,0,0,1.49,0,4.66,4.66,0,0,0,2.94-1.58l2.63-.73.42,0a3,3,0,0,0,1.23-.42c.42-.4.62-.68.61-.89,0-.06-.06-.08-.08-.13h0a.88.88,0,0,0-.45-.27c-.25-.08-.51-.16-.51-.39a1.18,1.18,0,0,0-1.2-.42c-.19,0-.39.07-.58.11a7,7,0,0,1-.72.13l-.72-.47-.75-.47a6,6,0,0,1-1.36.33,11.63,11.63,0,0,1-2.95-.13A11.87,11.87,0,0,0,763.2,447.18Z"/><path class="cls-5" d="M608.85,463.56l-2.64-.56a3.78,3.78,0,0,1-2-.69,3.86,3.86,0,0,0-2-.7,1.75,1.75,0,0,0-1,.34l-.07,0a3.41,3.41,0,0,0,0-.58,27,27,0,0,0-8.24-1.17,16.89,16.89,0,0,0-1.73.16,2.56,2.56,0,0,0-2.22,1.65,9.6,9.6,0,0,1-.64,2.52,6.86,6.86,0,0,0-.57,3.69,1.74,1.74,0,0,0,1.5,1.89c.07.2.15.3.26.3s.07-.06.11-.08h0s.1,0,.14-.11H590a8.69,8.69,0,0,0,3.76-1.43,10.22,10.22,0,0,1,3.28-1.39l1.16,1.08a.68.68,0,0,0,.52.3.74.74,0,0,0,.53-.4,3.19,3.19,0,0,1,2.22-1.1,2.48,2.48,0,0,1,.68.06,14.73,14.73,0,0,0,4.13.4,11.61,11.61,0,0,0,4.14-1l.27-.09a8,8,0,0,0,.76,6.4l.17.33a2.8,2.8,0,0,1,.47,1.78l.91,1.38a1.54,1.54,0,0,0,.81.28c.3,0,.55-.23.75-.65a3,3,0,0,0,.27-3.4c-1-2.12-1.21-3.25-.92-4.17s1.36-1.75,2.94-2.61a4.29,4.29,0,0,0,.64-.46,5.72,5.72,0,0,1,.52-.39,1.44,1.44,0,0,0,.82-1.15,1,1,0,0,0-.76-.87l-.45-.14a14.11,14.11,0,0,0-5-1A6.46,6.46,0,0,0,608.85,463.56Z"/><path class="cls-5" d="M341,363.72c.28.18.53.34.37.81a2.06,2.06,0,0,0-.68,1.82c.21.74,1.17,1.14,1.87,1.37a2.18,2.18,0,0,0,.65.11h0a4.46,4.46,0,0,0,2.16-.72,3.64,3.64,0,0,0,1.57-2.43,4.11,4.11,0,0,0-.2-3.76l-2.38-3.11c-.48-1.23-1-1.83-1.5-1.83s-1.16.72-1.7,1.43l-.21.27c-1.38,1-2,1.86-2,2.73s.5,1.78,1.75,3.08A1.6,1.6,0,0,0,341,363.72Z"/><path class="cls-5" d="M626.05,361.41l0,.11a2,2,0,0,0,.1.36,4.81,4.81,0,0,1,.34,1.27c.15.84.34,1.66,1,1.94h0a1.07,1.07,0,0,0,.47.12,2.73,2.73,0,0,0,1-.26c.17-.27.37-.52.56-.77a3.85,3.85,0,0,0,1.12-3.05,4.87,4.87,0,0,1,.86-2.64c.18-.33.36-.65.52-1a5.59,5.59,0,0,0,.24-4.37,4.11,4.11,0,0,0-3.09-2.5,1.77,1.77,0,0,0-.94.91,1.29,1.29,0,0,0,.13,1q0,1.84,0,3.68a.77.77,0,0,0,.25.71,2.28,2.28,0,0,1-.14,1.61,1.46,1.46,0,0,1-1,.71,2,2,0,0,0-1.48,1.12,1.53,1.53,0,0,0,0,.28c0,.05,0,.1,0,.16A1.75,1.75,0,0,0,626.05,361.41Z"/><path class="cls-5" d="M578.08,457.39a3.29,3.29,0,0,0-1.51-2.63c-.49-.22-1-.47-1.47-.72a10.1,10.1,0,0,0-4.75-1.52,5.3,5.3,0,0,0-2.57.78,1.79,1.79,0,0,0-.28.66,1.64,1.64,0,0,0-1.16,1.12,8,8,0,0,1-.64,1.58c-.55,1.12-1.12,2.27-.44,3.71s1.43,2.19,2.3,2.16a2.47,2.47,0,0,0,1.29-.49,1.4,1.4,0,0,1,.7-.3c.26,0,.47.15.75.57.46.69.87,1,1.25,1s.93-.61,1.35-1.87l.46-.6a3.82,3.82,0,0,0,.53,0,4,4,0,0,0,2.2-.77C577.36,459.16,578,458.29,578.08,457.39Z"/><path class="cls-5" d="M613.32,486.48c-.61,0-1.22.8-1.4,1.73-.95,2.13-.83,3.57.38,4.65,2.17,4.07,5.92,5.82,9.25,7.12a1.82,1.82,0,0,0,.8.12c1.1-.08,2.29-1.07,3.45-2a18.36,18.36,0,0,1,1.9-1.44c1.53-.13,2.87-.38,3.8-2.13a7.6,7.6,0,0,0,.08-4.36,13,13,0,0,1-2.39-2.33,9.41,9.41,0,0,0-3.51-2.92.34.34,0,0,0-.26-.12c-.07,0-.14,0-.19,0h0a2,2,0,0,0-1.84-1.11,2.4,2.4,0,0,0-.78.2c-1,.29-2.09.68-3.11,1.05a20.15,20.15,0,0,1-5.61,1.49Z"/><path class="cls-5" d="M715.89,515.88l0-.11a3.45,3.45,0,0,0,.12-.87c0-.07,0-.14,0-.2a4,4,0,0,0-.15-.89l0-.1a4.6,4.6,0,0,0-.14-.5,2,2,0,0,0-1.45-.48c-.63.09-1.15.65-1.6,1.69a2.77,2.77,0,0,0-.17.9c0,.63-.11,1.23-1,1.55,0,0,0,0,0,0h0l0,0-.09,0-.07-.06,0,0-.07,0,.12.15,0,0h0a.52.52,0,0,1-.15.43,12.11,12.11,0,0,0-.41,1.21,6.85,6.85,0,0,1-.84,2,13.16,13.16,0,0,1-1.23.93l0,0-.1-.4a3.2,3.2,0,0,0-.71-1.55l-.06,0a1.15,1.15,0,0,0-.6-.24h-.18a1.34,1.34,0,0,0-.28,0l-.08.06h-.13l0,.12,0,0-.05.25a2.46,2.46,0,0,0-1,1.59l-.15.5.8,1.7v.48a2.8,2.8,0,0,0,.45,2l.08.08a1.16,1.16,0,0,0,.2.18.89.89,0,0,0,.08.55l.51,0,.52-.25.79-.14a1.17,1.17,0,0,0,.24.23,1.27,1.27,0,0,0,.4,0,1.25,1.25,0,0,0,.38-.19l.11-.06a1.75,1.75,0,0,0,.31-.29l.11-.14a2.46,2.46,0,0,0,.27-.36,5.39,5.39,0,0,0,.67-2.44c.37-.58.73-1.16,1.09-1.74.81-1.32,1.66-2.68,2.59-3.91a6.31,6.31,0,0,0,.37-.6h0A4.65,4.65,0,0,0,715.89,515.88Z"/><path class="cls-5" d="M613.55,372.51a2.12,2.12,0,0,0,.28.28l.13.13a1.59,1.59,0,0,0,.51.32l.23.06a1.34,1.34,0,0,0,.27.07,2.41,2.41,0,0,0,1.41-.6c.95-.75,1.11-1.82.5-3.29-.19-.29-.41-.56-.62-.84a6.46,6.46,0,0,1-1.17-1.93c-.39-1.22-.93-1.82-1.66-1.81a3.43,3.43,0,0,0-1.87.9,3.4,3.4,0,0,0,0,3.14Z"/><path class="cls-5" d="M553.84,438.22a3.72,3.72,0,0,0-1.79.7l-.37.1a10,10,0,0,0-3.42,3.91,2.37,2.37,0,0,0-.19.88l.19.37.52.59h0l1.44-.55c1.07-.41,2.15-.81,3.19-1.3,1.3-.61,2.13-1.12,2.27-1.82s-.43-1.59-1.5-2.86A1.78,1.78,0,0,0,553.84,438.22Z"/><path class="cls-5" d="M454.9,562.22l.14,0a3.56,3.56,0,0,1,1.94-.56c1-.09,1.94-.18,2.52-1.41.14-.31-.22-1.09-.43-1.46a2.81,2.81,0,0,0-2.65-1.47H456l-.32,0c-.82.08-1.93.2-2.08,1.87a4.8,4.8,0,0,0,.8,2.63C454.58,562.07,454.75,562.21,454.9,562.22Z"/><path class="cls-5" d="M639.71,574.41c0-.09-.06-.2-.09-.32-.07-.29-.14-.58-.29-.61a7.16,7.16,0,0,1-1.59-.58,4.7,4.7,0,0,0-2.56-.62,2.86,2.86,0,0,0-.54.12,1.55,1.55,0,0,0-1,.81,1.66,1.66,0,0,0,.08,1.29,3.58,3.58,0,0,0,2.61,2,8.75,8.75,0,0,1,1.11.42l.13,0a3.69,3.69,0,0,0,1.86-1.85c.05-.1.1-.21.14-.32A3.44,3.44,0,0,0,639.71,574.41Z"/><path class="cls-5" d="M745.18,442.69a.75.75,0,0,0,.81.35l.34-.06.34-.06a1,1,0,0,1,.41,0h0a1.6,1.6,0,0,0,1-.75,4.47,4.47,0,0,1,.33-.38,2.67,2.67,0,0,0,.71-1.81c-.07-.59-.51-1.06-1.4-1.47a2.48,2.48,0,0,0-1.29-.26c-.91.09-1.62.82-2.12,2.16A1.62,1.62,0,0,0,745.18,442.69Z"/><path class="cls-5" d="M753.9,435.38l.18.17.15.24a1,1,0,0,0,.59.55h0a.83.83,0,0,0,.28,0h.09c0,.64.44.69.9.72.1.58.55.7,1,.81s.82.22.93.72a1.12,1.12,0,0,0,.51.8c.64,1.45,1.88,1.74,3.19,2a11.92,11.92,0,0,1,1.33.37,4.49,4.49,0,0,0,2.07.29c1.29-.15,2.47-1,3.7-2.62.08-1.09-.57-1.59-1.3-2.17a1,1,0,0,0-.49-.1c-.24,0-.42.2-.55.53a1.2,1.2,0,0,1-.61.4c-.32,0-.42-.41-.45-.78a5.1,5.1,0,0,0-.88-2.33l-.33-.57a.75.75,0,0,0-.51-.35l-.18,0-.26-.4-.5-.73-1,0-1.54.16a4.4,4.4,0,0,0-2.31-.43,4.41,4.41,0,0,1-2-.33,2.21,2.21,0,0,0-1.24-.32c-.66.06-1.16.58-1.68,1.75A2.35,2.35,0,0,0,753.9,435.38Z"/><path class="cls-5" d="M418.34,534.56a3.7,3.7,0,0,0-2.57-1.71,2.56,2.56,0,0,0-1.61.51,4.49,4.49,0,0,0,.59,1.34,3.07,3.07,0,0,1,.49,2.76,1,1,0,0,0,0,.8c.28.55,1.17.66,1.81.74h.15a1.18,1.18,0,0,0,.9-.3l0,0s.12-.07.15-.13a1.45,1.45,0,0,0,0-1.14,3.62,3.62,0,0,1,0-1.55A3.75,3.75,0,0,0,418.34,534.56Z"/><path class="cls-5" d="M649.06,553a3.64,3.64,0,0,1-.52-.38,1.21,1.21,0,0,0-2.06.07,3.45,3.45,0,0,0-1.08,3c.24,1.1.82,1.71,1.66,1.7h.18c.78-.1,1-.82,1.26-1.52a3.33,3.33,0,0,1,.53-1.11,1.71,1.71,0,0,0,.45-1A.94.94,0,0,0,649.06,553Z"/><path class="cls-5" d="M306.42,380.24h.23a2,2,0,0,0,.35-.13l.12,0a2.19,2.19,0,0,0,.65-.4l.06-.06a2.43,2.43,0,0,0,.47-.6l.09-.17a2.42,2.42,0,0,0,.2-.67c0-.08,0-.16,0-.23a2.22,2.22,0,0,0,0-.36,2.29,2.29,0,0,0-.14-.46h0a4.07,4.07,0,0,0-2.52-2.22c-1.17.64-1.19,2-1.1,3C304.94,378.56,305.21,380.2,306.42,380.24Z"/><path class="cls-5" d="M666.63,432.66c.42.37.84.74,1.22,1.15a.62.62,0,0,0,.48.23.72.72,0,0,0,.49-.29c.44-.51.2-.91-.07-1.35a21.36,21.36,0,0,0-4-4.63l-.93.08h-.15C663.91,430.23,665.29,431.47,666.63,432.66Z"/><path class="cls-5" d="M651.18,571.33a4.69,4.69,0,0,0-.67,0,2.82,2.82,0,0,0-2.23,1.67,1.23,1.23,0,0,0-.19.8c0,.08.08.12.13.18l0,0a1.28,1.28,0,0,0,.53.33l.15.05a2.43,2.43,0,0,0,2,.74h0a2.64,2.64,0,0,0,1.94-2.34C652.91,571.73,652,571.34,651.18,571.33Z"/><path class="cls-5" d="M357.77,461.43a1.12,1.12,0,0,0,.31,0c.88-.2,2.53-.57,2.45-2.13-.07-1.3-1-1.35-1.68-1.4a2.6,2.6,0,0,1-.69-.1,4.64,4.64,0,0,0-.57-.07,1.12,1.12,0,0,0-1.07.35,1.69,1.69,0,0,0-.13,1.27C356.64,460.66,357.11,461.39,357.77,461.43Z"/><path class="cls-5" d="M533.93,566.91a.44.44,0,0,0,.09.09s.06.11.14.13a5.67,5.67,0,0,1,1.2.64,3.54,3.54,0,0,0,1.93.76,1.91,1.91,0,0,0,1.13-.45,5.76,5.76,0,0,0,0-.59c0-.07,0-.14,0-.21a3.89,3.89,0,0,0-.13-.82,2.2,2.2,0,0,0-.18-.46c0-.05,0-.13-.07-.18a2.39,2.39,0,0,0-2.08-.67,4.91,4.91,0,0,1-1.49-.17l-.17.36a2.55,2.55,0,0,0-.41,1.48S533.91,566.87,533.93,566.91Z"/><path class="cls-5" d="M574.5,529.64a4.24,4.24,0,0,0,1.79.53.9.9,0,0,0,.74-.56l0-.08a7.77,7.77,0,0,0,.45-2.56,2.17,2.17,0,0,0-1.64-.7,2.57,2.57,0,0,0-1.65.84c-.63.64-.29,1.35,0,2C574.34,529.27,574.42,529.44,574.5,529.64Z"/><path class="cls-5" d="M506.73,481.13a6.34,6.34,0,0,1-.8.93,3.13,3.13,0,0,0-1.21,2.94,1.35,1.35,0,0,0,.55,1.18,1.74,1.74,0,0,1,.53.74l.22,0,.2,0a4.38,4.38,0,0,1-.25,2.87,4.46,4.46,0,0,0-.26,2.9c0,.26,0,.51,0,.77a4.59,4.59,0,0,0,.45,2.69c0,.44,0,.89.39,1.11.53,1.28,1.1,2.12,2.2,2.11a3.71,3.71,0,0,0,1.45-.38l.82-.39a7.82,7.82,0,0,1,3.23-1,4.86,4.86,0,0,1,.81.07c.06.15.14.31.21.48a1.53,1.53,0,0,1,.26.89c-.9,3,.22,5.12,1.55,7a3.34,3.34,0,0,1,.42,1.79,7.45,7.45,0,0,0,.08.9c.54,3.18-.28,6.15-1.07,9a27.78,27.78,0,0,0-1.21,6.52s0,0,0,.06c0,.35,0,.69,0,1s-.37.73-.58,1c-1.6,1.78-1.57,4.07-1.37,5.86s.78,2.85,2,3.34a6.67,6.67,0,0,0,.66.46,3.18,3.18,0,0,1,1.43,1.49,2,2,0,0,0,1.79,1.33,3,3,0,0,0,2.39-1.83,12.47,12.47,0,0,0,2.49-.51,11.61,11.61,0,0,1,2.72-.52,4.13,4.13,0,0,1,3,1.12.65.65,0,0,0,.45.18,1,1,0,0,0,.86-.83c.19-.67-.21-1-.57-1.28l-.19-.12a1.33,1.33,0,0,0-.34-1.27,2.45,2.45,0,0,1-.3-.47,19.68,19.68,0,0,0-.49-4.21,13.34,13.34,0,0,1-.17-6.32h0a7.91,7.91,0,0,1,.33-.93c.95-2.24,1.93-4.56.6-7.05v-.54a7,7,0,0,0-.4-2.77c.11-1,.15-2.07.18-3.08a18.08,18.08,0,0,1,1-6.38,1.51,1.51,0,0,0,.07-1.16c0-.05,0-.1,0-.15h0s0,0,0,0l-.13.06q0-3.1.05-6.21a1.07,1.07,0,0,0,.38-.72,2.49,2.49,0,0,1,0-.5c0-.44,0-.93-.51-.92h0a2.61,2.61,0,0,0-.51-1.68,3.66,3.66,0,0,1-.69-2.5,3.49,3.49,0,0,1,1.45-2.19,5.55,5.55,0,0,0,1.18-1.29,2.29,2.29,0,0,1,.29-.45l0-.06a3.54,3.54,0,0,1,1.26-.83,4.07,4.07,0,0,0,1-.6c.22,0,.45,0,.68,0l1.23,0a3.93,3.93,0,0,1,2.69.73l.09,4.1a3.8,3.8,0,0,1-1,3.08,5.65,5.65,0,0,0-1.19,3.1,7.77,7.77,0,0,0-.75,3.42c0,.08,0,.15,0,.23a3.49,3.49,0,0,0,.23,1,2.57,2.57,0,0,0,.12.25,3.1,3.1,0,0,0,.22.44,39.41,39.41,0,0,0,8.19,8.27.75.75,0,0,0,.72.46,1.15,1.15,0,0,1,.43.12,1,1,0,0,1,.67.7,1.56,1.56,0,0,1-.37,1.14,3.77,3.77,0,0,0-.52,2.65,6.81,6.81,0,0,0-.83,5.94,3,3,0,0,0,.18.57c1.36,3.18,3.88,3.62,6.15,3.62a2.15,2.15,0,0,0,1.29.41,3.82,3.82,0,0,0,2.42-1.57,2.25,2.25,0,0,0-.26-2.21.44.44,0,0,1-.34-.27,5.52,5.52,0,0,1,0-1.71,3.67,3.67,0,0,0,.45-.69c0-.11.08-.19.1-.25a2.49,2.49,0,0,1,.6-.19,1.81,1.81,0,0,0,.85-.35l0,0h0l.19.06a2.38,2.38,0,0,0,.72-.14,7.4,7.4,0,0,0,1.36-.68l.23-.13,0,0,.06,0a.93.93,0,0,0,.51.13,1.06,1.06,0,0,0,.68-.3,2.71,2.71,0,0,0,1,1,5.2,5.2,0,0,0,.77.42l.39.16.28.15a2.34,2.34,0,0,0-.4,0c-1.21.05-2.22,1-3.2,2-.27.27-.54.53-.8.77a3.29,3.29,0,0,0-.48.27,1,1,0,0,0-.31.42l-.47.6-.48.65a8.54,8.54,0,0,1,.23,5.25,4.78,4.78,0,0,1-.88,1.2c-.55,3.27-.14,4.09,2.29,4.58l.43.06c.52.05,1,.1,1.26.83l.12.46a6.27,6.27,0,0,1,.22,1,5.86,5.86,0,0,0,.13.59c0,.1,0,.19.07.29a3.77,3.77,0,0,0,.29.77,2.65,2.65,0,0,0,.24.38,2.11,2.11,0,0,0,.38.38,2,2,0,0,0,.4.24,2.58,2.58,0,0,0,.77.2l.23,0a3.23,3.23,0,0,0,.38,0l.23,0c1.78-.17,2.65-1.28,2.9-3.71a9.1,9.1,0,0,1,.31-1.43,3.38,3.38,0,0,0,.13-.62l.27,0,.18-.17a1.2,1.2,0,0,0,.61.14c.58,0,1.07-.56,1.49-1,.92-.37,2.32-.92,2.07-2.67a2.72,2.72,0,0,0-1.11-2h0a1.77,1.77,0,0,0-1-.3,1.52,1.52,0,0,0-.29,0c-1.11-.72-1.26-1.72-.51-3.34.08-.17.15-.34.22-.5.25-.61.44-1.09.94-1.11a1.75,1.75,0,0,1,.88.27.77.77,0,0,0,.42.11.7.7,0,0,0,.27-.12h0a1.13,1.13,0,0,0,.52-.58,2,2,0,0,0,.06-.29s0-.09,0-.14a1.74,1.74,0,0,0,0-.62,1.53,1.53,0,0,0,0-.18,1.3,1.3,0,0,0-.07-.27,8.59,8.59,0,0,1-.82-2.94c-.34-2.12-.69-4.31-3.43-4.3a.35.35,0,0,1-.18-.06.36.36,0,0,1-.09,0,1.42,1.42,0,0,1-.21-.87,1.86,1.86,0,0,0-.15-.79c.23-.28.39-.41.54-.41s.29.13.42.44a2.8,2.8,0,0,0,1.92.94,2.33,2.33,0,0,0,1.74-1.26,7.43,7.43,0,0,0,.67-3.38c-.07-1-.28-2.16-.87-2.14a.56.56,0,0,0-.22.06,4.26,4.26,0,0,1-1.54.32,3,3,0,0,0-2.21.87l-.08.11a2.55,2.55,0,0,0-.34.49l-1.52-.33a.52.52,0,0,0-.4-.17,1.74,1.74,0,0,0-.79.37,1.27,1.27,0,0,1-.52.27c-.07,0-.18,0-.23-.29a5.93,5.93,0,0,0-.24-.75l0-.07a10.75,10.75,0,0,0-2.5-3.64c-1.6-1.72-3.25-3.5-2.76-6.83a7.54,7.54,0,0,1,1.12-.9,4.94,4.94,0,0,0,1.6-1.63l0-.05a3.14,3.14,0,0,0,.23-.62s0-.07,0-.1a3.5,3.5,0,0,0,.13-.74c.11-.9-.39-1.15-1-1.35l-1.47-1.3a4.09,4.09,0,0,0,0-.72s0-.07,0-.1a6.17,6.17,0,0,0-1.37-3.14c-.22-.31-.44-.62-.65-1a4.71,4.71,0,0,1-.58-.57l-.08-.09a12.36,12.36,0,0,1-1.41-2.32,16.06,16.06,0,0,0-1.09-1.9l-2.94-5.06a4,4,0,0,0-.51-.46,3.3,3.3,0,0,1-.92-1,2.77,2.77,0,0,1-.24-.62c1.47-.46,2.2-1.83,2.9-3.16a9.92,9.92,0,0,1,1.54-2.34l.49-.18h.39a3.92,3.92,0,0,0,2.84-1.28,7.11,7.11,0,0,1,.57-.72l.09-.1a14.36,14.36,0,0,1,2.16-1.82,18.41,18.41,0,0,0,1.93-1.56c.92,0,1.29-.85,1.59-1.71,0-.2,0-.39,0-.54a7.59,7.59,0,0,0,2.27-3.92,3.59,3.59,0,0,0,1.1-1.64,1.35,1.35,0,0,0,.34-.05,15.66,15.66,0,0,1,1.49-.75l.86-.41.51-.09.46.17a3.43,3.43,0,0,1,1.84,1.19,1.93,1.93,0,0,0,1.64.88,2.16,2.16,0,0,0,.35-.09l.23-.06a2.73,2.73,0,0,0,.66-.32,3.71,3.71,0,0,0,.38-.28c.09-.07.18-.11.26-.2a5.07,5.07,0,0,1,.41-1.89,4,4,0,0,0,.32-2.53c.39-2.3-.19-3.48-2.14-4.32a5.67,5.67,0,0,0-2.48-.48,12.82,12.82,0,0,0-4.1,1.06,19.22,19.22,0,0,1-3,.94l-1.32,1.8a.39.39,0,0,0-.3.15l-1.48,0-2.46,0-1.31,0h-.52a1.07,1.07,0,0,0-.87.33,1.54,1.54,0,0,0-.25,1l0,.31,0,.29a5.89,5.89,0,0,1-3.67,1.87c-1.3,0-2.5-.74-3.69-2.37l-.53-.07a1.37,1.37,0,0,0-.65-.19c-.43,0-.72.37-.85,1l-.78.67-.6.07a4.54,4.54,0,0,0-2.38,4.1,2.11,2.11,0,0,0,.1.63,9.44,9.44,0,0,1-.82.91,4.21,4.21,0,0,0-1.5,2.52,4,4,0,0,0-.38.62,2.4,2.4,0,0,0-.15.62,4.92,4.92,0,0,1-1.13.16,5.21,5.21,0,0,1-1.25-.14,1.42,1.42,0,0,0-.39-.58.89.89,0,0,0-.39-.07H537l-.36-.13c-1.26-.46-2.46-.89-2.77-2.77a5,5,0,0,0-.44-.88,3.13,3.13,0,0,1-.58-1.69,1.29,1.29,0,0,1-.16-.64,1.32,1.32,0,0,0-.2-.71.46.46,0,0,0-.3-.12.43.43,0,0,0-.15,0l.08-.12a2,2,0,0,0-.22-1.41,3.84,3.84,0,0,0-1.75-1.06,3,3,0,0,1-2.32-2.29c-1.33-5.68-2.11-12.28,2.41-18.06a3.58,3.58,0,0,1,3.14-1.66,13.08,13.08,0,0,1,1.51.1c.42,0,.84.09,1.37.1a1.05,1.05,0,0,0,.47-.13c.05,0,.1,0,.15,0l.08-.09a1.57,1.57,0,0,0,1.72,1.12l.48,0a2,2,0,0,0,.4-.3,1.28,1.28,0,0,0,.95.51,2.27,2.27,0,0,0,1.32-.79,3.65,3.65,0,0,1,1-.74,1.43,1.43,0,0,1,.18-.41c.31.1.61.23.92.36A5.55,5.55,0,0,0,546,427a2.19,2.19,0,0,0,.44-.09h0a2.36,2.36,0,0,0,1.15-.61l.58.14a6.44,6.44,0,0,0,1.12.08,5.89,5.89,0,0,0,.8-.07,2.39,2.39,0,0,0,.65-.2,3.29,3.29,0,0,0,1.77.58,2,2,0,0,0,1-.28c0,.06.13.07.19.11a1.11,1.11,0,0,0,.24.14c.08,0,.13.11.23.14a3.35,3.35,0,0,0,1,.12,8.8,8.8,0,0,0,1.58-.22l.52-.1a2.55,2.55,0,0,0,.69-.67l4.95-.57,3.69-.16a2.69,2.69,0,0,0,.27.36,4.7,4.7,0,0,0,1.12.09l1.29-.06a4,4,0,0,1,1.57.23,3.58,3.58,0,0,1,1.18,1.21c.49.68,1,1.39,1.87,1.37a1.92,1.92,0,0,0,.64-.14h.53c.82,0,1.64,0,2.46.06s1.83.07,2.75,0a11.44,11.44,0,0,0,4.93-1.09,4.79,4.79,0,0,1,.91-.1h.6a3.21,3.21,0,0,0,1.75-.45H589a2.27,2.27,0,0,0,.53-.12l.16,0a1.92,1.92,0,0,0,.46-.22l.13-.11a2,2,0,0,0,.39-.33c2.21-.93,3.34-3.18,4.35-5.15l.23-.47a7,7,0,0,1,2.16-3c3-1.9,4.16-5.24,5.29-8.47l.3-.91a2.75,2.75,0,0,0,1.89-1.29,3.92,3.92,0,0,0-.27-2.76c-.12-.37-.24-.73-.34-1.11-.25-.19-.49-.39-.72-.6A4,4,0,0,0,601,401a2.53,2.53,0,0,0-1,.24l-.65,1a17.47,17.47,0,0,0-1.15,1.58c-1,1.48-2,3-3.92,3.22-.3,0-.65.53-.81.88a10.68,10.68,0,0,1-2.65,3.26c-.4.37-.79.74-1.17,1.14a14.35,14.35,0,0,1-6.11,4.24l-.17,0a8.18,8.18,0,0,1-2,.3h0a8.72,8.72,0,0,1-1.42-.09l-.12,0A14.27,14.27,0,0,1,575,415a2.1,2.1,0,0,0-1.61-.69,3.37,3.37,0,0,0-1.28.32,1.45,1.45,0,0,0-.58.79l-3,1.68-5.31-1.18a2.21,2.21,0,0,0-1.87-.78,8.85,8.85,0,0,0-.95.09l-.23,0a1.59,1.59,0,0,0-.9-.38,1.28,1.28,0,0,1-1.08-.63l0-.13.06-.11-.05.07,0-.1-.11.18h-.39l-.36,0a1.76,1.76,0,0,0-.09-.32,9.26,9.26,0,0,0-3.09-1.56c-.5.05-1,.14-1.5.23a13.26,13.26,0,0,1-2.14.27,3.81,3.81,0,0,1-2.88-1.08,5.19,5.19,0,0,1-.7-.87h0l0,0-.16-.05a1.17,1.17,0,0,0-.05-.33l-1.07,0-1.06,0a.36.36,0,0,0-.28-.16.23.23,0,0,0-.19.09,6.06,6.06,0,0,0-4.23-1.15l-1.16,0c-.37,0-.75,0-1.13,0-.73.2-.84.84-.94,1.46a5.06,5.06,0,0,1-.13.62s-.24,2.33-.24,2.33l-.39.74-1.17,1.16h-.18c-.58,0-.8.56-1,1.09-.43,1.08-1,2.19-1.9,2.2a1.22,1.22,0,0,1-.33,0c-.86-.23-.82-1.17-.77-2.08a6.13,6.13,0,0,0,0-.92,2,2,0,0,0-1.41-.65,2.14,2.14,0,0,0-1.3.53.2.2,0,0,1-.22.17h-.09c-.8.37-.78,1.15-.77,2.09l.24.54-.4.32a6.05,6.05,0,0,0-1.79,1.86c-.34.08-.48.38-.61.67l-.15.32a2.65,2.65,0,0,1-.86,2.22,3.57,3.57,0,0,0-.84,1.41c-.19.34-.39.68-.6,1-1,1.66-2,3.36-1.16,5.2a4.08,4.08,0,0,0,.3.56l.2.27a6.29,6.29,0,0,0,.65.76.82.82,0,0,1-.55.21,2.54,2.54,0,0,1-.76-.16,2.7,2.7,0,0,0-.81-.17c-.5,0-.87.33-1.17,1a2.91,2.91,0,0,0,.26,2.82,6.28,6.28,0,0,1,.38.83c.51,3.68.74,7.23-2,10.05a1.87,1.87,0,0,0-.38,1,2.18,2.18,0,0,1-.36,1l0,1.32-1.14,2.5a12.56,12.56,0,0,0-1.75,12.34l0,1.28.07,1.61c-2.56,1.84-2.62,5-2.66,7.74a1,1,0,0,0-.18.77c-.59,2-2.13,3-3.61,3.84A2.63,2.63,0,0,0,506.73,481.13Zm59.09-29.56a.29.29,0,0,1-.13.05.49.49,0,0,1-.33-.17,1.37,1.37,0,0,0,.37.08Zm9.05-4.54c.07-.12.13-.25.2-.38l.07.06a1.66,1.66,0,0,1-.16.21A1.05,1.05,0,0,1,574.88,447Z"/><path class="cls-5" d="M670.23,450.93c.35,0,.7,0,1.05,0a3.8,3.8,0,0,0,2-.72l.24-.13.1,0h0l0,0-.3-.32c-.24-1.4-1-1.54-1.81-1.48l-.62.07c-.2,0-.4.05-.68.07h0c-.72.05-1.1.5-1.19,1.41C669,450.82,669.58,450.92,670.23,450.93Z"/><path class="cls-5" d="M533.24,564.67a1.9,1.9,0,0,0,.73-.19l1-1.46a2.68,2.68,0,0,0-.23-1.84,1.19,1.19,0,0,0-1.14-.45h0a1.91,1.91,0,0,0-1.16.53l0,0c-.06.06-.15.1-.2.17a2,2,0,0,0-.3,1.25C532,564,532.44,564.69,533.24,564.67Z"/><path class="cls-5" d="M606.51,385.56c0,.06.1.09.15.14l0,0a1.05,1.05,0,0,0,.74.23h.18c1.35-.14,1.61-1.35,1.69-2.52.07-1-.42-1.51-1.49-1.54a1.33,1.33,0,0,0-1,.49,1.81,1.81,0,0,0-.11,1.22,1.94,1.94,0,0,1-.07,1.14A.92.92,0,0,0,606.51,385.56Z"/><path class="cls-5" d="M664.84,564.78c-.17-.51-.34-1-.88-1.15a2.3,2.3,0,0,0-1.89-.91,3.76,3.76,0,0,0-.57,0,1.66,1.66,0,0,0-1.18.63,3.83,3.83,0,0,0-.4,2.25c0,.32,0,.64,0,1,.24,2,.72,2.77,1.53,2.65a4,4,0,0,0,1.88-1.25l.19-.06a.81.81,0,0,0,.73-.75l.57-.69a1.06,1.06,0,0,0,.2-1.26C664.94,565.1,664.89,564.94,664.84,564.78Z"/><path class="cls-5" d="M630.53,562.51a3.2,3.2,0,0,1-.49,0,2.73,2.73,0,0,0-.56,0c-.44.05-.75.31-1,.89.22.43,0,.89-.29,1.34a1.87,1.87,0,0,0-.36,1,.76.76,0,0,0,.34.53,1.51,1.51,0,0,0,1,.2,1.73,1.73,0,0,0,.87-.33,2.13,2.13,0,0,0,.59-2.43A6,6,0,0,1,630.53,562.51Z"/><path class="cls-5" d="M442.1,560.32a1.26,1.26,0,0,0-.76.28,2.26,2.26,0,0,0-1.11,1.59,2.44,2.44,0,0,0,.61,1.67,3,3,0,0,0,.44.12l.15,0a3,3,0,0,0,.44.12,1.13,1.13,0,0,0,1.12-.69,2.31,2.31,0,0,0,.17-.41s0-.07,0-.11a4.24,4.24,0,0,0,.15-.81l0-.08s0,0,0-.07C443,561.17,442.73,560.35,442.1,560.32Z"/><path class="cls-5" d="M353.92,381.1l.23,0c1-.16,1.38-1.14,1.65-2.08-.34-.73-.74-1.51-1.33-1.52a.72.72,0,0,0-.25,0,2.3,2.3,0,0,0-1.61,2.14,1.49,1.49,0,0,0,.35,1A1.31,1.31,0,0,0,353.92,381.1Z"/><path class="cls-5" d="M528.42,550a1.79,1.79,0,0,0,.56,1.42,2.87,2.87,0,0,1,.46.56c.26.38.54.77.95.76a1.09,1.09,0,0,0,.69-.35l.21-3c1.4-3.25,1.36-4.4-.53-11.26-1.48.6-1.75,2.14-1.82,3.58a29.46,29.46,0,0,0,.46,7.5C528.82,549.35,528.5,549.62,528.42,550Z"/><path class="cls-5" d="M682.15,494.89a1.23,1.23,0,0,0,.9-.35c.32-.39.35-1.18.42-3.06a3.36,3.36,0,0,0,1-2.94,5,5,0,0,0-1.34-2l-.37-.4c-.18-.21-.37-.39-.57-.57a3.81,3.81,0,0,1-1.24-1.8c-1.19-4.23-2.92-5.53-6.91-5.16l-.29,0a9.29,9.29,0,0,1-4.22-.29l-2-.45c-.24-.51-.68-.56-1.11-.6a1.41,1.41,0,0,1-.92-.32,1.39,1.39,0,0,0,0-.63,3.35,3.35,0,0,0-1.6-.4,2.13,2.13,0,0,0-1.59,1.17l-1.15,1.65a3.09,3.09,0,0,0-.73.57,1.85,1.85,0,0,1-.9.6.52.52,0,0,1-.43-.19,5.66,5.66,0,0,0-4.9-1.51c-.53,0-1.07.12-1.61.19s-1.07.14-1.6.19c-.32,0-.64,0-1,0-.6,0-1.2,0-1.78.05-2.25.18-4.77.87-6.31,4.68a2.06,2.06,0,0,1-.79.77,5.07,5.07,0,0,0-.45.34l-4.77,2.2c-1.22.3-2,.58-2.22,1.13s0,1.22.44,2.22a2.37,2.37,0,0,1,1.06.38,2.32,2.32,0,0,0,1.14.39c.59,0,1-.71,1.2-2.08a3,3,0,0,1,1.24-.26,5.17,5.17,0,0,1,.67,0c.64,0,.59.59.54,1.16a3.84,3.84,0,0,0,0,.45c0,.64-.05,1.28-.1,1.93a9.53,9.53,0,0,0,.17,3.78,2.36,2.36,0,0,0,.15,1.54.54.54,0,0,0,.51.22,1.62,1.62,0,0,0,.63-.23,2.61,2.61,0,0,1,1.06-.36,2.35,2.35,0,0,1,1.06.18h.25a6.47,6.47,0,0,0,2.9-1.34,9.12,9.12,0,0,1,2.09-1.17,3.5,3.5,0,0,0,.54-.34l.24.06.76-.17.32-.05.49,0c.17,0,.34,0,.5,0a1.45,1.45,0,0,0,1.37-1.2,2.4,2.4,0,0,0-1-3c-.07-.05-.07-.29-.06-.5a.61.61,0,0,0,0-.26l1.87-1.1,1.83-1.11.45.62c-.07.65,0,1.27.63,1.38l1.42.24a34.43,34.43,0,0,0,3.73.52,4.6,4.6,0,0,0,.73,0A4.16,4.16,0,0,0,665.3,488a3.12,3.12,0,0,1,2-1.2,2.6,2.6,0,0,1,2.36,1.38,5,5,0,0,0,4.87,2.44l.28,0,6.88,4.3Z"/><path class="cls-5" d="M188.59,399.42a6.48,6.48,0,0,1-3.1-2.81,6,6,0,0,0-2-2h0a3.49,3.49,0,0,0-1.41-.47,3.84,3.84,0,0,0-2.4.69,2.35,2.35,0,0,1-1.5.53l-.33,0a1.72,1.72,0,0,0,0,1.38,3.19,3.19,0,0,0,1.56,1.33c.22.22.42.45.62.69l.12.14a23.48,23.48,0,0,1,1.68,2.47,23.13,23.13,0,0,0,1.8,2.63,20.14,20.14,0,0,1,3.08,4.55,3.09,3.09,0,0,0,2.5,1.87,3.85,3.85,0,0,0,.94,0c1.4-.21,2-1.06,1.68-2.52l0-.19a4.4,4.4,0,0,1-.09-2.17A5.35,5.35,0,0,0,188.59,399.42Z"/><path class="cls-5" d="M166.4,378l-.66-.6a6,6,0,0,0-.41-.45l-.28-.31a7.42,7.42,0,0,0-1.09-.92h0a16.64,16.64,0,0,0-3-1.55l-.48-.2c-.3-.19-.62-.36-.94-.52a3.8,3.8,0,0,1-2.29-2.21,2.93,2.93,0,0,0-1.88-1.08,2.85,2.85,0,0,0-2.11,1.19,2.36,2.36,0,0,0-.72,2.15,3.78,3.78,0,0,0,1.6,2.09,7.87,7.87,0,0,0,3.5,1.94,18.38,18.38,0,0,1,3.75,1.71l.07,0a10.68,10.68,0,0,1,1.24.94l.29.26c.18.17.35.33.52.52a3.44,3.44,0,0,0,2.15,1.25h0a1.82,1.82,0,0,0,.85-.14c.9-.38.76-1.26.62-2.1,0-.23-.08-.45-.09-.67a2.65,2.65,0,0,0-.48-1.12Z"/><path class="cls-5" d="M236.5,473.31a1.16,1.16,0,0,0,.25-.2c.79-1,.3-2-.29-2.83l-.31-.53a6.2,6.2,0,0,0-2.18-2.57l-1.08-1.94a1.46,1.46,0,0,1-.36-1,1.49,1.49,0,0,0-.45-1.1,9.39,9.39,0,0,1-.74-.62,9,9,0,0,0-.83-.68l-.53-.39a4,4,0,0,0-1.65-.9,1.09,1.09,0,0,0-.91.28c-1.08.94-.41,2.41.37,3.7a9.1,9.1,0,0,0,3.27,4.6,10.92,10.92,0,0,1,2.84,4.19c.22.47.44.93.68,1.38a1.91,1.91,0,0,0,1.37,1.19,2,2,0,0,0,.62,0c.36-.06.55-.2.57-.4s-.32-.7-.64-1a1.13,1.13,0,0,1-.38-.65C236.1,473.58,236.31,473.44,236.5,473.31Z"/><path class="cls-5" d="M226.72,458.55a1.47,1.47,0,0,1-.3-.81c-.21-.33-.42-.67-.63-1a16.89,16.89,0,0,0-1.54-2.23,4.31,4.31,0,0,0-2.49-1.58,1.9,1.9,0,0,0-.94.11c-.9.35-.59,1.34-.33,2.22a7.9,7.9,0,0,1,.21.77c.15.78.69,1,1.22,1.19a3.29,3.29,0,0,1,.9.49l.06.05h0l0,0a2.19,2.19,0,0,1,1.17.77,3.33,3.33,0,0,0,.77.64,3.74,3.74,0,0,1,.46.31,2.07,2.07,0,0,0,.85.46.68.68,0,0,0,.57-.2C227.22,459.4,227,459,226.72,458.55Z"/><path class="cls-5" d="M264.91,511.31l-.25,0a.21.21,0,0,1-.2,0,1.88,1.88,0,0,1-.32-.1,2.19,2.19,0,0,0-.39-.12c-.33-.05-.51.11-.56.52-.1.76.43,1.22.94,1.67l.33.3.77.73c.47.44.94.88,1.39,1.36l.34.39c.33.4.68.81,1.06.88a.82.82,0,0,0,.75-.35c.73-.82.63-2-.28-3.18A5.43,5.43,0,0,0,264.91,511.31Z"/><path class="cls-5" d="M201,416.85a2.5,2.5,0,0,0,2.32,1.77l.33,0c.83.08,1.67.19,2.5.29l1.27.16a0,0,0,0,0,0,0c-.1-2.29-1.45-2.56-2.74-2.83a7.14,7.14,0,0,1-1.27-.34l-1.56,0A1.09,1.09,0,0,0,201,416.85Z"/><path class="cls-5" d="M179.41,386.85h0c.81-.13.86-.82.9-1.49,0-.14,0-.27,0-.41a2.75,2.75,0,0,0-2.6-2.55h-.38l-.61-.06c-.52,0-1,.06-.9.95a8.14,8.14,0,0,0,1.8,2.23C178,385.8,179.06,386.82,179.41,386.85Z"/><path class="cls-5" d="M216.74,445.45l-1.24-1.39-.42-.45,0-.64-1.62-2.83a.55.55,0,0,0-.07-.43.52.52,0,0,0-.36-.19h0a1.56,1.56,0,0,1-.59-1.24.54.54,0,0,0-.22-.08H212c.07-1.42-.95-2.25-1.92-3a1.66,1.66,0,0,0-.45-1.21c-.11-.15-.21-.3-.32-.48l-.25-.05a1.53,1.53,0,0,0-1.13.44,1.47,1.47,0,0,1-1.12.43h0c-1.24-.14-1.83.49-1.84,2l-.47,1a1.59,1.59,0,0,0,.28,1.73l.59.62a2.78,2.78,0,0,0,1.23,2c.19.16.37.33.53.49l.46,1a3,3,0,0,0,1.58,2.79l.1.39.12.42,3.65,2.46c.07.15.13.31.19.49a2.18,2.18,0,0,0,1.13.71c.4.05.73-.19,1-.7l.94-.88c1.4-.24,1.09-1.23.78-2.18A4.7,4.7,0,0,1,216.74,445.45Z"/><path class="cls-5" d="M199.53,393a2.88,2.88,0,0,1-.54-.48l-.35-.1a5.32,5.32,0,0,0-1-.22,1.62,1.62,0,0,0-.8.12c-.38.72-.45,1.18-.26,1.49,0,0,.09.07.13.1l0,0a1.34,1.34,0,0,0,.83.3H198c.51,0,1,0,1.55,0h.75C200.37,393.66,199.94,393.35,199.53,393Z"/><path class="cls-5" d="M203.45,428.54a1.28,1.28,0,0,0,.31-1.63l0-.3a6.22,6.22,0,0,0-.83-3.19,6.46,6.46,0,0,0-2.15-4,2.34,2.34,0,0,0-1.43-.73,2.32,2.32,0,0,0-1.29.27c-.22.11-.33.24-.34.4s.19.44.37.66a1.16,1.16,0,0,1,.38.72s0,0,0,.05h0s0,0,0,0l.28.07c.36.08.69.16.82.66a1.44,1.44,0,0,0,.1.8,1.1,1.1,0,0,1,0,.92,7.78,7.78,0,0,1-.15,1.13,4.06,4.06,0,0,0,.13,2.64,2.92,2.92,0,0,0,.34,1.15l0,.08a1.63,1.63,0,0,0,.15.25,1.31,1.31,0,0,0,.85.39,5.13,5.13,0,0,0,.7,0,4.8,4.8,0,0,1,.7,0,1.9,1.9,0,0,1,.61.17l.49,0A.45.45,0,0,0,203.45,428.54Z"/><path class="cls-5" d="M603.5,576.93c-1.09.15-1.84,1-2.15,2.49a2.13,2.13,0,0,0,0,1.14h0a1.24,1.24,0,0,0,.06.22.5.5,0,0,0,.49.24H602a3.41,3.41,0,0,0,2.39-2.6,1.75,1.75,0,0,0-.2-1.23.74.74,0,0,0-.73-.26Z"/><path class="cls-5" d="M552,524.32a1.09,1.09,0,0,0-.35,0c-.48,0-.81.42-1.12.81a3.64,3.64,0,0,1-.63.66l-.16,1.09a3.2,3.2,0,0,0,0,3.34l1.36,2.54a3.05,3.05,0,0,0,1.53,1.69h0l0,0a.84.84,0,0,1,.34-.43.78.78,0,0,0,.38-.78,5.82,5.82,0,0,1,.46-2.6,5.14,5.14,0,0,0-.31-3.35C553.53,526,553.33,524.65,552,524.32Z"/><path class="cls-5" d="M475.75,591.92a3.09,3.09,0,0,0,.49-2.36,1,1,0,0,0,.38-.43,4,4,0,0,0,.47-2.66,3.9,3.9,0,0,0-1.93-2.33,7,7,0,0,0-3.62-1.29,5,5,0,0,0-2.32.53,2.87,2.87,0,0,0-2.19,2.49l-.45.89-.12.32v0h0v0l.15.05a2.66,2.66,0,0,0-.13,1.54l0,.33c0,.54-.06,1.08-.12,1.59a4.33,4.33,0,0,1-2.81,2.72,2.2,2.2,0,0,0,1,2.08,3.14,3.14,0,0,0,2.77,1.26l.71,0c1.59,0,3.18,0,4.77,0l1.78,0H475C474.64,595.06,474.44,593.32,475.75,591.92Z"/><path class="cls-5" d="M533.17,613l-1.33-1.28-.27-.36a3.76,3.76,0,0,0-1.66-1.53,4.7,4.7,0,0,0-2.4-1.82l-.53-.24-.52-.79c-1.33-2-2.85-4.38-4.46-4.33a1.64,1.64,0,0,0-.47.08,18.6,18.6,0,0,1-5,.71c-2.4.11-4.88.22-7.16,1.73-1.3,1-1.92,1.93-2,2.86s.47,2.2,1.86,3.88a3.21,3.21,0,0,0,2.64,1.1c.38,0,.76,0,1.14-.09s.76-.08,1.14-.09a4.12,4.12,0,0,1,1,.08,2.4,2.4,0,0,0,.57,0l.6,0c.68,0,1.37.09,1.61,1.49a8.89,8.89,0,0,0,4,3.22,1.26,1.26,0,0,0,.68,1.16c.2,1.92,1.36,2.42,2.47,2.9.29.12.57.24.86.39l.17,0,.15.17a1.33,1.33,0,0,0,.8.31.74.74,0,0,0,.6-.34,1,1,0,0,0,.72.45h0l1.72-.72.25-.25a1.83,1.83,0,0,1,.54-.45c2.48-1,3.68-2,4-3.28a2.89,2.89,0,0,0,0-.36s0-.09,0-.14C535,616.37,534.45,615,533.17,613Z"/><path class="cls-5" d="M549.64,621.93a2.15,2.15,0,0,0-.47.08l-.3.33a3.7,3.7,0,0,0-.6.78,2.94,2.94,0,0,1-1.1,1c-.51.33-1,.63-1.13,1.17a1.73,1.73,0,0,0,.13,1.12,1.28,1.28,0,0,0,1.4.85,6.53,6.53,0,0,0,1.53-.36l.63-.19a1.25,1.25,0,0,0,.24-.12l.54-.43a2.1,2.1,0,0,0,1.38-2.1C551.45,622.57,550.72,621.87,549.64,621.93Z"/></g><path class="cls-6" d="M841.27,991.73H207.22a48.51,48.51,0,0,1-48.51-48.51h0a48.51,48.51,0,0,1,48.51-48.51H841.27Z"/><path class="cls-2" d="M285.55,771.72H714.43v48.51H285.55Z"/><path class="cls-2" d="M238.4,931.09a12.13,12.13,0,1,0,0,24.25H841.27V931.09Z"/></svg>