<svg id="Layer_1" data-name="Layer 1" xmlns="http://www.w3.org/2000/svg" viewBox="0 0 1000 1000"><defs><style>.cls-1{fill:#497fb2;}.cls-2{fill:#dff1fc;}.cls-3{fill:#2c5a86;}.cls-4{fill:#ece4d8;}</style></defs><title>aset-sigesit</title><path class="cls-1" d="M204.42,129H844.55v871H204.42a49,49,0,0,1-49-49h0V178A49,49,0,0,1,204.42,129Z"/><circle class="cls-2" cx="500" cy="458.78" r="244.86"/><path class="cls-2" d="M844.55,1000H204.42a49,49,0,0,1-49-49h0a49,49,0,0,1,49-49H844.55Z"/><path class="cls-3" d="M283.51,777.88h433v49h-433Z"/><path class="cls-1" d="M235.9,938.79a12.24,12.24,0,1,0,0,24.49H844.55V938.79Z"/><path class="cls-3" d="M671.57,377.92,503.48,318.61a10.46,10.46,0,0,0-7,0L328.43,377.92a10.46,10.46,0,0,0,0,19.72L496.5,457.4a10.46,10.46,0,0,0,7,0L671.6,397.64a10.46,10.46,0,0,0,0-19.72Z"/><path class="cls-3" d="M653.43,517.57V426.31l-20.92,7.44v83.82a21,21,0,0,0,0,36.44v51.42a10.46,10.46,0,0,0,20.92,0V554a21,21,0,0,0,0-36.44Z"/><path class="cls-3" d="M500,478.93a31.31,31.31,0,0,1-10.51-1.81L395,443.52v46c0,11.26,11.75,20.79,34.92,28.31C450.11,524.43,475,528,500,528s49.88-3.61,70.08-10.17c23.17-7.52,34.92-17,34.92-28.31v-46l-94.5,33.59A31.31,31.31,0,0,1,500,478.93Z"/><path class="cls-4" d="M349.28,782.76,352.61,793a2.75,2.75,0,0,0,2.61,1.9H366a2.75,2.75,0,0,1,1.62,5l-8.72,6.33a2.75,2.75,0,0,0-1,3.07l3.33,10.25a2.75,2.75,0,0,1-4.23,3.07l-8.72-6.33a2.75,2.75,0,0,0-3.23,0l-8.72,6.33a2.75,2.75,0,0,1-4.23-3.07l3.33-10.25a2.75,2.75,0,0,0-1-3.07l-8.72-6.33a2.75,2.75,0,0,1,1.62-5H338.1a2.75,2.75,0,0,0,2.61-1.9L344,782.76A2.75,2.75,0,0,1,349.28,782.76Z"/><path class="cls-4" d="M425.95,782.77,429.28,793a2.75,2.75,0,0,0,2.61,1.9h10.77a2.75,2.75,0,0,1,1.62,5l-8.72,6.33a2.75,2.75,0,0,0-1,3.07l3.33,10.25a2.75,2.75,0,0,1-4.23,3.07l-8.72-6.33a2.75,2.75,0,0,0-3.23,0L413,822.62a2.75,2.75,0,0,1-4.23-3.07l3.33-10.25a2.75,2.75,0,0,0-1-3.07l-8.72-6.33a2.75,2.75,0,0,1,1.62-5h10.77a2.75,2.75,0,0,0,2.61-1.9l3.33-10.25A2.75,2.75,0,0,1,425.95,782.77Z"/></svg>