<svg id="Layer_1" data-name="Layer 1" xmlns="http://www.w3.org/2000/svg" xmlns:xlink="http://www.w3.org/1999/xlink" viewBox="0 0 1000 1000"><defs><style>.cls-1{fill:none;}.cls-2{fill:#2c5a86;}.cls-3{fill:#497fb2;}.cls-4{fill:#dfebfa;}.cls-5{clip-path:url(#clip-path);}</style><clipPath id="clip-path"><circle class="cls-1" cx="358" cy="358" r="281"/></clipPath></defs><title>aset-sigesit</title><circle class="cls-2" cx="357.77" cy="357.77" r="357.77"/><path class="cls-3" d="M981.44,981.44a63.45,63.45,0,0,1-89.68,0L684,773.68,773.68,684,981.44,891.76A63.45,63.45,0,0,1,981.44,981.44Z"/><circle class="cls-4" cx="357.68" cy="357.73" r="281.1" transform="translate(-52.68 653.55) rotate(-80.79)"/><path class="cls-4" d="M610.75,610.75a360.88,360.88,0,0,1-27.86,25.1L702.37,755.33l53-53L635.85,582.89A360.88,360.88,0,0,1,610.75,610.75Z"/><g class="cls-5"><path class="cls-3" d="M523,307.67h.25a1.49,1.49,0,0,0,.87-.55,1.91,1.91,0,0,1,.68-.51,4.81,4.81,0,0,1,.31-1.27,4.49,4.49,0,0,1-.9.78,2.54,2.54,0,0,0-1.24,1.54Z"/><path class="cls-3" d="M434.16,351a.35.35,0,0,0,.15-.06l-.11,0a1.57,1.57,0,0,1-.43-.1A.56.56,0,0,0,434.16,351Z"/><path class="cls-3" d="M445,345.19c-.07.15-.15.3-.23.44a1.09,1.09,0,0,0,.12-.13,2,2,0,0,0,.19-.25Z"/><path class="cls-3" d="M212.62,363.11l-.06-.06-.23-.2,0,0C212.45,363,212.54,363.1,212.62,363.11Z"/><path class="cls-3" d="M525.73,304.23a.49.49,0,0,1-.22.12,2.48,2.48,0,0,1,0,.28C525.55,304.5,525.63,304.37,525.73,304.23Z"/><path class="cls-3" d="M600.75,384.54a.81.81,0,0,0-.11.31l.17-.37Z"/><path class="cls-3" d="M162.73,446.79a1.76,1.76,0,0,0-.2-.32c.07.15.15.28.22.41Z"/><path class="cls-3" d="M322.39,410.56l0,.05s0,.13.17.49l.06-.1.15-.33,0,0c-.11,0-.23-.06-.3-.06s0,0,0,0Z"/><path class="cls-3" d="M741.63,369.5l2.81-17.5a.69.69,0,0,0-.35,0,.58.58,0,0,0-.25.1,4.15,4.15,0,0,0-1.43,0c-.77.07-1.57.14-2.07-.44l-.77-1.12c-.41-1.47-1.54-1.49-2.6-1.31-.4.07-.82.17-1.37.31a2.59,2.59,0,0,0-.81,0l-.64.13-.63.13a1.6,1.6,0,0,1-1.49-.33,1.73,1.73,0,0,0-2-1.07,7.84,7.84,0,0,0-2.61,1.22l-2.39.37-2.1-.38c-1.74-1.37-4-1.79-6.22-2.2a22.78,22.78,0,0,1-4-1,15.72,15.72,0,0,1-3.74-1.9c-1.92-1.2-3.9-2.46-6.71-2.32s-4.85-.29-5.68-1.3a3.21,3.21,0,0,0-3.11-1.27,11.43,11.43,0,0,0-2.64.81l-.59.23a15.41,15.41,0,0,0-2.94,1.68c-.43.29-.86.57-1.29.84l-1.37.78c-1.07.61-2.17,1.24-3.27,1.74l-.5.21a2.48,2.48,0,0,0-1.73,1.53s0,0,0,0a2,2,0,0,0-.13.52l-.23,1.73c-.23.38,0,.73.24,1.07s.41.6.28.9-.45.5-1.08.77a1.59,1.59,0,0,0-.12.36l-.72.5-.33.15a2.22,2.22,0,0,0-.66-.05,3.78,3.78,0,0,0-1.29.63,1.39,1.39,0,0,1-.86.41l-.43,0-.43,0a1.45,1.45,0,0,0-1.18.8c-.12.06-.25.13-.37.2a2.08,2.08,0,0,1-.74.31h0c-.56,0-1.09.06-1.61.13-2,.27-4.24,1.08-5,5a2.61,2.61,0,0,1-.16.51.65.65,0,0,0,0,.08,7.43,7.43,0,0,1-2.56,2.75,7.42,7.42,0,0,0-5.07,5.79,2.85,2.85,0,0,1-.59,1.11,4.64,4.64,0,0,0-.41.64c-.2.24-.42.46-.64.69a4.87,4.87,0,0,0-1.6,2.54,6.53,6.53,0,0,1-.78.41,3.07,3.07,0,0,0-1.68,1.4L649.58,379l-.54.19a23.08,23.08,0,0,1-4.3,1.24,4.81,4.81,0,0,1-5-2l-.31-1.08c0-.15,0-.25-.09-.26a.48.48,0,0,0,.06-.54,5,5,0,0,1,.66-1.24c.59-.9,1.2-1.83.29-2.81a.94.94,0,0,0-.83-.37,2.53,2.53,0,0,0-1.2.79,4.91,4.91,0,0,0-.38.39l0,0-.42-1.85a11.42,11.42,0,0,1,.19-1.72c.27-1.7.54-3.45-1.4-4.09a4.35,4.35,0,0,1-.07-.51,3.28,3.28,0,0,0-.93,0,1.79,1.79,0,0,0-.32.12l-.26.09a2.13,2.13,0,0,0-.66.44l-.14.15a6.84,6.84,0,0,0-1.15,2.35l-1.06-1.65-1-1.47a3.63,3.63,0,0,0,.21-.91c-1.27-2-1-4.6-.72-7.08.06-.54.12-1.09.17-1.64a9.75,9.75,0,0,1,1.15-4.82,17.48,17.48,0,0,0,1-2.7q.14-1.24.28-2.49A4.24,4.24,0,0,0,631,341l-.76-1.15a4.47,4.47,0,0,0-.17-.51,1.63,1.63,0,0,1,0-1.59,3.93,3.93,0,0,0,.73-2.43c-.15-.83-.92-1.23-1.82-1.7-.25-.13-.51-.26-.77-.41a3.94,3.94,0,0,0-2.44-.47A13.78,13.78,0,0,0,624,333a13.11,13.11,0,0,1-1.67.3,3.85,3.85,0,0,1-1.59-.14,2.33,2.33,0,0,0-1.73-.68,1.11,1.11,0,0,0-.52.16c.06-.16,0-.29-.17-.4-.86.07-1.29-.47-1.75-1a3,3,0,0,0-1.06-.95l-.24.09-.19.09a2.46,2.46,0,0,0-.2-.32,2,2,0,0,0-1.26-.25h0a2.06,2.06,0,0,0-.51.16,16.68,16.68,0,0,0-5.86-2.35l-.8,0a12.81,12.81,0,0,0-1.84,0A5.1,5.1,0,0,0,603,328l-3.68.34-2.06,1.38-1.65,1-.54.86a1.34,1.34,0,0,0-.29.1,2.89,2.89,0,0,0-2,1.83,2.23,2.23,0,0,1-1.66,1h0a.51.51,0,0,0-.3.14l0,0s-.06,0-.07.08a4.75,4.75,0,0,0-1.34-.12,2.31,2.31,0,0,0-1.78,1,4,4,0,0,0-.37.57l-.06.1c-.06-.18-.13-.38-.2-.6a3.16,3.16,0,0,0-1.14-.11,8.23,8.23,0,0,0-2.54.8l-.67.29a9,9,0,0,0-2.93,5.41,7.46,7.46,0,0,0-.11,1.34,5.19,5.19,0,0,1-.35-1.09c-.2-.86-.41-1.74-1.41-1.91l-.4,0a3.85,3.85,0,0,1-.73-.08,2.93,2.93,0,0,1,0-1.77,5.45,5.45,0,0,0,.09-.89l-.55-.16a1.26,1.26,0,0,0-.79-.26,1.11,1.11,0,0,0-.84.62h-.25a14.76,14.76,0,0,0-2.95,1,3.1,3.1,0,0,1-1,.63h-1.11l-1.14,0-.33.36-.46.08a1.6,1.6,0,0,0-.68.85,1.67,1.67,0,0,0-.14.3s0,0,0,.07a.31.31,0,0,0,0,.07,3.6,3.6,0,0,0-.46,2.71.2.2,0,0,0,0,0h0s0,0,0,0a7.47,7.47,0,0,0,1.23-.53,4.93,4.93,0,0,1,1.75-.62,2.29,2.29,0,0,1,.7.06,4.68,4.68,0,0,1,.25,1.76,3,3,0,0,0,.71,2.43,8.51,8.51,0,0,0,3.83,4.58.9.9,0,0,0,1,.7,2.13,2.13,0,0,0,1.54.7,3.37,3.37,0,0,1,1,.26l.22.19.25-.05a1.68,1.68,0,0,0,1.29.49,2.59,2.59,0,0,0,1.4-.67l.39-.05a1.46,1.46,0,0,0,1.36-.75l7,2.52c.9.78.73,1.89.57,3.07a4.31,4.31,0,0,0,.12,2.52c-.22,2.45,1.11,3.46,2.74,4.42a3.4,3.4,0,0,0,1.06.35c.83.18,1.61.35,1.72,1.63.45.56.85.93,1.35.87a1.78,1.78,0,0,0,1.08-.71c.13-.47.43-1,.87-1a.59.59,0,0,1,.2,0c.38.09.79.11,1.2.16l.37,0a16.64,16.64,0,0,0,3.61,0,50.55,50.55,0,0,0,5.07-.9l1.35-.29a19.39,19.39,0,0,0,3.77,0,11.33,11.33,0,0,0,3.06-.77,7.37,7.37,0,0,0,.85-.73,5,5,0,0,0,1.21-.38,4.94,4.94,0,0,1,1.19-.37.89.89,0,0,1,.81.25,2.33,2.33,0,0,1-.29,1.27c-1.21,1.83-2,2.78-3,2.89a4.48,4.48,0,0,1-2.45-.81l-.37-.21a3.7,3.7,0,0,0-2.22-.73,2.77,2.77,0,0,0-1.49.72,8.28,8.28,0,0,0-4.44,3.32,2.39,2.39,0,0,0-1.47,2.12,1.11,1.11,0,0,0-.53.21c-.66.18-.93.82-1.18,1.44s-.54,1.33-1.34,1.43c-1.21-1.26-4.54-1.52-7.31-1.23s-4.93,1.09-5.89,2.13a1.19,1.19,0,0,0-.32,1.36c.65,2,1.32,4,3.61,3.76a4.5,4.5,0,0,0,.66-.13,7.71,7.71,0,0,1,1.07-.2,4.39,4.39,0,0,1,4.69,2.71,10.35,10.35,0,0,1,.67,1.71l0,.06a4.18,4.18,0,0,0,3.22,3.5l.12,1.25-1.51,2.9a8.67,8.67,0,0,0-.43,5.64,3.38,3.38,0,0,0,2.08,2.38,1.35,1.35,0,0,0,.74.61h0a.89.89,0,0,0,.37.08,3.58,3.58,0,0,0,1.53-.92l.37-.31,1.71-.1a1.8,1.8,0,0,0,1.48.72,3.41,3.41,0,0,1,.87.2,3.74,3.74,0,0,0,1.9,1.65,7,7,0,0,1,1.1.66l.22.18c.35.29.73.62,1.14.56s.58-.29.84-.76c.7-1.26-.53-2-.93-2.28a8.92,8.92,0,0,0-1.09-.55,3.51,3.51,0,0,1-2.38-2.23l1.48-1.92c1.52-.79,1.46-1.9,1.4-3a4.57,4.57,0,0,1,.08-1.54,4.84,4.84,0,0,1,2.25-1.14,2,2,0,0,1,1.77.64c.33.69.95.68,1.55.66a2.82,2.82,0,0,1,.87.07l.84.48c2,1.16,4.14,2.34,5.28,4.78a1,1,0,0,0,.27,0,1.09,1.09,0,0,0,.81-.72,2.66,2.66,0,0,0,.56-.78c.22-.4.43-.78.71-.82s.39.09.62.36a18.82,18.82,0,0,0,5.33,4.16l1.18.55.44-.21a1.87,1.87,0,0,1,.1.26.92.92,0,0,0,.44,0c.31,1.28,1.33,1.51,2.33,1.73l.5.12,1.77.24c1.06,0,2.12,0,3.19,0,1.47,0,2.94-.06,4.4,0,6.7.29,12.52,2.32,17.31,4.22l2.85.53c.93.22,1.88.36,2.84.51a28.13,28.13,0,0,1,4.08.82l.08,0a10.3,10.3,0,0,1,1.2.45c0,.5.39.49.72.48a1,1,0,0,1,.47.06l.3.09.42.15a1.56,1.56,0,0,0,0,.21,11.56,11.56,0,0,0,2.45,1.81c1.73,1.05,3.52,2.13,3.79,4.83,0,.18,0,.35,0,.53s0,.37.05.56l.58.28c1.07.5,2.07,1,2.25,2.52l.08.72c.37,3.29.73,6.69,3.25,8.5.74.53.94,1.71.52,3.13a11.94,11.94,0,0,0-.67,1.47,11.15,11.15,0,0,1-.77,1.64,4.59,4.59,0,0,0-.22.46v0a3.31,3.31,0,0,0-.29.8,2.34,2.34,0,0,0,0,.32,1.12,1.12,0,0,0,0,.25.81.81,0,0,0,.54.57l0,0a1.32,1.32,0,0,0,.32.11l-.06.05h0s0,0,.05-.05h0l-.11.1.11-.09a.87.87,0,0,0,.24.48c.22.26.42.51-.07,1.16a2.52,2.52,0,0,0-.43,2.46c0,.08,0,.17.06.25a4.76,4.76,0,0,0-1.75,1.05,5.18,5.18,0,0,1-2.72,1.8,5.1,5.1,0,0,0-2.89,2c-4.18,3.37-6.4,8-8.54,12.48l-1.11,2.32a.82.82,0,0,0-.19.19l0,0a.76.76,0,0,0-.17.38v0a.78.78,0,0,0,0,.21c-.16.33-.35.67-.54,1-.66,1.17-1.35,2.38-.71,3.49a.86.86,0,0,0,.7.46h.07a.76.76,0,0,0,.23,0,3.86,3.86,0,0,0,1.12-.64,3.77,3.77,0,0,1,1.13-.64l1.09-.23a7,7,0,0,1,1.61-.67,4.25,4.25,0,0,1,2.6.08,4.45,4.45,0,0,0,2.71.17,4.21,4.21,0,0,0,1.57-.84,5.66,5.66,0,0,1,2.1-1.15,7.48,7.48,0,0,1,2.5-.15h.2a7.29,7.29,0,0,0,.92-.55,2.53,2.53,0,0,0,.59-.09,2.75,2.75,0,0,0,1.34-.92l0,0h.22a4.3,4.3,0,0,0,1.45-1.48c1.65-2.45,2.33-3.46,3.32-3.74a7.32,7.32,0,0,1,3,.22,7.11,7.11,0,0,0,3.66-2.19l.24-.29a2.06,2.06,0,0,0,.74-.09,8.41,8.41,0,0,0,1.13-.46,8.06,8.06,0,0,1,1.12-.46l.34-.08.19-.06a5.47,5.47,0,0,1,1.19-.21l.27,0a.7.7,0,0,1,.62.1,1,1,0,0,0,.43,0l.05,0c.09.7.59.9,1.06,1.09a1.67,1.67,0,0,1,.89.61c.12.79.74,1,1.32,1.16l.19.06.69.26.24.08c0,.65.54.73,1,.8a7.43,7.43,0,0,1,1.82,2.37,5.46,5.46,0,0,0,2.6,2.78,2.69,2.69,0,0,1,1.17,1.11,2,2,0,0,0,1.95,1.13h.06a2,2,0,0,0,.39-.06l.41-.16.6-.24,6.34-39.15s-.16,0-.17,0l-.19.06c-.59-2.42.26-5.17,1.73-8.53Zm-140.88,15,.06-.06-.17.37A.8.8,0,0,1,600.75,384.54Z"/><path class="cls-3" d="M136.78,438.8l.23-.19c.3-.23.6-.47.6-.86a1.68,1.68,0,0,0-.45-1,2.05,2.05,0,0,1-.59-2,4.06,4.06,0,0,0,0-.85.77.77,0,0,1,.77-.45,2.46,2.46,0,0,1,.89.44,4.42,4.42,0,0,1,.59.44c.12.21.25.43.46.46h.06a.23.23,0,0,1,.15.08l.68,1.59,2.66,3.51,1.24,1.62a4.64,4.64,0,0,0,.51.1,2.35,2.35,0,0,0,2.25-.74c.76-.89,1.05-2.55.86-4.94l-.33-6.82.4-.34q0-.66,0-1.32l-.06-1c0-.11,0-.21,0-.32l0-.08v-.14l.27-.39c.14-.21.29-.42.43-.65s.11-.71.17-1.07c0-.15,0-.3.07-.46a19.08,19.08,0,0,0,.2-1.93c0-.3,0-.6,0-.91a14.91,14.91,0,0,0-.1-1.56c0-.25-.08-.51-.13-.77a13,13,0,0,0-.43-1.7c-.07-.21-.14-.42-.23-.63s-.19-.61-.32-.9l-.25-1.76a22.55,22.55,0,0,1,.51-11.48c-3-5.58-3.1-7-.5-10.7.23-.34.45-.69.67-1l.28-.47a1,1,0,0,0,.51-.22,2.18,2.18,0,0,0-.26-2.73c-.65-.29-.64-.87-.65-1.55a2.17,2.17,0,0,1-.52-1.13,2.09,2.09,0,0,0-.61-1.16,1.27,1.27,0,0,0-.16-.14l0,0,.33.18a10.66,10.66,0,0,0,2.59,1.11,8.89,8.89,0,0,1,3.21,1.57c1.14,2,2.51,3.09,4.2,3.25a6,6,0,0,0,2.56-.38l.13-.17.25,0c3-.87,3.23-1.43,2.2-5.39a3.07,3.07,0,0,0-1.46-.52,6,6,0,0,0-2.07.3l-.47.16a3.17,3.17,0,0,1,.54-3.26,3,3,0,0,0,.68-2.52,1.3,1.3,0,0,0-.62-1.39,3.13,3.13,0,0,0-2.77-1.77l-1.3-.07a7.5,7.5,0,0,1-.8-.12,3.79,3.79,0,0,0-.7,0,3.76,3.76,0,0,1-.73,0c-.49,0-1-.27-1.15-1.64a2,2,0,0,0-.08-.31,1.68,1.68,0,0,0-.08-.31,1.35,1.35,0,0,0-.26-.45,1.25,1.25,0,0,0-.21-.18c-.08-.06-.13-.15-.22-.19a4.7,4.7,0,0,1-1.68-3.74,22.75,22.75,0,0,0-2.51-9.47c-1.38-2.73-2.46-4.23-4.22-4.37a6.47,6.47,0,0,0-2.78.56,1.33,1.33,0,0,1-.29,0,4.56,4.56,0,0,1-1.49-.53,4.65,4.65,0,0,0-1.52-.54c-.7-.06-1.22.33-1.6,1.22-1.11.58-1.58,1.78-1.44,3.67s-.54,2.47-2.24,2.36a1.1,1.1,0,0,0-1,.61,2.72,2.72,0,0,1-1.14,1.59,1.58,1.58,0,0,0-.32,1.75,4.09,4.09,0,0,0,.87,1.29,4.79,4.79,0,0,0,2.09,1.19,11.71,11.71,0,0,1,1.58.53l.58.22a10.27,10.27,0,0,0,2.42.5c.39,0,.79.05,1.17.06l.39,0c1.81.16,2.86,1.19,3.87,3.78a33.43,33.43,0,0,1,1.2,4.09q.18.76.43,1.5c0,.14.07.28.11.42-.16-.26-.34-.51-.51-.76a8.84,8.84,0,0,1-1.44-2.69c-1-3.79-1.25-4.58-3.58-4.79-.53,0-1.18-.07-2-.09l-.28,0a1.73,1.73,0,0,0-1,.37c-.59-.14-1.17-.26-1.79-.37-5.06-.84-5.06-.84-5.73-6.65l-2.32-.52c-2-1-2.75-2.93-3.43-4.82a12.83,12.83,0,0,0-1.44-3.13,9.13,9.13,0,0,1-1.55-4.65,18.09,18.09,0,0,0-.44-2.25l0-.08a7.31,7.31,0,0,0-.27-.92,4.43,4.43,0,0,0-.52-2.17,7.8,7.8,0,0,1-.42-1.14,2.56,2.56,0,0,0-2.14-1.84c-.44-.09-.88-.14-1.33-.18a7.82,7.82,0,0,1-2.8-.67,7.48,7.48,0,0,0-2.35.12,3.2,3.2,0,0,1-1,.07c-2.79-.24-6.36-3.41-7.36-6.46l1.69-2.46a8.2,8.2,0,0,1,1.36-.79,3.75,3.75,0,0,0,2.15-1.9v0a1.93,1.93,0,0,0,.15-.66c0-1.4-1.12-1.9-2.22-2.38a6.65,6.65,0,0,1-1.47-.79c-.31-.25-.47-.45-.48-.62s.22-.35.47-.5.55-.34.52-.59l.86-.22,1.08-.21.61.06c.57,0,1.18,0,1.38-.4s0-1-.46-2l-.78-1.24a6.92,6.92,0,0,1-.09-1,3.8,3.8,0,0,0-.83-2.62l-.17-1c-.72-2.74-2.73-3.31-4.74-3.89l-1.54-.55-1.28-.41c.06-.45.24-.64.59-.61a2.4,2.4,0,0,1,.5.11l.27.08a2.76,2.76,0,0,0,.42.06,1.44,1.44,0,0,0,1-.33l.16-.16c.08-.08.18-.13.23-.23a1.76,1.76,0,0,0,.06-.31l0-.17a1.92,1.92,0,0,0,0-.7,1.31,1.31,0,0,0,0-.18,1.62,1.62,0,0,0-.09-.36,15.27,15.27,0,0,1-1-3,14.31,14.31,0,0,0-1-2.89l-.11-.21c-.39-.78-.84-1.67-1.61-1.72a1.33,1.33,0,0,0-.64.14c-.87.41-1.67,1.08-1,2.9l.21.51a4.48,4.48,0,0,1,.54,3.08,1.76,1.76,0,0,1-.2.38l0,.07a2.43,2.43,0,0,1-.46.45,1.15,1.15,0,0,0-.15-.52l-.24,0a1.72,1.72,0,0,0-.27,0h0a1.68,1.68,0,0,0-.8.32l-.09.07a2.14,2.14,0,0,0-.32.25c-.08,0-.13.08-.17.25s0,.21,0,.27a4,4,0,0,1-.75.65A1.91,1.91,0,0,1,90,308a.88.88,0,0,0-.09-1.15,1.57,1.57,0,0,0,.62-1c0-.11.09-.2.12-.31s0-.08,0-.12a1.33,1.33,0,0,0,.57.21c.46,0,.76-.35.9-1.18-.63-3.1-2.85-4.56-4.71-5.49a1.65,1.65,0,0,0-.54-.16l-.78-1.38A2.56,2.56,0,0,0,84,296a2.77,2.77,0,0,0-.91.1,3.08,3.08,0,0,1-1,.13c-1.07-.07-1.5-.94-1.93-2.53a6.24,6.24,0,0,1-.15-.76,3.17,3.17,0,0,0-.66-1.79,7.47,7.47,0,0,0-2.53-2.52h0A4.24,4.24,0,0,0,75,288a4.56,4.56,0,0,0-.46,0h-.08a4.56,4.56,0,0,0-.84.08.81.81,0,0,0-.31.21l-1.14-.64-1.2-.65a4.87,4.87,0,0,0-.5.24,1.36,1.36,0,0,0-1,.54,1.29,1.29,0,0,1-1,.52,1.93,1.93,0,0,1-.38-.07,2.86,2.86,0,0,0-.16-.52l-.77-.33-.73-.27a3.34,3.34,0,0,0,0-.38,37.78,37.78,0,0,0-.54-3.81c0-.07,0-.14,0-.21-.09-.4-.14-.8-.25-1.2l-.84-1.22-.48-.29a.84.84,0,0,1,0-.54A2,2,0,0,0,64,278a1.75,1.75,0,0,0-1.36-.55h0a6.1,6.1,0,0,1-3.48.93c-1.94-.11-4-1.26-6.2-3.5-.39-.39-.8-.74-1.22-1.1l-.55-.48a3.25,3.25,0,0,0-1.89-1.07c-.93,0-1.48.9-2,1.81l-.3.53q0,.86,0,1.71a2,2,0,0,1-1.17.28,5.66,5.66,0,0,1-2.17-.8l-.29-.14a4.26,4.26,0,0,0-.33-.42c-.09-.12-.17-.23-.26-.34a7.48,7.48,0,0,0-1.51-1.32,5.09,5.09,0,0,1-1.12-2.27,4.88,4.88,0,0,0-1.24-2.39l-1.66-3.16a4,4,0,0,0-1.68-1.55,4.23,4.23,0,0,1-1.72-1.56,11.63,11.63,0,0,0-5.52-4.7Q21.21,252.36,14,246.89a3.77,3.77,0,0,0-.91-.48l-.35.12a4.41,4.41,0,0,0-1.25-.28l-.37,0c-1.4-1.9-3-3.76-5.5-4.54l-1.09-.59-1.43-1.48a5.14,5.14,0,0,0-1.78-1.73,5.41,5.41,0,0,1-1.68-1.56l-.35-1.91c-.18-2.28-1.9-3-3.56-3.72l-.31-.13-.33-.11c-.22-.06-.47-.14-.52-.24l-.14-.31c-1.9-4.1-3.87-8.33-9-9.85-.25-.07-.46-.41-.67-.77a3.47,3.47,0,0,0-.55-.76l-.39-.37a3.38,3.38,0,0,0-2-1.25,1.52,1.52,0,0,0-.32.09l-.09,0a2.4,2.4,0,0,0-1.12.72,1.79,1.79,0,0,1-1.39.5,7.06,7.06,0,0,1-2.49-.64,13.66,13.66,0,0,0-5.06-1,12.55,12.55,0,0,0-3.44.43,24.63,24.63,0,0,1-6.88.88h-.39l-4.93-2.57a17.47,17.47,0,0,0-8.58-5.46c-.29,0-.59,0-.9-.06s-.64-.06-.94-.06a2.63,2.63,0,0,0-1,.14,6.65,6.65,0,0,1-1.28.29c-1.25.2-2.54.41-2.55,2.14a9,9,0,0,0,.73,4.21,1.19,1.19,0,0,0,.7,1.32c.31.34.12.66-.08,1a1,1,0,0,0-.22.85,1.09,1.09,0,0,0,.59.55h0a.92.92,0,0,1,.12.56q2.7,3.4,5.39,6.84a4.79,4.79,0,0,0,2,1.64l.4.22,3.65,3,2.22,2.58A4.18,4.18,0,0,0-41.44,237,4.11,4.11,0,0,1-39,238.81a2.41,2.41,0,0,0,1.5,1.3l3.33,2.73c.19.24.36.49.54.74a4.39,4.39,0,0,0,1.86,1.79,16.17,16.17,0,0,1,10.46,6.7A5.18,5.18,0,0,0-20,253.18a6.62,6.62,0,0,1,.71.55l0,0h0s0,0,0,0l0,0-.06.07.07-.06h0a5.25,5.25,0,0,0,1.62,2.6A20.76,20.76,0,0,0-13.79,260a16.06,16.06,0,0,1,4.51,4.73l0,.07a7.45,7.45,0,0,1,.39.89c.07.19.13.39.18.59a7.26,7.26,0,0,1,.19.72c-.68,1.35-.43,2.79.73,4.41.79,1.54,2.13,1.68,3.31,1.81l.34,0a25.71,25.71,0,0,1,7.54,2.61l.6.87a10.46,10.46,0,0,1,4.28,3c.37.37.74.74,1.11,1.08a2.87,2.87,0,0,0,1.95,1.46.36.36,0,0,0,.27-.05h0c0,.42.09.85.16,1.28a9.62,9.62,0,0,1,.16,2c.45,1.06.93,2.11,1.41,3.16a36.67,36.67,0,0,1,3,8.18,26.79,26.79,0,0,0,2.39,6.54,28,28,0,0,1,2.31,6.15A2.5,2.5,0,0,0,22.5,311h.21l.22.19c4,1.34,7.69,2.9,9.84,7.29a11.49,11.49,0,0,0,2.13,3.35,16.88,16.88,0,0,1,1.55,2.12c.23.44.54.91,1,1a.59.59,0,0,0,.27,0,4.58,4.58,0,0,0,2.05,2.07l.9,1.31.89,1.28a1.46,1.46,0,0,0,0,.5c.35.58.68,1.16,1,1.74a46.13,46.13,0,0,0,3.65,5.66l.08-.07h0a2.33,2.33,0,0,0,.74,2.13c2.22,1.71,3.15,4.13,4.06,6.46a23.69,23.69,0,0,0,1.82,4,7.62,7.62,0,0,0,2.26,3.29,3,3,0,0,1,1,1.41l.13.19,0,0,0,0c-2.19,2.23-2,3.19,1.44,7.36L61.42,367a4.52,4.52,0,0,0,1.06,1.55c.33.3.68.59,1,.87s1,.81,1.43,1.25a7.87,7.87,0,0,0,1.13.79,2.31,2.31,0,0,0,.63,1.07,16.82,16.82,0,0,0,3.3,5.34,3.78,3.78,0,0,0,1.52,2.53c.2.19.39.37.58.57a46,46,0,0,0,6.55,5.67,2,2,0,0,0,.84,1.1,1.16,1.16,0,0,0,.44.16H80L80,388l0,.18.64.41.78.52a2,2,0,0,0,.4,1.43A12.25,12.25,0,0,1,83,393.26c.55,1.72,1.12,3.49,2.91,4.55a2.55,2.55,0,0,0,2,1.59h0L90.59,402c.44.62.89,1.27,1.67,1.38h0l1.48,1.43a3.71,3.71,0,0,0,1.82,1.69,4.51,4.51,0,0,1,1.6,1.93c.55,1,1.12,2,2.25,2.15h0a.79.79,0,0,0,.3.42l.08,0a.61.61,0,0,0,.21.1h.12a26,26,0,0,0,5.57,5.09l1,.73c3.72,2.74,7.55,5.57,9.55,10.67a10.67,10.67,0,0,0,3,3.79l.74.67.06.29c.3,1.35.61,2.75,2,3a1.88,1.88,0,0,0,1.36,1.39l.91.23c.83,1.78,1.61,2.66,2.44,2.78a2.12,2.12,0,0,0,1.78-.85c0-.14,0-.29,0-.43a2,2,0,0,1,.09-.84c.23-.47-.09-1-.4-1.59a2.05,2.05,0,0,1-.42-1.21c0-.24.25-.42.62-.55a1.65,1.65,0,0,1,.8-.09c1,.14,1.95,1.23,2.55,2a5.92,5.92,0,0,0,4.27,2.42C136.33,438.77,136.55,438.79,136.78,438.8Z"/><path class="cls-3" d="M317.1,412c.1.2.19.41.28.61a5.93,5.93,0,0,0,.34.7,3,3,0,0,0,.41,1.35,1.73,1.73,0,0,0,.77,1.9.76.76,0,0,0,.33.09c.39,0,.6-.42.8-.83l.16-.33,1.16-.6a8.53,8.53,0,0,1,.89-1.07,4,4,0,0,0,1.43-3.56h0l.11-.26a3.86,3.86,0,0,0-.14-.48,2.57,2.57,0,0,0-.27-.82,2.24,2.24,0,0,1-.27-.94,1.47,1.47,0,0,1,0-.21,1.44,1.44,0,0,1,0-.17l.4,0,.47,0a1,1,0,0,0,.84-.31A1.69,1.69,0,0,0,325,406c0-.46,0-1,0-1.61,0-1.28,0-2.6-.35-3.1-.11-.13-.23-.2-.56-.2h0c-1.18,0-1.26-.67-1.36-1.37a3,3,0,0,0-.19-.84c-1.11-2.52-.17-4.56.9-6.42a1.19,1.19,0,0,0,.18-1.5,4.35,4.35,0,0,1,.16-2.51,8.82,8.82,0,0,0,.24-1,2.32,2.32,0,0,1,.13-1.53.6.6,0,0,1,.54-.25,2.28,2.28,0,0,1,.69.15c1.11-.62,2.25-3.27,2.74-5.46a6.21,6.21,0,0,0,0-3.76c-.21-.4-.54-.89-.89-1a1.67,1.67,0,0,1-1.17-.81,3.22,3.22,0,0,1,.08-2,7.25,7.25,0,0,0-.38-5,1.94,1.94,0,0,1-.31-1.23.42.42,0,0,1,.25-.28c1.28-.52,1.56-1.76,1.84-3a7.24,7.24,0,0,1,.57-1.76A11.8,11.8,0,0,1,331,359.6c1.66-.88,3.38-1.8,4.29-4.06l1.9-2.25c1-1.79,2.55-2.08,4-2.37a9,9,0,0,0,2.14-.6l.14-.33c.22-.5.41-1,.93-1.15a2.1,2.1,0,0,0,.81-2.21c-.91-2-.87-3.56.1-5a2.66,2.66,0,0,0,.44-1.16.37.37,0,0,0,0-.08,1.48,1.48,0,0,0,0-.45,1.44,1.44,0,0,0-1-1c-1.34-.52-2-1.08-2.24-1.8s0-1.62.77-2.94a3.67,3.67,0,0,0,.62-3.07c-1.35-4.55.55-8,2.36-10.43a14.43,14.43,0,0,1,1.09-1.68,8,8,0,0,0,1.62-3.26,5,5,0,0,0,.1-1,4.42,4.42,0,0,1,1,.26,3.68,3.68,0,0,0,1.14.27A.94.94,0,0,0,352,315a3.19,3.19,0,0,0,1.11-.32,25.5,25.5,0,0,0,4.11.27,18.09,18.09,0,0,1,5.88.72,4.89,4.89,0,0,0,1.61.3c1.42,0,2.5-.86,3.33-2.61l1.29-2.2c.59-1.34.82-2,.63-2.46s-.91-.65-2.48-.84a16.35,16.35,0,0,0-.94-1.49c-.11-.16-.2-.34-.31-.5-.36-.52-.75-1-1.15-1.48l-.23-.27a39.69,39.69,0,0,0-5.24-4.74c-1.3-1-2.65-2.09-3.88-3.25a2.41,2.41,0,0,0-1.94-1.54l-.69-.53c-1.51-.88-2.13-2.58-2.74-4.23l-.15-.34a.45.45,0,0,0,0-.62,9.19,9.19,0,0,1,1.5-2.59,7.83,7.83,0,0,0,1.69-3.34c.69-1.2.14-2-.39-2.85-.11-.17-.22-.34-.33-.52-3.23-2.6-4.56-6.64-5.85-10.54-.45-1.36-.9-2.72-1.43-4a1.21,1.21,0,0,1,.35-1.69c1.83-1.71,1.24-3.93.49-5.67a1.57,1.57,0,0,0-.61-.57c.09-1,.73-1.43,1.61-1.93a3.91,3.91,0,0,0,2-2.27,4.12,4.12,0,0,0-.31-2.78,1,1,0,0,0-.81-.33h-.47a.92.92,0,0,1-.81-.36.82.82,0,0,1-.61-.39,1.57,1.57,0,0,1,0-1,3.3,3.3,0,0,0,1.83-.84,3.27,3.27,0,0,1,1.87-.85,3.13,3.13,0,0,1,.72.11c.07,0,.11-.08.18-.11l.07,0s.12,0,.15-.09a1.51,1.51,0,0,0,0-1.17l-.15-.45a4.67,4.67,0,0,0-1.78-2.92l0,0a2.84,2.84,0,0,0-1.37-.32h0c-.46,0-.92,0-1.38,0-.76,0-1.53,0-2.29-.05-.48,0-.95,0-1.4,0h-.21a8.34,8.34,0,0,0-3.45-2.69h0a6.62,6.62,0,0,0-2.43-.5,9.14,9.14,0,0,0-1.81.19,28.91,28.91,0,0,1-5.81.62,22.06,22.06,0,0,1-6-.83,1.94,1.94,0,0,0-.87-.81l0,0a1,1,0,0,0-.32-.12,1.31,1.31,0,0,0-.77.3,11,11,0,0,0-1.27.78,4.7,4.7,0,0,1-2.41,1.07,2.85,2.85,0,0,1-2.22-1.5.92.92,0,0,0-.79-.39,1.9,1.9,0,0,0-1.3.6c-.32.34-.67.65-1,1a6.35,6.35,0,0,0-2.43,3.5,1.11,1.11,0,0,0-.1.47c-.13.66-.25,1.32-.38,2a34.63,34.63,0,0,1-1.28,5.4,12.5,12.5,0,0,0-.38,5.19,14.32,14.32,0,0,1-.13,4.24,3.74,3.74,0,0,0-.45,2.3c0,.16,0,.31,0,.47,0,2.67-.95,4-2.84,4a5.24,5.24,0,0,1-.92-.1,3.72,3.72,0,0,0-.68-.07c-1.92,0-2.48,1.86-2.84,3.62a3.9,3.9,0,0,0,0,1.31,2.58,2.58,0,0,1-.2,1.87,7.36,7.36,0,0,1-.27.78c-.36.93-.74,1.89.31,2.86a1.4,1.4,0,0,1,.57.92c0,.31-.28.55-.56.78a1.49,1.49,0,0,0-.54.62,4,4,0,0,0-1.9,2.06,4.33,4.33,0,0,0-2.48,2.55,7.14,7.14,0,0,0,.49,4.78,4,4,0,0,1,.15,2A7.54,7.54,0,0,0,292.6,295c-.83.22-1.08,1.3-1.27,2.17-.14.65-.28,1.2-.59,1.2a.45.45,0,0,1-.21-.07,4.17,4.17,0,0,0-2-.54,9,9,0,0,0-2.84.59,8.62,8.62,0,0,1-2.71.57,3.73,3.73,0,0,1-1.34-.26l-.4,0a3.77,3.77,0,0,0-3.34,1.93,3,3,0,0,1-2.6,1.43,8.66,8.66,0,0,1-2-.37,8.76,8.76,0,0,0-2-.37,1.61,1.61,0,0,0-.6.08c-.07-.19-.13-.38-.2-.61l-1.26-.9H268c-.24-.33-.51-.58-.77-.87l-.29-.33a9.09,9.09,0,0,0-2.9-2.08l-.41-.16a8.55,8.55,0,0,0-1.81-.47l-.43-.06c-.25,0-.49-.09-.75-.1a11.24,11.24,0,0,0-1.63.09,13.83,13.83,0,0,1-1.93.07l-1.82-.06c-2.09,0-4.28.1-6,2.33-1.1.66-1.23,1.89-1.36,3.08a4.71,4.71,0,0,1-.76,2.55.3.3,0,0,0-.26.11.26.26,0,0,0,0,.28,7.6,7.6,0,0,0-2.62,1.3,5.87,5.87,0,0,1-3.3,1.35,3.92,3.92,0,0,1-1.26-.26l-.2.13a1,1,0,0,0-.42.34,3.27,3.27,0,0,1-.45,0,7.35,7.35,0,0,1-2.44-.66,7.35,7.35,0,0,0-2.47-.67h-.34l-1.2-.16a2.32,2.32,0,0,0-1.27-.42,5.25,5.25,0,0,0-1.5.26,5.05,5.05,0,0,1-1.48.26,2.49,2.49,0,0,1-.38,0,7.08,7.08,0,0,0-3.73,1.92,2.84,2.84,0,0,1-2.14,1,3.81,3.81,0,0,1-2.2-1l-.2-.09a3.21,3.21,0,0,0-1.23-.39.34.34,0,0,0-.23,0c-.93-2.27-2.68-3.52-4.38-4.73l-.5-.36-.61-.25c-.15-.24-.35-.43-.51-.65s-.31-.41-.47-.6a16.84,16.84,0,0,0-2.32-2.23,2.31,2.31,0,0,0-1.29-1.47,42.48,42.48,0,0,1-4.72-9.41,1.84,1.84,0,0,0,1.05-1,1.23,1.23,0,0,0-.08-.84c-.12-.28-.26-.41-.43-.42s-.51.3-.76.61l-.64,0c-1.83-.05-3.72.07-5,2.12,0,0-.07.33-.07.35-.43.77-.9,1.51-1.37,2.25a19.21,19.21,0,0,0-2.93,6.21c-.15,1.14-.23,2.3-.3,3.47-.21,3.17-.42,6.44-2.11,9.12a1.3,1.3,0,0,0-.48.93,1.88,1.88,0,0,0,.49,1.21,2.56,2.56,0,0,1,.75,1.62,3.38,3.38,0,0,0,.46,1.31l.06.69a13.41,13.41,0,0,1,0,2c-.07,1.72-.14,3.5,1.45,4.67,2.22,1.62,3.28,3.8,3.56,7.26q0,.34,0,.68c-2.33,1.55-2.65,3.62-1.07,6.94.32.67.68,1.33,1.06,2,1.18,2.11,2.41,4.3,2,7-.18.2-.24.36-.2.49s.2.2.46.23c1.26.14,2.64.43,3.18,1.43a3.8,3.8,0,0,1-.14,3.06c-.63.81-.62,1.75.07,3a3.06,3.06,0,0,0,2.2,1.48,3.27,3.27,0,0,0,2.51-1.36,3,3,0,0,1,2.38-1.25,3.85,3.85,0,0,1,2.05.89l2.12,5.11-1.11,4.18,0,0c-1,1.59-1.51,2.32-1.41,3s.64,1.14,1.73,2.12l-.06.3c.17.09.34.16.52.23a3.14,3.14,0,0,1,1.29.82,2.08,2.08,0,0,1,.18.23,10.93,10.93,0,0,1,.32,3.49,10,10,0,0,0,.46,3.93,6.47,6.47,0,0,1,1,2.51,7.58,7.58,0,0,0,1.07,2.81q0,2.38.07,4.76a2.24,2.24,0,0,0-.33,1.21s0,0,0,.05a2.85,2.85,0,0,0,0,.49,3.8,3.8,0,0,0,1.29,2.09,1.39,1.39,0,0,0,.42.16l.12,0c.08,0,.16.09.24.09a3,3,0,0,0,1.9-1,7,7,0,0,1,.88-.65l1.77.22.17.34a5.12,5.12,0,0,0,1.89,2.49l.07,0a1.3,1.3,0,0,0,.41.15,2.47,2.47,0,0,0,1.58-.62.65.65,0,0,1,.43-.11,1.22,1.22,0,0,1,1,.87,2.1,2.1,0,0,0,1.72,1.35,3.09,3.09,0,0,0,1.37-.3c.36-.26.72-.54,1.07-.82,1.44-1.14,2.94-2.32,4.62-2.23a5.33,5.33,0,0,1,3.33,1.75,1.08,1.08,0,0,0,.44-.2l.25-.15.3,0,.24-.28a3.89,3.89,0,0,1,1.7-.45c.19,0,.36,0,.52.06h0a13.78,13.78,0,0,1-.23,1.58,7.94,7.94,0,0,0-.13,3.3,11.63,11.63,0,0,0,.38,1.54,6.75,6.75,0,0,1,.41,2.57,1.85,1.85,0,0,1-.17,1.53,2.15,2.15,0,0,0-.22,1.55,8.13,8.13,0,0,0,2.16.53,2.62,2.62,0,0,0,2.5-1.39c1.45-2.27,2.85-3.29,4.42-3.22a5.83,5.83,0,0,1,3.52,1.81,3.57,3.57,0,0,0,1.93,1c.8,0,1.3-.63,1.5-2a16.67,16.67,0,0,1,1.49-.81c1.88-.94,3.82-1.92,3.89-5.46,0-.26.09-.28.16-.28s.5.28.82.54a3.66,3.66,0,0,0,.59.44l.48.74a2.35,2.35,0,0,0,1.44,1.38,4.08,4.08,0,0,0,2.17,1.28c.29.09.57.19.86.31a1,1,0,0,0,.39.09,2.58,2.58,0,0,0,1.08-.3,2.61,2.61,0,0,1,1.06-.3,1.39,1.39,0,0,1,1,.62l-.52,1.43c-.52,1.74.36,2.84,1.32,3.82a3,3,0,0,0,1.27.49,1.23,1.23,0,0,0,1-.51,5.64,5.64,0,0,1,4.26-2.1,5,5,0,0,1,1.22.2,3.39,3.39,0,0,0,2,1,9.08,9.08,0,0,1,1.41.42,3.84,3.84,0,0,1,2.66,1.8c1.51,2,1.2,4.45.93,6.61a10,10,0,0,0,1.2,6.57,2,2,0,0,0,1.4.75,2.37,2.37,0,0,0,1.55-.65c1.32-.53,2.64-1.08,4-1.63s2.71-1.13,4.06-1.68l.32-.12a2.91,2.91,0,0,0,2.07-1.78.48.48,0,0,0-.09-.1l-.07-.12a1.33,1.33,0,0,0,.61.21c.48,0,.82-.41,1.06-1.29a.51.51,0,0,1,.61-.53h0a1.74,1.74,0,0,1,1.21-.33l1.08.06c.81,0,1.61-.18,1.89-1.67a2.49,2.49,0,0,0,1.2.27h.94C315.85,409.82,316.78,410,317.1,412Zm5.6-1.32,0,0-.15.33-.06.1c-.19-.36-.19-.47-.17-.49l0-.05h0s0,0,0,0S322.59,410.65,322.7,410.66ZM212.34,362.84l.23.2.06.06c-.07,0-.16-.07-.26-.23S212.34,362.86,212.34,362.84Z"/><path class="cls-3" d="M506,498.08a3.08,3.08,0,0,1-.46-.3,10.85,10.85,0,0,0-4.65-.65,8.19,8.19,0,0,0-4.92,2.58,4.09,4.09,0,0,1-2.15,1.34,1.69,1.69,0,0,1-1.19-.33c0-.55-.35-.6-.64-.65a1.28,1.28,0,0,1-.4-.12,3.37,3.37,0,0,1-.83.2l-.38.07h-.95a4.17,4.17,0,0,0-1.78.85,4.12,4.12,0,0,1-2.44.92,5,5,0,0,0-1.94.54,11.08,11.08,0,0,0-1.38.25,2.76,2.76,0,0,0-1.61-.27,30.24,30.24,0,0,0-5.79,1.49c-.47.17-1,.32-1.49.46-1.93.54-3.94,1.09-4.84,3.45-1.72,4.52-4.66,6.37-7.76,8.33-.66.42-1.34.84-2,1.29a41,41,0,0,0-13,9.47c-1.1,1.22-2.24,2.47-2.4,4.32a27.45,27.45,0,0,1-1.24,5.45c-.27.91-.54,1.83-.75,2.84,0,.1-.06.2-.08.3a.79.79,0,0,0,0,.12,1.36,1.36,0,0,0-.37,0c-.85.07-1.54,1-2.14,1.79l-.3.53a4.91,4.91,0,0,0-1,2.84c.33,3.5-1.6,5.13-3.46,6.7l-.43.35a6.87,6.87,0,0,0-1,1l-.07.09a2.88,2.88,0,0,0-.36.49,4.07,4.07,0,0,0-1.84,1.44,1.08,1.08,0,0,0-.15.22,3.31,3.31,0,0,1-.14,1.95,3.17,3.17,0,0,0-.1,2.08s.09.06.13.1l0,0a1.43,1.43,0,0,0,1.17.31l.49-.07.73-.55a2.23,2.23,0,0,0,.37.17c.48-.14,1-.24,1.48-.34,2.09-.41,4.26-.85,5-4.63,1.39-1.45,1.36-3.27,1.32-5,0-.37,0-.74,0-1.1a2.8,2.8,0,0,1,.32-1.53.58.58,0,0,1,.43-.24,2.35,2.35,0,0,1,1.08.33,16.15,16.15,0,0,0,3.26.12,7.48,7.48,0,0,0,5.09-2.43,7,7,0,0,1,4.71-2.53,9.61,9.61,0,0,1,1.4,0,2.88,2.88,0,0,0,.6,0,1.93,1.93,0,0,0,1.21-.6l0,0a4,4,0,0,0,.94-2.3l.27-.1.58-.84.72-.94c.59-.42,1.21-.86,1.17-1.78a1.85,1.85,0,0,0,1.07-1.39l.26-.43c.55-.94,1.09-1.82,2.14-1.93a1.56,1.56,0,0,0,.64-.58,6.31,6.31,0,0,0,1.08-2.56c.33-1.26.65-2.46,1.76-3a26.05,26.05,0,0,0,3.78-2.61,16.9,16.9,0,0,1,5.76-3.4,1.47,1.47,0,0,1,.79-.31,4.58,4.58,0,0,1,.59,0,4.54,4.54,0,0,0,.59,0,1.55,1.55,0,0,0,1.09-.58c.21-.18.43-.35.65-.52a9.67,9.67,0,0,0,1.37-1.2,10.47,10.47,0,0,1,4.84-2.76c2.34-.81,4.75-1.65,6.26-5a.74.74,0,0,1,.5-.3c1.9-.29,3.58-1.53,5.21-2.72.77-.57,1.58-1.15,2.38-1.63a3.85,3.85,0,0,0,.61-.36l.07,0a9.35,9.35,0,0,0,2.67-3.33l.56-1C507.07,498.66,506.54,498.36,506,498.08Z"/><path class="cls-3" d="M436.84,510.19a5.51,5.51,0,0,1,2.49.41,1.17,1.17,0,0,0,.41-.18.9.9,0,0,0,.77.35,1.51,1.51,0,0,0,.3-.12l0,0a1.77,1.77,0,0,0,.41-.16c.27-.13.3-.33.26-.41,2.71-1.24,4.81-3.74,6.91-6.26l.13,0a.18.18,0,0,0,.09,0h0a4.09,4.09,0,0,0-.49,2.68,2.93,2.93,0,0,0,1.88,1.93,2.89,2.89,0,0,0,2.37,1.24,2.73,2.73,0,0,0,.29-.1l.21-.07a2.92,2.92,0,0,0,.89-.49l.15-.13a4.32,4.32,0,0,0,.5-.42,3.75,3.75,0,0,1,2.58-1.18,6.18,6.18,0,0,0,1.25-.28A5.51,5.51,0,0,1,462,505.5l1-.08a9.26,9.26,0,0,0,2.45-.5c.76-.07,1.35-.6,1.91-1.56a2.87,2.87,0,0,0,2.23-.94,4.49,4.49,0,0,0,.64-2.71c0-2.26-.69-2.65-1.85-2.55l-1.15.14c-1.23.11-2.45.25-3.68.39l-3.28.35-.36,0c-.48,0-1,.12-1.44.2s-1,.15-1.44.19a5.7,5.7,0,0,1-2-.16l-1.28,1.55c-.75,1.06-1.49,1.63-2.17,1.68s-1.59-.57-2.35-1.92c-.34-.63-.78-.95-1.27-.91a1.93,1.93,0,0,0-1.2.7,5,5,0,0,1-3.53,1.64c-.5,0-1,0-1.53,0s-1,0-1.53,0l-.35,0-.53-.16a1,1,0,0,0-.84-.41,2.19,2.19,0,0,0-1.1.57,3,3,0,0,1-1.48.79c-.82.05-1-1-1.12-2.19,0-.36-.1-.71-.17-1.05a1.42,1.42,0,0,0-1.23-.76,1.83,1.83,0,0,0-1.08.55,2.58,2.58,0,0,0-2.11,1.23c-.52,1-.07,2.51.4,4.08l.08.13a.36.36,0,0,1,0,.06,7.85,7.85,0,0,0-1.34-.05,3.41,3.41,0,0,0-1.46.43l-.14.09a3,3,0,0,0-.87.83.79.79,0,0,0-.08.12A5.59,5.59,0,0,0,426,507c-.52,2-1.4,3.06-2.59,3.12a3.93,3.93,0,0,1-2.39-.89.61.61,0,0,0-.65-.44l-.3,0-.27.06a7.32,7.32,0,0,1-.49-.83c-.41-.78-.83-1.58-1.77-1.54a2,2,0,0,0-.53.1c-.9.29-1.78.66-2.69,1a16.21,16.21,0,0,1-5.21,1.52,6.19,6.19,0,0,1-5.1-2.37c-.16-.19-.47-.18-.75-.17h-.36c-.75-1.41-1.89-1.41-3-1.4a3.38,3.38,0,0,1-2.27-.52.7.7,0,0,0-.65-.56.82.82,0,0,1-.51-.26l-1.68-.1a2.78,2.78,0,0,0-2.06-.91,6,6,0,0,0-2.58,1,7.62,7.62,0,0,1-2.17,1c0-.07-.12-.17-.22-.17s-.15.07-.21.2a17.68,17.68,0,0,1-2.15,1.67c-1.86,1.29-3.78,2.63-4.3,5.81a1,1,0,0,1-.65.38c-.33,0-.61-.29-.9-.61s-.58-.64-.94-.63a.25.25,0,0,0-.23.11h0a5.81,5.81,0,0,0-2.19-3.93l-.26-.22-1.26.71a5.36,5.36,0,0,0-.88,2.83,10.59,10.59,0,0,1-.26,1.53c-.06.13-.14.2-.36.2h-.06a3.2,3.2,0,0,0,0,3.78,2.65,2.65,0,0,0,1.7.78c.8,0,1.37-.68,1.89-1.58.13-.21.25-.42.38-.65a4.11,4.11,0,0,0,1.44,2.55,5.86,5.86,0,0,0,.76.58h.06l.08.05a1.87,1.87,0,0,0,.3-.08l.21-.06a1.55,1.55,0,0,0,.54-.28,1.87,1.87,0,0,0,.46-.51,2.54,2.54,0,0,0,.82,1,2.6,2.6,0,0,0,.89.34,25,25,0,0,0,3,.07l2.83-.1,1.18,0a6,6,0,0,1,1.81-.31,17.77,17.77,0,0,1,1.83.07,16.72,16.72,0,0,0,1.84.07,5.81,5.81,0,0,0,1.68-.29l-.12.23a1.64,1.64,0,0,0,1.76,1.27,6.52,6.52,0,0,0,.79-.09l.52-.08a1.16,1.16,0,0,1,.64-.32.48.48,0,0,1,.29.1,1.72,1.72,0,0,1,.32,1.08,1.46,1.46,0,0,0,1,.39,1.2,1.2,0,0,0,.38-.08l1.5-.57a24.32,24.32,0,0,1,7.33-2,10.22,10.22,0,0,1,3.23.35c.11,0,.25-.1.5-.28a12.9,12.9,0,0,1,3.68-1.55,11,11,0,0,0,1.28-.44,7.41,7.41,0,0,1,2.73-.5,11.06,11.06,0,0,0,1.64-.18,5.14,5.14,0,0,0,1.43-.62,4.75,4.75,0,0,1,1.36-.59,15.55,15.55,0,0,0,4.49-2A13,13,0,0,1,436.84,510.19Z"/><path class="cls-3" d="M313.87,505c-2.08-3.2-4.23-6.1-7.73-6.39a.36.36,0,0,1-.2.06.41.41,0,0,1-.28-.15,1,1,0,0,0-.68-.36c-.07,0-.13.06-.2.08l-.09,0a.84.84,0,0,0-.27.11l-.61.54c-.41.36-.83.73-1.26,1.06a5.17,5.17,0,0,1-3.4,1,6.23,6.23,0,0,1-4.92-2.67l0-.06a5.13,5.13,0,0,1-.35-.65,12.54,12.54,0,0,1,0-1.48c.05-1.44.11-2.93-1.28-4l-1.68,0a6.39,6.39,0,0,1-1.61-.88,4.55,4.55,0,0,0-2.24-1,.55.55,0,0,0-.21,0l-.53-.73a2.34,2.34,0,0,0-1.45-.69,3.71,3.71,0,0,0-2.38,1.19h-4.71a4.41,4.41,0,0,1-.49-.07,4,4,0,0,0-.5-.07,1,1,0,0,0-1.08.68.64.64,0,0,1-.35.06h-.07a13,13,0,0,1-6.72-3.34c-1.46-1.25-2.18-2.37-2.2-3.42a3.24,3.24,0,0,1,.77-2,7,7,0,0,1,1.24-1.18l0-.16h0l.81.1a13.42,13.42,0,0,1,.85,1.2,4.64,4.64,0,0,0,3,1.45,8.24,8.24,0,0,0,3.53-.79l.93-.73c.75-.18.9-.88,1-1.77,0-.09,0-.18,0-.27s0,0,0-.05l1.54.15,1-.47a2.08,2.08,0,0,0,.3-.15,8.69,8.69,0,0,1,3.75-.76,7.27,7.27,0,0,1,.8.08c1.22-.56,1.85-1.23,1.94-2a3.66,3.66,0,0,0-1.29-2.67,1.15,1.15,0,0,0-.89-.37h-.44a1,1,0,0,1-1.06-.72,1.2,1.2,0,0,0-.81-.53c-.44,0-.79.38-1.13.82a16.77,16.77,0,0,1-4.79.29l-2.49-.15c-.75,0-1.5-.06-2.24,0-.55,0-1.1,0-1.65,0l-1.68-.11a9.74,9.74,0,0,0-4.85.66l-.63.75a3.58,3.58,0,0,1-1.9.74,1.64,1.64,0,0,1-1.29-1,3.14,3.14,0,0,0-2.7-1.85,9,9,0,0,0-1.46.06,2.53,2.53,0,0,0-1.22-.33l-2.49-.64a3.91,3.91,0,0,0-3.76-2.42l-1-.06a8.42,8.42,0,0,1-1-.12,13,13,0,0,1-1.23-1.26c-.83-.93-1.7-1.9-2.75-2a2.45,2.45,0,0,0-1.76.68l-1.12,0a1.71,1.71,0,0,1-.9.21c-1-.07-1.48-1.22-1.9-2.28a5.25,5.25,0,0,0-3.26-3.47l-3.54-.32c-3,.15-3.28,2.74-3.54,5.24-.08.66-.14,1.33-.26,1.95-.53,2.52-1.14,3.29-2.48,3.17a9.51,9.51,0,0,1-2.73-.88,6.8,6.8,0,0,0-1.91-.55,3,3,0,0,0-1.07.09v0l-.15-.13-.09.09h0c-.42-.1-.85-.23-1.29-.36s-1.12-.34-1.66-.45l-.51-.2a14.2,14.2,0,0,0-3.6-1,5.77,5.77,0,0,0-.93,0l-.6-.07a2.77,2.77,0,0,0-.91-.25,6,6,0,0,0-2.1.3,5.87,5.87,0,0,1-2.08.3,3.17,3.17,0,0,1-2-1l-.54-.14c-.41-.11-.8-.21-1.2-.33s-.84-.25-1.26-.36c-2.66-.73-5.18-1.42-6-6.46-.36-2.33-2.64-6-5.23-6.32a2.78,2.78,0,0,0-.73,0,9.44,9.44,0,0,1-2.52.05,22.06,22.06,0,0,1-6.11-2c-.79-.34-1.6-.69-2.38-1-.37-.45-.71-.94-1-1.43a8.2,8.2,0,0,0-3.1-3.07l-.21-.07a3.52,3.52,0,0,0-.68-.24,10.8,10.8,0,0,1-1.42-.7,6.43,6.43,0,0,0-2.06-.86c-1.1-.13-1.68.81-1.79,2.91a2.73,2.73,0,0,1-1.91.45,5.83,5.83,0,0,1-1.55-.5c-.18-.09-.36-.17-.53-.28l0-.06-1.51-.74a16.72,16.72,0,0,0-5.19-1.95,6.26,6.26,0,0,0-1.78,0,.84.84,0,0,1-.52.11c-.3,0-.59-.25-1-.83l-.3-1.09a3.75,3.75,0,0,1-.42-.17,2.35,2.35,0,0,0-.63-.22.84.84,0,0,0-.78.4l-.42,0c-2.31,1.47-2.85,4.31-3.07,7.14-.19.29,0,.7.27,1.24a4.29,4.29,0,0,0,0,1,1.37,1.37,0,0,1-.34.14,3.87,3.87,0,0,0-1.42-.56,1.53,1.53,0,0,0-1.08.26l-.05,0a3.32,3.32,0,0,0-1.12,2.32,27.57,27.57,0,0,0-.42,4c0,.26,0,.52.05.77a.28.28,0,0,1-.21.06c-.27,0-.53-.55-.77-1s-.52-1-1-1.1l-.35,0a.85.85,0,0,1-.66-.32,1.59,1.59,0,0,1,.06-1.16,1.92,1.92,0,0,0-.24-1.53,2.65,2.65,0,0,0-1.43-1.25c-.8-.12-1.27.58-1.72,1.25a5.42,5.42,0,0,1-.68.88c-.66.63-.31,1.14.06,1.67a4.76,4.76,0,0,1,.36.58,8.34,8.34,0,0,0,6.63,5c.3,0,.6.08.91.1l1.26.14a23.91,23.91,0,0,0,2.75.22,9.26,9.26,0,0,1,1.25.09,15.94,15.94,0,0,1,6.88,3.18,4.89,4.89,0,0,1,2.19,2.49,2.55,2.55,0,0,1-.58,2.09c-.78,1.08.06,2.08.67,2.81a7.61,7.61,0,0,0,4.75,3.06s14.34,3.95,14.34,3.93l.64.75a17.39,17.39,0,0,1,1.33,1.19,14,14,0,0,0,1.32,1.13,5.73,5.73,0,0,0,1,.63h0a1.8,1.8,0,0,0,.17.4s0,0,0,0a1,1,0,0,0,.3.38l.1.06c.06,0,.09.08.15.09a2.14,2.14,0,0,0,1-.3,1.55,1.55,0,0,1,.52,0,4.18,4.18,0,0,1,1.42.59,5.55,5.55,0,0,0,1,.47l.64.82a10.4,10.4,0,0,1,1.91,1.26,6.53,6.53,0,0,0,2.84,1.54,2.47,2.47,0,0,0,1.78-.49c.08-.3.14-.61.21-1.06l1.94-1.61a3.35,3.35,0,0,1,.53,0l.86.12a2.42,2.42,0,0,0,.91,0,3.35,3.35,0,0,0,.67.32,6.37,6.37,0,0,0,1,.19,4.11,4.11,0,0,0,1.18,0l.5-.16.21.21a11.33,11.33,0,0,1,2.46,0,29.34,29.34,0,0,1,7.07,2.08,39.52,39.52,0,0,0,5.15,1.72,47.14,47.14,0,0,1,4.24,3,30,30,0,0,0,6.57,4.16l.29.1a11.29,11.29,0,0,0,1.41.49,1.84,1.84,0,0,0,1.51,1.29,2.14,2.14,0,0,0,.41,0l.24-.06a5.09,5.09,0,0,0,3.45,2,5.17,5.17,0,0,0,.93,0,13.83,13.83,0,0,1,2.29,0,7.25,7.25,0,0,1,2.52.67l.86.22a3.06,3.06,0,0,0,2,.85,2.69,2.69,0,0,1,2.37,1.37,1.62,1.62,0,0,0,.84.78h0c.08,0,.15.09.23.1a2.11,2.11,0,0,0,1.24-.45c.43-1.42,1.21-1.55,1.91-1.5a7.73,7.73,0,0,1,.86.14,7.89,7.89,0,0,0,.87.14h.34l1.76.23a16.52,16.52,0,0,1,1.74.74,9.07,9.07,0,0,0,3.1,1,3.37,3.37,0,0,0,.46,0l2.92,1a5.33,5.33,0,0,0,.49.33l.37.25a4.6,4.6,0,0,0,.88.42,3.53,3.53,0,0,0,.62.16c.15,0,.28.1.43.11h0a3.48,3.48,0,0,0,.45-.25,3.4,3.4,0,0,0,.94.2,7,7,0,0,0,3.57-1.19.44.44,0,0,0,.37-.12,5.08,5.08,0,0,0,.68.09,5.39,5.39,0,0,0,.92,0,4.39,4.39,0,0,0,.78-.17,4.81,4.81,0,0,1,1.7-.28,2.59,2.59,0,0,1,1.17.36l.63.52.34.37a15.84,15.84,0,0,0,1.7,1.62l.18.14a6.59,6.59,0,0,0,.66.5,2.94,2.94,0,0,0,.77.25l.25,0,.23.3.77.33a4.32,4.32,0,0,1,.45.84,5.6,5.6,0,0,0,2,1.54l.64.36a10.13,10.13,0,0,0,4.46,1.19l.51,0a3.77,3.77,0,0,1,2.66,1,4.21,4.21,0,0,0,2.86,1.36c.12,0,.26,0,.39,0h.05a4.88,4.88,0,0,0,1.13-.14,1.81,1.81,0,0,0,.74-.61,4.19,4.19,0,0,0-.29-3.73,4.7,4.7,0,0,0-.61-.81,8.08,8.08,0,0,0-2.16-1.54l-.44-.2-.62-1.53,0,0,.2-.14a1,1,0,0,1,.82-.51c.33,0,.68.29,1.08.85a3.85,3.85,0,0,0,2.55,1.79,13,13,0,0,1,5.92,3,1.27,1.27,0,0,0,.35.14,6.06,6.06,0,0,1,.16,1.11,4,4,0,0,0-1,2.08c.48,1.93,1.35,2.21,2.07,2.24a6.06,6.06,0,0,0,1.21-.12,7.75,7.75,0,0,1,1-.12c1.05-.47,1.23-1.64,1.41-2.77l.05-.35c.21-.54.39-.81.54-.8s.28.31.41.6a1.74,1.74,0,0,0,.34.6,1.54,1.54,0,0,0,.22.19,2.31,2.31,0,0,0,2.1,2h.22c.94-.06,1-1,1.14-2,0-.3.06-.6.12-.9l-.12-.35c-.18-.54-.37-1.11-.9-1.13h0c-.4-1.16.15-1.5.74-1.86a3,3,0,0,0,.57-.41l.26-.26c1-1,2.06-2,1.09-4.1ZM162.73,446.79a.27.27,0,0,1,0,.08c-.07-.13-.14-.25-.22-.41A1.45,1.45,0,0,1,162.73,446.79Z"/><path class="cls-3" d="M633,436.49c-.73-.28-.6-1.59-.47-2.82a24.31,24.31,0,0,0-.1-6.63,4.47,4.47,0,0,1,0-2.17,3.69,3.69,0,0,0-.16-2.54c-.94-.88-1.71-1.46-2.39-1.34-.08,0-.14.08-.22.11h0c-.73.31-1.38,1.39-2.21,3.17a5.46,5.46,0,0,1-3.08,3,2.32,2.32,0,0,0-1.45,1.63,1.08,1.08,0,0,0,.42,1.27c.66.32,1,.69.94,1.11-.06.6-.82,1.19-1.42,1.66-2.63,2.09-3.41,4.18-2.8,7.42a8.45,8.45,0,0,1-2.59,7.16c-.8,2.54-.67,2.87,1.72,4.26a2.59,2.59,0,0,1,.62.21,1.79,1.79,0,0,0,1.05.2,1.51,1.51,0,0,0,.59-.26l1.59-1.28a2.78,2.78,0,0,0,.35-.29c2.07-1.58,3.23-3.94,4.38-6.25l.36-.24a3.4,3.4,0,0,0,.41-.33l.17-.12a3.33,3.33,0,0,0,0,.53,1.56,1.56,0,0,1-.4,1.27,3.47,3.47,0,0,0-.91,2.15,1,1,0,0,0,.63.92,1.2,1.2,0,0,0,.7.09c.68-.13,1.11-.93,1.52-1.71a8.44,8.44,0,0,1,.58-1,2,2,0,0,0,.66-1.1,1.26,1.26,0,0,0-.45-1.1c-.15,0-.22-.16-.2-.38-.17-.67-.42-1-.76-.92h0a1.56,1.56,0,0,1,.9-.48l.8-.11a1.66,1.66,0,0,0,1-.55l.44-.63a4.52,4.52,0,0,0,1.2-2.56C634.32,437.27,633.88,436.83,633,436.49Z"/><path class="cls-3" d="M293.12,418.41s0,0,0,0h0Z"/><path class="cls-3" d="M585.26,463c-.12-.9-.88-1.45-1.76-1.88a3.93,3.93,0,0,0-2.37-.28c-.18,0-.37.12-.56.17l-.17.05a7.08,7.08,0,0,0-2.76,1.61l-.21.2a7.65,7.65,0,0,0-.71.8l-.08.12a7.16,7.16,0,0,0-.62.93c-1.5,3-3.18,4.49-5.32,4.83a5.93,5.93,0,0,1-.78.07l-.44,0a6,6,0,0,0-1.3.39,1.83,1.83,0,0,0-1.18,2c.06.65.4,1,.93.89a1.53,1.53,0,0,0,.33-.09,4.54,4.54,0,0,1,.94-.29c.37-.06.61,0,.72.19.2.36-.08,1.11-.32,1.78-.1.29-.21.57-.27.8a8.87,8.87,0,0,1-.94,2c-.84,1.45-1.7,3-.35,4.76-.06.34-.63.87-.91,1.13l-2.76,2.55-.69.61c-1.17,1-2.38,2-2.36,4.12a1.47,1.47,0,0,0,.71.05,4,4,0,0,0,1.75-1.07,4.28,4.28,0,0,1,1.58-1,6.42,6.42,0,0,0,5.5-4.49,2.75,2.75,0,0,1,.89-.92,2.38,2.38,0,0,0,1.05-1.32l2.78-5.24c2.58-2.94,4.66-5.68,3.76-9.52a.74.74,0,0,1,0-.51c.13-.27.47-.4.89-.56a4.52,4.52,0,0,0,.73-.21,4.37,4.37,0,0,1,.72-.21,1.2,1.2,0,0,1,.92.19c1.09-.25,2.44-.57,2.67-2.11a1.48,1.48,0,0,0,0-.36A1.37,1.37,0,0,0,585.26,463Z"/><path class="cls-3" d="M371.95,514a4.53,4.53,0,0,0-.14-1.18,2.85,2.85,0,0,0-1.56-1.8l-.72-.66a15.78,15.78,0,0,1,.48-4.25,2.29,2.29,0,0,1,.57-.83,1.63,1.63,0,0,0,.27-2.32c-.11-.28-.22-.57-.64-.57h-.26a4.73,4.73,0,0,0-2.82,1.49,7.16,7.16,0,0,1-1.86,1.29c-.29,0-.59.1-1,.19l-.19,0a.4.4,0,0,0-.34.18l-2.4-.65a2,2,0,0,0-1.48-1c-.68,0-1.23.67-1.76,1.31a8.35,8.35,0,0,1-.86.94c-1.88-.48-2.26-2.27-2.64-4.17-.06-.33-.13-.65-.23-1-.37-.17-.71-.25-1.05-.38h0a9.36,9.36,0,0,0-1.94-.47l-.19,0c-.21,0-.44-.08-.64-.09a6.15,6.15,0,0,0-4.35,1.83,1.79,1.79,0,0,1-1.36.46c-.24,0-.49,0-.73,0s-.43,0-.62,0c-.43,0-.89.08-.94.7-.28,3.36-1.12,3.92-2.89,3.9-.44,0-.94,0-1.5-.09l-.31,0c-1.68,0-4.53,2-6.35,4.48-1.17,1.43-1.35,3.29-1.53,5.1a15.93,15.93,0,0,1-.56,3.27c0,1,.18,2.86,1.56,3.33.51.17,1,.37,1.53.56a14.34,14.34,0,0,0,4.81,1.21c.22,0,.42-.06.63-.08l.42-.05a6.85,6.85,0,0,0,.85-.1c1.31-.35,2.61-.8,3.92-1.25a37.74,37.74,0,0,1,6.49-1.82l1.1-1.36a8,8,0,0,1,1.75-.38,4.83,4.83,0,0,0,2.82-1.08,3.47,3.47,0,0,0,.35-.39,2.46,2.46,0,0,0,.2-.23c.13.13.26.25.41.37s.35.36.52.54c.71.75,1.45,1.53,2.38,1.53a1.8,1.8,0,0,0,.72-.16,16.11,16.11,0,0,1,4.46-1,24.21,24.21,0,0,0,2.72-.42C369.14,518.28,371.57,517.71,371.95,514Z"/><path class="cls-3" d="M497.26,484l-.39-.25c-.75-1.31-1.65-1.89-2.73-1.77a6.36,6.36,0,0,0-3.12,1.63,7.46,7.46,0,0,1-3.75,1.92,3.45,3.45,0,0,1-2.89-1.17h0s-.06.08-.07.08a.59.59,0,0,0-.07.11,8.84,8.84,0,0,1-2.53,3.44c-1.29.94-2,2.89-1.92,5.22,0,1,.3,1.54.81,1.49a1.91,1.91,0,0,0,.9-.45,12.18,12.18,0,0,1,6.65-2.38c.63-.06,1.25-.11,1.88-.16l1.35-.11a1.24,1.24,0,0,0,.8.21c.62-.06,1.13-.7,1.55-1.32a4.29,4.29,0,0,1,3.08-2.48l1-.89a3.24,3.24,0,0,0,.55-1.32s0-.05,0-.08a1.59,1.59,0,0,0,0-.33C498.4,484.74,497.83,484.37,497.26,484Z"/><path class="cls-3" d="M174.47,392.17a.81.81,0,0,0,.63.43c.54,0,1.19-.47,1.72-.88l.24-.19a1.29,1.29,0,0,0,.86-.37,1.23,1.23,0,0,1,.82-.35,1.07,1.07,0,0,1,.44.15c.46,1.92,1.19,2.37,1.71,2.41s1.17-.37,1.71-1.17a16.29,16.29,0,0,0,2.84-8.77,2.41,2.41,0,0,0-.17-.71l-1-.86-.24-.22-.22-.16a2.29,2.29,0,0,0,0-.25,2.22,2.22,0,0,0-1.49-1.67l-2.4-1.68a10.88,10.88,0,0,0-3.29-.83,7.7,7.7,0,0,0-3,.35,14.26,14.26,0,0,0-.79,4.68,14.8,14.8,0,0,1-.79,4.75c-.48,1.18.63,2.72,1.6,4.08C173.94,391.37,174.23,391.78,174.47,392.17Z"/><path class="cls-3" d="M116.47,317.51a2.48,2.48,0,0,0-1-.43.72.72,0,0,0-.56.2,1.13,1.13,0,0,0-.33.9,1.61,1.61,0,0,0,.38,1c1.1,1.21.57,1.94-.05,2.8a5.62,5.62,0,0,0-.77,3.46,2,2,0,0,0,.57,1.87,5.64,5.64,0,0,1,.68,1.15l0,.12a4.53,4.53,0,0,0-.77-.13,2.77,2.77,0,0,0-.64.08l-.24,0a2.41,2.41,0,0,0-.53.18,2.27,2.27,0,0,0-.36.24,2.32,2.32,0,0,0-.52.54,2.4,2.4,0,0,0-.17.29,3.86,3.86,0,0,0-.34,1,2.27,2.27,0,0,0,0,.26,4.24,4.24,0,0,0-.11.6c-.05,1.16.75,1.37,1.52,1.57a2.39,2.39,0,0,1,1.43.74.77.77,0,0,0,.29.21,5.64,5.64,0,0,1,.76.54,2.8,2.8,0,0,0,1.34.74A1.12,1.12,0,0,0,118,335l.26-.29c.81-.89,1.65-1.81.85-3.75a2.41,2.41,0,0,1-.24-1.92q.26-.47,1.1-.41a5.1,5.1,0,0,1,1.2.26,6.46,6.46,0,0,1,1.36.71,4.6,4.6,0,0,0,2,.85,1.16,1.16,0,0,0,.47-.05,5.34,5.34,0,0,0-.72-3.29,2.6,2.6,0,0,0-.39-.33l-.13-.11a3,3,0,0,0-1.35-.56c-1.31-.45-1.56-1.61-1.86-3A8.18,8.18,0,0,0,116.47,317.51Z"/><path class="cls-3" d="M532.75,286.8h0c4.94-.23,8-3.77,8.43-9.7a7.56,7.56,0,0,0-1.35-5,1.77,1.77,0,0,0-1.35-.77,1.18,1.18,0,0,0-.47.12,13.31,13.31,0,0,0-6.21,7.25,10,10,0,0,0,0,7.35C532,286.46,532.21,286.82,532.75,286.8Z"/><path class="cls-3" d="M514.53,355.2a.86.86,0,0,0-.89.63,4.58,4.58,0,0,0-.23,4.59l.11,1.06c.42,1,.86,2,1.63,2.27l.07,0a1,1,0,0,0,.29.07A2.74,2.74,0,0,0,517,363a5.38,5.38,0,0,1,2.92-1c.45,0,.9,0,1.35,0s.9,0,1.35,0a6.33,6.33,0,0,0,1.44-.24,1,1,0,0,1,.24,0,3.62,3.62,0,0,1,.81.08,3.6,3.6,0,0,0,.85.09c.63,0,1-.48,1.12-1.38,0-.24,0-.42,0-.64s0-.26,0-.39a6.52,6.52,0,0,0,0-1.09,4.11,4.11,0,0,0-.16-.73,3,3,0,0,0-.23-.52,2.65,2.65,0,0,0-.3-.4,2.5,2.5,0,0,0-.59-.5l-.27-.13a3.07,3.07,0,0,0-.51-.26,6.33,6.33,0,0,1-3.28-2,1.9,1.9,0,0,0-1.2-1.12l-.31,0-.3-.7-.75-.62-.24-.78a2.66,2.66,0,0,0-1.95-1.17,1.73,1.73,0,0,0-1.69,1.32,1.71,1.71,0,0,0-.08.2,2.93,2.93,0,0,0-.12.31l-.56.62a1.76,1.76,0,0,0,.06,2,2.18,2.18,0,0,1,.34,1.29,2.09,2.09,0,0,1-.35,0Z"/><path class="cls-3" d="M567.33,331.45l.34,0a1.24,1.24,0,0,0,.33-.15h0a2.35,2.35,0,0,1-.33,1.15,2,2,0,0,0-.3,1.42l1,1,.61.66a4,4,0,0,0,1.61.21c1.63-.12,3.09-1.23,4.51-2.3l.74-.6a1.08,1.08,0,0,0,.78.41,7.22,7.22,0,0,0,2-.56l.59-.22a4.78,4.78,0,0,1,1.37-.42A3.09,3.09,0,0,0,583,330.6a1.69,1.69,0,0,0,.11-.45l.22-.15a2.75,2.75,0,0,0,1.51-2l-1.11-1.44-.67-1.16-2.43-1.88a2.41,2.41,0,0,1-.85.22,4.28,4.28,0,0,1-1.76-.38,4.31,4.31,0,0,0-1.79-.39l-.23,0a8.27,8.27,0,0,0-1.7-.06,19.35,19.35,0,0,0-5.74,1.64c-1,.4-2.06.82-3.09,1.13a2.3,2.3,0,0,0-1.6,1.41,3.46,3.46,0,0,0,3.46,4.36Z"/><path class="cls-3" d="M103.66,302.08l.28.21c2,1.43,4,2.91,4.94,5.54a0,0,0,0,0,0,0h0a3.08,3.08,0,0,0,3.24-2.86c0-.06,0-.09,0-.15a5.08,5.08,0,0,1,.9.86,2.14,2.14,0,0,0,1.41.94c.4.05.76.1,1.08.11,2.56.15,2.9-1,2.82-5.31a6,6,0,0,0-2-2.12,4.5,4.5,0,0,0-3.13-1.29c-.37,0-.74,0-1.11,0s-.74,0-1.11,0l-.49,0a3.78,3.78,0,0,1-.57,0,10.25,10.25,0,0,1-1.25-.18,10.61,10.61,0,0,0-1.26-.18,2.4,2.4,0,0,0-2.28,1c-.19.64-.68.66-1.2.68s-1,0-1.22.6a1.52,1.52,0,0,0-.09,1.15A2.06,2.06,0,0,0,103.66,302.08Z"/><path class="cls-3" d="M553.11,362.64a1.58,1.58,0,0,0,.3.7v0a2,2,0,0,0,.31.38,23.29,23.29,0,0,0,4.6,3.14,3.13,3.13,0,0,0,1.6.21c2.28-.2,5.52-2,5.82-3.54.43-2.21.73-4.5-.66-6.22a4,4,0,0,1-.46-.36,2.17,2.17,0,0,0-.86-.49h0a.86.86,0,0,0-.27-.07,1.45,1.45,0,0,0-.79.37,8,8,0,0,1-4.09,1.86l-.82,0a6.37,6.37,0,0,0-3.69,1.82A2.82,2.82,0,0,0,553,362.3c0,.09,0,.16,0,.25A.5.5,0,0,0,553.11,362.64Z"/><path class="cls-3" d="M510.09,343.68c0,.06,0,.07.35.21l.19.08c1.42.94,2.2,1.45,2.67,1.43s.6-.56.68-1.65c0-.26.05-.55.09-.88.57,2.17,2.26,2.5,3.88,2.8a12.69,12.69,0,0,1,1.61.37.91.91,0,0,0,.4-.16,1.49,1.49,0,0,0,.5.2,2.6,2.6,0,0,0,.66.06c.8,0,1.34-.55,1.68-1.52l.74-1.24a5.38,5.38,0,0,0,.95-.64,2.92,2.92,0,0,1,1.46-.78,1.37,1.37,0,0,1,1.06.49,1.54,1.54,0,0,0,.88.64,1.48,1.48,0,0,1,1.13,1.27c0,.13.1.18.13.27a.84.84,0,0,0,.1.21.72.72,0,0,0,.32.26.88.88,0,0,0,.25.06c.08,0,.13.06.22.06a4.74,4.74,0,0,0,.84-.16,4.94,4.94,0,0,1,.74-.15,1.26,1.26,0,0,0,1.13-1.13,1.57,1.57,0,0,0-.92-1.75l-.35-.25-1.63-1.25-4.39-9.58a4,4,0,0,0-.55-2.46c-.13-.28-.27-.57-.37-.86a1.75,1.75,0,0,0-.11-.34c0-.35,0-.7,0-1.06a8.87,8.87,0,0,0,1.52-5c.07-.75.14-1.53.26-2.24a5.14,5.14,0,0,1,.55-.06h.15a7.59,7.59,0,0,1,2.21.32,46.5,46.5,0,0,0,5.53,1l2.22.32,1.3,1a3.06,3.06,0,0,0,1.44.3,2.22,2.22,0,0,1,1.83.66,1.17,1.17,0,0,0,.83.53.62.62,0,0,0,.46-.3,1.11,1.11,0,0,0-.06-1.23,2.38,2.38,0,0,1-.24-.68L539,318.16c0-.24,0-.48,0-.73a3.51,3.51,0,0,0-.4-2.07,1.67,1.67,0,0,0-.14-1.35,1.83,1.83,0,0,0-1.59-.67l-.31,0a3.64,3.64,0,0,1-2.16-.78,5.7,5.7,0,0,0-1.25-.65c-.72-.23-1.34-.52-1.17-1.53s.88-1.25,1.57-1.57c6.82-3.11,7-3.79,7.69-11.86.15-1.87,0-2.92-.45-3.49a1.45,1.45,0,0,0-1.27-.49,5.3,5.3,0,0,0-1.65.4c-3,.88-6.75,2.43-9.17,6.69a2.34,2.34,0,0,0-.41,1.45.57.57,0,0,0,.15.28l0,.06a3.62,3.62,0,0,0-.58.25,6.54,6.54,0,0,0-.77.71l-.15.13.08-.15c.11-.17.21-.35.31-.51s.18-.37.27-.55a4.18,4.18,0,0,0,.57-1.59c1.69-3.34,1.78-7.19.2-9.61s-.9-3.51.54-5.4c.64-.84,1.6-2.11.71-3.24a1.61,1.61,0,0,0-1.37-.66,3.37,3.37,0,0,0-1.83.76,18.06,18.06,0,0,0-5.76,6.92,6.71,6.71,0,0,0-1.21,2.8,8.27,8.27,0,0,1-.88,2.34l-1,5.23c-2.68,3.6-2.73,5-.32,8,1.18,1.45,1.31,3.18.44,5.46a8,8,0,0,0-.31,3.72l0,.51a7.09,7.09,0,0,1,.16.92,3.3,3.3,0,0,0,.58,1.78l.56.76.49,3.36.31,3.41a4.82,4.82,0,0,0-1.78,3,9.29,9.29,0,0,1-.63,1.71,1.75,1.75,0,0,0-.14.33,2,2,0,0,1-.4.06,3.66,3.66,0,0,1-2.08-.8,3.7,3.7,0,0,0-2.12-.81,2.24,2.24,0,0,0-.56.11,4.41,4.41,0,0,0-2.51,3.55,12.48,12.48,0,0,0,.5,4A9.89,9.89,0,0,1,510.09,343.68Zm14.14-37.55a4.6,4.6,0,0,0,.9-.78,5.06,5.06,0,0,0-.31,1.27,1.9,1.9,0,0,0-.68.51,1.51,1.51,0,0,1-.87.55H523A2.52,2.52,0,0,1,524.23,306.13Zm1.5-1.9c-.09.14-.18.27-.26.41a2,2,0,0,0,0-.28A.44.44,0,0,0,525.73,304.23Z"/><path class="cls-3" d="M663.09,345.8a6.73,6.73,0,0,0-1.69.42,32.9,32.9,0,0,0-3.53,0,29.5,29.5,0,0,1-3.92,0l-.63-.08c-.29,0-.58-.07-.86-.13-.89,1.09-1.27,1.9-1.15,2.48s.78,1,2,1.12a10.06,10.06,0,0,0,2,0c1.34-.11,2.74-.23,3.78.71,1.88,1.24,4.19,1.5,6.42,1.75l1,.11a6.88,6.88,0,0,0,1.73,0,5.39,5.39,0,0,0,3.41-1.83l3.05-.84.48,0a3.46,3.46,0,0,0,1.43-.49c.49-.46.72-.79.71-1,0-.07-.06-.1-.1-.15h0a1,1,0,0,0-.52-.32c-.29-.09-.59-.19-.59-.45a1.37,1.37,0,0,0-1.39-.49c-.22,0-.45.08-.68.13a7.83,7.83,0,0,1-.83.15l-.83-.54-.87-.55a6.93,6.93,0,0,1-1.58.38,13.5,13.5,0,0,1-3.42-.15A13.76,13.76,0,0,0,663.09,345.8Z"/><path class="cls-3" d="M484.18,364.79l-3.06-.65a4.38,4.38,0,0,1-2.31-.8,4.47,4.47,0,0,0-2.35-.81,2,2,0,0,0-1.11.39l-.08,0a4.43,4.43,0,0,0-.05-.67,31.26,31.26,0,0,0-9.55-1.36,19.24,19.24,0,0,0-2,.19,3,3,0,0,0-2.58,1.91,11.14,11.14,0,0,1-.74,2.93,8,8,0,0,0-.66,4.28,2,2,0,0,0,1.74,2.2c.07.23.18.35.3.34s.09-.07.13-.1h0c.06,0,.12,0,.17-.13h.25a10.06,10.06,0,0,0,4.36-1.66,11.77,11.77,0,0,1,3.81-1.61l1.34,1.25a.79.79,0,0,0,.6.35.86.86,0,0,0,.61-.46,3.71,3.71,0,0,1,2.57-1.27,2.8,2.8,0,0,1,.79.07,17.12,17.12,0,0,0,4.79.46,13.45,13.45,0,0,0,4.8-1.13l.31-.1a9.27,9.27,0,0,0,.88,7.42l.2.38a3.24,3.24,0,0,1,.55,2.07l1.06,1.6a1.79,1.79,0,0,0,.94.33c.35,0,.63-.27.87-.75a3.52,3.52,0,0,0,.32-3.95c-1.12-2.46-1.41-3.77-1.07-4.83s1.58-2,3.41-3a5,5,0,0,0,.74-.53,7.16,7.16,0,0,1,.6-.45,1.66,1.66,0,0,0,1-1.33,1.14,1.14,0,0,0-.88-1l-.52-.17a16.38,16.38,0,0,0-5.75-1.12A7.49,7.49,0,0,0,484.18,364.79Z"/><path class="cls-3" d="M173.71,249.07c.33.21.61.39.42.94a2.39,2.39,0,0,0-.79,2.11c.24.86,1.35,1.32,2.17,1.59a2.49,2.49,0,0,0,.75.13h0a5.16,5.16,0,0,0,2.51-.84,4.23,4.23,0,0,0,1.82-2.81,4.75,4.75,0,0,0-.24-4.35l-2.76-3.61c-.55-1.42-1.12-2.12-1.74-2.13s-1.34.84-2,1.66l-.24.32c-1.6,1.21-2.29,2.15-2.31,3.16s.59,2.06,2,3.57A1.8,1.8,0,0,0,173.71,249.07Z"/><path class="cls-3" d="M504.12,246.39l0,.13a2.15,2.15,0,0,0,.12.41,5.43,5.43,0,0,1,.4,1.47c.18,1,.39,1.93,1.14,2.24h0a1.22,1.22,0,0,0,.55.14,3.17,3.17,0,0,0,1.18-.3c.2-.31.42-.6.65-.9a4.48,4.48,0,0,0,1.3-3.54,5.66,5.66,0,0,1,1-3.06c.21-.38.42-.75.6-1.14a6.47,6.47,0,0,0,.27-5.06,4.76,4.76,0,0,0-3.58-2.9,2.06,2.06,0,0,0-1.09,1.05,1.5,1.5,0,0,0,.15,1.11q0,2.13,0,4.27a.9.9,0,0,0,.29.82A2.63,2.63,0,0,1,507,243a1.7,1.7,0,0,1-1.12.82,2.32,2.32,0,0,0-1.71,1.3,1.72,1.72,0,0,0-.05.33,1.52,1.52,0,0,0,0,.18A2.12,2.12,0,0,0,504.12,246.39Z"/><path class="cls-3" d="M448.52,357.64c.07-1-.51-2-1.75-3-.57-.26-1.14-.55-1.71-.84-1.76-.9-3.56-1.83-5.51-1.77a6.13,6.13,0,0,0-3,.9,2,2,0,0,0-.32.77,1.91,1.91,0,0,0-1.34,1.29,9.24,9.24,0,0,1-.75,1.83c-.64,1.29-1.29,2.63-.51,4.3s1.65,2.54,2.67,2.51a2.86,2.86,0,0,0,1.49-.57,1.63,1.63,0,0,1,.81-.35c.31,0,.54.18.87.66.54.8,1,1.18,1.44,1.16s1.08-.71,1.56-2.17l.53-.69a4.58,4.58,0,0,0,.61,0,4.66,4.66,0,0,0,2.55-.9C447.68,359.69,448.44,358.68,448.52,357.64Z"/><path class="cls-3" d="M489.36,391.36c-.7,0-1.42.93-1.62,2-1.1,2.47-1,4.14.43,5.39,2.51,4.72,6.86,6.75,10.72,8.25a2.11,2.11,0,0,0,.93.13c1.28-.1,2.66-1.24,4-2.34a20.67,20.67,0,0,1,2.21-1.67c1.77-.15,3.32-.44,4.4-2.47.36-1.68.73-3.43.09-5.05a15.05,15.05,0,0,1-2.77-2.7,10.92,10.92,0,0,0-4.07-3.39.4.4,0,0,0-.3-.14c-.09,0-.16.05-.22.05h0a2.33,2.33,0,0,0-2.13-1.29,2.78,2.78,0,0,0-.91.23c-1.21.33-2.43.78-3.6,1.22a23.45,23.45,0,0,1-6.5,1.73Z"/><path class="cls-3" d="M608.25,425.44l0-.13a4,4,0,0,0,.14-1c0-.08,0-.16,0-.23a4.62,4.62,0,0,0-.17-1s0-.08,0-.12a6,6,0,0,0-.17-.58,2.31,2.31,0,0,0-1.68-.56c-.73.11-1.34.75-1.86,2a3.27,3.27,0,0,0-.2,1c-.06.73-.12,1.42-1.11,1.79,0,0,0,0,0,0h0l0,0-.11,0-.08-.07,0,.06-.08,0,.14.17,0,0h0a.61.61,0,0,1-.17.49,13.07,13.07,0,0,0-.48,1.4,8,8,0,0,1-1,2.3,16.27,16.27,0,0,1-1.43,1.08l0,0-.12-.46a3.74,3.74,0,0,0-.83-1.79l-.07-.06a1.34,1.34,0,0,0-.7-.28l-.2,0a1.53,1.53,0,0,0-.33,0l-.09.07-.15,0s0,.09,0,.14l0,0-.06.29a2.87,2.87,0,0,0-1.14,1.84c-.06.18-.1.36-.17.57l.93,2c0,.18,0,.37,0,.55a3.23,3.23,0,0,0,.52,2.36.9.9,0,0,0,.1.09,1.63,1.63,0,0,0,.23.21,1.07,1.07,0,0,0,.09.63l.59.05.61-.29.91-.16a1.36,1.36,0,0,0,.28.26,1,1,0,0,0,.9-.22l.13-.07a2,2,0,0,0,.36-.34l.12-.16a2.58,2.58,0,0,0,.31-.42,6.2,6.2,0,0,0,.78-2.83c.43-.67.85-1.34,1.26-2,.94-1.52,1.92-3.1,3-4.53.18-.24.29-.46.43-.69h0A5.3,5.3,0,0,0,608.25,425.44Z"/><path class="cls-3" d="M489.63,259.25a2.35,2.35,0,0,0,.32.32l.15.15a1.88,1.88,0,0,0,.59.37l.27.07a1.62,1.62,0,0,0,.31.09,2.79,2.79,0,0,0,1.64-.7c1.09-.87,1.29-2.11.58-3.82-.22-.33-.47-.65-.72-1a7.52,7.52,0,0,1-1.36-2.23c-.46-1.42-1.08-2.11-1.92-2.09a2.88,2.88,0,0,0-2.21,4.68Z"/><path class="cls-3" d="M420.42,335.43a4.3,4.3,0,0,0-2.07.81l-.42.12a11.62,11.62,0,0,0-4,4.54,2.76,2.76,0,0,0-.21,1l.21.43.6.68h0l1.67-.64c1.24-.47,2.49-.94,3.7-1.51,1.51-.7,2.46-1.3,2.63-2.11s-.5-1.84-1.74-3.32A2,2,0,0,0,420.42,335.43Z"/><path class="cls-3" d="M305.74,479.15l.16-.05a4.12,4.12,0,0,1,2.25-.65c1.16-.11,2.24-.21,2.92-1.63.17-.36-.25-1.26-.5-1.7a3.25,3.25,0,0,0-3.07-1.71H307l-.37,0c-.94.1-2.24.23-2.41,2.17a5.57,5.57,0,0,0,.92,3.05C305.36,479,305.57,479.14,305.74,479.15Z"/><path class="cls-3" d="M520,493.28c0-.1-.07-.23-.1-.37-.08-.33-.16-.68-.34-.71a8.34,8.34,0,0,1-1.84-.67,5.47,5.47,0,0,0-3-.72,3.29,3.29,0,0,0-.63.14,1.79,1.79,0,0,0-1.19.93,1.89,1.89,0,0,0,.09,1.49c.62,1.51,1.85,1.92,3,2.31a10.61,10.61,0,0,1,1.28.49l.15,0a4.28,4.28,0,0,0,2.15-2.15c.06-.12.11-.24.16-.37A3.81,3.81,0,0,0,520,493.28Z"/><path class="cls-3" d="M642.2,340.61a.88.88,0,0,0,.94.41l.4-.06.39-.06a1.2,1.2,0,0,1,.48,0h.05a1.85,1.85,0,0,0,1.19-.87c.12-.15.24-.3.38-.44a3.11,3.11,0,0,0,.82-2.1c-.08-.69-.59-1.23-1.63-1.71a2.87,2.87,0,0,0-1.5-.3c-1.06.11-1.88.95-2.46,2.51A1.88,1.88,0,0,0,642.2,340.61Z"/><path class="cls-3" d="M652.31,332.13l.21.19.18.28a1.18,1.18,0,0,0,.68.63h0a1,1,0,0,0,.32,0l.11,0c0,.74.51.8,1,.83.11.67.63.81,1.14.94s.95.25,1.08.83a1.3,1.3,0,0,0,.59.93c.74,1.68,2.17,2,3.69,2.37a13.77,13.77,0,0,1,1.54.43,5.21,5.21,0,0,0,2.39.33c1.5-.17,2.86-1.13,4.29-3,.09-1.26-.66-1.84-1.51-2.51a1.12,1.12,0,0,0-.56-.12c-.28,0-.49.24-.64.61a1.37,1.37,0,0,1-.71.46c-.37,0-.49-.47-.52-.91a5.94,5.94,0,0,0-1-2.7c-.13-.22-.26-.44-.38-.66a.87.87,0,0,0-.59-.41l-.21,0-.3-.47-.58-.84-1.17.05-1.79.19a5.08,5.08,0,0,0-2.67-.5,5.11,5.11,0,0,1-2.37-.38,2.56,2.56,0,0,0-1.43-.37c-.76.07-1.34.67-1.95,2A2.71,2.71,0,0,0,652.31,332.13Z"/><path class="cls-3" d="M263.36,447.1a4.29,4.29,0,0,0-3-2,3,3,0,0,0-1.87.6,5.2,5.2,0,0,0,.68,1.55,3.56,3.56,0,0,1,.57,3.2,1.2,1.2,0,0,0,0,.92c.33.64,1.36.77,2.1.86l.17,0a1.36,1.36,0,0,0,1-.35l.06,0c.05-.06.14-.08.17-.15a1.67,1.67,0,0,0,0-1.32,4.19,4.19,0,0,1,0-1.79A4.52,4.52,0,0,0,263.36,447.1Z"/><path class="cls-3" d="M530.79,468.41a4.33,4.33,0,0,1-.61-.45,1.41,1.41,0,0,0-2.39.08,4,4,0,0,0-1.25,3.51c.27,1.28,1,2,1.92,2h.21c.9-.12,1.19-1,1.46-1.76a3.9,3.9,0,0,1,.62-1.29,2,2,0,0,0,.53-1.21A1.1,1.1,0,0,0,530.79,468.41Z"/><path class="cls-3" d="M133.63,268.21h.27a2.39,2.39,0,0,0,.41-.15l.14,0a2.5,2.5,0,0,0,.76-.46l.08-.07a2.82,2.82,0,0,0,.54-.69l.1-.2a2.9,2.9,0,0,0,.23-.77c0-.09,0-.18,0-.27a2.14,2.14,0,0,0,0-.42,2.63,2.63,0,0,0-.16-.54h0c-.34-1-1.27-1.86-2.92-2.57-1.36.75-1.38,2.33-1.28,3.46C131.91,266.27,132.24,268.17,133.63,268.21Z"/><path class="cls-3" d="M551.16,329c.48.43,1,.86,1.41,1.33a.72.72,0,0,0,.56.26.83.83,0,0,0,.56-.33c.51-.59.23-1.05-.08-1.56a24.55,24.55,0,0,0-4.59-5.37l-1.08.09h-.17C548,326.16,549.61,327.59,551.16,329Z"/><path class="cls-3" d="M533.24,489.71a5.34,5.34,0,0,0-.78,0,3.27,3.27,0,0,0-2.59,1.93,1.44,1.44,0,0,0-.22.93c0,.09.1.14.15.2l0,0a1.48,1.48,0,0,0,.62.38l.17.06a2.82,2.82,0,0,0,2.32.86h0a3.05,3.05,0,0,0,2.25-2.72C535.25,490.17,534.22,489.72,533.24,489.71Z"/><path class="cls-3" d="M193.16,362.33a1.23,1.23,0,0,0,.36,0c1-.23,2.94-.66,2.84-2.47-.08-1.51-1.11-1.57-1.94-1.62a3,3,0,0,1-.79-.12A5.58,5.58,0,0,0,193,358a1.29,1.29,0,0,0-1.24.4,2,2,0,0,0-.15,1.47C191.84,361.43,192.39,362.28,193.16,362.33Z"/><path class="cls-3" d="M397.34,484.59a.69.69,0,0,0,.1.1c.06,0,.08.13.16.15a6.63,6.63,0,0,1,1.39.74,4.08,4.08,0,0,0,2.23.88,2.22,2.22,0,0,0,1.31-.52c0-.27,0-.45,0-.68,0-.08,0-.16,0-.24a4.32,4.32,0,0,0-.15-.95,2.46,2.46,0,0,0-.21-.54c0-.06,0-.16-.08-.21a2.77,2.77,0,0,0-2.41-.78,5.71,5.71,0,0,1-1.73-.2l-.2.42a3,3,0,0,0-.48,1.71C397.25,484.53,397.31,484.54,397.34,484.59Z"/><path class="cls-3" d="M444.37,441.39a4.91,4.91,0,0,0,2.07.61,1,1,0,0,0,.86-.65l.05-.09a9.11,9.11,0,0,0,.52-3,2.51,2.51,0,0,0-1.9-.81,3,3,0,0,0-1.91,1c-.74.75-.34,1.56,0,2.28C444.18,441,444.28,441.16,444.37,441.39Z"/><path class="cls-3" d="M365.82,385.16a7.18,7.18,0,0,1-.92,1.08,3.61,3.61,0,0,0-1.4,3.41,1.56,1.56,0,0,0,.64,1.37,2,2,0,0,1,.61.86l.26,0,.23,0a5.07,5.07,0,0,1-.29,3.33,5.19,5.19,0,0,0-.3,3.36c0,.3,0,.59,0,.89a5.3,5.3,0,0,0,.53,3.12c0,.51,0,1,.45,1.29.61,1.48,1.28,2.46,2.55,2.45a4.3,4.3,0,0,0,1.68-.44l1-.45a9,9,0,0,1,3.74-1.19,5.66,5.66,0,0,1,.93.08c.06.18.16.36.25.55a1.82,1.82,0,0,1,.3,1c-1,3.44.25,5.93,1.79,8.1a3.87,3.87,0,0,1,.49,2.07,9,9,0,0,0,.09,1c.62,3.68-.33,7.13-1.25,10.47a32,32,0,0,0-1.4,7.56s0,0,0,.07c0,.4,0,.8,0,1.2s-.43.84-.67,1.11c-1.86,2.06-1.82,4.72-1.59,6.79s.9,3.31,2.31,3.87a8,8,0,0,0,.76.54,3.69,3.69,0,0,1,1.66,1.73,2.26,2.26,0,0,0,2.07,1.55,3.49,3.49,0,0,0,2.77-2.12,14.63,14.63,0,0,0,2.88-.59,13.41,13.41,0,0,1,3.15-.6,4.8,4.8,0,0,1,3.47,1.3.75.75,0,0,0,.53.2,1.2,1.2,0,0,0,1-1c.22-.78-.25-1.15-.66-1.48l-.22-.14a1.55,1.55,0,0,0-.39-1.47,3,3,0,0,1-.35-.54,22.79,22.79,0,0,0-.56-4.88c-.45-2.37-.92-4.81-.19-7.32h0a9.43,9.43,0,0,1,.38-1.08c1.09-2.6,2.23-5.28.7-8.18q0-.31,0-.63a8,8,0,0,0-.47-3.21c.13-1.18.17-2.39.21-3.57a21,21,0,0,1,1.12-7.4,1.76,1.76,0,0,0,.08-1.34,1.31,1.31,0,0,0,0-.18h0v0l-.15.07q0-3.6.06-7.2a1.26,1.26,0,0,0,.44-.83,3,3,0,0,1,0-.58c0-.51,0-1.08-.6-1.07h0a3,3,0,0,0-.59-1.94,4.26,4.26,0,0,1-.8-2.89,4,4,0,0,1,1.68-2.54,6.49,6.49,0,0,0,1.37-1.5,2.68,2.68,0,0,1,.34-.52l.05-.07a4.14,4.14,0,0,1,1.46-1,4.78,4.78,0,0,0,1.18-.69c.26,0,.52,0,.79,0l1.42-.05a4.56,4.56,0,0,1,3.11.84q.05,2.38.1,4.76a4.39,4.39,0,0,1-1.12,3.56,6.56,6.56,0,0,0-1.38,3.59,9,9,0,0,0-.87,4c0,.09,0,.18,0,.27a4,4,0,0,0,.27,1.13,2.57,2.57,0,0,0,.14.29,3.94,3.94,0,0,0,.25.51,45.72,45.72,0,0,0,9.49,9.59.87.87,0,0,0,.84.53,1.34,1.34,0,0,1,.5.13,1.15,1.15,0,0,1,.78.81,1.79,1.79,0,0,1-.43,1.32,4.38,4.38,0,0,0-.6,3.07,7.89,7.89,0,0,0-1,6.89,3.55,3.55,0,0,0,.21.66c1.57,3.68,4.5,4.19,7.13,4.19a2.49,2.49,0,0,0,1.5.48,4.43,4.43,0,0,0,2.8-1.81,2.6,2.6,0,0,0-.3-2.56.51.51,0,0,1-.39-.31,6.42,6.42,0,0,1,0-2,4.4,4.4,0,0,0,.52-.8c0-.12.09-.22.12-.3a2.84,2.84,0,0,1,.7-.22,2.08,2.08,0,0,0,1-.4l0,0h0l.22.07a2.78,2.78,0,0,0,.83-.16,8.38,8.38,0,0,0,1.57-.79c.09-.05.18-.09.27-.15l.05,0,.07,0a1.08,1.08,0,0,0,.59.15,1.22,1.22,0,0,0,.79-.35,3.12,3.12,0,0,0,1.2,1.16,6,6,0,0,0,.89.48l.45.19.33.18a2.79,2.79,0,0,0-.47,0c-1.4.06-2.57,1.21-3.71,2.33-.31.31-.62.62-.93.9a3.66,3.66,0,0,0-.56.32,1.19,1.19,0,0,0-.36.49l-.55.7-.56.75a9.86,9.86,0,0,1,.27,6.09,5.59,5.59,0,0,1-1,1.39c-.64,3.79-.16,4.74,2.66,5.31a4.67,4.67,0,0,0,.5.07c.61.06,1.18.11,1.46,1l.14.53a7.2,7.2,0,0,1,.26,1.15,6.19,6.19,0,0,0,.16.69l.08.33a4.28,4.28,0,0,0,.34.9,3,3,0,0,0,.28.45,2.68,2.68,0,0,0,.44.45,2.42,2.42,0,0,0,.46.28,3,3,0,0,0,.9.23l.26,0a3.82,3.82,0,0,0,.44,0l.27,0c2.07-.19,3.07-1.48,3.36-4.3a9.72,9.72,0,0,1,.35-1.65,4.25,4.25,0,0,0,.15-.72l.31,0,.21-.19a1.38,1.38,0,0,0,.71.17c.68,0,1.24-.64,1.73-1.17,1.07-.43,2.68-1.07,2.4-3.09a3.15,3.15,0,0,0-1.28-2.33l0,0a2,2,0,0,0-1.21-.35,1.67,1.67,0,0,0-.34,0c-1.28-.83-1.47-2-.6-3.87.09-.2.18-.4.25-.58.28-.71.52-1.26,1.09-1.29a2,2,0,0,1,1,.32.89.89,0,0,0,.48.12.78.78,0,0,0,.31-.14h0a1.3,1.3,0,0,0,.6-.68,1.61,1.61,0,0,0,.07-.34c0-.05,0-.11,0-.16a2,2,0,0,0,0-.72,1,1,0,0,0,0-.2c0-.1,0-.23-.08-.31a9.92,9.92,0,0,1-.95-3.41c-.39-2.46-.81-5-4-5a.41.41,0,0,1-.2-.06s-.08,0-.1-.06a1.64,1.64,0,0,1-.25-1,2.23,2.23,0,0,0-.17-.91c.26-.32.46-.47.63-.48s.33.15.48.51a3.25,3.25,0,0,0,2.23,1.08,2.7,2.7,0,0,0,2-1.46,8.61,8.61,0,0,0,.78-3.92c-.08-1.15-.32-2.51-1-2.48a.63.63,0,0,0-.26.07,4.93,4.93,0,0,1-1.79.37,3.41,3.41,0,0,0-2.56,1l-.09.13a3,3,0,0,0-.4.57l-1.76-.38a.61.61,0,0,0-.47-.2,2,2,0,0,0-.91.43,1.51,1.51,0,0,1-.6.31c-.09,0-.21,0-.27-.33a6.1,6.1,0,0,0-.28-.87l0-.09a12.4,12.4,0,0,0-2.89-4.22c-1.85-2-3.77-4.05-3.21-7.92a9.1,9.1,0,0,1,1.29-1,5.7,5.7,0,0,0,1.86-1.89l0-.06a3.45,3.45,0,0,0,.27-.72s0-.08,0-.12a4.17,4.17,0,0,0,.15-.86c.13-1-.46-1.34-1.11-1.57l-1.71-1.51a4.51,4.51,0,0,0,0-.83s0-.08,0-.11a7.15,7.15,0,0,0-1.59-3.64c-.25-.36-.51-.72-.75-1.1a5.37,5.37,0,0,1-.67-.66l-.1-.11a14.47,14.47,0,0,1-1.64-2.69,18.6,18.6,0,0,0-1.26-2.21l-3.4-5.87a4.93,4.93,0,0,0-.59-.54,3.85,3.85,0,0,1-1.07-1.18,3.19,3.19,0,0,1-.28-.72c1.7-.53,2.54-2.12,3.36-3.66a11.56,11.56,0,0,1,1.78-2.71l.56-.21h.46A4.54,4.54,0,0,0,424,365a7.82,7.82,0,0,1,.66-.84l.1-.12a16.59,16.59,0,0,1,2.5-2.12,21.52,21.52,0,0,0,2.24-1.81c1.07,0,1.49-1,1.84-2,0-.23,0-.45,0-.63a8.79,8.79,0,0,0,2.63-4.55,4.15,4.15,0,0,0,1.27-1.9,1.63,1.63,0,0,0,.39-.06,18.27,18.27,0,0,1,1.73-.87c.34-.15.67-.31,1-.47l.59-.1.53.2a4,4,0,0,1,2.13,1.38,2.24,2.24,0,0,0,1.9,1,2.71,2.71,0,0,0,.4-.11l.26-.07a3.24,3.24,0,0,0,.76-.37,4.1,4.1,0,0,0,.44-.33c.1-.09.21-.13.3-.23a5.87,5.87,0,0,1,.48-2.19,4.59,4.59,0,0,0,.37-2.94c.45-2.67-.22-4-2.49-5a6.55,6.55,0,0,0-2.88-.56,14.89,14.89,0,0,0-4.75,1.23,22.33,22.33,0,0,1-3.42,1.08l-1.52,2.09a.45.45,0,0,0-.34.17l-1.72,0-2.85,0L425,345h-.6a1.24,1.24,0,0,0-1,.38,1.77,1.77,0,0,0-.29,1.17l0,.36,0,.33a6.84,6.84,0,0,1-4.25,2.17c-1.51,0-2.9-.86-4.27-2.75l-.62-.08a1.6,1.6,0,0,0-.76-.22c-.5,0-.83.42-1,1.2l-.9.78-.69.09a5.26,5.26,0,0,0-2.76,4.75,2.42,2.42,0,0,0,.11.74,10.45,10.45,0,0,1-1,1.05,4.88,4.88,0,0,0-1.74,2.92,4.56,4.56,0,0,0-.45.72,2.58,2.58,0,0,0-.18.72,5.66,5.66,0,0,1-1.31.18,6.09,6.09,0,0,1-1.45-.16,1.62,1.62,0,0,0-.45-.68,1,1,0,0,0-.45-.08h-.07l-.41-.15c-1.47-.53-2.85-1-3.21-3.21a6.6,6.6,0,0,0-.52-1,3.61,3.61,0,0,1-.67-2,1.48,1.48,0,0,1-.19-.74,1.52,1.52,0,0,0-.23-.83.55.55,0,0,0-.35-.14.49.49,0,0,0-.18,0l.1-.14a2.32,2.32,0,0,0-.26-1.63,4.44,4.44,0,0,0-2-1.23,3.5,3.5,0,0,1-2.69-2.65c-1.54-6.59-2.45-14.23,2.79-20.93a4.15,4.15,0,0,1,3.64-1.92,15,15,0,0,1,1.75.11c.48.05,1,.1,1.59.12a1.23,1.23,0,0,0,.55-.15,1.76,1.76,0,0,0,.18,0l.09-.11a1.82,1.82,0,0,0,2,1.3,5.51,5.51,0,0,0,.56,0,2.29,2.29,0,0,0,.46-.34,1.49,1.49,0,0,0,1.1.59,2.63,2.63,0,0,0,1.53-.92,4.26,4.26,0,0,1,1.14-.86,1.7,1.7,0,0,1,.2-.48c.36.12.71.27,1.06.42a6.41,6.41,0,0,0,2.49.68,2.46,2.46,0,0,0,.51-.11h0a2.73,2.73,0,0,0,1.33-.71l.67.16a7.32,7.32,0,0,0,1.3.09,7,7,0,0,0,.93-.08,2.72,2.72,0,0,0,.75-.24,3.81,3.81,0,0,0,2.05.67,2.3,2.3,0,0,0,1.15-.32c.06.07.16.08.22.13a1.34,1.34,0,0,0,.28.17c.09,0,.15.13.27.16a3.92,3.92,0,0,0,1.17.14,10.28,10.28,0,0,0,1.83-.26l.6-.12a2.93,2.93,0,0,0,.8-.77l5.73-.66,4.28-.19a3.42,3.42,0,0,0,.31.42,5.45,5.45,0,0,0,1.3.1l1.5-.07a4.56,4.56,0,0,1,1.83.26,4.13,4.13,0,0,1,1.37,1.4c.57.79,1.16,1.61,2.17,1.59a2.22,2.22,0,0,0,.74-.16h.61c.95,0,1.9,0,2.85.07s2.12.08,3.19.06a13.24,13.24,0,0,0,5.72-1.27,5.49,5.49,0,0,1,1.06-.11h.69a3.71,3.71,0,0,0,2-.52,4.57,4.57,0,0,0,.55,0,2.65,2.65,0,0,0,.61-.14l.18,0a2.21,2.21,0,0,0,.53-.26l.15-.13a2.37,2.37,0,0,0,.45-.38c2.56-1.08,3.88-3.68,5-6l.27-.54a8.14,8.14,0,0,1,2.5-3.44c3.46-2.2,4.81-6.07,6.13-9.81l.35-1.06a3.2,3.2,0,0,0,2.19-1.5c.44-.93.06-2.09-.31-3.2-.14-.43-.27-.85-.39-1.29-.28-.22-.56-.46-.84-.7a4.58,4.58,0,0,0-3-1.53,2.93,2.93,0,0,0-1.14.27l-.75,1.16a19.67,19.67,0,0,0-1.33,1.84c-1.15,1.72-2.34,3.5-4.54,3.73-.35,0-.75.62-.94,1a12.36,12.36,0,0,1-3.07,3.78c-.46.43-.92.86-1.36,1.32-2.46,2.62-4.76,4.22-7.09,4.91l-.19.06a9.5,9.5,0,0,1-2.28.35h0a10,10,0,0,1-1.65-.1l-.14,0a16.48,16.48,0,0,1-5.65-2.14,2.45,2.45,0,0,0-1.86-.8,3.94,3.94,0,0,0-1.48.37,1.68,1.68,0,0,0-.68.91l-3.49,1.95-6.15-1.37a2.56,2.56,0,0,0-2.17-.9,10,10,0,0,0-1.1.1l-.27,0a1.86,1.86,0,0,0-1-.44,1.48,1.48,0,0,1-1.25-.73l0-.15.07-.12-.06.08,0-.11-.13.21H425l-.41,0a2.19,2.19,0,0,0-.11-.38,10.74,10.74,0,0,0-3.58-1.81c-.57.06-1.16.17-1.74.27a15.27,15.27,0,0,1-2.48.32,4.42,4.42,0,0,1-3.34-1.26,6.47,6.47,0,0,1-.81-1h0l0-.05-.19-.06a1.37,1.37,0,0,0-.06-.38l-1.24,0-1.23.05a.41.41,0,0,0-.33-.18.27.27,0,0,0-.22.1,7,7,0,0,0-4.9-1.34l-1.34,0c-.43,0-.87,0-1.3,0-.85.23-1,1-1.09,1.69a5.57,5.57,0,0,1-.15.72s-.27,2.7-.27,2.7l-.45.86-1.35,1.34-.21,0c-.67,0-.93.64-1.17,1.26-.51,1.25-1.15,2.54-2.2,2.55a1.3,1.3,0,0,1-.38-.05c-1-.27-.94-1.36-.89-2.41a7.53,7.53,0,0,0,0-1.07,2.31,2.31,0,0,0-1.63-.76,2.48,2.48,0,0,0-1.5.62.22.22,0,0,1-.25.19H390c-.93.43-.91,1.34-.89,2.42l.28.62-.46.37a7.07,7.07,0,0,0-2.07,2.15c-.39.09-.55.44-.7.77l-.17.37a3.06,3.06,0,0,1-1,2.58,4.13,4.13,0,0,0-1,1.64c-.22.4-.46.79-.7,1.19-1.15,1.92-2.31,3.9-1.35,6a5.05,5.05,0,0,0,.35.65c.06.1.15.21.23.31a7.33,7.33,0,0,0,.75.88,1,1,0,0,1-.63.24,3,3,0,0,1-.88-.19,3.13,3.13,0,0,0-.94-.19c-.58,0-1,.38-1.36,1.18a3.37,3.37,0,0,0,.3,3.27,7.42,7.42,0,0,1,.44,1c.59,4.27.85,8.38-2.32,11.65a2.15,2.15,0,0,0-.44,1.16,2.53,2.53,0,0,1-.42,1.18q0,.76,0,1.53l-1.32,2.9a14.57,14.57,0,0,0-2,14.3q0,.74,0,1.48c0,.62.05,1.24.08,1.86-3,2.13-3,5.78-3.09,9a1.11,1.11,0,0,0-.21.89c-.69,2.33-2.47,3.46-4.18,4.45A3.09,3.09,0,0,0,365.82,385.16Zm68.5-34.26a.32.32,0,0,1-.15.06.58.58,0,0,1-.38-.2,1.59,1.59,0,0,0,.43.1Zm10.5-5.26c.08-.14.16-.29.23-.44l.08.07a2.58,2.58,0,0,1-.19.25A1,1,0,0,1,444.81,345.63Z"/><path class="cls-3" d="M555.32,350.16c.4,0,.8,0,1.22,0a4.43,4.43,0,0,0,2.36-.83l.28-.16.12,0h0l0,0-.35-.37c-.28-1.62-1.18-1.78-2.09-1.72-.24,0-.47.05-.71.08s-.46.06-.78.09h0c-.83.06-1.28.58-1.38,1.63C553.86,350,554.57,350.14,555.32,350.16Z"/><path class="cls-3" d="M396.54,482a2.22,2.22,0,0,0,.85-.22l1.17-1.69a3.09,3.09,0,0,0-.27-2.13,1.38,1.38,0,0,0-1.32-.52h0a2.21,2.21,0,0,0-1.34.61l-.06,0c-.07.07-.17.12-.23.2a2.27,2.27,0,0,0-.35,1.45C395.05,481.21,395.61,482,396.54,482Z"/><path class="cls-3" d="M481.47,274.38c0,.07.12.11.18.16l0,0a1.23,1.23,0,0,0,.86.27h.21c1.56-.16,1.86-1.57,2-2.92.08-1.17-.48-1.75-1.73-1.78a1.54,1.54,0,0,0-1.13.57,2.11,2.11,0,0,0-.13,1.42,2.26,2.26,0,0,1-.09,1.32A1.07,1.07,0,0,0,481.47,274.38Z"/><path class="cls-3" d="M549.08,482.12c-.19-.59-.39-1.19-1-1.33a2.67,2.67,0,0,0-2.19-1.05,4.47,4.47,0,0,0-.67,0,1.92,1.92,0,0,0-1.36.73,4.4,4.4,0,0,0-.46,2.61c0,.37,0,.75,0,1.11.28,2.27.83,3.21,1.77,3.07a4.65,4.65,0,0,0,2.18-1.45l.22-.07c.36-.1.76-.22.84-.87l.66-.8a1.23,1.23,0,0,0,.23-1.46C549.2,482.49,549.15,482.31,549.08,482.12Z"/><path class="cls-3" d="M509.31,479.48a3.82,3.82,0,0,1-.57,0,3.13,3.13,0,0,0-.65,0c-.51.06-.86.36-1.15,1,.25.49,0,1-.34,1.55a2.18,2.18,0,0,0-.41,1.2.86.86,0,0,0,.4.62,1.74,1.74,0,0,0,1.21.24,2,2,0,0,0,1-.38c1.07-.85.87-1.85.68-2.82A6.73,6.73,0,0,1,509.31,479.48Z"/><path class="cls-3" d="M290.9,477a1.44,1.44,0,0,0-.88.33,2.63,2.63,0,0,0-1.29,1.85,2.81,2.81,0,0,0,.71,1.93,3.71,3.71,0,0,0,.51.14l.17,0a3.38,3.38,0,0,0,.51.14,1.32,1.32,0,0,0,1.3-.8,2.88,2.88,0,0,0,.2-.47,1.24,1.24,0,0,0,0-.13,4.54,4.54,0,0,0,.17-.94l0-.09s0-.05,0-.08C292,477.94,291.63,477,290.9,477Z"/><path class="cls-3" d="M188.69,269.21l.27,0c1.15-.19,1.6-1.32,1.91-2.41-.39-.85-.86-1.75-1.54-1.77a.83.83,0,0,0-.29,0,2.67,2.67,0,0,0-1.86,2.48,1.72,1.72,0,0,0,.4,1.13A1.51,1.51,0,0,0,188.69,269.21Z"/><path class="cls-3" d="M391,465a2.08,2.08,0,0,0,.65,1.65,3.46,3.46,0,0,1,.54.65c.31.44.62.89,1.1.88a1.26,1.26,0,0,0,.8-.41l.24-3.52c1.62-3.77,1.58-5.1-.62-13.05-1.72.69-2,2.49-2.11,4.15a34.32,34.32,0,0,0,.54,8.69C391.42,464.23,391.05,464.54,391,465Z"/><path class="cls-3" d="M569.14,401.11a1.42,1.42,0,0,0,1-.41c.37-.45.41-1.37.48-3.55a3.89,3.89,0,0,0,1.1-3.41,5.76,5.76,0,0,0-1.55-2.32l-.42-.46c-.21-.24-.43-.45-.66-.66a4.44,4.44,0,0,1-1.44-2.09c-1.38-4.9-3.38-6.42-8-6l-.34,0a10.78,10.78,0,0,1-4.89-.34l-2.29-.52c-.27-.59-.79-.65-1.29-.7a1.65,1.65,0,0,1-1.07-.37,1.62,1.62,0,0,0,0-.73,3.88,3.88,0,0,0-1.86-.47,2.47,2.47,0,0,0-1.85,1.36l-1.33,1.91a3.59,3.59,0,0,0-.85.66,2.13,2.13,0,0,1-1,.7.61.61,0,0,1-.5-.22,6.56,6.56,0,0,0-5.68-1.75c-.61.05-1.24.14-1.86.22s-1.24.17-1.85.22c-.37,0-.75,0-1.11,0-.69,0-1.39,0-2.07.06-2.61.21-5.52,1-7.31,5.43a2.4,2.4,0,0,1-.92.9c-.18.13-.37.26-.52.39l-5.52,2.54c-1.42.35-2.29.67-2.58,1.31s0,1.41.51,2.57a2.78,2.78,0,0,1,1.23.44,2.69,2.69,0,0,0,1.33.45c.67-.05,1.12-.82,1.39-2.41a3.49,3.49,0,0,1,1.44-.3,6.14,6.14,0,0,1,.78,0c.74,0,.68.68.63,1.35a4.81,4.81,0,0,0,0,.52c0,.74-.05,1.48-.12,2.24a11.11,11.11,0,0,0,.2,4.39,2.74,2.74,0,0,0,.17,1.79.63.63,0,0,0,.59.25,1.89,1.89,0,0,0,.73-.26,3.06,3.06,0,0,1,1.22-.41,2.73,2.73,0,0,1,1.23.2h.29a7.51,7.51,0,0,0,3.37-1.56,10.59,10.59,0,0,1,2.42-1.35,4,4,0,0,0,.63-.39l.28.07.88-.2a2.49,2.49,0,0,1,.38-.06c.19,0,.38,0,.57,0s.39,0,.58,0a1.68,1.68,0,0,0,1.58-1.39,2.79,2.79,0,0,0-1.16-3.43c-.09-.06-.08-.33-.07-.58a.68.68,0,0,0,0-.31l2.17-1.28,2.12-1.29.52.72c-.07.76,0,1.47.73,1.6l1.64.28a40.06,40.06,0,0,0,4.32.6,5.33,5.33,0,0,0,.84,0,4.83,4.83,0,0,0,3.27-1.91,3.61,3.61,0,0,1,2.31-1.39,3,3,0,0,1,2.74,1.6,5.75,5.75,0,0,0,5.65,2.83l.32,0q4,2.52,8,5Z"/><path class="cls-3" d="M-3,290.45a7.5,7.5,0,0,1-3.59-3.26,7,7,0,0,0-2.35-2.3h0a4,4,0,0,0-1.63-.55,4.46,4.46,0,0,0-2.78.8,2.74,2.74,0,0,1-1.74.61l-.38,0a2,2,0,0,0,0,1.6,3.71,3.71,0,0,0,1.81,1.54c.25.25.49.52.72.8l.13.16a26.79,26.79,0,0,1,1.95,2.86,27.09,27.09,0,0,0,2.08,3A23.25,23.25,0,0,1-5.17,301a3.59,3.59,0,0,0,2.9,2.17,4.41,4.41,0,0,0,1.09,0c1.63-.25,2.28-1.23,1.94-2.92l0-.22a5.18,5.18,0,0,1-.1-2.51A6.21,6.21,0,0,0-3,290.45Z"/><path class="cls-3" d="M52.59,376.1a1.4,1.4,0,0,0,.29-.23c.92-1.12.35-2.29-.34-3.28l-.36-.62a7.2,7.2,0,0,0-2.53-3l-1.26-2.25A1.69,1.69,0,0,1,48,365.6a1.74,1.74,0,0,0-.53-1.28c-.29-.22-.58-.46-.86-.71a10.08,10.08,0,0,0-1-.79l-.61-.45a4.69,4.69,0,0,0-1.91-1,1.26,1.26,0,0,0-1.05.33c-1.25,1.09-.48,2.79.43,4.29a10.55,10.55,0,0,0,3.79,5.33,12.61,12.61,0,0,1,3.3,4.86c.25.54.51,1.08.78,1.6a2.22,2.22,0,0,0,1.58,1.38,2.32,2.32,0,0,0,.72,0c.42-.08.63-.23.66-.46s-.37-.81-.75-1.21a1.3,1.3,0,0,1-.44-.75C52.12,376.4,52.37,376.24,52.59,376.1Z"/><path class="cls-3" d="M41.25,359a1.67,1.67,0,0,1-.34-.94c-.25-.38-.49-.78-.73-1.17a20.26,20.26,0,0,0-1.78-2.59,5,5,0,0,0-2.88-1.83,2.2,2.2,0,0,0-1.09.12c-1,.41-.69,1.56-.38,2.58.09.31.19.61.24.89.18.91.81,1.15,1.41,1.38a3.79,3.79,0,0,1,1,.57l.07.06h0l.05,0a2.55,2.55,0,0,1,1.36.9,3.87,3.87,0,0,0,.89.74,4.17,4.17,0,0,1,.54.36,2.37,2.37,0,0,0,1,.53.79.79,0,0,0,.67-.23C41.83,360,41.54,359.47,41.25,359Z"/><path class="cls-3" d="M85.52,420.15l-.29,0a.25.25,0,0,1-.23,0,2.14,2.14,0,0,1-.37-.12,2.55,2.55,0,0,0-.45-.14c-.38-.06-.59.13-.65.61-.12.88.5,1.42,1.09,1.94l.38.34c.29.29.6.56.89.84.54.51,1.1,1,1.61,1.57.13.14.27.29.39.45.39.46.79.94,1.23,1a1,1,0,0,0,.87-.41c.85-1,.72-2.33-.33-3.69A6.27,6.27,0,0,0,85.52,420.15Z"/><path class="cls-3" d="M11.46,310.65a2.9,2.9,0,0,0,2.69,2.05l.38,0c1,.1,1.93.22,2.9.34l1.48.18a0,0,0,0,0,0,0c-.12-2.66-1.67-3-3.18-3.28a8.3,8.3,0,0,1-1.47-.39l-1.8-.05A1.26,1.26,0,0,0,11.46,310.65Z"/><path class="cls-3" d="M29.68,343.8l-1.43-1.62-.48-.52,0-.74-1.88-3.28a.63.63,0,0,0-.08-.5.6.6,0,0,0-.42-.22h0a1.8,1.8,0,0,1-.68-1.44.61.61,0,0,0-.25-.09.86.86,0,0,0-.24,0h0c.09-1.65-1.1-2.61-2.22-3.48a1.93,1.93,0,0,0-.52-1.41c-.12-.17-.25-.35-.37-.56a1.39,1.39,0,0,0-.29-.06,1.78,1.78,0,0,0-1.31.51,1.71,1.71,0,0,1-1.29.49h0c-1.44-.16-2.11.57-2.13,2.3l-.55,1.18a1.85,1.85,0,0,0,.33,2l.69.72a3.22,3.22,0,0,0,1.43,2.3c.22.19.43.38.61.57l.53,1.11a3.49,3.49,0,0,0,1.83,3.23l.11.46.14.49,4.23,2.85a5.63,5.63,0,0,1,.22.57,2.53,2.53,0,0,0,1.31.82c.47.06.85-.21,1.13-.82l1.08-1c1.62-.28,1.26-1.42.9-2.52A5.59,5.59,0,0,1,29.68,343.8Z"/><path class="cls-3" d="M9.73,283.06a3.23,3.23,0,0,1-.63-.55l-.41-.11a6.17,6.17,0,0,0-1.21-.26,1.88,1.88,0,0,0-.92.14c-.43.83-.53,1.37-.3,1.73,0,.05.11.08.15.12l0,0a1.54,1.54,0,0,0,1,.35,4.49,4.49,0,0,0,.51,0c.59,0,1.2,0,1.8,0h.86C10.71,283.78,10.21,283.41,9.73,283.06Z"/><path class="cls-3" d="M14.27,324.21a1.48,1.48,0,0,0,.36-1.89l0-.35a7.23,7.23,0,0,0-1-3.7,7.5,7.5,0,0,0-2.49-4.67,2.72,2.72,0,0,0-1.65-.84,2.67,2.67,0,0,0-1.5.31c-.26.13-.38.28-.39.46a1.34,1.34,0,0,0,.44.77,1.34,1.34,0,0,1,.44.83s0,0,0,.06h0s0,0,0,0l.32.08c.41.1.8.19,1,.76a1.65,1.65,0,0,0,.11.92,1.26,1.26,0,0,1,0,1.06,8.74,8.74,0,0,1-.18,1.31,4.7,4.7,0,0,0,.16,3.06,3.34,3.34,0,0,0,.39,1.33l.06.1a1.79,1.79,0,0,0,.17.29,1.53,1.53,0,0,0,1,.45,6,6,0,0,0,.82,0,5.56,5.56,0,0,1,.81,0,2.16,2.16,0,0,1,.7.2l.56,0A.52.52,0,0,0,14.27,324.21Z"/><path class="cls-3" d="M478,496.21c-1.27.17-2.13,1.17-2.49,2.89a2.52,2.52,0,0,0,.06,1.32h0a1.07,1.07,0,0,0,.08.26.58.58,0,0,0,.57.28l.1,0a4,4,0,0,0,2.77-3,2.06,2.06,0,0,0-.23-1.42.86.86,0,0,0-.85-.3Z"/><path class="cls-3" d="M418.31,435.22a1.3,1.3,0,0,0-.41-.06c-.56,0-.93.49-1.3.94a4.16,4.16,0,0,1-.73.76l-.19,1.27a3.7,3.7,0,0,0,0,3.87l1.58,2.95a3.54,3.54,0,0,0,1.78,2h0l0,0a1,1,0,0,1,.39-.5.89.89,0,0,0,.44-.9,6.78,6.78,0,0,1,.53-3,6,6,0,0,0-.36-3.88C420.06,437.16,419.83,435.61,418.31,435.22Z"/><path class="cls-3" d="M329.91,513.57a3.57,3.57,0,0,0,.57-2.73,1.19,1.19,0,0,0,.44-.5,4.59,4.59,0,0,0,.54-3.08,4.52,4.52,0,0,0-2.24-2.71,8.09,8.09,0,0,0-4.2-1.49,5.8,5.8,0,0,0-2.69.61,3.32,3.32,0,0,0-2.54,2.89l-.52,1-.14.37v0h0l0,0,.18.06a3.14,3.14,0,0,0-.16,1.79l0,.38c0,.63-.08,1.25-.14,1.84a5,5,0,0,1-3.25,3.16,2.56,2.56,0,0,0,1.2,2.41,3.64,3.64,0,0,0,3.21,1.46l.82,0c1.84,0,3.69.05,5.53.05l2.07,0h.53C328.61,517.21,328.39,515.2,329.91,513.57Z"/><path class="cls-3" d="M396.46,538.05l-1.54-1.48-.31-.42a4.35,4.35,0,0,0-1.93-1.77,5.45,5.45,0,0,0-2.78-2.11l-.61-.28-.6-.91c-1.54-2.37-3.3-5.07-5.17-5a1.86,1.86,0,0,0-.55.09,21.57,21.57,0,0,1-5.84.83c-2.78.13-5.66.26-8.3,2-1.51,1.21-2.22,2.24-2.31,3.31s.54,2.55,2.16,4.5a3.71,3.71,0,0,0,3.06,1.27c.44,0,.88-.05,1.32-.1s.88-.1,1.32-.1a4.84,4.84,0,0,1,1.12.1,2.89,2.89,0,0,0,.66,0l.7,0c.79,0,1.58.1,1.86,1.72a10.28,10.28,0,0,0,4.66,3.73,1.46,1.46,0,0,0,.79,1.34c.23,2.23,1.57,2.81,2.87,3.37.33.14.67.28,1,.46l.2-.05.17.2a1.53,1.53,0,0,0,.93.36.86.86,0,0,0,.7-.4,1.2,1.2,0,0,0,.83.52h0l2-.83.29-.29a2.18,2.18,0,0,1,.63-.52c2.88-1.21,4.26-2.35,4.62-3.8a3.62,3.62,0,0,0,0-.42,1.22,1.22,0,0,0,0-.16C398.52,541.92,397.94,540.35,396.46,538.05Z"/><path class="cls-3" d="M415.55,548.36a2.43,2.43,0,0,0-.54.09l-.34.39a4.09,4.09,0,0,0-.7.91,3.38,3.38,0,0,1-1.28,1.16c-.59.38-1.14.73-1.31,1.35a2,2,0,0,0,.15,1.29,1.49,1.49,0,0,0,1.62,1,7.68,7.68,0,0,0,1.77-.42c.25-.08.5-.16.74-.22a1.76,1.76,0,0,0,.28-.13l.62-.5a2.44,2.44,0,0,0,1.6-2.43C417.65,549.1,416.79,548.29,415.55,548.36Z"/></g></svg>