<svg id="Layer_1" data-name="Layer 1" xmlns="http://www.w3.org/2000/svg" viewBox="0 0 1000 1000"><defs><style>.cls-1{fill:#2c5a86;}.cls-2{fill:#497fb2;}.cls-3{fill:#dff1fc;}.cls-4{fill:#ece4d8;}</style></defs><title>aset-sigesit</title><path class="cls-1" d="M667.92,692.73H332.08A89.72,89.72,0,0,1,242.36,603V554.4H757.64V603A89.72,89.72,0,0,1,667.92,692.73Z"/><path class="cls-1" d="M438.63,285.57H561.37a34,34,0,1,1,0,67.91H438.63a34,34,0,1,1,0-67.91Z"/><path class="cls-2" d="M481.34,353.48h37.33l37.41,128.74H443.92Z"/><path class="cls-1" d="M316.57,900.93H683.43a44.86,44.86,0,0,1,44.86,44.86V1000H271.71V945.79A44.86,44.86,0,0,1,316.57,900.93Z"/><path class="cls-2" d="M409.81,692.73H590.19v208.2H409.81Z"/><path class="cls-3" d="M469.62,752.53h60.75v148.4H469.62Z"/><path class="cls-4" d="M787.91,482.22H212.09a36.09,36.09,0,1,0,0,72.18H787.91A36.09,36.09,0,0,0,824,518.31h0a36.09,36.09,0,0,0-36.09-36.09Z"/><path class="cls-1" d="M555.43,235a13,13,0,0,1-6.45-1.72,101,101,0,0,0-97.95,0,13.08,13.08,0,1,1-12.94-22.74,127.5,127.5,0,0,1,123.83,0A13.08,13.08,0,0,1,555.45,235Z"/><path class="cls-1" d="M605.33,185.09a13.07,13.07,0,0,1-7.6-2.44,167.89,167.89,0,0,0-195.45,0,13.08,13.08,0,0,1-15.42-21.15l.18-.13a194.05,194.05,0,0,1,225.91,0,13.08,13.08,0,0,1-7.63,23.72Z"/><path class="cls-1" d="M654.64,135.79a13,13,0,0,1-8.09-2.8,236.84,236.84,0,0,0-293.1,0,13.09,13.09,0,0,1-16.2-20.56,263,263,0,0,1,325.49,0,13.08,13.08,0,0,1-8.11,23.37Z"/></svg>