<svg id="Layer_1" data-name="Layer 1" xmlns="http://www.w3.org/2000/svg" viewBox="0 0 1000 1000"><defs><style>.cls-1{fill:#2c5a86;}.cls-2{fill:#497fb2;}.cls-3{fill:#dfebfa;}.cls-4{fill:#dbd3ca;}.cls-5{fill:#ece4d8;}</style></defs><title>aset-sigesit</title><path class="cls-1" d="M303.18,62l36.22-1.1a8.24,8.24,0,0,0,5.26-14.36L321.6,25.74C311.54,16.68,317.94,0,331.49,0H579.55A111.23,111.23,0,0,1,690.78,111.21V268.28H312.33V139.17a63.2,63.2,0,0,0-6.83-28.58L291.14,82.26A14,14,0,0,1,303.18,62Z"/><path class="cls-2" d="M722,792.92H278a11.71,11.71,0,0,1-11.71-11.71V556.88A155.14,155.14,0,0,1,421.45,401.73h157.1A155.14,155.14,0,0,1,733.69,556.88V781.22A11.71,11.71,0,0,1,722,792.92Z"/><path class="cls-3" d="M500,521.56,456.79,553.1a7.45,7.45,0,0,1-11.42-3.55L392.78,399.46l31.51-30.84,21.33,58.76Z"/><path class="cls-3" d="M500,521.56l43.21,31.53a7.45,7.45,0,0,0,11.42-3.55l52.59-150.08L575.7,368.62l-21.33,58.76Z"/><path class="cls-4" d="M500,521.56l54.37-94.18H445.63Z"/><path class="cls-5" d="M500,455.43a151,151,0,0,1-151-151V173.59a57.41,57.41,0,0,1,8-29.31c15.72-26.63,51.64-32.62,76.2-13.83C478.18,164.91,527.42,176,581.9,157.8c32.6-10.9,67.55,11.43,69.09,45.78q.06,1.3.06,2.62v98.19a151,151,0,0,1-151,151Z"/><path class="cls-4" d="M349,290.29H324.73a30.42,30.42,0,1,1,0-60.85H349Z"/><path class="cls-4" d="M651.23,229.44h24.22a30.42,30.42,0,0,1,0,60.85H651.23Z"/><path class="cls-1" d="M664.31,793.13H335.69L306.56,636.85a24.69,24.69,0,0,1,24.27-29.21H669.17a24.69,24.69,0,0,1,24.27,29.21Z"/><circle class="cls-3" cx="500" cy="730.68" r="34"/><path class="cls-3" d="M655.84,607.64H574.07v-26a14,14,0,0,1,14-14h53.78a14,14,0,0,1,14,14v26Z"/><rect class="cls-2" y="793" width="1000" height="207"/><path class="cls-5" d="M124.51,850.69l8.29,25.53a6.85,6.85,0,0,0,6.51,4.73h26.84a6.85,6.85,0,0,1,4,12.39l-21.72,15.78a6.85,6.85,0,0,0-2.49,7.66l8.29,25.53A6.85,6.85,0,0,1,143.74,950L122,934.19a6.85,6.85,0,0,0-8.05,0L92.26,950a6.85,6.85,0,0,1-10.54-7.66L90,916.78a6.85,6.85,0,0,0-2.49-7.66L65.81,893.34a6.85,6.85,0,0,1,4-12.39H96.68a6.85,6.85,0,0,0,6.51-4.73l8.29-25.53A6.85,6.85,0,0,1,124.51,850.69Z"/><path class="cls-5" d="M315.51,850.71l8.29,25.53a6.85,6.85,0,0,0,6.51,4.73h26.84a6.85,6.85,0,0,1,4,12.39l-21.72,15.78A6.85,6.85,0,0,0,337,916.8l8.29,25.53A6.85,6.85,0,0,1,334.74,950L313,934.21a6.85,6.85,0,0,0-8.05,0L283.26,950a6.85,6.85,0,0,1-10.54-7.66L281,916.8a6.85,6.85,0,0,0-2.49-7.66l-21.72-15.78a6.85,6.85,0,0,1,4-12.39h26.84a6.85,6.85,0,0,0,6.51-4.73l8.29-25.53A6.85,6.85,0,0,1,315.51,850.71Z"/><path class="cls-5" d="M506.51,850.74l8.29,25.53a6.85,6.85,0,0,0,6.51,4.73h26.84a6.85,6.85,0,0,1,4,12.39l-21.72,15.78a6.85,6.85,0,0,0-2.49,7.66l8.29,25.53A6.85,6.85,0,0,1,525.74,950L504,934.24a6.85,6.85,0,0,0-8.05,0L474.26,950a6.85,6.85,0,0,1-10.54-7.66L472,916.83a6.85,6.85,0,0,0-2.49-7.66l-21.72-15.78a6.85,6.85,0,0,1,4-12.39h26.84a6.85,6.85,0,0,0,6.51-4.73l8.29-25.53A6.85,6.85,0,0,1,506.51,850.74Z"/><path class="cls-5" d="M697.51,850.76l8.29,25.53a6.85,6.85,0,0,0,6.51,4.73h26.84a6.85,6.85,0,0,1,4,12.39l-21.72,15.78a6.85,6.85,0,0,0-2.49,7.66l8.29,25.53A6.85,6.85,0,0,1,716.74,950L695,934.26a6.85,6.85,0,0,0-8.05,0L665.26,950a6.85,6.85,0,0,1-10.54-7.66L663,916.85a6.85,6.85,0,0,0-2.49-7.66l-21.72-15.78a6.85,6.85,0,0,1,4-12.39h26.84a6.85,6.85,0,0,0,6.51-4.73l8.29-25.53A6.85,6.85,0,0,1,697.51,850.76Z"/><path class="cls-5" d="M888.51,850.79l8.29,25.53a6.85,6.85,0,0,0,6.51,4.73h26.84a6.85,6.85,0,0,1,4,12.39l-21.72,15.78a6.85,6.85,0,0,0-2.49,7.66l8.29,25.53a6.85,6.85,0,0,1-10.54,7.66L886,934.28a6.85,6.85,0,0,0-8.05,0l-21.72,15.78a6.85,6.85,0,0,1-10.54-7.66L854,916.87a6.85,6.85,0,0,0-2.49-7.66l-21.72-15.78a6.85,6.85,0,0,1,4-12.39h26.84a6.85,6.85,0,0,0,6.51-4.73l8.29-25.53A6.85,6.85,0,0,1,888.51,850.79Z"/></svg>