<svg id="Layer_1" data-name="Layer 1" xmlns="http://www.w3.org/2000/svg" xmlns:xlink="http://www.w3.org/1999/xlink" viewBox="0 0 1000 1000"><defs><style>.cls-1{fill:none;}.cls-2{fill:#497fb2;}.cls-3{fill:#dfebfa;}.cls-4{fill:#2c5a86;}.cls-5{clip-path:url(#clip-path);}.cls-6{fill:#fff;}</style><clipPath id="clip-path"><path class="cls-1" d="M917.67,835.34H835.34V429.72h-755v490H919.68V835.45C919,835.43,918.35,835.34,917.67,835.34Z"/></clipPath></defs><title>aset-sigesit</title><path class="cls-2" d="M917.67,835.75H835.34V349.81H474.22a151.86,151.86,0,0,1-76.46,109.82c-21.53,79-73.55,162.11-73.55,162.11s-52-83.15-73.54-162.11a151.86,151.86,0,0,1-76.46-109.82H0v650.6H917.67a82.33,82.33,0,1,0,0-164.66Z"/><path class="cls-3" d="M917.67,835.75H835.34V430.13h-400a152.47,152.47,0,0,1-37.58,29.49c-21.53,79-73.55,162.11-73.55,162.11s-52-83.15-73.53-162.11a152.47,152.47,0,0,1-37.58-29.49H80.32v490H919.68V835.86C919,835.84,918.35,835.75,917.67,835.75Z"/><path class="cls-4" d="M917.67,175.11H835.34V835.75h82.33A82.33,82.33,0,0,1,1000,918.08V257.44A82.33,82.33,0,0,0,917.67,175.11Z"/><g class="cls-5"><path class="cls-2" d="M697.87,579.31h.34a2,2,0,0,0,1.19-.75,2.68,2.68,0,0,1,.92-.7,6.84,6.84,0,0,1,.43-1.73,6,6,0,0,1-1.22,1.06,3.44,3.44,0,0,0-1.69,2.1Z"/><path class="cls-2" d="M576.78,638.3a.45.45,0,0,0,.21-.08l-.15-.06a2.12,2.12,0,0,1-.58-.13A.78.78,0,0,0,576.78,638.3Z"/><path class="cls-2" d="M591.6,630.44c-.1.21-.2.41-.31.6a2,2,0,0,0,.17-.17,3,3,0,0,0,.25-.34Z"/><path class="cls-2" d="M274.85,654.86l-.08-.09a3.66,3.66,0,0,1-.31-.28l0,.05C274.62,654.77,274.75,654.85,274.85,654.86Z"/><path class="cls-2" d="M701.57,574.62a.62.62,0,0,1-.3.17,2.84,2.84,0,0,1-.05.39C701.33,575,701.44,574.81,701.57,574.62Z"/><path class="cls-2" d="M803.82,684.07a1.09,1.09,0,0,0-.15.42l.23-.5Z"/><path class="cls-2" d="M206.86,768.91a1.94,1.94,0,0,0-.27-.44l.3.56A.65.65,0,0,0,206.86,768.91Z"/><path class="cls-2" d="M424.45,719.52l-.05.07s0,.18.24.67l.08-.14.2-.45,0,0c-.15,0-.31-.09-.41-.09v0Z"/><path class="cls-2" d="M995.82,663.58l3.83-23.85a.92.92,0,0,0-.48,0,.78.78,0,0,0-.34.14,5.67,5.67,0,0,0-1.95,0c-1.05.1-2.14.2-2.82-.6l-1-1.52c-.55-2-2.11-2-3.55-1.79-.55.09-1.12.23-1.87.42a3.51,3.51,0,0,0-1.1,0c-.29,0-.58.11-.87.18s-.58.13-.86.18a2.17,2.17,0,0,1-2-.45,2.36,2.36,0,0,0-2.66-1.46,10.65,10.65,0,0,0-3.55,1.66l-3.26.51-2.86-.52c-2.35-1.86-5.47-2.43-8.47-3a31,31,0,0,1-5.46-1.37,21.47,21.47,0,0,1-5.1-2.58c-2.61-1.64-5.33-3.35-9.15-3.16-4,.2-6.6-.4-7.74-1.78a4.37,4.37,0,0,0-4.23-1.72,15.59,15.59,0,0,0-3.6,1.11l-.8.32a21.3,21.3,0,0,0-4,2.29c-.59.39-1.17.78-1.76,1.14s-1.25.7-1.87,1.06c-1.45.83-3,1.69-4.46,2.37l-.68.29a3.38,3.38,0,0,0-2.36,2.09v0a3.2,3.2,0,0,0-.18.71l-.31,2.35c-.31.51,0,1,.32,1.46s.55.82.38,1.23-.61.68-1.47,1.05a2,2,0,0,0-.16.49l-1,.68-.45.21a3,3,0,0,0-.9-.07,5.15,5.15,0,0,0-1.76.85A1.88,1.88,0,0,1,904,643c-.19,0-.39,0-.58,0s-.39,0-.59,0a2,2,0,0,0-1.61,1.09,5.55,5.55,0,0,0-.51.27,2.78,2.78,0,0,1-1,.42h0c-.75,0-1.49.08-2.2.18-2.79.37-5.78,1.47-6.82,6.87a3.64,3.64,0,0,1-.21.7l0,.11a10.11,10.11,0,0,1-3.49,3.75,10.11,10.11,0,0,0-6.91,7.9,4,4,0,0,1-.8,1.52,6.13,6.13,0,0,0-.56.87c-.27.32-.58.63-.87.94a6.63,6.63,0,0,0-2.18,3.46,8.6,8.6,0,0,1-1.07.56,4.2,4.2,0,0,0-2.29,1.9l-1.93,2.84-.74.26a31.49,31.49,0,0,1-5.86,1.69c-3,.43-5.23-.43-6.87-2.7l-.42-1.47c0-.21,0-.35-.12-.35a.65.65,0,0,0,.08-.74,7,7,0,0,1,.9-1.69c.8-1.23,1.63-2.49.4-3.82a1.28,1.28,0,0,0-1.13-.5,3.45,3.45,0,0,0-1.63,1.08,5.47,5.47,0,0,0-.51.53l0,0-.57-2.52a16.32,16.32,0,0,1,.26-2.35c.37-2.32.74-4.7-1.9-5.58a6.58,6.58,0,0,1-.09-.7,4.49,4.49,0,0,0-1.27,0,2.82,2.82,0,0,0-.44.16,2.62,2.62,0,0,0-.35.13,2.91,2.91,0,0,0-.89.6,2.31,2.31,0,0,0-.2.2,9.33,9.33,0,0,0-1.56,3.2L846,659.67l-1.32-2a5.1,5.1,0,0,0,.29-1.24c-1.74-2.77-1.35-6.27-1-9.65.09-.74.16-1.48.23-2.23-.26-2.29.67-4.47,1.57-6.57a24.39,24.39,0,0,0,1.35-3.68l.38-3.39a5.76,5.76,0,0,0-2.42-6.25l-1-1.57a6,6,0,0,0-.24-.7,2.25,2.25,0,0,1-.05-2.17,5.33,5.33,0,0,0,1-3.31c-.2-1.13-1.25-1.68-2.48-2.31-.34-.17-.69-.36-1-.56a5.35,5.35,0,0,0-3.32-.64,19.14,19.14,0,0,0-2.37.42,18.06,18.06,0,0,1-2.28.41,5.26,5.26,0,0,1-2.16-.2,3.16,3.16,0,0,0-2.36-.93,1.52,1.52,0,0,0-.71.21c.08-.21,0-.39-.24-.54-1.17.1-1.76-.65-2.39-1.43a4,4,0,0,0-1.44-1.29l-.33.12-.26.13a3.23,3.23,0,0,0-.27-.44,2.7,2.7,0,0,0-1.72-.33h0a2.78,2.78,0,0,0-.69.22,22.76,22.76,0,0,0-8-3.2l-1.09-.06a17.53,17.53,0,0,0-2.5,0,7,7,0,0,0-2.22.52l-5,.47L799,609.32l-2.25,1.36-.73,1.17a1.91,1.91,0,0,0-.4.14,3.94,3.94,0,0,0-2.71,2.49,3.06,3.06,0,0,1-2.26,1.37h0a.68.68,0,0,0-.41.19s0,0,0,.05-.07.06-.09.12a6.51,6.51,0,0,0-1.83-.17,3.15,3.15,0,0,0-2.43,1.42,5.63,5.63,0,0,0-.5.78.69.69,0,0,1-.08.14c-.09-.25-.18-.51-.27-.82a4.28,4.28,0,0,0-1.56-.15,11.21,11.21,0,0,0-3.47,1.09l-.91.39a12.21,12.21,0,0,0-4,7.38,11,11,0,0,0-.15,1.83,6.65,6.65,0,0,1-.48-1.48c-.28-1.17-.56-2.37-1.93-2.61l-.55,0a5.14,5.14,0,0,1-1-.11,4,4,0,0,1,0-2.42,6.62,6.62,0,0,0,.12-1.22l-.75-.22a1.73,1.73,0,0,0-1.08-.36,1.51,1.51,0,0,0-1.15.84h-.35a20.28,20.28,0,0,0-4,1.34,4.25,4.25,0,0,1-1.37.86h-1.51l-1.55,0-.44.5c-.2,0-.41.06-.62.1a2.17,2.17,0,0,0-.92,1.16,2.42,2.42,0,0,0-.19.41s0,.06,0,.09,0,.05,0,.09a4.89,4.89,0,0,0-.63,3.69.18.18,0,0,0,0,.05h0s0,0,0,.06a10.15,10.15,0,0,0,1.68-.72,6.74,6.74,0,0,1,2.39-.85,3.13,3.13,0,0,1,1,.08,6.24,6.24,0,0,1,.34,2.41c0,1.23,0,2.49,1,3.31a11.6,11.6,0,0,0,5.22,6.25,1.22,1.22,0,0,0,1.37,1,2.9,2.9,0,0,0,2.1.95,4.52,4.52,0,0,1,1.36.35l.3.26.34-.07a2.27,2.27,0,0,0,1.76.67,3.54,3.54,0,0,0,1.9-.91c.17,0,.35-.05.53-.07a2,2,0,0,0,1.85-1l9.52,3.43c1.22,1.06,1,2.57.78,4.18a5.79,5.79,0,0,0,.16,3.43c-.3,3.35,1.52,4.71,3.74,6a4.61,4.61,0,0,0,1.44.47c1.13.24,2.19.47,2.35,2.23.61.77,1.15,1.26,1.84,1.19a2.43,2.43,0,0,0,1.47-1c.18-.64.59-1.35,1.18-1.41a.8.8,0,0,1,.27,0c.51.12,1.09.15,1.63.22l.5.07a22.63,22.63,0,0,0,4.92,0,69.87,69.87,0,0,0,6.91-1.22l1.84-.39a26.39,26.39,0,0,0,5.13,0,15.48,15.48,0,0,0,4.17-1,10.49,10.49,0,0,0,1.16-1,6.89,6.89,0,0,0,1.65-.51,6.84,6.84,0,0,1,1.62-.5A1.21,1.21,0,0,1,833,655a3.25,3.25,0,0,1-.39,1.73c-1.65,2.49-2.72,3.79-4,3.94a6.1,6.1,0,0,1-3.35-1.1l-.5-.28a5,5,0,0,0-3-1,3.77,3.77,0,0,0-2,1,11.27,11.27,0,0,0-6,4.53,3.25,3.25,0,0,0-2,2.89,1.51,1.51,0,0,0-.72.29c-.9.24-1.26,1.12-1.6,2s-.74,1.81-1.83,2c-1.65-1.72-6.19-2.08-10-1.67s-6.71,1.48-8,2.9A1.63,1.63,0,0,0,789,674c.89,2.69,1.8,5.47,4.92,5.13a6.42,6.42,0,0,0,.91-.17,10.51,10.51,0,0,1,1.45-.28c2.87-.32,5,.92,6.39,3.69a14.07,14.07,0,0,1,.91,2.34l0,.08c.43,2.44,1.79,3.93,4.39,4.77l.17,1.71L806,695.18a11.77,11.77,0,0,0-.58,7.69,4.62,4.62,0,0,0,2.84,3.25,1.85,1.85,0,0,0,1,.83h.05a1.23,1.23,0,0,0,.5.1,4.89,4.89,0,0,0,2.08-1.25l.5-.42,2.32-.14a2.45,2.45,0,0,0,2,1,4.78,4.78,0,0,1,1.19.27,5.06,5.06,0,0,0,2.59,2.25,9.42,9.42,0,0,1,1.49.89l.3.25c.47.4,1,.84,1.56.76s.79-.4,1.15-1c1-1.72-.72-2.76-1.27-3.11a11.93,11.93,0,0,0-1.49-.75c-1.35-.6-2.74-1.23-3.24-3l2-2.61c2.07-1.07,2-2.59,1.91-4.05a6.19,6.19,0,0,1,.12-2.1,6.6,6.6,0,0,1,3.06-1.56,2.76,2.76,0,0,1,2.41.87c.45.94,1.29.92,2.11.9a3.8,3.8,0,0,1,1.19.09l1.15.65c2.78,1.58,5.64,3.19,7.19,6.52a1.32,1.32,0,0,0,.36,0,1.49,1.49,0,0,0,1.1-1,3.48,3.48,0,0,0,.76-1.07c.29-.55.58-1.07,1-1.12s.53.13.84.49a25.65,25.65,0,0,0,7.26,5.67l1.61.75.6-.28a3.46,3.46,0,0,1,.14.35,1.24,1.24,0,0,0,.6.06c.42,1.75,1.82,2.06,3.18,2.36l.68.16,2.42.33c1.44,0,2.89,0,4.34,0,2,0,4-.08,6,0,9.13.39,17.06,3.17,23.59,5.76l3.88.72c1.26.29,2.57.49,3.87.69a38.39,38.39,0,0,1,5.56,1.11l.12,0a14.27,14.27,0,0,1,1.64.62c.07.68.53.67,1,.65a1.29,1.29,0,0,1,.64.08l.41.12.56.2a2.75,2.75,0,0,0,0,.29,15.72,15.72,0,0,0,3.34,2.46c2.36,1.43,4.79,2.9,5.17,6.59l.05.72.07.76.79.38c1.46.68,2.82,1.33,3.06,3.44l.11,1c.49,4.49,1,9.12,4.43,11.58,1,.73,1.27,2.33.71,4.27a16.17,16.17,0,0,0-.91,2,15,15,0,0,1-1,2.24,6.74,6.74,0,0,0-.3.63l0,0a4.62,4.62,0,0,0-.39,1.08,2.11,2.11,0,0,0,0,.43,2.53,2.53,0,0,0,0,.34,1.12,1.12,0,0,0,.74.78l.06,0a1.75,1.75,0,0,0,.44.15l-.08.07h0l.07-.07,0,0s0,0,0,0l-.15.13.15-.12a1.17,1.17,0,0,0,.33.65c.29.36.57.7-.09,1.58a3.41,3.41,0,0,0-.58,3.35c0,.11,0,.23.08.34a6.58,6.58,0,0,0-2.39,1.43,7.07,7.07,0,0,1-3.71,2.46,7,7,0,0,0-3.94,2.75c-5.69,4.59-8.72,10.89-11.63,17l-1.51,3.17a1.09,1.09,0,0,0-.26.26l0,0a1,1,0,0,0-.23.52.13.13,0,0,0,0,0,1,1,0,0,0,0,.29c-.22.45-.48.91-.74,1.37-.91,1.59-1.84,3.25-1,4.76a1.17,1.17,0,0,0,1,.63h.1c.11,0,.2.05.31,0a5.32,5.32,0,0,0,1.53-.88,5.24,5.24,0,0,1,1.53-.87l1.49-.31a9.74,9.74,0,0,1,2.19-.92,5.79,5.79,0,0,1,3.54.1,6.07,6.07,0,0,0,3.69.24,5.74,5.74,0,0,0,2.14-1.14,7.73,7.73,0,0,1,2.86-1.56,10.15,10.15,0,0,1,3.4-.21h.27a10.22,10.22,0,0,0,1.26-.76,3.49,3.49,0,0,0,.81-.12,3.77,3.77,0,0,0,1.83-1.25l0,0H931a5.89,5.89,0,0,0,2-2c2.25-3.34,3.18-4.72,4.52-5.1.94-.26,2.1,0,4,.3a9.7,9.7,0,0,0,5-3c.12-.15.24-.28.32-.39a2.85,2.85,0,0,0,1-.13,11.14,11.14,0,0,0,1.54-.63,11.5,11.5,0,0,1,1.53-.63l.46-.11.26-.08a7.52,7.52,0,0,1,1.62-.29l.36,0a1,1,0,0,1,.84.13,1.29,1.29,0,0,0,.59,0l.07,0c.12.95.79,1.22,1.44,1.49a2.3,2.3,0,0,1,1.21.83c.17,1.08,1,1.34,1.8,1.58l.26.08.94.36.33.11c.06.89.73,1,1.42,1.09a10.09,10.09,0,0,1,2.47,3.23c.89,1.55,1.8,3.15,3.54,3.79a3.67,3.67,0,0,1,1.59,1.51c.62.88,1.3,1.71,2.65,1.54h.08a2.71,2.71,0,0,0,.54-.08,5.06,5.06,0,0,0,.56-.22l.81-.33,8.64-53.36s-.22.05-.23,0L983,740c-.8-3.3.36-7,2.35-11.62Zm-192,20.5.09-.09-.23.5A1.08,1.08,0,0,1,803.82,684.07Z"/><path class="cls-2" d="M171.48,758l.32-.26c.4-.31.81-.63.81-1.17a2.25,2.25,0,0,0-.61-1.32,2.82,2.82,0,0,1-.81-2.69,5.33,5.33,0,0,0,0-1.15,1.06,1.06,0,0,1,1-.62,3.3,3.3,0,0,1,1.22.6,6.31,6.31,0,0,1,.8.6c.16.29.34.58.63.62H175a.32.32,0,0,1,.21.11l.93,2.16,3.62,4.78,1.69,2.21a6.63,6.63,0,0,0,.7.14,3.21,3.21,0,0,0,3.06-1c1-1.21,1.43-3.48,1.18-6.73l-.45-9.29.54-.46q0-.9,0-1.8l-.09-1.32c0-.14,0-.29,0-.43l0-.1v-.2l.36-.54c.2-.29.39-.57.58-.88.12-.5.15-1,.23-1.45,0-.21.07-.41.1-.62a24.34,24.34,0,0,0,.27-2.63c0-.41,0-.82,0-1.24a20.44,20.44,0,0,0-.14-2.13c0-.35-.11-.7-.17-1a17.76,17.76,0,0,0-.58-2.31c-.09-.28-.2-.57-.31-.85s-.26-.83-.44-1.23l-.34-2.4a30.68,30.68,0,0,1,.69-15.65c-4.13-7.6-4.23-9.49-.68-14.58.32-.46.62-.94.91-1.42l.38-.64a1.33,1.33,0,0,0,.7-.3,3,3,0,0,0-.36-3.72c-.88-.4-.88-1.18-.89-2.12a3,3,0,0,1-.71-1.53,2.81,2.81,0,0,0-.84-1.58,1.64,1.64,0,0,0-.22-.18l0,0,.46.24a14.76,14.76,0,0,0,3.53,1.51,12.13,12.13,0,0,1,4.37,2.13c1.54,2.76,3.42,4.21,5.73,4.43a8.24,8.24,0,0,0,3.49-.51l.18-.24.34,0c4.09-1.19,4.4-1.95,3-7.35a4.16,4.16,0,0,0-2-.71,8.19,8.19,0,0,0-2.82.4l-.64.22c-.79-2.07,0-3.28.74-4.44a4.07,4.07,0,0,0,.92-3.43,1.78,1.78,0,0,0-.85-1.89,4.27,4.27,0,0,0-3.77-2.41l-1.77-.1a10,10,0,0,1-1.09-.16,5,5,0,0,0-.95,0,5,5,0,0,1-1,0c-.67-.06-1.37-.37-1.56-2.24a3,3,0,0,0-.11-.42,2.45,2.45,0,0,0-.11-.42,1.85,1.85,0,0,0-.36-.61,1.68,1.68,0,0,0-.29-.25c-.11-.08-.17-.2-.3-.26a6.4,6.4,0,0,1-2.29-5.09,31.06,31.06,0,0,0-3.42-12.9c-1.87-3.72-3.35-5.76-5.76-6a8.82,8.82,0,0,0-3.79.76,1.9,1.9,0,0,1-.4,0,6.26,6.26,0,0,1-2-.72,6.37,6.37,0,0,0-2.07-.73c-1-.08-1.66.45-2.18,1.66-1.52.79-2.16,2.42-2,5,.18,2.4-.73,3.37-3.06,3.22a1.51,1.51,0,0,0-1.34.83,3.69,3.69,0,0,1-1.56,2.16,2.15,2.15,0,0,0-.44,2.39,5.52,5.52,0,0,0,1.18,1.75,6.51,6.51,0,0,0,2.84,1.62,16.12,16.12,0,0,1,2.16.72l.79.3a14.06,14.06,0,0,0,3.3.68c.54,0,1.07.07,1.6.08l.53,0c2.47.22,3.91,1.62,5.27,5.16a46.15,46.15,0,0,1,1.64,5.58c.17.69.36,1.37.58,2,.05.19.1.38.15.57q-.34-.52-.7-1a11.92,11.92,0,0,1-2-3.66c-1.41-5.17-1.71-6.24-4.88-6.53-.72-.07-1.61-.09-2.73-.13l-.39.06a2.34,2.34,0,0,0-1.4.5c-.8-.19-1.59-.36-2.44-.51-6.89-1.14-6.89-1.15-7.81-9.07l-3.16-.71c-2.8-1.32-3.75-4-4.67-6.57a17.72,17.72,0,0,0-2-4.27c-1.51-1.95-1.82-4.18-2.11-6.34a25,25,0,0,0-.6-3.06l0-.11a10.37,10.37,0,0,0-.37-1.25,6.07,6.07,0,0,0-.71-3,11.24,11.24,0,0,1-.58-1.55,3.48,3.48,0,0,0-2.92-2.5c-.6-.12-1.21-.18-1.81-.25a10.58,10.58,0,0,1-3.81-.92,10.23,10.23,0,0,0-3.21.16,4.33,4.33,0,0,1-1.41.09c-3.8-.33-8.67-4.64-10-8.8l2.3-3.35a11,11,0,0,1,1.86-1.08c1.25-.63,2.49-1.31,2.93-2.59v0a2.79,2.79,0,0,0,.2-.89c0-1.9-1.53-2.59-3-3.25a9.24,9.24,0,0,1-2-1.08c-.43-.34-.65-.62-.66-.85s.3-.47.64-.68.75-.46.71-.81l1.18-.3,1.48-.29.83.08c.77.06,1.6,0,1.88-.54s0-1.39-.62-2.68L126.64,595a9.88,9.88,0,0,1-.12-1.43,5.16,5.16,0,0,0-1.13-3.57l-.23-1.34c-1-3.74-3.72-4.52-6.46-5.3l-2.09-.75-1.74-.56c.08-.61.34-.87.81-.84a3.25,3.25,0,0,1,.69.16l.37.1a3.69,3.69,0,0,0,.57.09,2,2,0,0,0,1.42-.45,1.53,1.53,0,0,0,.21-.22c.1-.11.24-.17.31-.31a2.2,2.2,0,0,0,.09-.43,2.26,2.26,0,0,0,0-.23,2.58,2.58,0,0,0,0-1c0-.08,0-.16-.06-.24a2.5,2.5,0,0,0-.12-.49,20.5,20.5,0,0,1-1.39-4.06,19.65,19.65,0,0,0-1.34-3.94l-.15-.29c-.53-1.07-1.14-2.28-2.19-2.34a1.8,1.8,0,0,0-.87.19c-1.19.56-2.27,1.47-1.29,4l.29.69c.58,1.38,1.21,2.9.74,4.19a2.44,2.44,0,0,1-.27.52l-.05.09a3.15,3.15,0,0,1-.63.61,1.66,1.66,0,0,0-.21-.72l-.32,0a2.18,2.18,0,0,0-.37.07h0a2.28,2.28,0,0,0-1.09.44l-.12.09a2.83,2.83,0,0,0-.43.33c-.1,0-.18.1-.23.34s0,.29,0,.36a5.58,5.58,0,0,1-1,.88,2.46,2.46,0,0,1-.38.2,1.2,1.2,0,0,0-.13-1.56,2.14,2.14,0,0,0,.85-1.33c.05-.14.12-.27.16-.42s0-.11,0-.17a1.85,1.85,0,0,0,.78.28c.63,0,1-.47,1.23-1.6-.86-4.22-3.88-6.21-6.42-7.48a2.26,2.26,0,0,0-.73-.22l-1.07-1.88a3.49,3.49,0,0,0-2.91-2.06,3.77,3.77,0,0,0-1.24.14,4.18,4.18,0,0,1-1.35.18c-1.46-.09-2.05-1.28-2.64-3.45a10.47,10.47,0,0,1-.2-1,4.35,4.35,0,0,0-.9-2.44,10.11,10.11,0,0,0-3.45-3.43h0a5.78,5.78,0,0,0-2.49-.8c-.2,0-.42,0-.63.06h-.1a6.47,6.47,0,0,0-1.14.11A1.1,1.1,0,0,0,85,553l-1.56-.87-1.64-.89a6.64,6.64,0,0,0-.69.33,1.86,1.86,0,0,0-1.37.73,1.75,1.75,0,0,1-1.31.71,2.75,2.75,0,0,1-.52-.1,4.21,4.21,0,0,0-.22-.71l-1-.45-1-.37a4.33,4.33,0,0,0,0-.52,49.32,49.32,0,0,0-.73-5.2l-.06-.29c-.11-.54-.19-1.09-.34-1.63L73.4,542l-.66-.4a1.13,1.13,0,0,1,0-.74,2.67,2.67,0,0,0-.42-2,2.38,2.38,0,0,0-1.85-.74h-.05a8.33,8.33,0,0,1-4.74,1.26c-2.65-.14-5.41-1.71-8.45-4.77-.53-.53-1.09-1-1.66-1.5l-.76-.65A4.43,4.43,0,0,0,52.25,531c-1.28-.07-2,1.22-2.72,2.47l-.41.72q0,1.17,0,2.34a2.75,2.75,0,0,1-1.59.39,7.74,7.74,0,0,1-3-1.1l-.39-.19a5.68,5.68,0,0,0-.45-.57c-.12-.16-.23-.31-.36-.46a10.1,10.1,0,0,0-2.06-1.8,7,7,0,0,1-1.53-3.09,6.65,6.65,0,0,0-1.69-3.26l-2.27-4.3a5.43,5.43,0,0,0-2.29-2.11,5.74,5.74,0,0,1-2.34-2.12c-1.8-3.34-5-5.18-7.52-6.41Q14,503.93,4.19,496.47A5.2,5.2,0,0,0,3,495.81l-.47.16a6,6,0,0,0-1.71-.38l-.5,0c-1.9-2.59-4.14-5.13-7.5-6.18l-1.48-.8-1.95-2a7,7,0,0,0-2.42-2.35,7.38,7.38,0,0,1-2.29-2.13l-.48-2.61c-.24-3.11-2.58-4.1-4.86-5.07l-.42-.18a4.45,4.45,0,0,0-.45-.14c-.3-.09-.64-.18-.71-.33l-.19-.42c-2.59-5.59-5.27-11.35-12.23-13.42-.34-.1-.62-.56-.91-1a4.67,4.67,0,0,0-.76-1l-.53-.5c-.91-.87-1.77-1.69-2.79-1.7a2.11,2.11,0,0,0-.44.12l-.12,0a3.3,3.3,0,0,0-1.53,1,2.44,2.44,0,0,1-1.9.69,9.64,9.64,0,0,1-3.39-.87A18.61,18.61,0,0,0-54,455.14a17.12,17.12,0,0,0-4.68.59,33.6,33.6,0,0,1-9.38,1.2h-.53l-6.72-3.51C-78.91,449.47-82.73,447-87,446c-.39,0-.81,0-1.22-.08s-.86-.08-1.27-.08a3.6,3.6,0,0,0-1.31.19,9.15,9.15,0,0,1-1.75.39c-1.7.27-3.46.56-3.48,2.92a12.26,12.26,0,0,0,1,5.74,1.62,1.62,0,0,0,1,1.79c.42.47.17.9-.11,1.36a1.36,1.36,0,0,0-.3,1.16,1.5,1.5,0,0,0,.8.74h0a1.22,1.22,0,0,1,.16.77q3.68,4.64,7.35,9.32a6.53,6.53,0,0,0,2.74,2.24l.55.3,5,4.14,3,3.52c.72,1.48,2.12,2,3.46,2.57s2.66,1.06,3.36,2.47a3.28,3.28,0,0,0,2,1.78l4.53,3.72c.26.32.5.67.73,1a6,6,0,0,0,2.54,2.44,22,22,0,0,1,14.26,9.13A7.17,7.17,0,0,0-42.19,505a9.77,9.77,0,0,1,1,.75l0,.05h0s0,0,0-.05l0,0-.09.1.1-.08h0a7.13,7.13,0,0,0,2.21,3.54,28.3,28.3,0,0,0,5.23,4.92c2.34,1.86,4.73,3.77,6.15,6.45l.05.09A11.05,11.05,0,0,1-27,522c.1.26.17.53.25.8s.2.63.26,1c-.92,1.85-.59,3.81,1,6,1.08,2.09,2.9,2.29,4.51,2.47l.46.05c3.51.42,6.87,2,10.28,3.56l.81,1.18c2.37.68,4.13,2.43,5.83,4.12.5.5,1,1,1.51,1.47a3.93,3.93,0,0,0,2.66,2A.48.48,0,0,0,1,544.6H1c0,.58.13,1.16.21,1.74a13.35,13.35,0,0,1,.22,2.74c.61,1.44,1.27,2.87,1.93,4.3a50.06,50.06,0,0,1,4.11,11.14,36.57,36.57,0,0,0,3.26,8.92,38.45,38.45,0,0,1,3.14,8.38,3.39,3.39,0,0,0,1.9,2l.28,0,.3.26c5.39,1.83,10.47,4,13.41,9.93a15.54,15.54,0,0,0,2.91,4.56,23.1,23.1,0,0,1,2.12,2.89c.32.61.74,1.24,1.37,1.3a.82.82,0,0,0,.37,0,6.25,6.25,0,0,0,2.8,2.82l1.23,1.79,1.22,1.74a1.86,1.86,0,0,0,0,.69c.47.79.93,1.58,1.39,2.37a63.27,63.27,0,0,0,5,7.71l.1-.1.06,0a3.17,3.17,0,0,0,1,2.9c3,2.33,4.3,5.63,5.53,8.81a32.6,32.6,0,0,0,2.48,5.41,10.43,10.43,0,0,0,3.09,4.48,4.17,4.17,0,0,1,1.36,1.93l.18.26,0,.07,0,0c-3,3-2.72,4.34,2,10l4.83,6.47a6.18,6.18,0,0,0,1.44,2.12c.46.41.92.8,1.39,1.19.65.55,1.31,1.1,1.94,1.71a10.34,10.34,0,0,0,1.55,1.07,3.18,3.18,0,0,0,.86,1.45A23,23,0,0,0,80.46,675a5.15,5.15,0,0,0,2.07,3.45c.27.25.54.51.79.78a62.57,62.57,0,0,0,8.92,7.73,2.81,2.81,0,0,0,1.14,1.5,1.63,1.63,0,0,0,.6.21h.09l.07.11,0,.24.88.55,1.07.71a2.72,2.72,0,0,0,.55,2A16.91,16.91,0,0,1,98.2,696c.75,2.34,1.52,4.76,4,6.2a3.46,3.46,0,0,0,2.72,2.17H105l3.57,3.59c.6.85,1.21,1.72,2.27,1.87h0l2,1.95a5,5,0,0,0,2.48,2.3,6.16,6.16,0,0,1,2.18,2.62c.75,1.33,1.53,2.71,3.07,2.93h0a1.06,1.06,0,0,0,.4.57.76.76,0,0,0,.11,0,.85.85,0,0,0,.29.14h.17a35.54,35.54,0,0,0,7.6,6.93l1.34,1c5.06,3.73,10.28,7.59,13,14.54a14.5,14.5,0,0,0,4.13,5.17l1,.92.09.39c.41,1.84.83,3.74,2.75,4.15a2.57,2.57,0,0,0,1.86,1.9l1.24.32c1.14,2.42,2.2,3.63,3.33,3.79a2.89,2.89,0,0,0,2.43-1.15c0-.19,0-.39,0-.59a2.72,2.72,0,0,1,.12-1.15c.31-.64-.13-1.42-.54-2.16a2.82,2.82,0,0,1-.57-1.65c.07-.33.34-.58.84-.76a2.25,2.25,0,0,1,1.09-.12c1.4.19,2.65,1.67,3.48,2.77a8.06,8.06,0,0,0,5.83,3.29C170.88,758,171.17,758,171.48,758Z"/><path class="cls-2" d="M417.24,721.46c.14.27.27.55.39.84a9.1,9.1,0,0,0,.46,1,3.9,3.9,0,0,0,.55,1.84,2.37,2.37,0,0,0,1.05,2.59,1,1,0,0,0,.45.12c.54,0,.82-.57,1.09-1.13l.21-.44,1.58-.82a11.18,11.18,0,0,1,1.21-1.46c1.12-1.21,2.28-2.46,1.95-4.85h-.05l.15-.36a4.21,4.21,0,0,0-.19-.65,3.59,3.59,0,0,0-.37-1.12,3.1,3.1,0,0,1-.37-1.28,2.06,2.06,0,0,1,0-.29,1.69,1.69,0,0,1,0-.24l.55,0c.22,0,.43,0,.65,0a1.31,1.31,0,0,0,1.14-.43,2.24,2.24,0,0,0,.28-1.52c0-.63,0-1.4,0-2.2,0-1.74.06-3.54-.48-4.22-.14-.18-.32-.27-.76-.28h0c-1.61,0-1.73-.92-1.85-1.86a4.2,4.2,0,0,0-.26-1.15c-1.52-3.43-.22-6.21,1.22-8.75a1.62,1.62,0,0,0,.24-2,5.93,5.93,0,0,1,.21-3.42,11.63,11.63,0,0,0,.33-1.43,3.16,3.16,0,0,1,.18-2.09.81.81,0,0,1,.73-.34,3.1,3.1,0,0,1,.94.21c1.52-.85,3.06-4.46,3.74-7.44.54-2.34.56-4.21.06-5.13-.29-.54-.74-1.22-1.21-1.35a2.3,2.3,0,0,1-1.6-1.11,4.39,4.39,0,0,1,.11-2.79,9.92,9.92,0,0,0-.51-6.84,2.64,2.64,0,0,1-.42-1.68.57.57,0,0,1,.35-.38c1.74-.71,2.13-2.4,2.51-4a9.88,9.88,0,0,1,.77-2.39,16,16,0,0,1,3.86-2.56c2.27-1.21,4.61-2.45,5.85-5.54l2.6-3.07c1.37-2.45,3.48-2.84,5.51-3.23a12.17,12.17,0,0,0,2.92-.81l.2-.45c.29-.68.56-1.33,1.27-1.57.82-.83,1.48-1.63,1.11-3-1.23-2.73-1.19-4.85.14-6.87a3.58,3.58,0,0,0,.6-1.58,1,1,0,0,0,0-.11,2.09,2.09,0,0,0,0-.61,2,2,0,0,0-1.32-1.3c-1.82-.71-2.76-1.47-3-2.45s0-2.2,1-4c.77-1.38,1.32-2.56.85-4.18-1.83-6.2.75-10.85,3.21-14.21a18.93,18.93,0,0,1,1.49-2.28,10.73,10.73,0,0,0,2.21-4.45A6.85,6.85,0,0,0,461,589a6,6,0,0,1,1.33.36,5.09,5.09,0,0,0,1.55.37,1.29,1.29,0,0,0,1-.44,4.33,4.33,0,0,0,1.51-.44,34.78,34.78,0,0,0,5.61.37,24.65,24.65,0,0,1,8,1,6.69,6.69,0,0,0,2.2.42c1.92,0,3.41-1.17,4.53-3.56l1.75-3c.81-1.82,1.12-2.74.86-3.35s-1.24-.89-3.38-1.15a21.49,21.49,0,0,0-1.28-2c-.15-.22-.27-.46-.43-.68-.5-.71-1-1.38-1.57-2l-.32-.36a54.11,54.11,0,0,0-7.14-6.46c-1.78-1.4-3.62-2.85-5.29-4.43a3.3,3.3,0,0,0-2.64-2.1l-.95-.72c-2-1.2-2.91-3.52-3.74-5.76l-.2-.46a.62.62,0,0,0,0-.85,12.48,12.48,0,0,1,2-3.53,10.63,10.63,0,0,0,2.3-4.55c.95-1.64.2-2.78-.53-3.89-.15-.23-.3-.46-.45-.71-4.41-3.55-6.22-9-8-14.36-.61-1.85-1.22-3.71-1.94-5.49a1.65,1.65,0,0,1,.48-2.31c2.5-2.34,1.67-5.35.67-7.72a2.1,2.1,0,0,0-.83-.78c.13-1.37,1-2,2.2-2.63a5.35,5.35,0,0,0,2.73-3.09,5.58,5.58,0,0,0-.42-3.79,1.31,1.31,0,0,0-1.11-.45l-.65,0a1.26,1.26,0,0,1-1.1-.49,1.11,1.11,0,0,1-.83-.53,2.17,2.17,0,0,1,0-1.4,4.51,4.51,0,0,0,2.49-1.14,4.47,4.47,0,0,1,2.54-1.15,4.28,4.28,0,0,1,1,.15c.1,0,.15-.1.24-.15l.1-.06c.07-.05.16,0,.21-.13a2.13,2.13,0,0,0,.06-1.59l-.2-.62c-.51-1.59-1-3.21-2.42-4l0,0a3.86,3.86,0,0,0-1.87-.43h0c-.63,0-1.26,0-1.89,0-1,0-2.09,0-3.13-.07-.65,0-1.29,0-1.9,0h-.29a11.39,11.39,0,0,0-4.7-3.67l0,0a9,9,0,0,0-3.31-.68,12.33,12.33,0,0,0-2.47.26,39.46,39.46,0,0,1-7.92.84,30.12,30.12,0,0,1-8.24-1.14,2.65,2.65,0,0,0-1.19-1.1l-.06,0a1.39,1.39,0,0,0-.43-.16,1.78,1.78,0,0,0-1.05.4,15,15,0,0,0-1.73,1.06,6.42,6.42,0,0,1-3.29,1.46c-1.06,0-2-.67-3-2a1.26,1.26,0,0,0-1.07-.53,2.6,2.6,0,0,0-1.77.82c-.44.46-.92.89-1.4,1.31-1.4,1.24-2.84,2.52-3.31,4.76a1.48,1.48,0,0,0-.13.64c-.18.89-.35,1.8-.51,2.7a47.39,47.39,0,0,1-1.75,7.35,17,17,0,0,0-.51,7.08,19.61,19.61,0,0,1-.17,5.79,5.06,5.06,0,0,0-.61,3.13c0,.21,0,.43,0,.64,0,3.64-1.29,5.41-3.87,5.39a7.13,7.13,0,0,1-1.26-.13,4.92,4.92,0,0,0-.93-.1c-2.62,0-3.37,2.54-3.87,4.93a5.28,5.28,0,0,0,0,1.78,3.54,3.54,0,0,1-.27,2.55,10,10,0,0,1-.37,1.06c-.49,1.27-1,2.58.42,3.9a1.92,1.92,0,0,1,.78,1.26c0,.43-.39.75-.77,1.06a2.08,2.08,0,0,0-.73.84,5.39,5.39,0,0,0-2.58,2.8,5.92,5.92,0,0,0-3.39,3.48c-.58,1.72-.35,3.85.67,6.51a5.43,5.43,0,0,1,.21,2.68,10.28,10.28,0,0,0-3.3,6.32c-1.13.31-1.46,1.77-1.73,3-.2.88-.38,1.64-.81,1.64a.61.61,0,0,1-.29-.09,5.7,5.7,0,0,0-2.72-.73,12.24,12.24,0,0,0-3.86.8,11.78,11.78,0,0,1-3.7.77,5.12,5.12,0,0,1-1.82-.36l-.55,0a5.14,5.14,0,0,0-4.55,2.64,4,4,0,0,1-3.54,1.94,11.84,11.84,0,0,1-2.72-.5,11.87,11.87,0,0,0-2.75-.51,2.17,2.17,0,0,0-.82.11c-.1-.26-.18-.52-.27-.83L352,568.58h-1.63a15.66,15.66,0,0,0-1-1.18l-.39-.45a12.34,12.34,0,0,0-3.94-2.84l-.56-.22a11.52,11.52,0,0,0-2.46-.64l-.59-.08c-.35,0-.67-.13-1-.14a15.46,15.46,0,0,0-2.22.12,18.67,18.67,0,0,1-2.63.1l-2.47-.08c-2.85-.06-5.83.14-8.19,3.18-1.5.9-1.68,2.58-1.86,4.2a6.44,6.44,0,0,1-1,3.48.42.42,0,0,0-.36.14.36.36,0,0,0,0,.38,10.38,10.38,0,0,0-3.56,1.77c-1.38.93-2.82,1.88-4.5,1.83a5.4,5.4,0,0,1-1.71-.35,2.19,2.19,0,0,1-.28.17,1.32,1.32,0,0,0-.57.47,4.52,4.52,0,0,1-.62,0,10,10,0,0,1-3.33-.91,10,10,0,0,0-3.36-.92h-.46l-1.63-.22a3.15,3.15,0,0,0-1.73-.57,7.11,7.11,0,0,0-2,.35,6.88,6.88,0,0,1-2,.35,3.41,3.41,0,0,1-.52-.05,9.65,9.65,0,0,0-5.08,2.61,3.86,3.86,0,0,1-2.92,1.37,5.21,5.21,0,0,1-3-1.32l-.27-.13a4.37,4.37,0,0,0-1.67-.54.48.48,0,0,0-.32.07c-1.26-3.09-3.65-4.8-6-6.45l-.69-.49-.84-.34c-.2-.33-.48-.58-.7-.88s-.42-.55-.64-.81a23.33,23.33,0,0,0-3.16-3,3.16,3.16,0,0,0-1.75-2c-2.19-3.55-4.93-8-6.44-12.82a2.47,2.47,0,0,0,1.43-1.38,1.67,1.67,0,0,0-.1-1.14c-.16-.37-.35-.57-.58-.57s-.7.41-1,.84l-.87,0c-2.49-.07-5.07.09-6.77,2.89,0,0-.1.46-.09.48-.58,1-1.22,2.06-1.86,3.07a26,26,0,0,0-4,8.46c-.2,1.55-.31,3.14-.41,4.73-.28,4.32-.58,8.78-2.88,12.43a1.78,1.78,0,0,0-.65,1.26,2.6,2.6,0,0,0,.67,1.64,3.47,3.47,0,0,1,1,2.2,4.59,4.59,0,0,0,.63,1.78l.08.94a18.5,18.5,0,0,1,0,2.67c-.1,2.35-.19,4.77,2,6.36,3,2.21,4.47,5.17,4.85,9.89q0,.46,0,.92c-3.18,2.11-3.61,4.94-1.46,9.46.44.91.94,1.81,1.44,2.71,1.61,2.88,3.28,5.87,2.71,9.53-.24.28-.33.5-.27.67s.27.28.62.32c1.73.2,3.59.58,4.34,1.95.52,1,.46,2.34-.19,4.17-.87,1.1-.84,2.38.09,4a4.17,4.17,0,0,0,3,2,4.46,4.46,0,0,0,3.42-1.85,4.12,4.12,0,0,1,3.25-1.7,5.26,5.26,0,0,1,2.8,1.21l2.89,7-1.51,5.7,0-.06c-1.42,2.17-2.06,3.16-1.93,4.08s.87,1.55,2.35,2.88l-.08.41c.23.12.47.21.71.31a4.26,4.26,0,0,1,1.76,1.11,2.6,2.6,0,0,1,.25.32,14.83,14.83,0,0,1,.43,4.75,13.61,13.61,0,0,0,.63,5.35,8.77,8.77,0,0,1,1.3,3.42,10.29,10.29,0,0,0,1.45,3.83q0,3.24.09,6.49a3.05,3.05,0,0,0-.45,1.66s0,0,0,.07a3.13,3.13,0,0,0,0,.66,5.25,5.25,0,0,0,1.75,2.85,2,2,0,0,0,.57.22l.16.06c.11,0,.22.12.33.13a4.14,4.14,0,0,0,2.6-1.31,9.33,9.33,0,0,1,1.2-.88l2.41.31.23.46c.72,1.45,1.48,2.89,2.58,3.39l.1,0a1.82,1.82,0,0,0,.56.2,3.35,3.35,0,0,0,2.16-.84.88.88,0,0,1,.58-.15,1.65,1.65,0,0,1,1.39,1.18,2.86,2.86,0,0,0,2.34,1.84,4.19,4.19,0,0,0,1.86-.41c.49-.36,1-.74,1.46-1.12,2-1.55,4-3.16,6.3-3A7.27,7.27,0,0,1,314,695a1.44,1.44,0,0,0,.6-.27l.34-.2.42,0,.32-.38a5.26,5.26,0,0,1,2.31-.61c.26,0,.51.06.71.08h0a21.28,21.28,0,0,1-.32,2.15,10.89,10.89,0,0,0-.18,4.5,14.89,14.89,0,0,0,.51,2.1,9.23,9.23,0,0,1,.56,3.5,2.49,2.49,0,0,1-.23,2.09,2.91,2.91,0,0,0-.3,2.11,11.1,11.1,0,0,0,2.94.72,3.56,3.56,0,0,0,3.41-1.9c2-3.1,3.89-4.49,6-4.39,1.49.07,3.06.88,4.8,2.47a4.84,4.84,0,0,0,2.63,1.43c1.08,0,1.78-.86,2-2.66a22.1,22.1,0,0,1,2-1.11c2.56-1.29,5.21-2.62,5.3-7.44,0-.35.13-.38.22-.38.26,0,.69.38,1.11.73a5.45,5.45,0,0,0,.8.6l.65,1a3.2,3.2,0,0,0,2,1.89,5.56,5.56,0,0,0,3,1.75c.4.13.79.26,1.17.42a1.45,1.45,0,0,0,.53.12,3.53,3.53,0,0,0,1.47-.4,3.49,3.49,0,0,1,1.45-.41,1.91,1.91,0,0,1,1.41.84L361,705.3c-.71,2.36.5,3.87,1.8,5.21a4,4,0,0,0,1.74.67,1.68,1.68,0,0,0,1.39-.7c2-2,3.81-2.93,5.8-2.86a6.89,6.89,0,0,1,1.66.27,4.62,4.62,0,0,0,2.74,1.37,12.52,12.52,0,0,1,1.92.57c1.56,0,2.69,1.29,3.63,2.45,2.06,2.73,1.64,6.07,1.27,9a13.62,13.62,0,0,0,1.64,9,2.75,2.75,0,0,0,1.91,1,3.23,3.23,0,0,0,2.11-.88c1.8-.72,3.59-1.47,5.39-2.22s3.68-1.54,5.53-2.29l.43-.17a4,4,0,0,0,2.82-2.43l-.12-.14-.1-.16a1.85,1.85,0,0,0,.83.29c.65,0,1.12-.56,1.44-1.75.07-.49.27-.73.83-.72h0a2.37,2.37,0,0,1,1.65-.45l1.46.09c1.11,0,2.19-.24,2.58-2.28a3.37,3.37,0,0,0,1.64.37h1.28C415.53,718.52,416.8,718.77,417.24,721.46Zm7.63-1.8,0,0-.2.45-.08.14c-.26-.49-.25-.64-.24-.67l.05-.07h0v0C424.56,719.58,424.72,719.65,424.87,719.66ZM274.46,654.5l.31.28.08.09c-.1,0-.22-.09-.36-.31Z"/><path class="cls-2" d="M674.72,838.8a4.35,4.35,0,0,1-.63-.41,14.77,14.77,0,0,0-6.33-.88,11.17,11.17,0,0,0-6.7,3.52,5.6,5.6,0,0,1-2.92,1.82,2.3,2.3,0,0,1-1.62-.45c-.06-.74-.47-.82-.88-.89a1.78,1.78,0,0,1-.55-.16,4.6,4.6,0,0,1-1.13.27l-.52.09h-1.29a5.67,5.67,0,0,0-2.43,1.16,5.63,5.63,0,0,1-3.33,1.26,6.77,6.77,0,0,0-2.64.74,14.75,14.75,0,0,0-1.87.34,3.78,3.78,0,0,0-2.2-.37,41.36,41.36,0,0,0-7.89,2c-.64.24-1.33.43-2,.62-2.64.74-5.37,1.49-6.59,4.7-2.35,6.15-6.34,8.69-10.57,11.35-.91.57-1.81,1.15-2.7,1.75a55.81,55.81,0,0,0-17.78,12.91c-1.5,1.66-3,3.37-3.26,5.88a37.06,37.06,0,0,1-1.68,7.43c-.38,1.24-.73,2.49-1,3.87,0,.14-.08.27-.11.4l0,.17a1.85,1.85,0,0,0-.51,0c-1.16.09-2.09,1.33-2.91,2.44l-.41.72a6.73,6.73,0,0,0-1.34,3.87c.45,4.77-2.18,7-4.72,9.13l-.58.47a9.27,9.27,0,0,0-1.42,1.37L574,914a3.93,3.93,0,0,0-.49.67,5.53,5.53,0,0,0-2.51,2,1.45,1.45,0,0,0-.2.3,4.54,4.54,0,0,1-.19,2.65c-.26,1.07-.53,2.17-.14,2.84,0,.06.13.08.18.14l.06,0a2,2,0,0,0,1.59.43A5.87,5.87,0,0,0,573,923l1-.75a3.44,3.44,0,0,0,.5.23c.65-.19,1.33-.33,2-.46,2.85-.56,5.8-1.16,6.76-6.31,1.9-2,1.85-4.46,1.8-6.85,0-.51,0-1,0-1.5a3.78,3.78,0,0,1,.43-2.09.78.78,0,0,1,.59-.33,3.23,3.23,0,0,1,1.47.45,22.16,22.16,0,0,0,4.45.16,10.18,10.18,0,0,0,6.94-3.31,9.56,9.56,0,0,1,6.42-3.45,12.61,12.61,0,0,1,1.9,0,3.93,3.93,0,0,0,.82,0,2.63,2.63,0,0,0,1.65-.82l0,0a5.48,5.48,0,0,0,1.28-3.13l.36-.13.79-1.15,1-1.28c.81-.57,1.65-1.18,1.59-2.42a2.52,2.52,0,0,0,1.46-1.9l.36-.59c.76-1.28,1.47-2.48,2.91-2.63a2.14,2.14,0,0,0,.87-.79,8.64,8.64,0,0,0,1.47-3.49c.45-1.72.87-3.35,2.4-4.15a35.51,35.51,0,0,0,5.15-3.56c2.44-1.9,5-3.88,7.85-4.63a2,2,0,0,1,1.08-.43,6.17,6.17,0,0,1,.8,0,6.35,6.35,0,0,0,.81,0,2.13,2.13,0,0,0,1.49-.8c.29-.25.59-.48.89-.71a12.87,12.87,0,0,0,1.86-1.64c1.88-2.13,4.28-3,6.6-3.76,3.19-1.1,6.48-2.25,8.53-6.77a1,1,0,0,1,.68-.41c2.59-.4,4.88-2.08,7.09-3.71a39,39,0,0,1,3.24-2.22,5.3,5.3,0,0,0,.83-.5l.1-.06a12.77,12.77,0,0,0,3.63-4.53c.24-.43.49-.86.76-1.32C676.15,839.6,675.42,839.19,674.72,838.8Z"/><path class="cls-2" d="M580.42,855.32a7.52,7.52,0,0,1,3.4.56,1.65,1.65,0,0,0,.55-.24,1.23,1.23,0,0,0,1,.47,2.37,2.37,0,0,0,.41-.16l.06,0a2.28,2.28,0,0,0,.56-.22c.36-.18.41-.45.35-.56,3.69-1.69,6.56-5.1,9.41-8.53a.56.56,0,0,0,.17,0,.23.23,0,0,0,.12-.06h0a5.53,5.53,0,0,0-.67,3.66,4,4,0,0,0,2.57,2.64,3.94,3.94,0,0,0,3.24,1.69,3.06,3.06,0,0,0,.39-.13,3,3,0,0,0,.29-.1,4,4,0,0,0,1.22-.67l.21-.18a5.93,5.93,0,0,0,.68-.58,5.13,5.13,0,0,1,3.51-1.61,8.47,8.47,0,0,0,1.71-.38,7.49,7.49,0,0,1,5.06-2l1.4-.11a12.58,12.58,0,0,0,3.33-.69c1-.09,1.84-.81,2.6-2.12a3.91,3.91,0,0,0,3-1.28A6.14,6.14,0,0,0,626,841c0-3.08-.95-3.61-2.52-3.47l-1.56.19c-1.68.15-3.35.34-5,.53l-4.47.48-.5,0c-.65.05-1.31.16-2,.27s-1.31.21-2,.26a7.75,7.75,0,0,1-2.78-.22l-1.74,2.11c-1,1.45-2,2.22-3,2.29-1.11.09-2.16-.77-3.21-2.62-.47-.86-1.07-1.29-1.74-1.24a2.64,2.64,0,0,0-1.63,1,6.77,6.77,0,0,1-4.81,2.24c-.69,0-1.38,0-2.08,0s-1.4,0-2.09,0l-.48,0-.72-.21a1.36,1.36,0,0,0-1.14-.56,3,3,0,0,0-1.51.78,4,4,0,0,1-2,1.07c-1.12.07-1.31-1.42-1.52-3-.06-.49-.13-1-.23-1.43a2,2,0,0,0-1.68-1,2.51,2.51,0,0,0-1.48.75,3.52,3.52,0,0,0-2.88,1.67c-.71,1.41-.1,3.43.55,5.56l.11.17,0,.09a10.71,10.71,0,0,0-1.83-.07,4.66,4.66,0,0,0-2,.59l-.19.12a4.12,4.12,0,0,0-1.19,1.13l-.12.16a7.6,7.6,0,0,0-1,2.32c-.72,2.73-1.91,4.16-3.53,4.26A5.35,5.35,0,0,1,558.9,854a.83.83,0,0,0-.88-.59,3.2,3.2,0,0,0-.41.06l-.36.08a9.76,9.76,0,0,1-.66-1.14c-.56-1.06-1.13-2.16-2.42-2.09a2.81,2.81,0,0,0-.73.14c-1.22.39-2.44.9-3.66,1.4a22.1,22.1,0,0,1-7.1,2.07,8.46,8.46,0,0,1-6.95-3.23c-.22-.26-.64-.24-1-.23l-.49,0c-1-1.92-2.57-1.92-4.06-1.91a4.61,4.61,0,0,1-3.1-.71,1,1,0,0,0-.89-.76,1.12,1.12,0,0,1-.7-.36l-2.29-.14a3.78,3.78,0,0,0-2.81-1.24,8.1,8.1,0,0,0-3.51,1.34,10.35,10.35,0,0,1-3,1.3c-.06-.1-.17-.23-.29-.23s-.2.1-.29.27a24.17,24.17,0,0,1-2.93,2.28c-2.54,1.76-5.15,3.58-5.87,7.91a1.3,1.3,0,0,1-.88.52c-.46,0-.83-.4-1.22-.83s-.79-.86-1.29-.85a.33.33,0,0,0-.31.15h0c-.17-2.57-1.6-4-3-5.36l-.35-.3-1.71,1a7.32,7.32,0,0,0-1.2,3.85,14.22,14.22,0,0,1-.35,2.09c-.08.18-.19.27-.49.28h-.08a4.36,4.36,0,0,0,0,5.15A3.62,3.62,0,0,0,496,865c1.09,0,1.87-.93,2.57-2.16.17-.28.35-.58.52-.88a5.59,5.59,0,0,0,2,3.47,8,8,0,0,0,1,.79h.08l.1.07a2.34,2.34,0,0,0,.41-.11,2.22,2.22,0,0,0,.29-.08,2,2,0,0,0,.74-.38,2.64,2.64,0,0,0,.62-.7,3.43,3.43,0,0,0,1.12,1.33,3.61,3.61,0,0,0,1.21.46,34.17,34.17,0,0,0,4.09.1l3.86-.14,1.61,0a8.23,8.23,0,0,1,2.47-.43,24.14,24.14,0,0,1,2.5.1,22.76,22.76,0,0,0,2.51.1,7.86,7.86,0,0,0,2.29-.4l-.17.31a2.23,2.23,0,0,0,2.4,1.73,8.8,8.8,0,0,0,1.08-.13l.7-.11a1.62,1.62,0,0,1,.87-.43.66.66,0,0,1,.39.13,2.38,2.38,0,0,1,.43,1.48,2,2,0,0,0,1.36.53,1.73,1.73,0,0,0,.52-.11l2.05-.78c3.25-1.25,6.61-2.54,10-2.71a14,14,0,0,1,4.4.48c.16,0,.33-.13.68-.38a17.57,17.57,0,0,1,5-2.12,14.64,14.64,0,0,0,1.74-.59,10.1,10.1,0,0,1,3.72-.68,14.82,14.82,0,0,0,2.24-.24,7,7,0,0,0,2-.84,6.42,6.42,0,0,1,1.86-.81,21.08,21.08,0,0,0,6.12-2.67C575.57,856.83,577.95,855.48,580.42,855.32Z"/><path class="cls-2" d="M412.84,848.29c-2.83-4.37-5.77-8.32-10.54-8.7a.49.49,0,0,1-.27.08.54.54,0,0,1-.38-.21,1.42,1.42,0,0,0-.93-.5c-.09,0-.18.08-.27.11l-.12,0c-.12.05-.25,0-.38.15l-.83.73c-.56.5-1.13,1-1.71,1.45a7.05,7.05,0,0,1-4.63,1.38,8.5,8.5,0,0,1-6.7-3.63l0-.08a6.65,6.65,0,0,1-.48-.88,17.14,17.14,0,0,1,0-2c.07-2,.15-4-1.75-5.44l-2.29-.06a8.65,8.65,0,0,1-2.2-1.2,6.25,6.25,0,0,0-3-1.36.76.76,0,0,0-.29,0l-.72-1a3.19,3.19,0,0,0-2-.94c-1.17-.06-2.22.74-3.25,1.62h-6.42a5.54,5.54,0,0,1-.67-.1,5.63,5.63,0,0,0-.68-.1,1.38,1.38,0,0,0-1.47.93.86.86,0,0,1-.47.08h-.09c-3-.4-6-1.89-9.15-4.56-2-1.7-3-3.22-3-4.66a4.41,4.41,0,0,1,1.05-2.7,9.78,9.78,0,0,1,1.69-1.61l0-.22h0l1.11.14c.41.52.8,1.05,1.17,1.63a6.33,6.33,0,0,0,4.15,2,11.24,11.24,0,0,0,4.8-1.08l1.27-1c1-.25,1.23-1.2,1.33-2.41,0-.12,0-.24,0-.36a.38.38,0,0,0,0-.07l2.09.2,1.33-.64a3.16,3.16,0,0,0,.41-.2,11.84,11.84,0,0,1,5.11-1,10,10,0,0,1,1.09.11c1.65-.76,2.52-1.67,2.64-2.78s-.48-2.27-1.76-3.64a1.56,1.56,0,0,0-1.21-.5h-.59a1.43,1.43,0,0,1-1.44-1,1.63,1.63,0,0,0-1.11-.72c-.59,0-1.08.52-1.53,1.12a22.73,22.73,0,0,1-6.52.39l-3.39-.21c-1-.05-2-.09-3.06-.05-.74,0-1.49,0-2.25,0l-2.29-.15a13.3,13.3,0,0,0-6.62.9l-.86,1a4.88,4.88,0,0,1-2.59,1,2.24,2.24,0,0,1-1.75-1.34,4.28,4.28,0,0,0-3.67-2.52,12,12,0,0,0-2,.09,3.41,3.41,0,0,0-1.66-.45l-3.4-.88a5.33,5.33,0,0,0-5.13-3.29l-1.38-.09a11.61,11.61,0,0,1-1.39-.17,17,17,0,0,1-1.68-1.72c-1.14-1.27-2.31-2.59-3.74-2.69a3.35,3.35,0,0,0-2.39.92l-1.53-.06a2.35,2.35,0,0,1-1.22.28c-1.3-.1-2-1.66-2.58-3.11-1-2.57-2.41-4.07-4.45-4.72l-4.82-.43c-4.1.21-4.47,3.73-4.83,7.14-.1.9-.19,1.81-.35,2.65-.73,3.43-1.55,4.48-3.38,4.32a12.86,12.86,0,0,1-3.72-1.2,9.26,9.26,0,0,0-2.6-.74,4,4,0,0,0-1.46.12l0,.06-.21-.18-.12.12h-.05c-.56-.13-1.15-.31-1.75-.5-.76-.23-1.53-.46-2.26-.61l-.7-.27a19.33,19.33,0,0,0-4.9-1.41,7.77,7.77,0,0,0-1.27,0l-.82-.09a3.81,3.81,0,0,0-1.24-.34,8.17,8.17,0,0,0-2.86.41,8,8,0,0,1-2.83.4,4.34,4.34,0,0,1-2.67-1.39l-.74-.2c-.55-.14-1.1-.28-1.64-.45s-1.15-.34-1.72-.49c-3.63-1-7.06-1.93-8.13-8.81-.5-3.18-3.59-8.23-7.13-8.61a3.77,3.77,0,0,0-1,0,12.71,12.71,0,0,1-3.43.07,30,30,0,0,1-8.32-2.66c-1.08-.47-2.17-.94-3.24-1.34-.5-.61-1-1.28-1.42-1.94-1.19-1.7-2.44-3.4-4.23-4.18l-.29-.1a4.62,4.62,0,0,0-.93-.32,14.66,14.66,0,0,1-1.93-.95,8.85,8.85,0,0,0-2.8-1.17c-1.5-.18-2.29,1.1-2.45,4a3.72,3.72,0,0,1-2.61.62,7.77,7.77,0,0,1-2.11-.68c-.24-.12-.48-.23-.73-.38l0-.09c-.69-.32-1.37-.67-2.06-1a22.84,22.84,0,0,0-7.07-2.65,8.56,8.56,0,0,0-2.42,0,1.15,1.15,0,0,1-.71.15c-.41-.05-.8-.34-1.43-1.14l-.41-1.49a5.32,5.32,0,0,1-.57-.24,3.16,3.16,0,0,0-.86-.3,1.14,1.14,0,0,0-1.06.54l-.57-.05c-3.15,2-3.87,5.88-4.18,9.74-.25.39,0,.95.37,1.69a6.48,6.48,0,0,0-.06,1.35,2,2,0,0,1-.47.2,5.3,5.3,0,0,0-1.93-.76,2.09,2.09,0,0,0-1.47.35l-.07,0a4.51,4.51,0,0,0-1.53,3.16,37.87,37.87,0,0,0-.57,5.47l.07,1.06a.39.39,0,0,1-.29.09c-.37-.05-.72-.74-1.05-1.41s-.72-1.42-1.29-1.5l-.48-.05a1.16,1.16,0,0,1-.91-.44,2.16,2.16,0,0,1,.08-1.58,2.63,2.63,0,0,0-.33-2.09,3.62,3.62,0,0,0-1.95-1.7c-1.09-.16-1.73.79-2.35,1.71a7.39,7.39,0,0,1-.93,1.2c-.9.86-.42,1.55.08,2.28a6.49,6.49,0,0,1,.49.79c2,4,4.87,6.23,9,6.85.41.06.82.11,1.24.14l1.71.19a32.68,32.68,0,0,0,3.75.3,12.69,12.69,0,0,1,1.71.13c2.83.4,5.81,1.78,9.38,4.34,1.34,1,2.67,2,3,3.39a3.49,3.49,0,0,1-.79,2.85c-1.06,1.47.08,2.83.91,3.83,2.07,2.49,4.13,3.84,6.48,4.17,0,0,19.54,5.38,19.54,5.36l.87,1a23,23,0,0,1,1.81,1.62,19.41,19.41,0,0,0,1.79,1.54,8.08,8.08,0,0,0,1.33.86h0a2.39,2.39,0,0,0,.24.55h0a1.31,1.31,0,0,0,.41.52l.14.09c.07,0,.13.12.21.13a2.91,2.91,0,0,0,1.42-.41,2.13,2.13,0,0,1,.71,0,5.7,5.7,0,0,1,1.94.8,7.6,7.6,0,0,0,1.33.64l.87,1.12a14.19,14.19,0,0,1,2.61,1.71,8.91,8.91,0,0,0,3.88,2.09,3.37,3.37,0,0,0,2.43-.67c.1-.4.18-.83.29-1.44l2.64-2.19a4.82,4.82,0,0,1,.73,0l1.18.17a3.3,3.3,0,0,0,1.24,0,4.56,4.56,0,0,0,.91.43,9,9,0,0,0,1.32.27,5.58,5.58,0,0,0,1.61,0c.24-.09.48-.15.68-.22l.29.29a15.46,15.46,0,0,1,3.35,0,39.93,39.93,0,0,1,9.63,2.84,53.76,53.76,0,0,0,7,2.35,66.26,66.26,0,0,1,5.78,4.11,40.89,40.89,0,0,0,8.95,5.67c.12.05.26.09.39.14a15.69,15.69,0,0,0,1.92.67,2.51,2.51,0,0,0,2.06,1.76,2.78,2.78,0,0,0,.55,0l.33-.08a7,7,0,0,0,4.71,2.66,7.22,7.22,0,0,0,1.26,0,18.86,18.86,0,0,1,3.13,0,9.89,9.89,0,0,1,3.43.92l1.17.3a4.18,4.18,0,0,0,2.76,1.15c1.22.18,2.38.34,3.23,1.86a2.18,2.18,0,0,0,1.14,1.06h0a1.38,1.38,0,0,0,.31.13,2.88,2.88,0,0,0,1.68-.61c.59-1.94,1.65-2.12,2.61-2A10.29,10.29,0,0,1,326,845a10.54,10.54,0,0,0,1.19.19,3.45,3.45,0,0,0,.46,0l2.4.31a23.29,23.29,0,0,1,2.37,1,12.38,12.38,0,0,0,4.23,1.42,5,5,0,0,0,.63,0l4,1.37a7.43,7.43,0,0,0,.67.45c.16.12.34.24.51.34a6,6,0,0,0,1.19.57,5,5,0,0,0,.84.21,5.34,5.34,0,0,0,.58.15h0a4.78,4.78,0,0,0,.61-.34A4.64,4.64,0,0,0,347,851c1.71.12,3.24-.78,4.87-1.62a.62.62,0,0,0,.51-.16,7,7,0,0,0,.93.12,7.1,7.1,0,0,0,1.26,0,5.85,5.85,0,0,0,1.06-.23,6.54,6.54,0,0,1,2.32-.38,3.54,3.54,0,0,1,1.59.49l.86.72.47.51a22,22,0,0,0,2.32,2.21l.25.18a8.17,8.17,0,0,0,.9.68,4,4,0,0,0,1.05.34l.34,0,.31.41,1,.45a5.57,5.57,0,0,1,.62,1.15,7.67,7.67,0,0,0,2.75,2.1c.29.15.59.31.88.48A13.77,13.77,0,0,0,377.4,860l.7,0a5.13,5.13,0,0,1,3.62,1.43,5.75,5.75,0,0,0,3.89,1.86c.17,0,.36-.06.53-.07h.07a6.68,6.68,0,0,0,1.53-.19,2.44,2.44,0,0,0,1-.83,5.7,5.7,0,0,0-.4-5.08,6.4,6.4,0,0,0-.83-1.1,10.93,10.93,0,0,0-2.95-2.1l-.6-.28-.84-2.09,0,0,.27-.19a1.38,1.38,0,0,1,1.11-.7c.45,0,.92.39,1.48,1.16a5.26,5.26,0,0,0,3.47,2.44c3,.44,5.65,2.25,8.07,4.15a1.71,1.71,0,0,0,.48.19,8.38,8.38,0,0,1,.22,1.51,5.52,5.52,0,0,0-1.36,2.84c.65,2.63,1.85,3,2.82,3a8.34,8.34,0,0,0,1.64-.16,10.7,10.7,0,0,1,1.38-.17c1.43-.64,1.68-2.24,1.92-3.78l.07-.48c.28-.73.53-1.1.73-1.1s.39.42.56.82a2.42,2.42,0,0,0,.46.81,1.65,1.65,0,0,0,.3.26,3.14,3.14,0,0,0,2.86,2.69h.3c1.27-.09,1.42-1.41,1.55-2.7,0-.41.09-.81.16-1.22l-.17-.47c-.25-.74-.5-1.51-1.22-1.53h0c-.55-1.58.2-2,1-2.53A4.39,4.39,0,0,0,412,856l.36-.35c1.38-1.34,2.8-2.73,1.48-5.59Zm-206-79.39a1,1,0,0,1,0,.11l-.3-.56A2,2,0,0,1,206.86,768.91Z"/><path class="cls-2" d="M847.81,754.88c-1-.39-.81-2.16-.64-3.84a33,33,0,0,0-.14-9,6.09,6.09,0,0,1,0-3,5,5,0,0,0-.21-3.47c-1.28-1.2-2.33-2-3.26-1.82a1.71,1.71,0,0,0-.3.15h0c-1,.42-1.89,1.89-3,4.32a7.41,7.41,0,0,1-4.19,4,3.17,3.17,0,0,0-2,2.23,1.48,1.48,0,0,0,.57,1.73c.9.43,1.34.94,1.29,1.51-.07.82-1.11,1.63-1.94,2.27-3.58,2.84-4.65,5.69-3.81,10.12.6,3.17-.75,6.89-3.53,9.76-1.1,3.46-.91,3.91,2.35,5.81a3.56,3.56,0,0,1,.85.28,2.43,2.43,0,0,0,1.44.28,2.09,2.09,0,0,0,.8-.36l2.16-1.75a4,4,0,0,0,.48-.39c2.81-2.16,4.41-5.37,6-8.52l.49-.33a5,5,0,0,0,.56-.46l.23-.16a5.58,5.58,0,0,0,0,.72,2.13,2.13,0,0,1-.54,1.73,4.78,4.78,0,0,0-1.24,2.92,1.33,1.33,0,0,0,.86,1.25,1.64,1.64,0,0,0,1,.12c.93-.18,1.5-1.27,2.07-2.32a11.31,11.31,0,0,1,.79-1.35,2.77,2.77,0,0,0,.9-1.49,1.71,1.71,0,0,0-.62-1.49c-.21-.06-.3-.22-.27-.52-.23-.91-.57-1.34-1-1.25h-.06A2.13,2.13,0,0,1,845,762l1.09-.15a2.27,2.27,0,0,0,1.36-.74l.61-.86c.9-1.26,1.74-2.44,1.64-3.49C849.57,755.93,849,755.33,847.81,754.88Z"/><path class="cls-2" d="M384.56,730.23s0,0,0,0v0Z"/><path class="cls-2" d="M782.71,791.06c-.16-1.23-1.2-2-2.4-2.56a5.38,5.38,0,0,0-3.23-.39,7.81,7.81,0,0,0-.76.23l-.23.07a9.75,9.75,0,0,0-3.76,2.19l-.28.27a9.94,9.94,0,0,0-1,1.09l-.11.16a9.8,9.8,0,0,0-.85,1.27c-2,4-4.34,6.12-7.25,6.58a8,8,0,0,1-1.06.1,4.45,4.45,0,0,0-.6.06,8.24,8.24,0,0,0-1.78.53,2.51,2.51,0,0,0-1.61,2.69c.08.89.54,1.33,1.27,1.22a2,2,0,0,0,.45-.13,6.21,6.21,0,0,1,1.28-.4c.51-.08.83,0,1,.26.27.48-.11,1.52-.44,2.43-.14.39-.28.77-.37,1.09a11.82,11.82,0,0,1-1.29,2.73c-1.15,2-2.32,4-.48,6.49-.08.46-.87,1.19-1.24,1.54l-3.76,3.47c-.31.28-.63.56-.95.83-1.6,1.37-3.24,2.78-3.21,5.62a2,2,0,0,0,1,.07,5.41,5.41,0,0,0,2.38-1.46,5.82,5.82,0,0,1,2.16-1.41c2.78-.49,5.84-1.61,7.49-6.12a3.59,3.59,0,0,1,1.21-1.26,3.23,3.23,0,0,0,1.43-1.79l3.79-7.14c3.52-4,6.34-7.74,5.12-13a1,1,0,0,1,.05-.7c.19-.37.65-.55,1.22-.77a6,6,0,0,0,1-.29,5.83,5.83,0,0,1,1-.29,1.63,1.63,0,0,1,1.25.25c1.48-.35,3.33-.78,3.64-2.88a2,2,0,0,0,0-.49C782.71,791.2,782.72,791.13,782.71,791.06Z"/><path class="cls-2" d="M492,860.44a6.53,6.53,0,0,0-.19-1.6,3.89,3.89,0,0,0-2.13-2.46l-1-.9a21.42,21.42,0,0,1,.66-5.79,3.19,3.19,0,0,1,.78-1.13,2.21,2.21,0,0,0,.36-3.17c-.15-.38-.3-.78-.87-.77h-.35c-1.49,0-2.69,1-3.85,2a9.71,9.71,0,0,1-2.53,1.75c-.4.06-.81.14-1.38.26l-.26-.06a.56.56,0,0,0-.46.25l-3.27-.89a2.79,2.79,0,0,0-2-1.31c-.92,0-1.67.91-2.4,1.79a11.05,11.05,0,0,1-1.17,1.28c-2.57-.66-3.07-3.1-3.6-5.68-.09-.44-.18-.89-.32-1.36-.51-.23-1-.34-1.43-.51l-.05,0a12.63,12.63,0,0,0-2.65-.64l-.25,0c-.28,0-.6-.12-.87-.12a8.38,8.38,0,0,0-5.93,2.5,2.44,2.44,0,0,1-1.85.63c-.33,0-.67,0-1-.06s-.58-.05-.85-.05c-.59,0-1.21.1-1.28,1-.38,4.58-1.52,5.34-3.93,5.32-.6,0-1.28-.06-2-.13l-.42,0c-2.29,0-6.17,2.71-8.65,6.1-1.59,1.95-1.84,4.49-2.09,7a21.34,21.34,0,0,1-.76,4.46c0,1.42.25,3.9,2.13,4.55.7.24,1.39.5,2.09.77a19.48,19.48,0,0,0,6.56,1.65c.3,0,.57-.08.86-.11l.57-.07a9.36,9.36,0,0,0,1.15-.14c1.79-.48,3.57-1.09,5.34-1.7a51.11,51.11,0,0,1,8.85-2.48c.5-.63,1-1.25,1.5-1.85a11,11,0,0,1,2.39-.52,6.58,6.58,0,0,0,3.85-1.48,5.14,5.14,0,0,0,.47-.54,3.65,3.65,0,0,0,.28-.31c.18.17.36.34.55.5s.47.49.72.74c1,1,2,2.09,3.24,2.08a2.5,2.5,0,0,0,1-.21,21.8,21.8,0,0,1,6.07-1.3,33,33,0,0,0,3.7-.57C488.15,866.33,491.47,865.56,492,860.44Z"/><path class="cls-2" d="M662.78,819.64l-.53-.34c-1-1.78-2.24-2.57-3.72-2.42-1.18.12-2.49.81-4.25,2.22-2.07,1.66-3.64,2.46-5.11,2.61a4.69,4.69,0,0,1-3.93-1.6h0s-.09.1-.1.11a.73.73,0,0,0-.1.15,12.05,12.05,0,0,1-3.45,4.69c-1.76,1.28-2.73,3.94-2.61,7.12.05,1.43.41,2.1,1.1,2a2.61,2.61,0,0,0,1.22-.61,16.59,16.59,0,0,1,9.06-3.25c.85-.09,1.7-.15,2.56-.21l1.85-.15a1.7,1.7,0,0,0,1.09.29c.84-.09,1.54-1,2.11-1.8,1.12-2,2.48-3.12,4.19-3.38l1.43-1.21a4.43,4.43,0,0,0,.75-1.8s0-.07,0-.1a2.27,2.27,0,0,0,.07-.45C664.33,820.62,663.54,820.13,662.78,819.64Z"/><path class="cls-2" d="M222.86,694.47a1.11,1.11,0,0,0,.86.59c.73.06,1.62-.64,2.34-1.2l.33-.26a1.77,1.77,0,0,0,1.17-.5,1.69,1.69,0,0,1,1.11-.48,1.45,1.45,0,0,1,.6.21c.63,2.61,1.62,3.23,2.33,3.29s1.59-.5,2.33-1.59a22.23,22.23,0,0,0,3.88-12,3.24,3.24,0,0,0-.23-1l-1.39-1.17-.32-.3-.3-.22s0-.33,0-.35a3,3,0,0,0-2-2.28L230.29,675a14.89,14.89,0,0,0-4.49-1.13,10.5,10.5,0,0,0-4.11.48,19.36,19.36,0,0,0-1.08,6.38,20.33,20.33,0,0,1-1.07,6.48c-.65,1.61.85,3.71,2.18,5.56C222.13,693.38,222.54,693.94,222.86,694.47Z"/><path class="cls-2" d="M143.81,592.72a3.34,3.34,0,0,0-1.36-.58,1,1,0,0,0-.76.27,1.55,1.55,0,0,0-.45,1.22,2.19,2.19,0,0,0,.51,1.35c1.5,1.65.78,2.64-.07,3.81s-1,3-1,4.71c-.33,1,.21,1.76.77,2.55a7.56,7.56,0,0,1,.93,1.57c0,.05,0,.11.05.16a6.23,6.23,0,0,0-1-.18,3.84,3.84,0,0,0-.87.11c-.11,0-.23,0-.33,0a3.26,3.26,0,0,0-.72.25,3.1,3.1,0,0,0-.49.32,3.24,3.24,0,0,0-.71.74,4.12,4.12,0,0,0-.23.39,5,5,0,0,0-.47,1.32c0,.12,0,.24-.06.36a7,7,0,0,0-.15.81c-.07,1.58,1,1.86,2.07,2.14a3.24,3.24,0,0,1,1.94,1,1.1,1.1,0,0,0,.4.28,7.75,7.75,0,0,1,1,.74,3.82,3.82,0,0,0,1.83,1,1.53,1.53,0,0,0,1.28-.62l.36-.4c1.11-1.21,2.25-2.46,1.16-5.12-.5-1.22-.61-2.1-.32-2.61s.74-.61,1.51-.56a7,7,0,0,1,1.63.36,9,9,0,0,1,1.85,1,6.3,6.3,0,0,0,2.73,1.16,1.57,1.57,0,0,0,.65-.07c0-1.63-.07-3.33-1-4.49a3.26,3.26,0,0,0-.54-.45l-.17-.15a4.16,4.16,0,0,0-1.85-.76c-1.78-.61-2.12-2.19-2.53-4.07A11.16,11.16,0,0,0,143.81,592.72Z"/><path class="cls-2" d="M711.14,550.86h0c6.73-.31,10.91-5.13,11.49-13.22a10.34,10.34,0,0,0-1.84-6.76,2.43,2.43,0,0,0-1.85-1.06,1.6,1.6,0,0,0-.64.16,18.15,18.15,0,0,0-8.46,9.88,13.67,13.67,0,0,0,0,10A1.28,1.28,0,0,0,711.14,550.86Z"/><path class="cls-2" d="M686.31,644.09a1.18,1.18,0,0,0-1.21.85,6.24,6.24,0,0,0-.32,6.25l.15,1.44c.57,1.41,1.18,2.79,2.22,3.09l.09,0a1.37,1.37,0,0,0,.39.1,3.72,3.72,0,0,0,2.08-1.11,7.33,7.33,0,0,1,4-1.32c.61,0,1.23,0,1.84,0s1.23,0,1.84,0a8.64,8.64,0,0,0,2-.33,1.49,1.49,0,0,1,.33-.06,5,5,0,0,1,1.11.11,4.84,4.84,0,0,0,1.15.12c.85-.06,1.33-.66,1.52-1.88,0-.33,0-.58.05-.88s0-.35,0-.53a8.42,8.42,0,0,0,0-1.48,5.29,5.29,0,0,0-.22-1,4,4,0,0,0-.32-.71,3.49,3.49,0,0,0-.4-.54,3.45,3.45,0,0,0-.81-.69,3.51,3.51,0,0,0-.36-.18,4.06,4.06,0,0,0-.7-.35,8.67,8.67,0,0,1-4.46-2.69,2.6,2.6,0,0,0-1.64-1.53c-.16,0-.31-.05-.42-.07l-.41-1-1-.85-.33-1.07a3.61,3.61,0,0,0-2.65-1.6,3.2,3.2,0,0,0-2.11,1.28,2.94,2.94,0,0,0-.2.52,2.42,2.42,0,0,0-.1.28,3,3,0,0,0-.16.43l-.76.85a2.4,2.4,0,0,0,.08,2.71A2.91,2.91,0,0,1,687,644a2.71,2.71,0,0,1-.48.05Z"/><path class="cls-2" d="M758.26,611.71l.47-.06a1.66,1.66,0,0,0,.45-.2h0a3.11,3.11,0,0,1-.45,1.57,2.77,2.77,0,0,0-.4,1.93l1.36,1.37.83.9a5.48,5.48,0,0,0,2.2.29c2.23-.16,4.22-1.67,6.14-3.13l1-.82a1.46,1.46,0,0,0,1.06.56,9.82,9.82,0,0,0,2.74-.76l.8-.3a6.57,6.57,0,0,1,1.86-.57,4.21,4.21,0,0,0,3.28-1.93,2.27,2.27,0,0,0,.14-.62l.3-.21a3.74,3.74,0,0,0,2.06-2.77l-1.51-2-.92-1.58-3.32-2.56a3.25,3.25,0,0,1-1.16.31,5.8,5.8,0,0,1-2.4-.52,5.88,5.88,0,0,0-2.44-.53l-.32,0a11.07,11.07,0,0,0-2.32-.09,26.44,26.44,0,0,0-7.82,2.23c-1.38.55-2.81,1.12-4.21,1.53a3.14,3.14,0,0,0-2.18,1.92,4.72,4.72,0,0,0,4.71,5.95Z"/><path class="cls-2" d="M126.35,571.68l.38.28c2.67,1.95,5.43,4,6.73,7.55a.07.07,0,0,0,.06,0h0c2.66-.19,4.07-1.46,4.41-3.9,0-.08,0-.12.06-.2a7,7,0,0,1,1.22,1.17,2.92,2.92,0,0,0,1.92,1.28c.55.08,1,.13,1.48.16,3.49.21,4-1.35,3.84-7.23a8.17,8.17,0,0,0-2.78-2.89,6.13,6.13,0,0,0-4.27-1.76c-.5,0-1,0-1.51,0s-1,0-1.51,0l-.67-.06a4.93,4.93,0,0,1-.77,0,13.6,13.6,0,0,1-1.71-.25,14.42,14.42,0,0,0-1.72-.24,3.27,3.27,0,0,0-3.11,1.38c-.25.87-.92.9-1.64.93s-1.35.06-1.66.82a2.09,2.09,0,0,0-.12,1.56A2.79,2.79,0,0,0,126.35,571.68Z"/><path class="cls-2" d="M738.89,654.22a2.17,2.17,0,0,0,.41,1l0,0a2.62,2.62,0,0,0,.42.52A31.69,31.69,0,0,0,746,660a4.25,4.25,0,0,0,2.19.29c3.11-.27,7.52-2.66,7.94-4.83.58-3,1-6.14-.9-8.48a5.78,5.78,0,0,1-.63-.49,3,3,0,0,0-1.18-.66h0a1.17,1.17,0,0,0-.36-.09,2,2,0,0,0-1.08.5,10.85,10.85,0,0,1-5.57,2.53l-1.12,0a8.71,8.71,0,0,0-5,2.48,3.85,3.85,0,0,0-1.45,2.49,2.38,2.38,0,0,0,.07.34S738.88,654.18,738.89,654.22Z"/><path class="cls-2" d="M680.25,628.38c0,.08,0,.1.47.29l.25.11c1.94,1.28,3,2,3.64,1.95s.82-.77.93-2.25c0-.35.08-.75.12-1.19.78,3,3.07,3.4,5.29,3.81a17.33,17.33,0,0,1,2.19.5,1.22,1.22,0,0,0,.54-.22,2,2,0,0,0,.69.28,3.5,3.5,0,0,0,.9.08c1.08-.06,1.83-.75,2.28-2.08l1-1.69a7.28,7.28,0,0,0,1.29-.88,4,4,0,0,1,2-1.06,1.86,1.86,0,0,1,1.44.67,2.14,2.14,0,0,0,1.2.87,2,2,0,0,1,1.54,1.73c0,.17.13.24.18.37a1.25,1.25,0,0,0,.14.28,1,1,0,0,0,.43.35,1.26,1.26,0,0,0,.34.09c.11,0,.17.09.3.08a6.5,6.5,0,0,0,1.15-.22,6.8,6.8,0,0,1,1-.2,1.71,1.71,0,0,0,1.55-1.54,2.13,2.13,0,0,0-1.25-2.38l-.47-.34-2.22-1.7-6-13.05a5.52,5.52,0,0,0-.75-3.35,12.12,12.12,0,0,1-.51-1.17,2.5,2.5,0,0,0-.15-.47l0-1.44c1.64-2.08,1.86-4.5,2.07-6.84.09-1,.19-2.09.35-3a6.92,6.92,0,0,1,.75-.09h.2a10.36,10.36,0,0,1,3,.43,63.4,63.4,0,0,0,7.54,1.38l3,.44,1.77,1.31a4.15,4.15,0,0,0,2,.41,3,3,0,0,1,2.5.9,1.58,1.58,0,0,0,1.12.72.84.84,0,0,0,.63-.41,1.5,1.5,0,0,0-.08-1.67,3.28,3.28,0,0,1-.33-.92l-4.75-3.61c0-.32,0-.66,0-1a4.75,4.75,0,0,0-.55-2.83,2.26,2.26,0,0,0-.19-1.84,2.48,2.48,0,0,0-2.16-.91l-.43,0a5,5,0,0,1-2.94-1.06,7.67,7.67,0,0,0-1.7-.89c-1-.31-1.82-.71-1.6-2.09s1.19-1.7,2.14-2.14c9.29-4.23,9.58-5.16,10.48-16.16.21-2.55,0-4-.61-4.76a2,2,0,0,0-1.73-.67,7.27,7.27,0,0,0-2.25.55c-4.08,1.19-9.19,3.31-12.5,9.12a3.18,3.18,0,0,0-.56,2,.77.77,0,0,0,.2.38l0,.08a5,5,0,0,0-.79.34,8.71,8.71,0,0,0-1.05,1l-.21.18.12-.2c.14-.23.28-.47.43-.7s.25-.5.38-.75a5.69,5.69,0,0,0,.78-2.16c2.31-4.55,2.42-9.8.28-13.1s-1.23-4.79.73-7.36c.87-1.14,2.18-2.87,1-4.42a2.2,2.2,0,0,0-1.87-.89,4.58,4.58,0,0,0-2.5,1,24.6,24.6,0,0,0-7.85,9.43A9.18,9.18,0,0,0,693,557.6a11.29,11.29,0,0,1-1.19,3.19l-1.29,7.13c-3.65,4.9-3.73,6.85-.43,10.88,1.6,2,1.8,4.33.59,7.44a10.84,10.84,0,0,0-.42,5.07l.05.7a8.81,8.81,0,0,1,.22,1.26,4.56,4.56,0,0,0,.79,2.43l.76,1,.67,4.58.43,4.65c-1.49,1-2,2.56-2.42,4.11a13,13,0,0,1-.86,2.34,2.47,2.47,0,0,0-.2.45,2.86,2.86,0,0,1-.55.08,5,5,0,0,1-2.83-1.09,5,5,0,0,0-2.89-1.11,2.92,2.92,0,0,0-.77.14,6,6,0,0,0-3.42,4.84,17.07,17.07,0,0,0,.68,5.39C680.46,623.41,681,625.77,680.25,628.38Zm19.27-51.17a6,6,0,0,0,1.22-1.06,6.64,6.64,0,0,0-.43,1.73,2.67,2.67,0,0,0-.92.7,2.06,2.06,0,0,1-1.19.75h-.38A3.44,3.44,0,0,1,699.52,577.21Zm2.05-2.59c-.13.18-.25.37-.36.56a2.43,2.43,0,0,0,.05-.39A.62.62,0,0,0,701.57,574.62Z"/><path class="cls-2" d="M888.77,631.28a9.15,9.15,0,0,0-2.31.58,44.26,44.26,0,0,0-4.81,0,40.34,40.34,0,0,1-5.34,0l-.86-.11c-.39-.05-.79-.1-1.17-.18-1.22,1.48-1.73,2.59-1.57,3.38s1.07,1.32,2.75,1.53a13.68,13.68,0,0,0,2.79,0c1.83-.15,3.73-.31,5.16,1,2.56,1.68,5.71,2,8.75,2.39l1.31.15a9.39,9.39,0,0,0,2.35,0,7.35,7.35,0,0,0,4.64-2.49l4.16-1.15.66-.06a4.68,4.68,0,0,0,1.95-.67c.67-.63,1-1.08,1-1.41,0-.09-.09-.13-.13-.2h0a1.38,1.38,0,0,0-.71-.43c-.39-.13-.8-.26-.8-.61a1.87,1.87,0,0,0-1.89-.67c-.3,0-.61.11-.92.18a11.35,11.35,0,0,1-1.14.2l-1.13-.74-1.19-.75a9.46,9.46,0,0,1-2.15.52,18.39,18.39,0,0,1-4.66-.2A18.75,18.75,0,0,0,888.77,631.28Z"/><path class="cls-2" d="M645,657.15l-4.18-.89a6,6,0,0,1-3.14-1.09,6.1,6.1,0,0,0-3.2-1.1,2.77,2.77,0,0,0-1.51.54l-.11,0a5.07,5.07,0,0,0-.07-.91,42.63,42.63,0,0,0-13-1.85,26.58,26.58,0,0,0-2.73.26,4,4,0,0,0-3.51,2.6,15.08,15.08,0,0,1-1,4c-.65,1.84-1.32,3.75-.9,5.83a2.75,2.75,0,0,0,2.37,3c.1.32.24.47.41.47s.11-.09.17-.13h0c.08-.05.16-.06.23-.18h.34c2.12-.09,4.06-1.19,5.94-2.26a16.16,16.16,0,0,1,5.19-2.19l1.83,1.71a1.08,1.08,0,0,0,.82.47,1.16,1.16,0,0,0,.84-.63,5,5,0,0,1,3.51-1.74,3.89,3.89,0,0,1,1.08.09,23.26,23.26,0,0,0,6.53.63,18.36,18.36,0,0,0,6.55-1.55c.14-.06.28-.08.42-.14-1.34,4.1-.15,7.41,1.2,10.11l.27.52a4.42,4.42,0,0,1,.75,2.82l1.44,2.18a2.41,2.41,0,0,0,1.28.45c.47,0,.86-.36,1.19-1a4.81,4.81,0,0,0,.43-5.38c-1.52-3.35-1.92-5.14-1.46-6.59s2.15-2.76,4.65-4.13a6.7,6.7,0,0,0,1-.73,9.37,9.37,0,0,1,.82-.61,2.27,2.27,0,0,0,1.3-1.81,1.55,1.55,0,0,0-1.2-1.37l-.71-.23a22.29,22.29,0,0,0-7.83-1.53A10.21,10.21,0,0,0,645,657.15Z"/><path class="cls-2" d="M221.82,499.44c.45.29.84.53.58,1.29-1,1.12-1.3,2.06-1.08,2.87.32,1.17,1.85,1.8,3,2.17a3.43,3.43,0,0,0,1,.18h0a7,7,0,0,0,3.42-1.14,5.76,5.76,0,0,0,2.49-3.83,6.49,6.49,0,0,0-.32-5.93l-3.77-4.92c-.75-1.94-1.53-2.89-2.37-2.9s-1.83,1.14-2.69,2.26l-.33.43c-2.17,1.64-3.12,2.93-3.15,4.31s.79,2.81,2.77,4.86A2.51,2.51,0,0,0,221.82,499.44Z"/><path class="cls-2" d="M672.13,495.79l0,.17a3,3,0,0,0,.16.56,7.54,7.54,0,0,1,.54,2c.24,1.32.54,2.62,1.55,3.06h0a1.7,1.7,0,0,0,.75.2,4.31,4.31,0,0,0,1.61-.41c.26-.42.58-.82.88-1.22,1-1.35,2.09-2.74,1.77-4.82a7.7,7.7,0,0,1,1.37-4.17c.29-.51.58-1,.81-1.56a8.81,8.81,0,0,0,.37-6.9,6.49,6.49,0,0,0-4.88-3.95,2.8,2.8,0,0,0-1.48,1.44,2,2,0,0,0,.2,1.51q0,2.91,0,5.82a1.23,1.23,0,0,0,.4,1.12,3.58,3.58,0,0,1-.23,2.55,2.3,2.3,0,0,1-1.53,1.12,3.17,3.17,0,0,0-2.34,1.77,2.49,2.49,0,0,0-.07.45,2,2,0,0,0,0,.25A2.83,2.83,0,0,0,672.13,495.79Z"/><path class="cls-2" d="M596.34,647.41c.1-1.37-.68-2.72-2.39-4.16-.78-.35-1.56-.75-2.33-1.14-2.39-1.22-4.85-2.49-7.51-2.41a8.37,8.37,0,0,0-4.06,1.23,2.73,2.73,0,0,0-.44,1,2.59,2.59,0,0,0-1.83,1.76,12.51,12.51,0,0,1-1,2.49c-.87,1.76-1.76,3.58-.7,5.85s2.25,3.46,3.64,3.41a3.9,3.9,0,0,0,2-.78,2.21,2.21,0,0,1,1.1-.48c.41,0,.74.24,1.18.91.72,1.08,1.36,1.6,2,1.58.79,0,1.47-1,2.13-3l.73-.94a6,6,0,0,0,.83,0,6.36,6.36,0,0,0,3.47-1.22C595.2,650.21,596.24,648.82,596.34,647.41Z"/><path class="cls-2" d="M652,693.37c-1,.06-1.93,1.27-2.21,2.74-1.5,3.36-1.31,5.64.59,7.35,3.43,6.43,9.35,9.19,14.62,11.25a2.87,2.87,0,0,0,1.27.18c1.74-.13,3.62-1.69,5.45-3.19a28.53,28.53,0,0,1,3-2.27c2.41-.2,4.53-.6,6-3.36.48-2.3,1-4.67.13-6.88a20.57,20.57,0,0,1-3.78-3.68c-1.6-1.84-3.26-3.75-5.54-4.62a.54.54,0,0,0-.4-.19c-.11,0-.22.07-.31.07h0a3.18,3.18,0,0,0-2.9-1.76,3.77,3.77,0,0,0-1.23.32c-1.65.45-3.31,1.07-4.91,1.66a31.82,31.82,0,0,1-8.85,2.36Z"/><path class="cls-2" d="M814,739.81l.06-.18a5.49,5.49,0,0,0,.19-1.37c0-.11,0-.21,0-.32a6.26,6.26,0,0,0-.23-1.41l0-.16a7.14,7.14,0,0,0-.23-.8,3.15,3.15,0,0,0-2.29-.77c-1,.15-1.82,1-2.53,2.67a4.36,4.36,0,0,0-.27,1.43c-.08,1-.17,1.94-1.51,2.44a.22.22,0,0,0,0,0h0l0,0-.15,0-.11-.09.06.08-.1,0,.19.23,0,0h0l0,0a.83.83,0,0,1-.23.67,18.54,18.54,0,0,0-.65,1.91,10.81,10.81,0,0,1-1.33,3.14,20.8,20.8,0,0,1-1.95,1.47l0,0-.16-.63a5.07,5.07,0,0,0-1.13-2.44l-.09-.08a1.82,1.82,0,0,0-1-.38l-.28,0a2.17,2.17,0,0,0-.45,0l-.12.1-.2,0,0,.18-.06.05-.08.39a3.89,3.89,0,0,0-1.55,2.51c-.08.25-.15.49-.24.78l1.27,2.69q0,.38,0,.75c0,1.22,0,2.44.7,3.21l.13.12a1.72,1.72,0,0,0,.31.28,1.42,1.42,0,0,0,.13.86l.8.07.83-.4,1.24-.22a1.78,1.78,0,0,0,.38.36,1.43,1.43,0,0,0,1.22-.29c.06,0,.12,0,.18-.09a2.93,2.93,0,0,0,.49-.46l.17-.22a3.83,3.83,0,0,0,.43-.57,8.54,8.54,0,0,0,1.06-3.85c.58-.91,1.15-1.83,1.72-2.75,1.28-2.08,2.62-4.23,4.09-6.17a10.22,10.22,0,0,0,.59-.95v0A7.28,7.28,0,0,0,814,739.81Z"/><path class="cls-2" d="M652.38,513.32a3.13,3.13,0,0,0,.44.44l.2.2a2.55,2.55,0,0,0,.8.51,2.18,2.18,0,0,0,.37.1,2.21,2.21,0,0,0,.43.12,3.82,3.82,0,0,0,2.23-1c1.49-1.18,1.75-2.88.79-5.21-.31-.45-.65-.89-1-1.33a10.18,10.18,0,0,1-1.85-3c-.62-1.94-1.48-2.87-2.62-2.85a3.93,3.93,0,0,0-3,6.38Z"/><path class="cls-2" d="M558,617.13a5.87,5.87,0,0,0-2.82,1.11l-.58.16a15.82,15.82,0,0,0-5.4,6.18A3.71,3.71,0,0,0,549,626l.29.59.82.93,0,0,2.28-.87c1.69-.64,3.39-1.29,5-2.06,2.05-1,3.37-1.77,3.59-2.87s-.68-2.51-2.37-4.52A2.78,2.78,0,0,0,558,617.13Z"/><path class="cls-2" d="M401.75,813l.22-.07A5.62,5.62,0,0,1,405,812c1.58-.15,3.06-.29,4-2.22.23-.48-.34-1.72-.68-2.31a4.43,4.43,0,0,0-4.19-2.33h-.66l-.51.06c-1.29.13-3.06.31-3.28,3a7.59,7.59,0,0,0,1.26,4.16C401.25,812.77,401.52,813,401.75,813Z"/><path class="cls-2" d="M693.7,832.27a4.21,4.21,0,0,1-.13-.51c-.1-.45-.21-.92-.46-1a11.33,11.33,0,0,1-2.51-.91,7.42,7.42,0,0,0-4-1,4.56,4.56,0,0,0-.86.19,2.44,2.44,0,0,0-1.62,1.27,2.62,2.62,0,0,0,.13,2c.84,2.06,2.51,2.62,4.13,3.15a13.78,13.78,0,0,1,1.75.67l.21,0c.66-.09,2.1-1.31,2.93-2.93a532,532,0,0,1,.47-1Z"/><path class="cls-2" d="M860.3,624.19a1.19,1.19,0,0,0,1.28.56l.54-.09c.18,0,.36-.07.53-.09a1.63,1.63,0,0,1,.66,0h.07a2.54,2.54,0,0,0,1.62-1.19,7,7,0,0,1,.51-.6,4.21,4.21,0,0,0,1.12-2.86c-.1-.94-.81-1.68-2.22-2.33a3.93,3.93,0,0,0-2-.41c-1.44.14-2.56,1.29-3.35,3.42C858.48,622.35,858.9,623.52,860.3,624.19Z"/><path class="cls-2" d="M874.09,612.63l.29.27.24.38a1.6,1.6,0,0,0,.93.86h0a1.3,1.3,0,0,0,.44,0l.15,0c0,1,.69,1.08,1.43,1.14.16.91.87,1.1,1.55,1.29s1.3.35,1.47,1.13a1.77,1.77,0,0,0,.8,1.26c1,2.29,3,2.75,5,3.24a18.73,18.73,0,0,1,2.1.58,7.1,7.1,0,0,0,3.26.45c2-.24,3.89-1.54,5.84-4.13.12-1.71-.9-2.51-2.05-3.42a1.52,1.52,0,0,0-.77-.16c-.38,0-.67.32-.87.83a1.9,1.9,0,0,1-1,.62c-.52.06-.67-.64-.71-1.24a8,8,0,0,0-1.39-3.68q-.27-.44-.52-.9a1.18,1.18,0,0,0-.81-.56l-.28.06-.41-.64-.79-1.15-1.59.07-2.44.26a6.93,6.93,0,0,0-3.64-.68,7,7,0,0,1-3.24-.52,3.49,3.49,0,0,0-2-.51c-1,.1-1.83.92-2.66,2.76A3.7,3.7,0,0,0,874.09,612.63Z"/><path class="cls-2" d="M344,769.32c-1.35-1.74-2.68-2.62-4.07-2.7a4,4,0,0,0-2.55.81,7,7,0,0,0,.93,2.11,4.86,4.86,0,0,1,.78,4.37,1.62,1.62,0,0,0,0,1.26c.45.86,1.85,1,2.86,1.17l.23,0a1.86,1.86,0,0,0,1.42-.47l.07-.06c.07-.08.18-.11.24-.21a2.3,2.3,0,0,0,.07-1.8,5.68,5.68,0,0,1,0-2.44A5.92,5.92,0,0,0,344,769.32Z"/><path class="cls-2" d="M708.47,798.37a5.76,5.76,0,0,1-.82-.61,1.92,1.92,0,0,0-3.25.11c-1,1.16-2.15,2.75-1.71,4.79.38,1.74,1.3,2.69,2.62,2.69l.28,0c1.23-.16,1.62-1.3,2-2.4a5.31,5.31,0,0,1,.84-1.76,2.7,2.7,0,0,0,.72-1.64A1.48,1.48,0,0,0,708.47,798.37Z"/><path class="cls-2" d="M167.19,525.53l.36,0a3.14,3.14,0,0,0,.55-.2l.19-.07a3.42,3.42,0,0,0,1-.63l.1-.09a3.9,3.9,0,0,0,.74-.94l.13-.27a3.81,3.81,0,0,0,.32-1.06c0-.12,0-.25,0-.37a3.45,3.45,0,0,0,.05-.57,3.58,3.58,0,0,0-.22-.73h0c-.46-1.38-1.73-2.54-4-3.51-1.86,1-1.89,3.17-1.74,4.71C164.85,522.88,165.29,525.47,167.19,525.53Z"/><path class="cls-2" d="M736.23,608.35c.66.59,1.32,1.18,1.93,1.82a1,1,0,0,0,.77.36,1.13,1.13,0,0,0,.77-.45c.7-.81.32-1.43-.11-2.13a33.82,33.82,0,0,0-6.25-7.31l-1.47.12h-.23C731.92,604.51,734.11,606.46,736.23,608.35Z"/><path class="cls-2" d="M711.81,827.4a7.31,7.31,0,0,0-1.06.06,4.46,4.46,0,0,0-3.53,2.63,2,2,0,0,0-.3,1.27c0,.13.13.19.21.28l0,0a2,2,0,0,0,.84.52l.23.08a3.83,3.83,0,0,0,3.17,1.17h0a4.16,4.16,0,0,0,3.07-3.7C714.55,828,713.14,827.41,711.81,827.4Z"/><path class="cls-2" d="M248.32,653.8a1.76,1.76,0,0,0,.49,0c1.4-.31,4-.9,3.87-3.37-.11-2.05-1.52-2.14-2.65-2.21a4.16,4.16,0,0,1-1.08-.16,7.33,7.33,0,0,0-.9-.12,1.77,1.77,0,0,0-1.69.55,2.68,2.68,0,0,0-.2,2C246.53,652.57,247.28,653.73,248.32,653.8Z"/><path class="cls-2" d="M526.6,820.42a.59.59,0,0,0,.14.13c.08.06.1.17.21.21a9,9,0,0,1,1.89,1,5.58,5.58,0,0,0,3,1.2,3,3,0,0,0,1.78-.71c0-.36,0-.61,0-.93,0-.11,0-.22,0-.33a5.9,5.9,0,0,0-.2-1.29,3.37,3.37,0,0,0-.29-.73,3,3,0,0,0-.11-.29c-.75-1-2-1-3.29-1.06a7.77,7.77,0,0,1-2.35-.27l-.27.57a4,4,0,0,0-.65,2.33C526.46,820.34,526.56,820.36,526.6,820.42Z"/><path class="cls-2" d="M590.69,761.54a6.71,6.71,0,0,0,2.83.84,1.42,1.42,0,0,0,1.18-.89s.05-.07.07-.12a12.35,12.35,0,0,0,.71-4,3.43,3.43,0,0,0-2.59-1.1,4.07,4.07,0,0,0-2.6,1.33c-1,1-.46,2.13,0,3.11C590.42,761,590.56,761.23,590.69,761.54Z"/><path class="cls-2" d="M483.64,684.91a10.15,10.15,0,0,1-1.26,1.47c-1.12,1.15-2.27,2.33-1.9,4.65a2.13,2.13,0,0,0,.88,1.87,2.7,2.7,0,0,1,.83,1.17,2,2,0,0,0,.35,0l.31,0a6.91,6.91,0,0,1-.39,4.54,7,7,0,0,0-.4,4.58c0,.4,0,.81,0,1.22a7.25,7.25,0,0,0,.72,4.25c0,.69,0,1.4.62,1.76.83,2,1.75,3.35,3.47,3.34a5.85,5.85,0,0,0,2.29-.59c.43-.19.86-.4,1.3-.61a12.33,12.33,0,0,1,5.1-1.63,7.68,7.68,0,0,1,1.27.1,8.15,8.15,0,0,0,.34.75c.26.52.52,1.06.42,1.41-1.42,4.69.34,8.08,2.44,11a5.24,5.24,0,0,1,.67,2.82,12.17,12.17,0,0,0,.13,1.42c.86,5-.45,9.72-1.7,14.26a43.88,43.88,0,0,0-1.91,10.3s0,.07,0,.1c0,.55-.06,1.09,0,1.64s-.58,1.15-.91,1.51c-2.54,2.81-2.49,6.43-2.17,9.26s1.23,4.51,3.14,5.27a10.59,10.59,0,0,0,1,.73,5,5,0,0,1,2.26,2.36,3.07,3.07,0,0,0,2.83,2.11,4.76,4.76,0,0,0,3.78-2.89,19.71,19.71,0,0,0,3.93-.8,18.31,18.31,0,0,1,4.29-.82,6.53,6.53,0,0,1,4.73,1.77,1,1,0,0,0,.72.28,1.62,1.62,0,0,0,1.36-1.31c.3-1.06-.33-1.57-.9-2l-.29-.19a2.1,2.1,0,0,0-.53-2,3.91,3.91,0,0,1-.47-.74,31.41,31.41,0,0,0-.77-6.66c-.61-3.23-1.25-6.56-.26-10h0a12.76,12.76,0,0,1,.52-1.47c1.49-3.54,3-7.2,1-11.14q0-.43,0-.85a11.08,11.08,0,0,0-.64-4.37c.18-1.61.23-3.26.28-4.86.11-3.36.21-6.85,1.53-10.08a2.39,2.39,0,0,0,.12-1.83c0-.08,0-.16,0-.24h0s0,0,0-.06l-.2.09q0-4.9.08-9.81a1.67,1.67,0,0,0,.59-1.13,4.32,4.32,0,0,1-.06-.79c0-.69,0-1.47-.81-1.46h0a4.11,4.11,0,0,0-.8-2.65,5.77,5.77,0,0,1-1.09-3.94,5.51,5.51,0,0,1,2.29-3.46,8.67,8.67,0,0,0,1.86-2,3.53,3.53,0,0,1,.46-.7l.07-.1a5.58,5.58,0,0,1,2-1.31,6.45,6.45,0,0,0,1.61-.94c.35,0,.71,0,1.07,0l1.94-.07a6.2,6.2,0,0,1,4.24,1.15l.14,6.48c.39,1.93-.46,3.34-1.53,4.86a9,9,0,0,0-1.88,4.89,12.32,12.32,0,0,0-1.18,5.41c0,.12,0,.24,0,.36a5.33,5.33,0,0,0,.37,1.53c.06.14.13.26.19.4a4.69,4.69,0,0,0,.34.69,62.3,62.3,0,0,0,12.93,13.07,1.18,1.18,0,0,0,1.14.73,1.82,1.82,0,0,1,.68.18,1.56,1.56,0,0,1,1.06,1.1,2.44,2.44,0,0,1-.59,1.8,6,6,0,0,0-.82,4.18,10.78,10.78,0,0,0-1.31,9.38,5,5,0,0,0,.29.9c2.14,5,6.12,5.71,9.71,5.71a3.4,3.4,0,0,0,2,.66c1.47-.06,2.75-1.27,3.82-2.47a3.54,3.54,0,0,0-.41-3.49.7.7,0,0,1-.53-.42,8.76,8.76,0,0,1-.06-2.7,6,6,0,0,0,.71-1.08c.06-.17.13-.3.17-.4a3.93,3.93,0,0,1,1-.29,2.84,2.84,0,0,0,1.35-.55l0-.05h0l.29.09a3.76,3.76,0,0,0,1.13-.21,11.66,11.66,0,0,0,2.15-1.08c.12-.07.24-.12.36-.2l.07-.07.1-.06a1.48,1.48,0,0,0,.8.21,1.68,1.68,0,0,0,1.07-.48,4.27,4.27,0,0,0,1.63,1.58,8.45,8.45,0,0,0,1.21.66c.2.1.41.17.61.26s.3.15.45.24a3.71,3.71,0,0,0-.64,0c-1.9.08-3.5,1.65-5.05,3.17-.42.42-.85.84-1.27,1.22a5.31,5.31,0,0,0-.76.43,1.62,1.62,0,0,0-.49.66l-.75,1-.76,1a13.5,13.5,0,0,1,.37,8.29,7.54,7.54,0,0,1-1.4,1.9c-.86,5.17-.22,6.46,3.62,7.24.23,0,.46.07.69.09.82.08,1.61.15,2,1.31l.19.72a10,10,0,0,1,.35,1.57,9,9,0,0,0,.21.93c0,.15.07.31.1.45a5.8,5.8,0,0,0,.47,1.22,4.13,4.13,0,0,0,.38.61,3.47,3.47,0,0,0,.6.61,3.22,3.22,0,0,0,.63.39,4.1,4.1,0,0,0,1.22.32l.36,0a5.12,5.12,0,0,0,.59.07l.37,0c2.81-.26,4.19-2,4.59-5.86a14.08,14.08,0,0,1,.48-2.25,5.36,5.36,0,0,0,.2-1l.42.06.29-.26a1.88,1.88,0,0,0,1,.22c.92,0,1.69-.88,2.35-1.6,1.45-.58,3.66-1.46,3.27-4.21a4.3,4.3,0,0,0-1.75-3.17l0,0a2.78,2.78,0,0,0-1.65-.48,2.34,2.34,0,0,0-.46.06c-1.75-1.14-2-2.72-.81-5.27.12-.27.24-.54.34-.8.39-1,.7-1.72,1.48-1.76a2.76,2.76,0,0,1,1.39.43,1.22,1.22,0,0,0,.66.17,1.13,1.13,0,0,0,.43-.19h0a1.78,1.78,0,0,0,.82-.92,3,3,0,0,0,.09-.46c0-.07,0-.15,0-.22a2.85,2.85,0,0,0,0-1,2,2,0,0,0-.07-.28,2,2,0,0,0-.1-.43,13.54,13.54,0,0,1-1.29-4.65c-.54-3.35-1.1-6.81-5.42-6.79a.56.56,0,0,1-.28-.09.67.67,0,0,1-.14-.08,2.26,2.26,0,0,1-.33-1.38,2.94,2.94,0,0,0-.23-1.25c.36-.44.62-.64.85-.65s.45.21.66.69a4.43,4.43,0,0,0,3,1.48c1,0,1.88-.69,2.75-2a11.71,11.71,0,0,0,1.06-5.34c-.11-1.56-.43-3.42-1.37-3.38a.89.89,0,0,0-.35.1,6.7,6.7,0,0,1-2.44.51,4.65,4.65,0,0,0-3.49,1.38s-.08.12-.12.18a4.08,4.08,0,0,0-.54.77l-2.4-.52a.82.82,0,0,0-.64-.27,2.75,2.75,0,0,0-1.24.59,2,2,0,0,1-.82.43c-.12,0-.28,0-.36-.45a9.55,9.55,0,0,0-.38-1.18l0-.12a17,17,0,0,0-3.94-5.75c-2.52-2.71-5.14-5.52-4.37-10.79a12,12,0,0,1,1.76-1.43,7.81,7.81,0,0,0,2.53-2.57l0-.09a5,5,0,0,0,.37-1s0-.11,0-.16a5.68,5.68,0,0,0,.21-1.17c.17-1.43-.61-1.82-1.52-2.14l-2.32-2.06a6.53,6.53,0,0,0,0-1.13c0-.05,0-.1,0-.15a9.79,9.79,0,0,0-2.17-5c-.35-.49-.7-1-1-1.5a7.74,7.74,0,0,1-.91-.9l-.13-.14a19.55,19.55,0,0,1-2.23-3.67,25.18,25.18,0,0,0-1.72-3l-4.64-8a6.34,6.34,0,0,0-.81-.73,5.22,5.22,0,0,1-1.46-1.6,4.56,4.56,0,0,1-.38-1c2.32-.72,3.47-2.89,4.58-5a15.69,15.69,0,0,1,2.43-3.69l.77-.28c.21,0,.42,0,.62,0a6.19,6.19,0,0,0,4.49-2,11.21,11.21,0,0,1,.9-1.14l.14-.16a22.66,22.66,0,0,1,3.41-2.88,29.24,29.24,0,0,0,3-2.47c1.46,0,2-1.34,2.51-2.69,0-.31,0-.61,0-.86a12,12,0,0,0,3.58-6.19,5.66,5.66,0,0,0,1.73-2.59,2.15,2.15,0,0,0,.54-.09,24.49,24.49,0,0,1,2.35-1.18c.46-.21.92-.42,1.36-.65l.81-.14.73.27a5.41,5.41,0,0,1,2.91,1.87,3.05,3.05,0,0,0,2.59,1.39,3.45,3.45,0,0,0,.55-.15l.36-.1a4.3,4.3,0,0,0,1-.51,6.14,6.14,0,0,0,.59-.44c.14-.12.28-.17.41-.31a8.06,8.06,0,0,1,.65-3,6.31,6.31,0,0,0,.51-4c.62-3.64-.3-5.49-3.39-6.83a9,9,0,0,0-3.92-.76,20.27,20.27,0,0,0-6.48,1.67,30.33,30.33,0,0,1-4.66,1.48l-2.08,2.84a.62.62,0,0,0-.47.23l-2.35,0c-1.29,0-2.59,0-3.89.06l-2.07.07h-.82a1.69,1.69,0,0,0-1.37.52,2.4,2.4,0,0,0-.39,1.6l-.06.49,0,.45c-2.13,1.95-4,2.91-5.8,3-2.06,0-4-1.17-5.82-3.75l-.84-.11a2.17,2.17,0,0,0-1-.3c-.68,0-1.14.58-1.34,1.63l-1.23,1.06-.94.12c-2.34,1.23-3.61,3.41-3.76,6.47a3.3,3.3,0,0,0,.16,1,15,15,0,0,1-1.3,1.43,6.66,6.66,0,0,0-2.36,4,6.36,6.36,0,0,0-.61,1,3.75,3.75,0,0,0-.24,1,7.79,7.79,0,0,1-1.79.25,8.26,8.26,0,0,1-2-.22,2.2,2.2,0,0,0-.62-.92,1.4,1.4,0,0,0-.61-.11h-.1l-.56-.21c-2-.73-3.89-1.41-4.38-4.38a8,8,0,0,0-.7-1.39,4.94,4.94,0,0,1-.91-2.66,2,2,0,0,1-.26-1,2.05,2.05,0,0,0-.32-1.12.73.73,0,0,0-.47-.18.7.7,0,0,0-.24.05l.13-.2a3.15,3.15,0,0,0-.35-2.22,6.07,6.07,0,0,0-2.77-1.67c-1.52-.57-3.1-1.17-3.67-3.62-2.11-9-3.34-19.39,3.81-28.52a5.65,5.65,0,0,1,5-2.62,20.72,20.72,0,0,1,2.38.16c.66.07,1.33.14,2.17.16a1.66,1.66,0,0,0,.75-.21c.08,0,.16,0,.24,0l.12-.15A2.48,2.48,0,0,0,534,600.7c.25,0,.49,0,.76,0a3.18,3.18,0,0,0,.63-.47,2,2,0,0,0,1.5.81,3.57,3.57,0,0,0,2.08-1.25,5.86,5.86,0,0,1,1.56-1.17,2.19,2.19,0,0,1,.28-.65c.48.16,1,.37,1.45.57a8.78,8.78,0,0,0,3.39.93,3.52,3.52,0,0,0,.7-.15h.07a3.72,3.72,0,0,0,1.82-1l.92.22a10.2,10.2,0,0,0,1.77.13,9.32,9.32,0,0,0,1.27-.11,3.81,3.81,0,0,0,1-.32,5.19,5.19,0,0,0,2.8.92,3.12,3.12,0,0,0,1.57-.44c.08.09.21.11.31.18a1.8,1.8,0,0,0,.38.23c.13.06.21.18.37.22a5.29,5.29,0,0,0,1.59.19,13.93,13.93,0,0,0,2.5-.35l.82-.16a4,4,0,0,0,1.08-1.06l7.81-.9,5.83-.25a4.29,4.29,0,0,0,.43.57,7.42,7.42,0,0,0,1.77.14l2-.1a6.23,6.23,0,0,1,2.49.36,5.64,5.64,0,0,1,1.87,1.91c.78,1.08,1.59,2.2,3,2.16a3,3,0,0,0,1-.22l.83,0c1.3,0,2.59,0,3.89.09s2.89.12,4.34.08a18.08,18.08,0,0,0,7.79-1.73,7.64,7.64,0,0,1,1.44-.15l.94,0a5.06,5.06,0,0,0,2.77-.71,6.55,6.55,0,0,0,.75,0,3.62,3.62,0,0,0,.84-.19l.25-.06a3.07,3.07,0,0,0,.72-.35c.07,0,.14-.12.2-.17a3.27,3.27,0,0,0,.61-.52c3.5-1.47,5.28-5,6.87-8.14l.37-.74c.89-1.81,1.83-3.68,3.41-4.68,4.72-3,6.57-8.28,8.36-13.37l.48-1.44a4.33,4.33,0,0,0,3-2c.6-1.27.08-2.84-.42-4.36-.19-.58-.38-1.16-.54-1.75-.39-.3-.76-.62-1.14-1-1.2-1-2.45-2.13-4.06-2.09a4,4,0,0,0-1.55.37l-1,1.58a28.75,28.75,0,0,0-1.81,2.5c-1.57,2.34-3.19,4.77-6.18,5.09-.47,0-1,.84-1.29,1.39a16.87,16.87,0,0,1-4.18,5.15c-.63.59-1.25,1.17-1.85,1.8-3.35,3.57-6.49,5.75-9.66,6.7l-.26.08a12.93,12.93,0,0,1-3.11.47h0a13.82,13.82,0,0,1-2.25-.14l-.18,0a22.51,22.51,0,0,1-7.69-2.91,3.32,3.32,0,0,0-2.54-1.09,5.35,5.35,0,0,0-2,.51,2.3,2.3,0,0,0-.92,1.24l-4.75,2.65-8.38-1.86a3.49,3.49,0,0,0-3-1.23,14.05,14.05,0,0,0-1.5.14l-.36.06a2.51,2.51,0,0,0-1.42-.59,2,2,0,0,1-1.7-1l0-.21.09-.17L565,579l0-.16-.17.29h-.61l-.56,0a3.19,3.19,0,0,0-.15-.51,14.62,14.62,0,0,0-4.87-2.47c-.79.08-1.58.22-2.37.37a21,21,0,0,1-3.38.43,6,6,0,0,1-4.55-1.71,8.13,8.13,0,0,1-1.1-1.37h-.05l-.06-.07-.26-.08a1.69,1.69,0,0,0-.08-.52l-1.69.05-1.67.07a.57.57,0,0,0-.44-.25.37.37,0,0,0-.3.14c-2.1-1.73-4.45-1.85-6.68-1.82l-1.83,0c-.59,0-1.18,0-1.78,0-1.15.32-1.32,1.33-1.48,2.31a6.93,6.93,0,0,1-.21,1s-.37,3.68-.37,3.68l-.61,1.17-1.84,1.83a1.46,1.46,0,0,0-.28,0c-.91,0-1.26.88-1.6,1.72-.69,1.71-1.57,3.46-3,3.47a1.9,1.9,0,0,1-.51-.07c-1.35-.37-1.29-1.85-1.22-3.28a9.71,9.71,0,0,0,0-1.46,3.14,3.14,0,0,0-2.22-1,3.38,3.38,0,0,0-2.05.84.31.31,0,0,1-.34.26h-.14c-1.26.58-1.24,1.82-1.21,3.29l.38.85-.63.5a9.63,9.63,0,0,0-2.82,2.94c-.54.12-.75.6-1,1.05l-.24.51a4.18,4.18,0,0,1-1.35,3.51,5.63,5.63,0,0,0-1.32,2.23c-.3.54-.62,1.08-.95,1.62-1.57,2.62-3.14,5.31-1.84,8.21a6.42,6.42,0,0,0,.47.89c.09.14.2.28.31.43a10.29,10.29,0,0,0,1,1.2,1.29,1.29,0,0,1-.87.33,4,4,0,0,1-1.19-.25,4.3,4.3,0,0,0-1.28-.27c-.79,0-1.38.52-1.85,1.61a4.6,4.6,0,0,0,.41,4.46,9.94,9.94,0,0,1,.59,1.31c.81,5.82,1.16,11.42-3.17,15.88a2.91,2.91,0,0,0-.59,1.58,3.5,3.5,0,0,1-.57,1.61l0,2.08-1.8,3.95c-4.25,5.12-5.34,13-2.76,19.49q0,1,.06,2,.06,1.27.11,2.54c-4,2.9-4.13,7.88-4.21,12.23a1.55,1.55,0,0,0-.29,1.22c-.93,3.17-3.37,4.72-5.7,6.07A4.12,4.12,0,0,0,483.64,684.91ZM577,638.22a.46.46,0,0,1-.21.08.77.77,0,0,1-.52-.27,2.19,2.19,0,0,0,.58.13Zm14.3-7.17c.1-.2.21-.39.31-.6l.12.09a3,3,0,0,1-.25.34A1.61,1.61,0,0,1,591.29,631Z"/><path class="cls-2" d="M741.9,637.21c.55,0,1.1,0,1.66,0a6,6,0,0,0,3.21-1.13l.38-.21.16-.06,0,0,.06,0-.47-.5c-.39-2.21-1.6-2.43-2.85-2.34-.32,0-.65.07-1,.11s-.63.09-1.07.12h0c-1.14.08-1.74.79-1.89,2.22C739.9,637,740.88,637.19,741.9,637.21Z"/><path class="cls-2" d="M525.5,816.87a3,3,0,0,0,1.16-.3l1.6-2.3a4.23,4.23,0,0,0-.37-2.9,1.88,1.88,0,0,0-1.8-.71h0a3,3,0,0,0-1.83.83l-.08.07c-.09.1-.23.16-.31.27a3.08,3.08,0,0,0-.48,2C523.48,815.82,524.24,816.91,525.5,816.87Z"/><path class="cls-2" d="M641.25,533.94c0,.1.16.14.24.22l0,0a1.66,1.66,0,0,0,1.17.37l.28,0c2.13-.22,2.54-2.14,2.67-4,.11-1.59-.66-2.39-2.35-2.43a2.1,2.1,0,0,0-1.54.77,2.85,2.85,0,0,0-.18,1.93,3.09,3.09,0,0,1-.12,1.8A1.45,1.45,0,0,0,641.25,533.94Z"/><path class="cls-2" d="M733.4,817.06c-.26-.8-.53-1.63-1.39-1.81a3.64,3.64,0,0,0-3-1.43,5.86,5.86,0,0,0-.91.05,2.63,2.63,0,0,0-1.86,1,6,6,0,0,0-.63,3.56c0,.51,0,1,0,1.51.39,3.09,1.13,4.38,2.42,4.19a6.33,6.33,0,0,0,3-2l.3-.09a1.29,1.29,0,0,0,1.15-1.18l.9-1.09a1.67,1.67,0,0,0,.31-2C733.56,817.56,733.48,817.31,733.4,817.06Z"/><path class="cls-2" d="M679.2,813.46a5.07,5.07,0,0,1-.78,0,4.35,4.35,0,0,0-.89,0c-.7.08-1.18.5-1.56,1.41.34.67-.07,1.4-.46,2.11a3,3,0,0,0-.56,1.63,1.21,1.21,0,0,0,.54.84,2.39,2.39,0,0,0,1.65.32,2.72,2.72,0,0,0,1.37-.52c1.46-1.16,1.19-2.52.93-3.84A9.32,9.32,0,0,1,679.2,813.46Z"/><path class="cls-2" d="M381.53,810a2,2,0,0,0-1.19.44,3.57,3.57,0,0,0-1.76,2.52,3.85,3.85,0,0,0,1,2.64,4.69,4.69,0,0,0,.7.19l.24.06a4.76,4.76,0,0,0,.69.18,1.79,1.79,0,0,0,1.77-1.09,3.5,3.5,0,0,0,.27-.64c0-.06,0-.11.06-.18a7.16,7.16,0,0,0,.23-1.27l0-.13s0-.07,0-.12C383,811.36,382.53,810.06,381.53,810Z"/><path class="cls-2" d="M242.23,526.89a2,2,0,0,0,.37,0c1.58-.25,2.17-1.8,2.6-3.28-.53-1.16-1.17-2.39-2.1-2.41a1.13,1.13,0,0,0-.39.06,3.65,3.65,0,0,0-2.54,3.38,2.37,2.37,0,0,0,.55,1.54A2.06,2.06,0,0,0,242.23,526.89Z"/><path class="cls-2" d="M517.89,793.67a2.83,2.83,0,0,0,.89,2.25,4.59,4.59,0,0,1,.73.89c.42.6.85,1.21,1.49,1.2a1.73,1.73,0,0,0,1.09-.56q.16-2.4.33-4.8c2.22-5.13,2.15-7-.84-17.79-2.34.95-2.77,3.39-2.87,5.65a46.56,46.56,0,0,0,.73,11.85C518.53,792.67,518,793.1,517.89,793.67Z"/><path class="cls-2" d="M760.74,706.65a2,2,0,0,0,1.42-.56c.5-.61.56-1.86.66-4.84,1.38-1.71,1.87-3.23,1.5-4.65a7.79,7.79,0,0,0-2.11-3.16l-.58-.63c-.28-.33-.59-.61-.9-.9a6,6,0,0,1-2-2.85c-1.88-6.68-4.62-8.74-10.91-8.15l-.46,0a14.68,14.68,0,0,1-6.66-.46l-3.12-.71a1.85,1.85,0,0,0-1.75-1,2.23,2.23,0,0,1-1.46-.5,2.24,2.24,0,0,0,0-1,5.28,5.28,0,0,0-2.53-.63,3.37,3.37,0,0,0-2.51,1.86l-1.81,2.61a4.84,4.84,0,0,0-1.16.9A2.92,2.92,0,0,1,725,683a.83.83,0,0,1-.68-.3c-2.4-2.47-5.26-2.59-7.74-2.39-.84.07-1.69.18-2.54.3s-1.68.23-2.52.29c-.51,0-1,.07-1.52.06-.95,0-1.89,0-2.82.08-3.55.28-7.53,1.37-10,7.4a3.25,3.25,0,0,1-1.25,1.22,7.88,7.88,0,0,0-.71.53l-7.53,3.47c-1.93.48-3.12.92-3.51,1.78s0,1.92.7,3.51a3.75,3.75,0,0,1,1.68.6,3.68,3.68,0,0,0,1.81.61c.92-.07,1.53-1.12,1.89-3.28a4.71,4.71,0,0,1,2-.41,8.16,8.16,0,0,1,1.06,0c1,.07.93.93.85,1.84a6.41,6.41,0,0,0,0,.71c0,1-.08,2-.16,3a15,15,0,0,0,.27,6,3.72,3.72,0,0,0,.23,2.44.85.85,0,0,0,.81.34,2.55,2.55,0,0,0,1-.36,4.12,4.12,0,0,1,1.67-.56,3.7,3.7,0,0,1,1.68.28l.4,0a10.23,10.23,0,0,0,4.59-2.12,14.48,14.48,0,0,1,3.3-1.84,5.43,5.43,0,0,0,.85-.53l.39.1,1.19-.27a3.15,3.15,0,0,1,.51-.09c.25,0,.52,0,.78,0s.53,0,.79,0a2.29,2.29,0,0,0,2.16-1.89A3.8,3.8,0,0,0,713,698.8c-.12-.08-.1-.46-.09-.78a1,1,0,0,0,0-.42l3-1.74,2.89-1.76.71,1c-.1,1,0,2,1,2.18l2.24.39a54.66,54.66,0,0,0,5.89.82,7.28,7.28,0,0,0,1.15,0,6.59,6.59,0,0,0,4.45-2.61,4.93,4.93,0,0,1,3.15-1.9,4.11,4.11,0,0,1,3.73,2.18,7.83,7.83,0,0,0,7.7,3.86l.44-.06q5.45,3.43,10.87,6.8Z"/><path class="cls-2" d="M56.75,672.56a1.78,1.78,0,0,0,.39-.31c1.25-1.52.47-3.12-.46-4.46l-.49-.84a9.77,9.77,0,0,0-3.45-4.06L51,659.81a2.31,2.31,0,0,1-.56-1.55,2.35,2.35,0,0,0-.72-1.74,15,15,0,0,1-1.18-1,14.1,14.1,0,0,0-1.31-1.07c-.28-.19-.55-.4-.83-.61a6.37,6.37,0,0,0-2.61-1.43,1.72,1.72,0,0,0-1.43.45c-1.7,1.49-.65,3.8.59,5.85A14.38,14.38,0,0,0,48.14,666c2.12,1.63,3.33,4.17,4.49,6.62.35.74.7,1.48,1.07,2.19a3,3,0,0,0,2.16,1.88,3.13,3.13,0,0,0,1,0c.57-.1.86-.31.9-.63.05-.48-.5-1.11-1-1.65a1.78,1.78,0,0,1-.6-1C56.11,673,56.45,672.76,56.75,672.56Z"/><path class="cls-2" d="M41.3,649.24a2.33,2.33,0,0,1-.47-1.28c-.34-.52-.67-1.06-1-1.6a26.76,26.76,0,0,0-2.43-3.53,6.8,6.8,0,0,0-3.93-2.49,3,3,0,0,0-1.48.17c-1.41.55-.94,2.12-.52,3.51.13.42.25.83.32,1.21.24,1.24,1.09,1.56,1.92,1.88a5.17,5.17,0,0,1,1.43.78l.09.09.06,0,.07.05a3.46,3.46,0,0,1,1.85,1.22,5.22,5.22,0,0,0,1.21,1,5.94,5.94,0,0,1,.73.5,3.26,3.26,0,0,0,1.34.72,1.07,1.07,0,0,0,.91-.32C42.09,650.58,41.69,649.9,41.3,649.24Z"/><path class="cls-2" d="M101.63,732.59l-.39,0a.34.34,0,0,1-.31.06,2.91,2.91,0,0,1-.5-.16,3.35,3.35,0,0,0-.62-.19c-.52-.08-.8.18-.88.83-.16,1.2.68,1.93,1.49,2.64.18.15.36.31.52.47.4.39.81.77,1.21,1.15.75.7,1.49,1.39,2.19,2.14.18.19.35.4.53.61.53.63,1.08,1.29,1.68,1.38a1.3,1.3,0,0,0,1.18-.56c1.16-1.29,1-3.18-.45-5A8.58,8.58,0,0,0,101.63,732.59Z"/><path class="cls-2" d="M.69,583.37a4,4,0,0,0,3.66,2.8l.51.05c1.31.13,2.63.3,3.95.46l2,.25a0,0,0,0,0,0,0c-.16-3.62-2.28-4-4.34-4.47a11.27,11.27,0,0,1-2-.54l-2.46-.07A1.72,1.72,0,0,0,.69,583.37Z"/><path class="cls-2" d="M25.53,628.55l-2-2.2-.66-.71-.06-1-2.56-4.47a.88.88,0,0,0-.11-.68.81.81,0,0,0-.57-.3h0a2.48,2.48,0,0,1-.93-2,.83.83,0,0,0-.34-.12,1.27,1.27,0,0,0-.33,0h0c.12-2.25-1.49-3.55-3-4.75a2.62,2.62,0,0,0-.71-1.92c-.17-.24-.34-.48-.51-.76a2.08,2.08,0,0,0-.39-.08,2.43,2.43,0,0,0-1.79.7,2.32,2.32,0,0,1-1.76.67h0c-2-.22-2.89.78-2.9,3.13l-.75,1.61a2.52,2.52,0,0,0,.45,2.73l.94,1c0,1.45,1,2.31,1.94,3.13.29.26.58.52.84.78l.73,1.51c.13,1.63.53,3.44,2.49,4.4l.15.62.19.67,5.76,3.88c.11.24.21.48.31.77a3.44,3.44,0,0,0,1.79,1.11c.63.08,1.16-.29,1.54-1.11l1.48-1.39c2.22-.39,1.72-1.94,1.23-3.44A7.32,7.32,0,0,1,25.53,628.55Z"/><path class="cls-2" d="M4.53,601.84a2,2,0,0,0,.5-2.57l0-.48a9.82,9.82,0,0,0-1.3-5c-.16-2.82-2-5-3.39-6.37A3.7,3.7,0,0,0-2,586.23a3.66,3.66,0,0,0-2,.42c-.35.18-.52.39-.53.63s.29.7.59,1a1.83,1.83,0,0,1,.6,1.14s0,.06,0,.08h0s0,0,0,.06l.43.11c.57.13,1.09.26,1.3,1A2.29,2.29,0,0,0-1.45,592a1.73,1.73,0,0,1,0,1.45,12.28,12.28,0,0,1-.24,1.79,6.44,6.44,0,0,0,.21,4.18,4.65,4.65,0,0,0,.53,1.81l.08.13a2.63,2.63,0,0,0,.23.4,2.07,2.07,0,0,0,1.34.61,8.16,8.16,0,0,0,1.11,0,7.57,7.57,0,0,1,1.1,0,3,3,0,0,1,1,.27l.77-.07A.7.7,0,0,0,4.53,601.84Z"/><path class="cls-2" d="M636.49,836.25c-1.73.23-2.9,1.59-3.39,3.94a3.38,3.38,0,0,0,.08,1.8h0a1.89,1.89,0,0,0,.1.35.79.79,0,0,0,.78.39l.13,0A5.39,5.39,0,0,0,638,838.6a2.76,2.76,0,0,0-.32-1.94,1.17,1.17,0,0,0-1.16-.41Z"/><path class="cls-2" d="M555.18,753.14a1.75,1.75,0,0,0-.55-.08c-.76,0-1.27.67-1.77,1.28a5.78,5.78,0,0,1-1,1l-.26,1.73a5,5,0,0,0,.06,5.27l2.15,4a4.83,4.83,0,0,0,2.42,2.67h0a.07.07,0,0,0,0,0,1.31,1.31,0,0,1,.53-.68,1.23,1.23,0,0,0,.6-1.23,9.18,9.18,0,0,1,.72-4.11c.23-1.82.46-3.7-.49-5.29C557.55,755.78,557.25,753.67,555.18,753.14Z"/><path class="cls-2" d="M434.69,859.92c.84-.91.86-2.25.78-3.72a1.65,1.65,0,0,0,.6-.68,6.28,6.28,0,0,0,.74-4.2,6.17,6.17,0,0,0-3.06-3.69,11,11,0,0,0-5.72-2,7.86,7.86,0,0,0-3.67.83,4.53,4.53,0,0,0-3.46,3.93l-.71,1.4-.19.5,0,0h0l0,.06.24.08a4.19,4.19,0,0,0-.21,2.44l0,.52c0,.85-.1,1.7-.19,2.51-.68,2.42-2.61,3.5-4.43,4.3.08,1.29.35,2.69,1.64,3.29a5,5,0,0,0,4.37,2l1.12,0c2.51.07,5,.07,7.53.07l2.82-.07h.68a0,0,0,0,1,0,0h.05C432.93,864.88,432.63,862.14,434.69,859.92Z"/><path class="cls-2" d="M525.4,893.29l-2.1-2-.42-.57a5.94,5.94,0,0,0-2.63-2.41,7.43,7.43,0,0,0-3.79-2.88l-.83-.37-.81-1.24c-2.11-3.24-4.5-6.91-7-6.85a2.55,2.55,0,0,0-.74.13,29.39,29.39,0,0,1-8,1.13c-3.79.18-7.71.35-11.32,2.73-2.06,1.65-3,3-3.15,4.52-.14,1.64.74,3.47,2.94,6.14a5.07,5.07,0,0,0,4.18,1.74c.6,0,1.2-.08,1.8-.14s1.2-.13,1.79-.14a6.53,6.53,0,0,1,1.53.13,3.81,3.81,0,0,0,.9.07l.95,0c1.07,0,2.16.14,2.54,2.35,1.6,2.56,3.84,3.85,6.35,5.09a2,2,0,0,0,1.07,1.83c.32,3,2.14,3.83,3.9,4.59.45.19.9.39,1.36.62l.27-.07.24.27a2.11,2.11,0,0,0,1.27.49,1.17,1.17,0,0,0,.95-.54,1.63,1.63,0,0,0,1.14.72h0l2.71-1.14c.13-.12.26-.26.39-.4a2.93,2.93,0,0,1,.85-.71c3.92-1.65,5.81-3.2,6.3-5.18a4.39,4.39,0,0,0,0-.57c0-.07,0-.14,0-.21C528.21,898.55,527.42,896.41,525.4,893.29Z"/><path class="cls-2" d="M551.41,907.33a3.41,3.41,0,0,0-.74.12c-.15.18-.31.35-.47.53a5.89,5.89,0,0,0-1,1.24,4.64,4.64,0,0,1-1.74,1.58c-.8.51-1.55,1-1.79,1.85a2.72,2.72,0,0,0,.2,1.76,2,2,0,0,0,2.21,1.34,10.3,10.3,0,0,0,2.41-.57c.34-.11.68-.22,1-.31a1.88,1.88,0,0,0,.38-.18l.85-.68c1.06-.6,2.27-1.28,2.18-3.31C554.27,908.34,553.11,907.23,551.41,907.33Z"/></g><path class="cls-4" d="M476,326.89A151.81,151.81,0,1,0,250.67,459.62c21.53,79,73.54,162.11,73.54,162.11s52-83.14,73.55-162.11A151.7,151.7,0,0,0,476,326.89Z"/><path class="cls-6" d="M324.22,391.09a64.21,64.21,0,1,1,64.21-64.21h0A64.26,64.26,0,0,1,324.22,391.09Z"/></svg>